%TF.GenerationSoftware,KiCad,Pcbnew,7.0.2-1.fc38*%
%TF.CreationDate,2023-05-26T14:46:15+02:00*%
%TF.ProjectId,marauder_mini_pcb,6d617261-7564-4657-925f-6d696e695f70,rev?*%
%TF.SameCoordinates,Original*%
%TF.FileFunction,Legend,Top*%
%TF.FilePolarity,Positive*%
%FSLAX46Y46*%
G04 Gerber Fmt 4.6, Leading zero omitted, Abs format (unit mm)*
G04 Created by KiCad (PCBNEW 7.0.2-1.fc38) date 2023-05-26 14:46:15*
%MOMM*%
%LPD*%
G01*
G04 APERTURE LIST*
%ADD10C,0.120000*%
%ADD11C,0.170000*%
G04 APERTURE END LIST*
D10*
X70714285Y-69602095D02*
X71209523Y-69602095D01*
X71209523Y-69602095D02*
X70942857Y-69906857D01*
X70942857Y-69906857D02*
X71057142Y-69906857D01*
X71057142Y-69906857D02*
X71133333Y-69944952D01*
X71133333Y-69944952D02*
X71171428Y-69983047D01*
X71171428Y-69983047D02*
X71209523Y-70059238D01*
X71209523Y-70059238D02*
X71209523Y-70249714D01*
X71209523Y-70249714D02*
X71171428Y-70325904D01*
X71171428Y-70325904D02*
X71133333Y-70364000D01*
X71133333Y-70364000D02*
X71057142Y-70402095D01*
X71057142Y-70402095D02*
X70828571Y-70402095D01*
X70828571Y-70402095D02*
X70752380Y-70364000D01*
X70752380Y-70364000D02*
X70714285Y-70325904D01*
X71438095Y-69602095D02*
X71704762Y-70402095D01*
X71704762Y-70402095D02*
X71971428Y-69602095D01*
X72161904Y-69602095D02*
X72657142Y-69602095D01*
X72657142Y-69602095D02*
X72390476Y-69906857D01*
X72390476Y-69906857D02*
X72504761Y-69906857D01*
X72504761Y-69906857D02*
X72580952Y-69944952D01*
X72580952Y-69944952D02*
X72619047Y-69983047D01*
X72619047Y-69983047D02*
X72657142Y-70059238D01*
X72657142Y-70059238D02*
X72657142Y-70249714D01*
X72657142Y-70249714D02*
X72619047Y-70325904D01*
X72619047Y-70325904D02*
X72580952Y-70364000D01*
X72580952Y-70364000D02*
X72504761Y-70402095D01*
X72504761Y-70402095D02*
X72276190Y-70402095D01*
X72276190Y-70402095D02*
X72199999Y-70364000D01*
X72199999Y-70364000D02*
X72161904Y-70325904D01*
X94209523Y-69640190D02*
X94133333Y-69602095D01*
X94133333Y-69602095D02*
X94019047Y-69602095D01*
X94019047Y-69602095D02*
X93904761Y-69640190D01*
X93904761Y-69640190D02*
X93828571Y-69716380D01*
X93828571Y-69716380D02*
X93790476Y-69792571D01*
X93790476Y-69792571D02*
X93752380Y-69944952D01*
X93752380Y-69944952D02*
X93752380Y-70059238D01*
X93752380Y-70059238D02*
X93790476Y-70211619D01*
X93790476Y-70211619D02*
X93828571Y-70287809D01*
X93828571Y-70287809D02*
X93904761Y-70364000D01*
X93904761Y-70364000D02*
X94019047Y-70402095D01*
X94019047Y-70402095D02*
X94095238Y-70402095D01*
X94095238Y-70402095D02*
X94209523Y-70364000D01*
X94209523Y-70364000D02*
X94247619Y-70325904D01*
X94247619Y-70325904D02*
X94247619Y-70059238D01*
X94247619Y-70059238D02*
X94095238Y-70059238D01*
X94590476Y-70402095D02*
X94590476Y-69602095D01*
X94590476Y-69602095D02*
X95047619Y-70402095D01*
X95047619Y-70402095D02*
X95047619Y-69602095D01*
X95428571Y-70402095D02*
X95428571Y-69602095D01*
X95428571Y-69602095D02*
X95619047Y-69602095D01*
X95619047Y-69602095D02*
X95733333Y-69640190D01*
X95733333Y-69640190D02*
X95809523Y-69716380D01*
X95809523Y-69716380D02*
X95847618Y-69792571D01*
X95847618Y-69792571D02*
X95885714Y-69944952D01*
X95885714Y-69944952D02*
X95885714Y-70059238D01*
X95885714Y-70059238D02*
X95847618Y-70211619D01*
X95847618Y-70211619D02*
X95809523Y-70287809D01*
X95809523Y-70287809D02*
X95733333Y-70364000D01*
X95733333Y-70364000D02*
X95619047Y-70402095D01*
X95619047Y-70402095D02*
X95428571Y-70402095D01*
D11*
X75107142Y-56530714D02*
X75607142Y-56530714D01*
X75821428Y-57316428D02*
X75107142Y-57316428D01*
X75107142Y-57316428D02*
X75107142Y-55816428D01*
X75107142Y-55816428D02*
X75821428Y-55816428D01*
X76392857Y-57245000D02*
X76607143Y-57316428D01*
X76607143Y-57316428D02*
X76964285Y-57316428D01*
X76964285Y-57316428D02*
X77107143Y-57245000D01*
X77107143Y-57245000D02*
X77178571Y-57173571D01*
X77178571Y-57173571D02*
X77250000Y-57030714D01*
X77250000Y-57030714D02*
X77250000Y-56887857D01*
X77250000Y-56887857D02*
X77178571Y-56745000D01*
X77178571Y-56745000D02*
X77107143Y-56673571D01*
X77107143Y-56673571D02*
X76964285Y-56602142D01*
X76964285Y-56602142D02*
X76678571Y-56530714D01*
X76678571Y-56530714D02*
X76535714Y-56459285D01*
X76535714Y-56459285D02*
X76464285Y-56387857D01*
X76464285Y-56387857D02*
X76392857Y-56245000D01*
X76392857Y-56245000D02*
X76392857Y-56102142D01*
X76392857Y-56102142D02*
X76464285Y-55959285D01*
X76464285Y-55959285D02*
X76535714Y-55887857D01*
X76535714Y-55887857D02*
X76678571Y-55816428D01*
X76678571Y-55816428D02*
X77035714Y-55816428D01*
X77035714Y-55816428D02*
X77250000Y-55887857D01*
X77892856Y-57316428D02*
X77892856Y-55816428D01*
X77892856Y-55816428D02*
X78464285Y-55816428D01*
X78464285Y-55816428D02*
X78607142Y-55887857D01*
X78607142Y-55887857D02*
X78678571Y-55959285D01*
X78678571Y-55959285D02*
X78749999Y-56102142D01*
X78749999Y-56102142D02*
X78749999Y-56316428D01*
X78749999Y-56316428D02*
X78678571Y-56459285D01*
X78678571Y-56459285D02*
X78607142Y-56530714D01*
X78607142Y-56530714D02*
X78464285Y-56602142D01*
X78464285Y-56602142D02*
X77892856Y-56602142D01*
X79249999Y-55816428D02*
X80178571Y-55816428D01*
X80178571Y-55816428D02*
X79678571Y-56387857D01*
X79678571Y-56387857D02*
X79892856Y-56387857D01*
X79892856Y-56387857D02*
X80035714Y-56459285D01*
X80035714Y-56459285D02*
X80107142Y-56530714D01*
X80107142Y-56530714D02*
X80178571Y-56673571D01*
X80178571Y-56673571D02*
X80178571Y-57030714D01*
X80178571Y-57030714D02*
X80107142Y-57173571D01*
X80107142Y-57173571D02*
X80035714Y-57245000D01*
X80035714Y-57245000D02*
X79892856Y-57316428D01*
X79892856Y-57316428D02*
X79464285Y-57316428D01*
X79464285Y-57316428D02*
X79321428Y-57245000D01*
X79321428Y-57245000D02*
X79249999Y-57173571D01*
X80749999Y-55959285D02*
X80821427Y-55887857D01*
X80821427Y-55887857D02*
X80964285Y-55816428D01*
X80964285Y-55816428D02*
X81321427Y-55816428D01*
X81321427Y-55816428D02*
X81464285Y-55887857D01*
X81464285Y-55887857D02*
X81535713Y-55959285D01*
X81535713Y-55959285D02*
X81607142Y-56102142D01*
X81607142Y-56102142D02*
X81607142Y-56245000D01*
X81607142Y-56245000D02*
X81535713Y-56459285D01*
X81535713Y-56459285D02*
X80678570Y-57316428D01*
X80678570Y-57316428D02*
X81607142Y-57316428D01*
X82249998Y-56745000D02*
X83392856Y-56745000D01*
X84035713Y-57245000D02*
X84249999Y-57316428D01*
X84249999Y-57316428D02*
X84607141Y-57316428D01*
X84607141Y-57316428D02*
X84749999Y-57245000D01*
X84749999Y-57245000D02*
X84821427Y-57173571D01*
X84821427Y-57173571D02*
X84892856Y-57030714D01*
X84892856Y-57030714D02*
X84892856Y-56887857D01*
X84892856Y-56887857D02*
X84821427Y-56745000D01*
X84821427Y-56745000D02*
X84749999Y-56673571D01*
X84749999Y-56673571D02*
X84607141Y-56602142D01*
X84607141Y-56602142D02*
X84321427Y-56530714D01*
X84321427Y-56530714D02*
X84178570Y-56459285D01*
X84178570Y-56459285D02*
X84107141Y-56387857D01*
X84107141Y-56387857D02*
X84035713Y-56245000D01*
X84035713Y-56245000D02*
X84035713Y-56102142D01*
X84035713Y-56102142D02*
X84107141Y-55959285D01*
X84107141Y-55959285D02*
X84178570Y-55887857D01*
X84178570Y-55887857D02*
X84321427Y-55816428D01*
X84321427Y-55816428D02*
X84678570Y-55816428D01*
X84678570Y-55816428D02*
X84892856Y-55887857D01*
D10*
%TO.C,LED*%
X95370095Y-61764285D02*
X95370095Y-62145237D01*
X95370095Y-62145237D02*
X94570095Y-62145237D01*
X94951047Y-61497618D02*
X94951047Y-61230952D01*
X95370095Y-61116666D02*
X95370095Y-61497618D01*
X95370095Y-61497618D02*
X94570095Y-61497618D01*
X94570095Y-61497618D02*
X94570095Y-61116666D01*
X95370095Y-60773808D02*
X94570095Y-60773808D01*
X94570095Y-60773808D02*
X94570095Y-60583332D01*
X94570095Y-60583332D02*
X94608190Y-60469046D01*
X94608190Y-60469046D02*
X94684380Y-60392856D01*
X94684380Y-60392856D02*
X94760571Y-60354761D01*
X94760571Y-60354761D02*
X94912952Y-60316665D01*
X94912952Y-60316665D02*
X95027238Y-60316665D01*
X95027238Y-60316665D02*
X95179619Y-60354761D01*
X95179619Y-60354761D02*
X95255809Y-60392856D01*
X95255809Y-60392856D02*
X95332000Y-60469046D01*
X95332000Y-60469046D02*
X95370095Y-60583332D01*
X95370095Y-60583332D02*
X95370095Y-60773808D01*
%TO.C,EN*%
X95351047Y-66790475D02*
X95351047Y-66523809D01*
X95770095Y-66409523D02*
X95770095Y-66790475D01*
X95770095Y-66790475D02*
X94970095Y-66790475D01*
X94970095Y-66790475D02*
X94970095Y-66409523D01*
X95770095Y-66066665D02*
X94970095Y-66066665D01*
X94970095Y-66066665D02*
X95770095Y-65609522D01*
X95770095Y-65609522D02*
X94970095Y-65609522D01*
%TO.C,LED*%
X92661252Y-61935000D02*
X92138748Y-61935000D01*
X92661252Y-60465000D02*
X92138748Y-60465000D01*
%TO.C,U1*%
X71030000Y-49925000D02*
X71030000Y-50345000D01*
X71030000Y-49925000D02*
X89270000Y-49925000D01*
X71030000Y-50345000D02*
X70650000Y-50345000D01*
X71030000Y-68745000D02*
X71030000Y-69365000D01*
X71030000Y-69365000D02*
X72030000Y-69365000D01*
X89270000Y-49925000D02*
X89270000Y-50345000D01*
X89270000Y-68745000D02*
X89270000Y-69365000D01*
X89270000Y-69365000D02*
X88270000Y-69365000D01*
%TO.C,EN*%
X94650000Y-63150000D02*
X94000000Y-63150000D01*
X91600000Y-63150000D02*
X90950000Y-63150000D01*
X90950000Y-63150000D02*
X90950000Y-69350000D01*
X94650000Y-69350000D02*
X94650000Y-63150000D01*
X94650000Y-69350000D02*
X94000000Y-69350000D01*
X90950000Y-69350000D02*
X91600000Y-69350000D01*
%TD*%
M02*
