%TF.GenerationSoftware,KiCad,Pcbnew,7.0.2-1.fc38*%
%TF.CreationDate,2023-06-06T11:06:49+02:00*%
%TF.ProjectId,marauder_mini_pcb,6d617261-7564-4657-925f-6d696e695f70,rev?*%
%TF.SameCoordinates,Original*%
%TF.FileFunction,Legend,Bot*%
%TF.FilePolarity,Positive*%
%FSLAX46Y46*%
G04 Gerber Fmt 4.6, Leading zero omitted, Abs format (unit mm)*
G04 Created by KiCad (PCBNEW 7.0.2-1.fc38) date 2023-06-06 11:06:49*
%MOMM*%
%LPD*%
G01*
G04 APERTURE LIST*
%ADD10C,0.150000*%
%ADD11C,0.120000*%
G04 APERTURE END LIST*
D10*
X75922380Y-65971428D02*
X75922380Y-65780952D01*
X75922380Y-65780952D02*
X75874761Y-65685714D01*
X75874761Y-65685714D02*
X75779523Y-65590476D01*
X75779523Y-65590476D02*
X75589047Y-65542857D01*
X75589047Y-65542857D02*
X75255714Y-65542857D01*
X75255714Y-65542857D02*
X75065238Y-65590476D01*
X75065238Y-65590476D02*
X74970000Y-65685714D01*
X74970000Y-65685714D02*
X74922380Y-65780952D01*
X74922380Y-65780952D02*
X74922380Y-65971428D01*
X74922380Y-65971428D02*
X74970000Y-66066666D01*
X74970000Y-66066666D02*
X75065238Y-66161904D01*
X75065238Y-66161904D02*
X75255714Y-66209523D01*
X75255714Y-66209523D02*
X75589047Y-66209523D01*
X75589047Y-66209523D02*
X75779523Y-66161904D01*
X75779523Y-66161904D02*
X75874761Y-66066666D01*
X75874761Y-66066666D02*
X75922380Y-65971428D01*
X75589047Y-65114285D02*
X74922380Y-65114285D01*
X75493809Y-65114285D02*
X75541428Y-65066666D01*
X75541428Y-65066666D02*
X75589047Y-64971428D01*
X75589047Y-64971428D02*
X75589047Y-64828571D01*
X75589047Y-64828571D02*
X75541428Y-64733333D01*
X75541428Y-64733333D02*
X75446190Y-64685714D01*
X75446190Y-64685714D02*
X74922380Y-64685714D01*
X84922380Y-70304761D02*
X84922380Y-69733333D01*
X83922380Y-70019047D02*
X84922380Y-70019047D01*
X84922380Y-69495237D02*
X83922380Y-68828571D01*
X84922380Y-68828571D02*
X83922380Y-69495237D01*
X84922380Y-68257142D02*
X84922380Y-68161904D01*
X84922380Y-68161904D02*
X84874761Y-68066666D01*
X84874761Y-68066666D02*
X84827142Y-68019047D01*
X84827142Y-68019047D02*
X84731904Y-67971428D01*
X84731904Y-67971428D02*
X84541428Y-67923809D01*
X84541428Y-67923809D02*
X84303333Y-67923809D01*
X84303333Y-67923809D02*
X84112857Y-67971428D01*
X84112857Y-67971428D02*
X84017619Y-68019047D01*
X84017619Y-68019047D02*
X83970000Y-68066666D01*
X83970000Y-68066666D02*
X83922380Y-68161904D01*
X83922380Y-68161904D02*
X83922380Y-68257142D01*
X83922380Y-68257142D02*
X83970000Y-68352380D01*
X83970000Y-68352380D02*
X84017619Y-68399999D01*
X84017619Y-68399999D02*
X84112857Y-68447618D01*
X84112857Y-68447618D02*
X84303333Y-68495237D01*
X84303333Y-68495237D02*
X84541428Y-68495237D01*
X84541428Y-68495237D02*
X84731904Y-68447618D01*
X84731904Y-68447618D02*
X84827142Y-68399999D01*
X84827142Y-68399999D02*
X84874761Y-68352380D01*
X84874761Y-68352380D02*
X84922380Y-68257142D01*
X79421428Y-51186190D02*
X79088095Y-51186190D01*
X79088095Y-50662380D02*
X79088095Y-51662380D01*
X79088095Y-51662380D02*
X79564285Y-51662380D01*
X80088095Y-50662380D02*
X79992857Y-50710000D01*
X79992857Y-50710000D02*
X79945238Y-50805238D01*
X79945238Y-50805238D02*
X79945238Y-51662380D01*
X80469048Y-50662380D02*
X80469048Y-51329047D01*
X80469048Y-51662380D02*
X80421429Y-51614761D01*
X80421429Y-51614761D02*
X80469048Y-51567142D01*
X80469048Y-51567142D02*
X80516667Y-51614761D01*
X80516667Y-51614761D02*
X80469048Y-51662380D01*
X80469048Y-51662380D02*
X80469048Y-51567142D01*
X80945238Y-51329047D02*
X80945238Y-50329047D01*
X80945238Y-51281428D02*
X81040476Y-51329047D01*
X81040476Y-51329047D02*
X81230952Y-51329047D01*
X81230952Y-51329047D02*
X81326190Y-51281428D01*
X81326190Y-51281428D02*
X81373809Y-51233809D01*
X81373809Y-51233809D02*
X81421428Y-51138571D01*
X81421428Y-51138571D02*
X81421428Y-50852857D01*
X81421428Y-50852857D02*
X81373809Y-50757619D01*
X81373809Y-50757619D02*
X81326190Y-50710000D01*
X81326190Y-50710000D02*
X81230952Y-50662380D01*
X81230952Y-50662380D02*
X81040476Y-50662380D01*
X81040476Y-50662380D02*
X80945238Y-50710000D01*
X81850000Y-51329047D02*
X81850000Y-50329047D01*
X81850000Y-51281428D02*
X81945238Y-51329047D01*
X81945238Y-51329047D02*
X82135714Y-51329047D01*
X82135714Y-51329047D02*
X82230952Y-51281428D01*
X82230952Y-51281428D02*
X82278571Y-51233809D01*
X82278571Y-51233809D02*
X82326190Y-51138571D01*
X82326190Y-51138571D02*
X82326190Y-50852857D01*
X82326190Y-50852857D02*
X82278571Y-50757619D01*
X82278571Y-50757619D02*
X82230952Y-50710000D01*
X82230952Y-50710000D02*
X82135714Y-50662380D01*
X82135714Y-50662380D02*
X81945238Y-50662380D01*
X81945238Y-50662380D02*
X81850000Y-50710000D01*
X83135714Y-50710000D02*
X83040476Y-50662380D01*
X83040476Y-50662380D02*
X82850000Y-50662380D01*
X82850000Y-50662380D02*
X82754762Y-50710000D01*
X82754762Y-50710000D02*
X82707143Y-50805238D01*
X82707143Y-50805238D02*
X82707143Y-51186190D01*
X82707143Y-51186190D02*
X82754762Y-51281428D01*
X82754762Y-51281428D02*
X82850000Y-51329047D01*
X82850000Y-51329047D02*
X83040476Y-51329047D01*
X83040476Y-51329047D02*
X83135714Y-51281428D01*
X83135714Y-51281428D02*
X83183333Y-51186190D01*
X83183333Y-51186190D02*
X83183333Y-51090952D01*
X83183333Y-51090952D02*
X82707143Y-50995714D01*
X83611905Y-50662380D02*
X83611905Y-51329047D01*
X83611905Y-51138571D02*
X83659524Y-51233809D01*
X83659524Y-51233809D02*
X83707143Y-51281428D01*
X83707143Y-51281428D02*
X83802381Y-51329047D01*
X83802381Y-51329047D02*
X83897619Y-51329047D01*
X84992858Y-51186190D02*
X85326191Y-51186190D01*
X85469048Y-50662380D02*
X84992858Y-50662380D01*
X84992858Y-50662380D02*
X84992858Y-51662380D01*
X84992858Y-51662380D02*
X85469048Y-51662380D01*
X85850001Y-50710000D02*
X85992858Y-50662380D01*
X85992858Y-50662380D02*
X86230953Y-50662380D01*
X86230953Y-50662380D02*
X86326191Y-50710000D01*
X86326191Y-50710000D02*
X86373810Y-50757619D01*
X86373810Y-50757619D02*
X86421429Y-50852857D01*
X86421429Y-50852857D02*
X86421429Y-50948095D01*
X86421429Y-50948095D02*
X86373810Y-51043333D01*
X86373810Y-51043333D02*
X86326191Y-51090952D01*
X86326191Y-51090952D02*
X86230953Y-51138571D01*
X86230953Y-51138571D02*
X86040477Y-51186190D01*
X86040477Y-51186190D02*
X85945239Y-51233809D01*
X85945239Y-51233809D02*
X85897620Y-51281428D01*
X85897620Y-51281428D02*
X85850001Y-51376666D01*
X85850001Y-51376666D02*
X85850001Y-51471904D01*
X85850001Y-51471904D02*
X85897620Y-51567142D01*
X85897620Y-51567142D02*
X85945239Y-51614761D01*
X85945239Y-51614761D02*
X86040477Y-51662380D01*
X86040477Y-51662380D02*
X86278572Y-51662380D01*
X86278572Y-51662380D02*
X86421429Y-51614761D01*
X86850001Y-50662380D02*
X86850001Y-51662380D01*
X86850001Y-51662380D02*
X87230953Y-51662380D01*
X87230953Y-51662380D02*
X87326191Y-51614761D01*
X87326191Y-51614761D02*
X87373810Y-51567142D01*
X87373810Y-51567142D02*
X87421429Y-51471904D01*
X87421429Y-51471904D02*
X87421429Y-51329047D01*
X87421429Y-51329047D02*
X87373810Y-51233809D01*
X87373810Y-51233809D02*
X87326191Y-51186190D01*
X87326191Y-51186190D02*
X87230953Y-51138571D01*
X87230953Y-51138571D02*
X86850001Y-51138571D01*
X87754763Y-51662380D02*
X88373810Y-51662380D01*
X88373810Y-51662380D02*
X88040477Y-51281428D01*
X88040477Y-51281428D02*
X88183334Y-51281428D01*
X88183334Y-51281428D02*
X88278572Y-51233809D01*
X88278572Y-51233809D02*
X88326191Y-51186190D01*
X88326191Y-51186190D02*
X88373810Y-51090952D01*
X88373810Y-51090952D02*
X88373810Y-50852857D01*
X88373810Y-50852857D02*
X88326191Y-50757619D01*
X88326191Y-50757619D02*
X88278572Y-50710000D01*
X88278572Y-50710000D02*
X88183334Y-50662380D01*
X88183334Y-50662380D02*
X87897620Y-50662380D01*
X87897620Y-50662380D02*
X87802382Y-50710000D01*
X87802382Y-50710000D02*
X87754763Y-50757619D01*
X88754763Y-51567142D02*
X88802382Y-51614761D01*
X88802382Y-51614761D02*
X88897620Y-51662380D01*
X88897620Y-51662380D02*
X89135715Y-51662380D01*
X89135715Y-51662380D02*
X89230953Y-51614761D01*
X89230953Y-51614761D02*
X89278572Y-51567142D01*
X89278572Y-51567142D02*
X89326191Y-51471904D01*
X89326191Y-51471904D02*
X89326191Y-51376666D01*
X89326191Y-51376666D02*
X89278572Y-51233809D01*
X89278572Y-51233809D02*
X88707144Y-50662380D01*
X88707144Y-50662380D02*
X89326191Y-50662380D01*
X90373811Y-51662380D02*
X90707144Y-50662380D01*
X90707144Y-50662380D02*
X91040477Y-51662380D01*
X91326192Y-51567142D02*
X91373811Y-51614761D01*
X91373811Y-51614761D02*
X91469049Y-51662380D01*
X91469049Y-51662380D02*
X91707144Y-51662380D01*
X91707144Y-51662380D02*
X91802382Y-51614761D01*
X91802382Y-51614761D02*
X91850001Y-51567142D01*
X91850001Y-51567142D02*
X91897620Y-51471904D01*
X91897620Y-51471904D02*
X91897620Y-51376666D01*
X91897620Y-51376666D02*
X91850001Y-51233809D01*
X91850001Y-51233809D02*
X91278573Y-50662380D01*
X91278573Y-50662380D02*
X91897620Y-50662380D01*
X75922380Y-62771428D02*
X75922380Y-62580952D01*
X75922380Y-62580952D02*
X75874761Y-62485714D01*
X75874761Y-62485714D02*
X75779523Y-62390476D01*
X75779523Y-62390476D02*
X75589047Y-62342857D01*
X75589047Y-62342857D02*
X75255714Y-62342857D01*
X75255714Y-62342857D02*
X75065238Y-62390476D01*
X75065238Y-62390476D02*
X74970000Y-62485714D01*
X74970000Y-62485714D02*
X74922380Y-62580952D01*
X74922380Y-62580952D02*
X74922380Y-62771428D01*
X74922380Y-62771428D02*
X74970000Y-62866666D01*
X74970000Y-62866666D02*
X75065238Y-62961904D01*
X75065238Y-62961904D02*
X75255714Y-63009523D01*
X75255714Y-63009523D02*
X75589047Y-63009523D01*
X75589047Y-63009523D02*
X75779523Y-62961904D01*
X75779523Y-62961904D02*
X75874761Y-62866666D01*
X75874761Y-62866666D02*
X75922380Y-62771428D01*
X75589047Y-62057142D02*
X75589047Y-61676190D01*
X74922380Y-61914285D02*
X75779523Y-61914285D01*
X75779523Y-61914285D02*
X75874761Y-61866666D01*
X75874761Y-61866666D02*
X75922380Y-61771428D01*
X75922380Y-61771428D02*
X75922380Y-61676190D01*
X75589047Y-61485713D02*
X75589047Y-61104761D01*
X74922380Y-61342856D02*
X75779523Y-61342856D01*
X75779523Y-61342856D02*
X75874761Y-61295237D01*
X75874761Y-61295237D02*
X75922380Y-61199999D01*
X75922380Y-61199999D02*
X75922380Y-61104761D01*
X72122380Y-70457142D02*
X72122380Y-69838095D01*
X72122380Y-69838095D02*
X71741428Y-70171428D01*
X71741428Y-70171428D02*
X71741428Y-70028571D01*
X71741428Y-70028571D02*
X71693809Y-69933333D01*
X71693809Y-69933333D02*
X71646190Y-69885714D01*
X71646190Y-69885714D02*
X71550952Y-69838095D01*
X71550952Y-69838095D02*
X71312857Y-69838095D01*
X71312857Y-69838095D02*
X71217619Y-69885714D01*
X71217619Y-69885714D02*
X71170000Y-69933333D01*
X71170000Y-69933333D02*
X71122380Y-70028571D01*
X71122380Y-70028571D02*
X71122380Y-70314285D01*
X71122380Y-70314285D02*
X71170000Y-70409523D01*
X71170000Y-70409523D02*
X71217619Y-70457142D01*
X72122380Y-69552380D02*
X71122380Y-69219047D01*
X71122380Y-69219047D02*
X72122380Y-68885714D01*
X72122380Y-68647618D02*
X72122380Y-68028571D01*
X72122380Y-68028571D02*
X71741428Y-68361904D01*
X71741428Y-68361904D02*
X71741428Y-68219047D01*
X71741428Y-68219047D02*
X71693809Y-68123809D01*
X71693809Y-68123809D02*
X71646190Y-68076190D01*
X71646190Y-68076190D02*
X71550952Y-68028571D01*
X71550952Y-68028571D02*
X71312857Y-68028571D01*
X71312857Y-68028571D02*
X71217619Y-68076190D01*
X71217619Y-68076190D02*
X71170000Y-68123809D01*
X71170000Y-68123809D02*
X71122380Y-68219047D01*
X71122380Y-68219047D02*
X71122380Y-68504761D01*
X71122380Y-68504761D02*
X71170000Y-68599999D01*
X71170000Y-68599999D02*
X71217619Y-68647618D01*
X95774761Y-69738095D02*
X95822380Y-69833333D01*
X95822380Y-69833333D02*
X95822380Y-69976190D01*
X95822380Y-69976190D02*
X95774761Y-70119047D01*
X95774761Y-70119047D02*
X95679523Y-70214285D01*
X95679523Y-70214285D02*
X95584285Y-70261904D01*
X95584285Y-70261904D02*
X95393809Y-70309523D01*
X95393809Y-70309523D02*
X95250952Y-70309523D01*
X95250952Y-70309523D02*
X95060476Y-70261904D01*
X95060476Y-70261904D02*
X94965238Y-70214285D01*
X94965238Y-70214285D02*
X94870000Y-70119047D01*
X94870000Y-70119047D02*
X94822380Y-69976190D01*
X94822380Y-69976190D02*
X94822380Y-69880952D01*
X94822380Y-69880952D02*
X94870000Y-69738095D01*
X94870000Y-69738095D02*
X94917619Y-69690476D01*
X94917619Y-69690476D02*
X95250952Y-69690476D01*
X95250952Y-69690476D02*
X95250952Y-69880952D01*
X94822380Y-69261904D02*
X95822380Y-69261904D01*
X95822380Y-69261904D02*
X94822380Y-68690476D01*
X94822380Y-68690476D02*
X95822380Y-68690476D01*
X94822380Y-68214285D02*
X95822380Y-68214285D01*
X95822380Y-68214285D02*
X95822380Y-67976190D01*
X95822380Y-67976190D02*
X95774761Y-67833333D01*
X95774761Y-67833333D02*
X95679523Y-67738095D01*
X95679523Y-67738095D02*
X95584285Y-67690476D01*
X95584285Y-67690476D02*
X95393809Y-67642857D01*
X95393809Y-67642857D02*
X95250952Y-67642857D01*
X95250952Y-67642857D02*
X95060476Y-67690476D01*
X95060476Y-67690476D02*
X94965238Y-67738095D01*
X94965238Y-67738095D02*
X94870000Y-67833333D01*
X94870000Y-67833333D02*
X94822380Y-67976190D01*
X94822380Y-67976190D02*
X94822380Y-68214285D01*
X82288095Y-52462380D02*
X82288095Y-53462380D01*
X82288095Y-53462380D02*
X82526190Y-53462380D01*
X82526190Y-53462380D02*
X82669047Y-53414761D01*
X82669047Y-53414761D02*
X82764285Y-53319523D01*
X82764285Y-53319523D02*
X82811904Y-53224285D01*
X82811904Y-53224285D02*
X82859523Y-53033809D01*
X82859523Y-53033809D02*
X82859523Y-52890952D01*
X82859523Y-52890952D02*
X82811904Y-52700476D01*
X82811904Y-52700476D02*
X82764285Y-52605238D01*
X82764285Y-52605238D02*
X82669047Y-52510000D01*
X82669047Y-52510000D02*
X82526190Y-52462380D01*
X82526190Y-52462380D02*
X82288095Y-52462380D01*
X83716666Y-52462380D02*
X83716666Y-52986190D01*
X83716666Y-52986190D02*
X83669047Y-53081428D01*
X83669047Y-53081428D02*
X83573809Y-53129047D01*
X83573809Y-53129047D02*
X83383333Y-53129047D01*
X83383333Y-53129047D02*
X83288095Y-53081428D01*
X83716666Y-52510000D02*
X83621428Y-52462380D01*
X83621428Y-52462380D02*
X83383333Y-52462380D01*
X83383333Y-52462380D02*
X83288095Y-52510000D01*
X83288095Y-52510000D02*
X83240476Y-52605238D01*
X83240476Y-52605238D02*
X83240476Y-52700476D01*
X83240476Y-52700476D02*
X83288095Y-52795714D01*
X83288095Y-52795714D02*
X83383333Y-52843333D01*
X83383333Y-52843333D02*
X83621428Y-52843333D01*
X83621428Y-52843333D02*
X83716666Y-52890952D01*
X84621428Y-52462380D02*
X84621428Y-53462380D01*
X84621428Y-52510000D02*
X84526190Y-52462380D01*
X84526190Y-52462380D02*
X84335714Y-52462380D01*
X84335714Y-52462380D02*
X84240476Y-52510000D01*
X84240476Y-52510000D02*
X84192857Y-52557619D01*
X84192857Y-52557619D02*
X84145238Y-52652857D01*
X84145238Y-52652857D02*
X84145238Y-52938571D01*
X84145238Y-52938571D02*
X84192857Y-53033809D01*
X84192857Y-53033809D02*
X84240476Y-53081428D01*
X84240476Y-53081428D02*
X84335714Y-53129047D01*
X84335714Y-53129047D02*
X84526190Y-53129047D01*
X84526190Y-53129047D02*
X84621428Y-53081428D01*
X85478571Y-52510000D02*
X85383333Y-52462380D01*
X85383333Y-52462380D02*
X85192857Y-52462380D01*
X85192857Y-52462380D02*
X85097619Y-52510000D01*
X85097619Y-52510000D02*
X85050000Y-52605238D01*
X85050000Y-52605238D02*
X85050000Y-52986190D01*
X85050000Y-52986190D02*
X85097619Y-53081428D01*
X85097619Y-53081428D02*
X85192857Y-53129047D01*
X85192857Y-53129047D02*
X85383333Y-53129047D01*
X85383333Y-53129047D02*
X85478571Y-53081428D01*
X85478571Y-53081428D02*
X85526190Y-52986190D01*
X85526190Y-52986190D02*
X85526190Y-52890952D01*
X85526190Y-52890952D02*
X85050000Y-52795714D01*
X85859524Y-53462380D02*
X86478571Y-53462380D01*
X86478571Y-53462380D02*
X86145238Y-53081428D01*
X86145238Y-53081428D02*
X86288095Y-53081428D01*
X86288095Y-53081428D02*
X86383333Y-53033809D01*
X86383333Y-53033809D02*
X86430952Y-52986190D01*
X86430952Y-52986190D02*
X86478571Y-52890952D01*
X86478571Y-52890952D02*
X86478571Y-52652857D01*
X86478571Y-52652857D02*
X86430952Y-52557619D01*
X86430952Y-52557619D02*
X86383333Y-52510000D01*
X86383333Y-52510000D02*
X86288095Y-52462380D01*
X86288095Y-52462380D02*
X86002381Y-52462380D01*
X86002381Y-52462380D02*
X85907143Y-52510000D01*
X85907143Y-52510000D02*
X85859524Y-52557619D01*
X87288095Y-52510000D02*
X87192857Y-52462380D01*
X87192857Y-52462380D02*
X87002381Y-52462380D01*
X87002381Y-52462380D02*
X86907143Y-52510000D01*
X86907143Y-52510000D02*
X86859524Y-52605238D01*
X86859524Y-52605238D02*
X86859524Y-52986190D01*
X86859524Y-52986190D02*
X86907143Y-53081428D01*
X86907143Y-53081428D02*
X87002381Y-53129047D01*
X87002381Y-53129047D02*
X87192857Y-53129047D01*
X87192857Y-53129047D02*
X87288095Y-53081428D01*
X87288095Y-53081428D02*
X87335714Y-52986190D01*
X87335714Y-52986190D02*
X87335714Y-52890952D01*
X87335714Y-52890952D02*
X86859524Y-52795714D01*
X88478572Y-53367142D02*
X88526191Y-53414761D01*
X88526191Y-53414761D02*
X88621429Y-53462380D01*
X88621429Y-53462380D02*
X88859524Y-53462380D01*
X88859524Y-53462380D02*
X88954762Y-53414761D01*
X88954762Y-53414761D02*
X89002381Y-53367142D01*
X89002381Y-53367142D02*
X89050000Y-53271904D01*
X89050000Y-53271904D02*
X89050000Y-53176666D01*
X89050000Y-53176666D02*
X89002381Y-53033809D01*
X89002381Y-53033809D02*
X88430953Y-52462380D01*
X88430953Y-52462380D02*
X89050000Y-52462380D01*
X89669048Y-53462380D02*
X89764286Y-53462380D01*
X89764286Y-53462380D02*
X89859524Y-53414761D01*
X89859524Y-53414761D02*
X89907143Y-53367142D01*
X89907143Y-53367142D02*
X89954762Y-53271904D01*
X89954762Y-53271904D02*
X90002381Y-53081428D01*
X90002381Y-53081428D02*
X90002381Y-52843333D01*
X90002381Y-52843333D02*
X89954762Y-52652857D01*
X89954762Y-52652857D02*
X89907143Y-52557619D01*
X89907143Y-52557619D02*
X89859524Y-52510000D01*
X89859524Y-52510000D02*
X89764286Y-52462380D01*
X89764286Y-52462380D02*
X89669048Y-52462380D01*
X89669048Y-52462380D02*
X89573810Y-52510000D01*
X89573810Y-52510000D02*
X89526191Y-52557619D01*
X89526191Y-52557619D02*
X89478572Y-52652857D01*
X89478572Y-52652857D02*
X89430953Y-52843333D01*
X89430953Y-52843333D02*
X89430953Y-53081428D01*
X89430953Y-53081428D02*
X89478572Y-53271904D01*
X89478572Y-53271904D02*
X89526191Y-53367142D01*
X89526191Y-53367142D02*
X89573810Y-53414761D01*
X89573810Y-53414761D02*
X89669048Y-53462380D01*
X90383334Y-53367142D02*
X90430953Y-53414761D01*
X90430953Y-53414761D02*
X90526191Y-53462380D01*
X90526191Y-53462380D02*
X90764286Y-53462380D01*
X90764286Y-53462380D02*
X90859524Y-53414761D01*
X90859524Y-53414761D02*
X90907143Y-53367142D01*
X90907143Y-53367142D02*
X90954762Y-53271904D01*
X90954762Y-53271904D02*
X90954762Y-53176666D01*
X90954762Y-53176666D02*
X90907143Y-53033809D01*
X90907143Y-53033809D02*
X90335715Y-52462380D01*
X90335715Y-52462380D02*
X90954762Y-52462380D01*
X91288096Y-53462380D02*
X91907143Y-53462380D01*
X91907143Y-53462380D02*
X91573810Y-53081428D01*
X91573810Y-53081428D02*
X91716667Y-53081428D01*
X91716667Y-53081428D02*
X91811905Y-53033809D01*
X91811905Y-53033809D02*
X91859524Y-52986190D01*
X91859524Y-52986190D02*
X91907143Y-52890952D01*
X91907143Y-52890952D02*
X91907143Y-52652857D01*
X91907143Y-52652857D02*
X91859524Y-52557619D01*
X91859524Y-52557619D02*
X91811905Y-52510000D01*
X91811905Y-52510000D02*
X91716667Y-52462380D01*
X91716667Y-52462380D02*
X91430953Y-52462380D01*
X91430953Y-52462380D02*
X91335715Y-52510000D01*
X91335715Y-52510000D02*
X91288096Y-52557619D01*
X77274761Y-69838095D02*
X77322380Y-69933333D01*
X77322380Y-69933333D02*
X77322380Y-70076190D01*
X77322380Y-70076190D02*
X77274761Y-70219047D01*
X77274761Y-70219047D02*
X77179523Y-70314285D01*
X77179523Y-70314285D02*
X77084285Y-70361904D01*
X77084285Y-70361904D02*
X76893809Y-70409523D01*
X76893809Y-70409523D02*
X76750952Y-70409523D01*
X76750952Y-70409523D02*
X76560476Y-70361904D01*
X76560476Y-70361904D02*
X76465238Y-70314285D01*
X76465238Y-70314285D02*
X76370000Y-70219047D01*
X76370000Y-70219047D02*
X76322380Y-70076190D01*
X76322380Y-70076190D02*
X76322380Y-69980952D01*
X76322380Y-69980952D02*
X76370000Y-69838095D01*
X76370000Y-69838095D02*
X76417619Y-69790476D01*
X76417619Y-69790476D02*
X76750952Y-69790476D01*
X76750952Y-69790476D02*
X76750952Y-69980952D01*
X76322380Y-69361904D02*
X77322380Y-69361904D01*
X77322380Y-69361904D02*
X76322380Y-68790476D01*
X76322380Y-68790476D02*
X77322380Y-68790476D01*
X76322380Y-68314285D02*
X77322380Y-68314285D01*
X77322380Y-68314285D02*
X77322380Y-68076190D01*
X77322380Y-68076190D02*
X77274761Y-67933333D01*
X77274761Y-67933333D02*
X77179523Y-67838095D01*
X77179523Y-67838095D02*
X77084285Y-67790476D01*
X77084285Y-67790476D02*
X76893809Y-67742857D01*
X76893809Y-67742857D02*
X76750952Y-67742857D01*
X76750952Y-67742857D02*
X76560476Y-67790476D01*
X76560476Y-67790476D02*
X76465238Y-67838095D01*
X76465238Y-67838095D02*
X76370000Y-67933333D01*
X76370000Y-67933333D02*
X76322380Y-68076190D01*
X76322380Y-68076190D02*
X76322380Y-68314285D01*
X81322380Y-69790476D02*
X81798571Y-70123809D01*
X81322380Y-70361904D02*
X82322380Y-70361904D01*
X82322380Y-70361904D02*
X82322380Y-69980952D01*
X82322380Y-69980952D02*
X82274761Y-69885714D01*
X82274761Y-69885714D02*
X82227142Y-69838095D01*
X82227142Y-69838095D02*
X82131904Y-69790476D01*
X82131904Y-69790476D02*
X81989047Y-69790476D01*
X81989047Y-69790476D02*
X81893809Y-69838095D01*
X81893809Y-69838095D02*
X81846190Y-69885714D01*
X81846190Y-69885714D02*
X81798571Y-69980952D01*
X81798571Y-69980952D02*
X81798571Y-70361904D01*
X82322380Y-69457142D02*
X81322380Y-68790476D01*
X82322380Y-68790476D02*
X81322380Y-69457142D01*
X82322380Y-68219047D02*
X82322380Y-68123809D01*
X82322380Y-68123809D02*
X82274761Y-68028571D01*
X82274761Y-68028571D02*
X82227142Y-67980952D01*
X82227142Y-67980952D02*
X82131904Y-67933333D01*
X82131904Y-67933333D02*
X81941428Y-67885714D01*
X81941428Y-67885714D02*
X81703333Y-67885714D01*
X81703333Y-67885714D02*
X81512857Y-67933333D01*
X81512857Y-67933333D02*
X81417619Y-67980952D01*
X81417619Y-67980952D02*
X81370000Y-68028571D01*
X81370000Y-68028571D02*
X81322380Y-68123809D01*
X81322380Y-68123809D02*
X81322380Y-68219047D01*
X81322380Y-68219047D02*
X81370000Y-68314285D01*
X81370000Y-68314285D02*
X81417619Y-68361904D01*
X81417619Y-68361904D02*
X81512857Y-68409523D01*
X81512857Y-68409523D02*
X81703333Y-68457142D01*
X81703333Y-68457142D02*
X81941428Y-68457142D01*
X81941428Y-68457142D02*
X82131904Y-68409523D01*
X82131904Y-68409523D02*
X82227142Y-68361904D01*
X82227142Y-68361904D02*
X82274761Y-68314285D01*
X82274761Y-68314285D02*
X82322380Y-68219047D01*
X86522380Y-69790476D02*
X86998571Y-70123809D01*
X86522380Y-70361904D02*
X87522380Y-70361904D01*
X87522380Y-70361904D02*
X87522380Y-69980952D01*
X87522380Y-69980952D02*
X87474761Y-69885714D01*
X87474761Y-69885714D02*
X87427142Y-69838095D01*
X87427142Y-69838095D02*
X87331904Y-69790476D01*
X87331904Y-69790476D02*
X87189047Y-69790476D01*
X87189047Y-69790476D02*
X87093809Y-69838095D01*
X87093809Y-69838095D02*
X87046190Y-69885714D01*
X87046190Y-69885714D02*
X86998571Y-69980952D01*
X86998571Y-69980952D02*
X86998571Y-70361904D01*
X87522380Y-69457142D02*
X86522380Y-68790476D01*
X87522380Y-68790476D02*
X86522380Y-69457142D01*
X87427142Y-68457142D02*
X87474761Y-68409523D01*
X87474761Y-68409523D02*
X87522380Y-68314285D01*
X87522380Y-68314285D02*
X87522380Y-68076190D01*
X87522380Y-68076190D02*
X87474761Y-67980952D01*
X87474761Y-67980952D02*
X87427142Y-67933333D01*
X87427142Y-67933333D02*
X87331904Y-67885714D01*
X87331904Y-67885714D02*
X87236666Y-67885714D01*
X87236666Y-67885714D02*
X87093809Y-67933333D01*
X87093809Y-67933333D02*
X86522380Y-68504761D01*
X86522380Y-68504761D02*
X86522380Y-67885714D01*
X90122380Y-70304761D02*
X90122380Y-69733333D01*
X89122380Y-70019047D02*
X90122380Y-70019047D01*
X90122380Y-69495237D02*
X89122380Y-68828571D01*
X90122380Y-68828571D02*
X89122380Y-69495237D01*
X90027142Y-68495237D02*
X90074761Y-68447618D01*
X90074761Y-68447618D02*
X90122380Y-68352380D01*
X90122380Y-68352380D02*
X90122380Y-68114285D01*
X90122380Y-68114285D02*
X90074761Y-68019047D01*
X90074761Y-68019047D02*
X90027142Y-67971428D01*
X90027142Y-67971428D02*
X89931904Y-67923809D01*
X89931904Y-67923809D02*
X89836666Y-67923809D01*
X89836666Y-67923809D02*
X89693809Y-67971428D01*
X89693809Y-67971428D02*
X89122380Y-68542856D01*
X89122380Y-68542856D02*
X89122380Y-67923809D01*
%TO.C,R1*%
X83166666Y-62462619D02*
X83499999Y-61986428D01*
X83738094Y-62462619D02*
X83738094Y-61462619D01*
X83738094Y-61462619D02*
X83357142Y-61462619D01*
X83357142Y-61462619D02*
X83261904Y-61510238D01*
X83261904Y-61510238D02*
X83214285Y-61557857D01*
X83214285Y-61557857D02*
X83166666Y-61653095D01*
X83166666Y-61653095D02*
X83166666Y-61795952D01*
X83166666Y-61795952D02*
X83214285Y-61891190D01*
X83214285Y-61891190D02*
X83261904Y-61938809D01*
X83261904Y-61938809D02*
X83357142Y-61986428D01*
X83357142Y-61986428D02*
X83738094Y-61986428D01*
X82214285Y-62462619D02*
X82785713Y-62462619D01*
X82499999Y-62462619D02*
X82499999Y-61462619D01*
X82499999Y-61462619D02*
X82595237Y-61605476D01*
X82595237Y-61605476D02*
X82690475Y-61700714D01*
X82690475Y-61700714D02*
X82785713Y-61748333D01*
D11*
%TO.C,IO0*%
X90370095Y-64300000D02*
X89570095Y-64300000D01*
X89570095Y-64833333D02*
X89570095Y-64985714D01*
X89570095Y-64985714D02*
X89608190Y-65061904D01*
X89608190Y-65061904D02*
X89684380Y-65138095D01*
X89684380Y-65138095D02*
X89836761Y-65176190D01*
X89836761Y-65176190D02*
X90103428Y-65176190D01*
X90103428Y-65176190D02*
X90255809Y-65138095D01*
X90255809Y-65138095D02*
X90332000Y-65061904D01*
X90332000Y-65061904D02*
X90370095Y-64985714D01*
X90370095Y-64985714D02*
X90370095Y-64833333D01*
X90370095Y-64833333D02*
X90332000Y-64757142D01*
X90332000Y-64757142D02*
X90255809Y-64680952D01*
X90255809Y-64680952D02*
X90103428Y-64642856D01*
X90103428Y-64642856D02*
X89836761Y-64642856D01*
X89836761Y-64642856D02*
X89684380Y-64680952D01*
X89684380Y-64680952D02*
X89608190Y-64757142D01*
X89608190Y-64757142D02*
X89570095Y-64833333D01*
X89570095Y-65671428D02*
X89570095Y-65747618D01*
X89570095Y-65747618D02*
X89608190Y-65823809D01*
X89608190Y-65823809D02*
X89646285Y-65861904D01*
X89646285Y-65861904D02*
X89722476Y-65899999D01*
X89722476Y-65899999D02*
X89874857Y-65938094D01*
X89874857Y-65938094D02*
X90065333Y-65938094D01*
X90065333Y-65938094D02*
X90217714Y-65899999D01*
X90217714Y-65899999D02*
X90293904Y-65861904D01*
X90293904Y-65861904D02*
X90332000Y-65823809D01*
X90332000Y-65823809D02*
X90370095Y-65747618D01*
X90370095Y-65747618D02*
X90370095Y-65671428D01*
X90370095Y-65671428D02*
X90332000Y-65595237D01*
X90332000Y-65595237D02*
X90293904Y-65557142D01*
X90293904Y-65557142D02*
X90217714Y-65519047D01*
X90217714Y-65519047D02*
X90065333Y-65480951D01*
X90065333Y-65480951D02*
X89874857Y-65480951D01*
X89874857Y-65480951D02*
X89722476Y-65519047D01*
X89722476Y-65519047D02*
X89646285Y-65557142D01*
X89646285Y-65557142D02*
X89608190Y-65595237D01*
X89608190Y-65595237D02*
X89570095Y-65671428D01*
D10*
%TO.C,C2*%
X83166666Y-64617380D02*
X83214285Y-64665000D01*
X83214285Y-64665000D02*
X83357142Y-64712619D01*
X83357142Y-64712619D02*
X83452380Y-64712619D01*
X83452380Y-64712619D02*
X83595237Y-64665000D01*
X83595237Y-64665000D02*
X83690475Y-64569761D01*
X83690475Y-64569761D02*
X83738094Y-64474523D01*
X83738094Y-64474523D02*
X83785713Y-64284047D01*
X83785713Y-64284047D02*
X83785713Y-64141190D01*
X83785713Y-64141190D02*
X83738094Y-63950714D01*
X83738094Y-63950714D02*
X83690475Y-63855476D01*
X83690475Y-63855476D02*
X83595237Y-63760238D01*
X83595237Y-63760238D02*
X83452380Y-63712619D01*
X83452380Y-63712619D02*
X83357142Y-63712619D01*
X83357142Y-63712619D02*
X83214285Y-63760238D01*
X83214285Y-63760238D02*
X83166666Y-63807857D01*
X82785713Y-63807857D02*
X82738094Y-63760238D01*
X82738094Y-63760238D02*
X82642856Y-63712619D01*
X82642856Y-63712619D02*
X82404761Y-63712619D01*
X82404761Y-63712619D02*
X82309523Y-63760238D01*
X82309523Y-63760238D02*
X82261904Y-63807857D01*
X82261904Y-63807857D02*
X82214285Y-63903095D01*
X82214285Y-63903095D02*
X82214285Y-63998333D01*
X82214285Y-63998333D02*
X82261904Y-64141190D01*
X82261904Y-64141190D02*
X82833332Y-64712619D01*
X82833332Y-64712619D02*
X82214285Y-64712619D01*
%TO.C,C1*%
X83166666Y-66767380D02*
X83214285Y-66815000D01*
X83214285Y-66815000D02*
X83357142Y-66862619D01*
X83357142Y-66862619D02*
X83452380Y-66862619D01*
X83452380Y-66862619D02*
X83595237Y-66815000D01*
X83595237Y-66815000D02*
X83690475Y-66719761D01*
X83690475Y-66719761D02*
X83738094Y-66624523D01*
X83738094Y-66624523D02*
X83785713Y-66434047D01*
X83785713Y-66434047D02*
X83785713Y-66291190D01*
X83785713Y-66291190D02*
X83738094Y-66100714D01*
X83738094Y-66100714D02*
X83690475Y-66005476D01*
X83690475Y-66005476D02*
X83595237Y-65910238D01*
X83595237Y-65910238D02*
X83452380Y-65862619D01*
X83452380Y-65862619D02*
X83357142Y-65862619D01*
X83357142Y-65862619D02*
X83214285Y-65910238D01*
X83214285Y-65910238D02*
X83166666Y-65957857D01*
X82214285Y-66862619D02*
X82785713Y-66862619D01*
X82499999Y-66862619D02*
X82499999Y-65862619D01*
X82499999Y-65862619D02*
X82595237Y-66005476D01*
X82595237Y-66005476D02*
X82690475Y-66100714D01*
X82690475Y-66100714D02*
X82785713Y-66148333D01*
D11*
%TO.C,R1*%
X80461252Y-62735000D02*
X79938748Y-62735000D01*
X80461252Y-61265000D02*
X79938748Y-61265000D01*
%TO.C,IO0*%
X90750000Y-68200000D02*
X90750000Y-62000000D01*
X91400000Y-68200000D02*
X90750000Y-68200000D01*
X94450000Y-68200000D02*
X93800000Y-68200000D01*
X90750000Y-62000000D02*
X91400000Y-62000000D01*
X94450000Y-62000000D02*
X94450000Y-68200000D01*
X94450000Y-62000000D02*
X93800000Y-62000000D01*
%TO.C,C2*%
X79938748Y-63465000D02*
X80461252Y-63465000D01*
X79938748Y-64935000D02*
X80461252Y-64935000D01*
%TO.C,C1*%
X79938748Y-65665000D02*
X80461252Y-65665000D01*
X79938748Y-67135000D02*
X80461252Y-67135000D01*
%TO.C,SW1*%
X72090000Y-66900000D02*
X71300000Y-66900000D01*
X70290000Y-66300000D02*
X70290000Y-60600000D01*
X73140000Y-65050000D02*
X73140000Y-63350000D01*
X69000000Y-64850000D02*
X68790000Y-64650000D01*
X70290000Y-64850000D02*
X69000000Y-64850000D01*
X68790000Y-64650000D02*
X68790000Y-63750000D01*
X69000000Y-63550000D02*
X68790000Y-63750000D01*
X69000000Y-63550000D02*
X70290000Y-63550000D01*
X73140000Y-62050000D02*
X73140000Y-61850000D01*
X71300000Y-60000000D02*
X72090000Y-60000000D01*
%TD*%
M02*
