%TF.GenerationSoftware,KiCad,Pcbnew,7.0.2-1.fc38*%
%TF.CreationDate,2023-05-26T14:46:15+02:00*%
%TF.ProjectId,marauder_mini_pcb,6d617261-7564-4657-925f-6d696e695f70,rev?*%
%TF.SameCoordinates,Original*%
%TF.FileFunction,Copper,L1,Top*%
%TF.FilePolarity,Positive*%
%FSLAX46Y46*%
G04 Gerber Fmt 4.6, Leading zero omitted, Abs format (unit mm)*
G04 Created by KiCad (PCBNEW 7.0.2-1.fc38) date 2023-05-26 14:46:15*
%MOMM*%
%LPD*%
G01*
G04 APERTURE LIST*
G04 Aperture macros list*
%AMRoundRect*
0 Rectangle with rounded corners*
0 $1 Rounding radius*
0 $2 $3 $4 $5 $6 $7 $8 $9 X,Y pos of 4 corners*
0 Add a 4 corners polygon primitive as box body*
4,1,4,$2,$3,$4,$5,$6,$7,$8,$9,$2,$3,0*
0 Add four circle primitives for the rounded corners*
1,1,$1+$1,$2,$3*
1,1,$1+$1,$4,$5*
1,1,$1+$1,$6,$7*
1,1,$1+$1,$8,$9*
0 Add four rect primitives between the rounded corners*
20,1,$1+$1,$2,$3,$4,$5,0*
20,1,$1+$1,$4,$5,$6,$7,0*
20,1,$1+$1,$6,$7,$8,$9,0*
20,1,$1+$1,$8,$9,$2,$3,0*%
G04 Aperture macros list end*
%TA.AperFunction,SMDPad,CuDef*%
%ADD10RoundRect,0.250000X0.337500X0.475000X-0.337500X0.475000X-0.337500X-0.475000X0.337500X-0.475000X0*%
%TD*%
%TA.AperFunction,SMDPad,CuDef*%
%ADD11R,1.500000X0.900000*%
%TD*%
%TA.AperFunction,SMDPad,CuDef*%
%ADD12R,0.900000X1.500000*%
%TD*%
%TA.AperFunction,ComponentPad*%
%ADD13O,1.700000X3.000000*%
%TD*%
%TA.AperFunction,ComponentPad*%
%ADD14O,1.500000X3.000000*%
%TD*%
%TA.AperFunction,SMDPad,CuDef*%
%ADD15R,1.600000X2.000000*%
%TD*%
%TA.AperFunction,ViaPad*%
%ADD16C,0.800000*%
%TD*%
%TA.AperFunction,Conductor*%
%ADD17C,0.250000*%
%TD*%
%TA.AperFunction,Conductor*%
%ADD18C,0.300000*%
%TD*%
G04 APERTURE END LIST*
D10*
%TO.P,LED,1,K*%
%TO.N,GND*%
X93437500Y-61200000D03*
%TO.P,LED,2,A*%
%TO.N,Net-(D1-A)*%
X91362500Y-61200000D03*
%TD*%
D11*
%TO.P,U1,1,GND*%
%TO.N,GND*%
X71400000Y-51390000D03*
%TO.P,U1,2,VDD*%
%TO.N,Net-(SW1-B)*%
X71400000Y-52660000D03*
%TO.P,U1,3,EN*%
%TO.N,Net-(U1-EN)*%
X71400000Y-53930000D03*
%TO.P,U1,4,SENSOR_VP*%
%TO.N,unconnected-(U1-SENSOR_VP-Pad4)*%
X71400000Y-55200000D03*
%TO.P,U1,5,SENSOR_VN*%
%TO.N,unconnected-(U1-SENSOR_VN-Pad5)*%
X71400000Y-56470000D03*
%TO.P,U1,6,IO34*%
%TO.N,unconnected-(U1-IO34-Pad6)*%
X71400000Y-57740000D03*
%TO.P,U1,7,IO35*%
%TO.N,unconnected-(U1-IO35-Pad7)*%
X71400000Y-59010000D03*
%TO.P,U1,8,IO32*%
%TO.N,unconnected-(U1-IO32-Pad8)*%
X71400000Y-60280000D03*
%TO.P,U1,13,IO14*%
%TO.N,unconnected-(U1-IO14-Pad13)*%
X71400000Y-66630000D03*
%TO.P,U1,14,IO12*%
%TO.N,unconnected-(U1-IO12-Pad14)*%
X71400000Y-67900000D03*
D12*
%TO.P,U1,15,GND*%
%TO.N,GND*%
X74435000Y-68995000D03*
%TO.P,U1,16,IO13*%
%TO.N,unconnected-(U1-IO13-Pad16)*%
X75705000Y-68995000D03*
%TO.P,U1,17,SHD/SD2*%
%TO.N,unconnected-(U1-SHD{slash}SD2-Pad17)*%
X76975000Y-68995000D03*
%TO.P,U1,18,SWP/SD3*%
%TO.N,unconnected-(U1-SWP{slash}SD3-Pad18)*%
X78245000Y-68995000D03*
%TO.P,U1,19,SCS/CMD*%
%TO.N,unconnected-(U1-SCS{slash}CMD-Pad19)*%
X79515000Y-68995000D03*
%TO.P,U1,20,SCK/CLK*%
%TO.N,unconnected-(U1-SCK{slash}CLK-Pad20)*%
X80785000Y-68995000D03*
%TO.P,U1,21,SDO/SD0*%
%TO.N,unconnected-(U1-SDO{slash}SD0-Pad21)*%
X82055000Y-68995000D03*
%TO.P,U1,22,SDI/SD1*%
%TO.N,unconnected-(U1-SDI{slash}SD1-Pad22)*%
X83325000Y-68995000D03*
%TO.P,U1,23,IO15*%
%TO.N,unconnected-(U1-IO15-Pad23)*%
X84595000Y-68995000D03*
%TO.P,U1,24,IO2*%
%TO.N,unconnected-(U1-IO2-Pad24)*%
X85865000Y-68995000D03*
D11*
%TO.P,U1,25,IO0*%
%TO.N,Net-(U1-IO0)*%
X88900000Y-67900000D03*
%TO.P,U1,26,IO4*%
%TO.N,unconnected-(U1-IO4-Pad26)*%
X88900000Y-66630000D03*
%TO.P,U1,27,IO16*%
%TO.N,Net-(J1-Pin_4)*%
X88900000Y-65360000D03*
%TO.P,U1,28,IO17*%
%TO.N,Net-(J1-Pin_3)*%
X88900000Y-64090000D03*
%TO.P,U1,29,IO5*%
%TO.N,unconnected-(U1-IO5-Pad29)*%
X88900000Y-62820000D03*
%TO.P,U1,30,IO18*%
%TO.N,unconnected-(U1-IO18-Pad30)*%
X88900000Y-61550000D03*
%TO.P,U1,31,IO19*%
%TO.N,unconnected-(U1-IO19-Pad31)*%
X88900000Y-60280000D03*
%TO.P,U1,32,NC*%
%TO.N,unconnected-(U1-NC-Pad32)*%
X88900000Y-59010000D03*
%TO.P,U1,33,IO21*%
%TO.N,unconnected-(U1-IO21-Pad33)*%
X88900000Y-57740000D03*
%TO.P,U1,34,RXD0/IO3*%
%TO.N,Net-(J1-Pin_6)*%
X88900000Y-56470000D03*
%TO.P,U1,35,TXD0/IO1*%
%TO.N,Net-(J1-Pin_5)*%
X88900000Y-55200000D03*
%TO.P,U1,36,IO22*%
%TO.N,unconnected-(U1-IO22-Pad36)*%
X88900000Y-53930000D03*
%TO.P,U1,37,IO23*%
%TO.N,unconnected-(U1-IO23-Pad37)*%
X88900000Y-52660000D03*
%TO.P,U1,38,GND*%
%TO.N,GND*%
X88900000Y-51390000D03*
%TD*%
D13*
%TO.P,J1,1,Pin_1*%
%TO.N,GND*%
X94660000Y-72300000D03*
D14*
%TO.P,J1,2,Pin_2*%
%TO.N,unconnected-(J1-Pin_2-Pad2)*%
X92120000Y-72300000D03*
D13*
%TO.P,J1,3,Pin_3*%
%TO.N,Net-(J1-Pin_3)*%
X89580000Y-72300000D03*
%TO.P,J1,4,Pin_4*%
%TO.N,Net-(J1-Pin_4)*%
X87040000Y-72300000D03*
%TO.P,J1,5,Pin_5*%
%TO.N,Net-(J1-Pin_5)*%
X84500000Y-72300000D03*
%TO.P,J1,6,Pin_6*%
%TO.N,Net-(J1-Pin_6)*%
X81960000Y-72300000D03*
D14*
%TO.P,J1,7,Pin_7*%
%TO.N,unconnected-(J1-Pin_7-Pad7)*%
X79420000Y-72300000D03*
D13*
%TO.P,J1,8,Pin_8*%
%TO.N,GND*%
X76880000Y-72300000D03*
D14*
%TO.P,J1,9,Pin_9*%
%TO.N,unconnected-(J1-Pin_9-Pad9)*%
X74340000Y-72300000D03*
D13*
%TO.P,J1,10,Pin_10*%
%TO.N,Net-(J1-Pin_10)*%
X71800000Y-72300000D03*
%TD*%
D15*
%TO.P,EN,1,1*%
%TO.N,GND*%
X92800000Y-63550000D03*
%TO.P,EN,2,2*%
%TO.N,Net-(U1-EN)*%
X92800000Y-68950000D03*
%TD*%
D16*
%TO.N,GND*%
X74000000Y-58000000D03*
X83000000Y-54000000D03*
%TO.N,Net-(D1-A)*%
X90500000Y-60000000D03*
%TO.N,Net-(J1-Pin_5)*%
X85400000Y-62600000D03*
%TO.N,Net-(J1-Pin_6)*%
X84200000Y-65400000D03*
%TO.N,Net-(SW1-B)*%
X74600000Y-52800000D03*
%TO.N,Net-(U1-IO0)*%
X89600000Y-69600000D03*
%TO.N,Net-(U1-EN)*%
X76000000Y-54400000D03*
X93800000Y-65600000D03*
%TD*%
D17*
%TO.N,Net-(D1-A)*%
X91362500Y-60862500D02*
X91362500Y-61200000D01*
X90500000Y-60000000D02*
X91362500Y-60862500D01*
%TO.N,Net-(J1-Pin_5)*%
X85400000Y-57700000D02*
X87900000Y-55200000D01*
X85400000Y-62600000D02*
X85400000Y-57700000D01*
X87900000Y-55200000D02*
X88900000Y-55200000D01*
%TO.N,Net-(J1-Pin_6)*%
X88320000Y-56470000D02*
X88900000Y-56470000D01*
X86600000Y-63000000D02*
X86600000Y-58190000D01*
X84200000Y-65400000D02*
X86600000Y-63000000D01*
X86600000Y-58190000D02*
X88320000Y-56470000D01*
%TO.N,Net-(J1-Pin_3)*%
X90090000Y-64090000D02*
X88900000Y-64090000D01*
X90600000Y-71280000D02*
X90600000Y-64600000D01*
X89580000Y-72300000D02*
X90600000Y-71280000D01*
X90600000Y-64600000D02*
X90090000Y-64090000D01*
%TO.N,Net-(J1-Pin_4)*%
X87900000Y-65360000D02*
X88900000Y-65360000D01*
X87040000Y-66220000D02*
X87900000Y-65360000D01*
X87040000Y-72300000D02*
X87040000Y-66220000D01*
D18*
%TO.N,Net-(SW1-B)*%
X74460000Y-52660000D02*
X71400000Y-52660000D01*
X74600000Y-52800000D02*
X74460000Y-52660000D01*
D17*
%TO.N,Net-(U1-IO0)*%
X89600000Y-68600000D02*
X88900000Y-67900000D01*
X89600000Y-69600000D02*
X89600000Y-68600000D01*
%TO.N,Net-(U1-EN)*%
X92800000Y-66600000D02*
X93800000Y-65600000D01*
X71400000Y-53930000D02*
X75530000Y-53930000D01*
X75530000Y-53930000D02*
X76000000Y-54400000D01*
X92800000Y-68950000D02*
X92800000Y-66600000D01*
%TD*%
%TA.AperFunction,Conductor*%
%TO.N,GND*%
G36*
X90443039Y-50269685D02*
G01*
X90488794Y-50322489D01*
X90500000Y-50373999D01*
X90500000Y-58500000D01*
X92950964Y-58500000D01*
X93018003Y-58519685D01*
X93035771Y-58533536D01*
X96013527Y-61325182D01*
X96160809Y-61463258D01*
X96196253Y-61523470D01*
X96200000Y-61553721D01*
X96200000Y-73476000D01*
X96180315Y-73543039D01*
X96127511Y-73588794D01*
X96076000Y-73600000D01*
X95821288Y-73600000D01*
X95754249Y-73580315D01*
X95708494Y-73527511D01*
X95698550Y-73458353D01*
X95710287Y-73420729D01*
X95736938Y-73367204D01*
X95795262Y-73162219D01*
X95809734Y-73006030D01*
X95810000Y-73000297D01*
X95810000Y-72450000D01*
X95137065Y-72450000D01*
X95160000Y-72371889D01*
X95160000Y-72228111D01*
X95137065Y-72150000D01*
X95810000Y-72150000D01*
X95810000Y-71599702D01*
X95809734Y-71593969D01*
X95795262Y-71437780D01*
X95736937Y-71232791D01*
X95641941Y-71042011D01*
X95513502Y-70871932D01*
X95355996Y-70728345D01*
X95174798Y-70616153D01*
X94976061Y-70539162D01*
X94809999Y-70508119D01*
X94809999Y-71818829D01*
X94802315Y-71815320D01*
X94695763Y-71800000D01*
X94624237Y-71800000D01*
X94517685Y-71815320D01*
X94510000Y-71818829D01*
X94510000Y-70508119D01*
X94343938Y-70539162D01*
X94145201Y-70616153D01*
X93964003Y-70728345D01*
X93806497Y-70871932D01*
X93678058Y-71042011D01*
X93583062Y-71232791D01*
X93524737Y-71437780D01*
X93510265Y-71593969D01*
X93510000Y-71599702D01*
X93510000Y-72150000D01*
X94182935Y-72150000D01*
X94160000Y-72228111D01*
X94160000Y-72371889D01*
X94182935Y-72450000D01*
X93510000Y-72450000D01*
X93510000Y-73000297D01*
X93510265Y-73006030D01*
X93524737Y-73162219D01*
X93583061Y-73367204D01*
X93609713Y-73420729D01*
X93621973Y-73489515D01*
X93595099Y-73554009D01*
X93537623Y-73593737D01*
X93498712Y-73600000D01*
X93218124Y-73600000D01*
X93151085Y-73580315D01*
X93105330Y-73527511D01*
X93095386Y-73458353D01*
X93099463Y-73440005D01*
X93155300Y-73255934D01*
X93170500Y-73101608D01*
X93170500Y-71498392D01*
X93155300Y-71344066D01*
X93095232Y-71146046D01*
X92997685Y-70963550D01*
X92930089Y-70881183D01*
X92866410Y-70803589D01*
X92768952Y-70723609D01*
X92706450Y-70672315D01*
X92523954Y-70574768D01*
X92424944Y-70544733D01*
X92325932Y-70514699D01*
X92155390Y-70497902D01*
X92121681Y-70484290D01*
X92107389Y-70493476D01*
X92084608Y-70497902D01*
X91914067Y-70514699D01*
X91716043Y-70574769D01*
X91533551Y-70672314D01*
X91373589Y-70803589D01*
X91245354Y-70959847D01*
X91187608Y-70999182D01*
X91117764Y-71001053D01*
X91057995Y-70964866D01*
X91027279Y-70902110D01*
X91025500Y-70881183D01*
X91025500Y-69991302D01*
X91699500Y-69991302D01*
X91699501Y-69994864D01*
X91699912Y-69998407D01*
X91702415Y-70019991D01*
X91747795Y-70122767D01*
X91827232Y-70202204D01*
X91827233Y-70202204D01*
X91827235Y-70202206D01*
X91930009Y-70247585D01*
X91955135Y-70250500D01*
X92072455Y-70250499D01*
X92120891Y-70264721D01*
X92144441Y-70252670D01*
X92167535Y-70250499D01*
X93644864Y-70250499D01*
X93669991Y-70247585D01*
X93772765Y-70202206D01*
X93852206Y-70122765D01*
X93897585Y-70019991D01*
X93900500Y-69994865D01*
X93900499Y-67905136D01*
X93897585Y-67880009D01*
X93852206Y-67777235D01*
X93852204Y-67777233D01*
X93852204Y-67777232D01*
X93772767Y-67697795D01*
X93669990Y-67652414D01*
X93648414Y-67649911D01*
X93648401Y-67649910D01*
X93644865Y-67649500D01*
X93641290Y-67649500D01*
X93349500Y-67649500D01*
X93282461Y-67629815D01*
X93236706Y-67577011D01*
X93225500Y-67525500D01*
X93225500Y-66827608D01*
X93245185Y-66760569D01*
X93261814Y-66739932D01*
X93664928Y-66336818D01*
X93726251Y-66303334D01*
X93752609Y-66300500D01*
X93885055Y-66300500D01*
X93885056Y-66300500D01*
X94050225Y-66259790D01*
X94200852Y-66180734D01*
X94328183Y-66067929D01*
X94424818Y-65927930D01*
X94485140Y-65768872D01*
X94505645Y-65600000D01*
X94485140Y-65431128D01*
X94424818Y-65272070D01*
X94328183Y-65132071D01*
X94200852Y-65019266D01*
X94148227Y-64991646D01*
X94050224Y-64940209D01*
X93927987Y-64910081D01*
X93867606Y-64874925D01*
X93835818Y-64812705D01*
X93842714Y-64743177D01*
X93844227Y-64739598D01*
X93897090Y-64619874D01*
X93899588Y-64598340D01*
X93900000Y-64591219D01*
X93900000Y-63700000D01*
X92950000Y-63700000D01*
X92950000Y-64849999D01*
X93263250Y-64849999D01*
X93330289Y-64869684D01*
X93376044Y-64922488D01*
X93385988Y-64991646D01*
X93356963Y-65055202D01*
X93345483Y-65066808D01*
X93314788Y-65094002D01*
X93271815Y-65132072D01*
X93175182Y-65272069D01*
X93114860Y-65431127D01*
X93094354Y-65600002D01*
X93098326Y-65632713D01*
X93086865Y-65701637D01*
X93062911Y-65735339D01*
X92488197Y-66310052D01*
X92488193Y-66310058D01*
X92451471Y-66346780D01*
X92440509Y-66368294D01*
X92430347Y-66384877D01*
X92416151Y-66404417D01*
X92408687Y-66427387D01*
X92401244Y-66445356D01*
X92390280Y-66466874D01*
X92386503Y-66490723D01*
X92381962Y-66509639D01*
X92374500Y-66532606D01*
X92374500Y-67525500D01*
X92354815Y-67592539D01*
X92302011Y-67638294D01*
X92250500Y-67649500D01*
X91958714Y-67649500D01*
X91958696Y-67649500D01*
X91955136Y-67649501D01*
X91951592Y-67649911D01*
X91951592Y-67649912D01*
X91930008Y-67652415D01*
X91827232Y-67697795D01*
X91747795Y-67777232D01*
X91702414Y-67880009D01*
X91699911Y-67901585D01*
X91699911Y-67901592D01*
X91699500Y-67905135D01*
X91699500Y-67908708D01*
X91699500Y-67908709D01*
X91699500Y-69991285D01*
X91699500Y-69991302D01*
X91025500Y-69991302D01*
X91025500Y-64532608D01*
X91018039Y-64509648D01*
X91013495Y-64490719D01*
X91009719Y-64466874D01*
X90998756Y-64445359D01*
X90991309Y-64427379D01*
X90988698Y-64419344D01*
X90983849Y-64404419D01*
X90969654Y-64384882D01*
X90959490Y-64368295D01*
X90948527Y-64346779D01*
X90384635Y-63782887D01*
X90384633Y-63782884D01*
X90367194Y-63765445D01*
X90343220Y-63741472D01*
X90321702Y-63730508D01*
X90305111Y-63720340D01*
X90285582Y-63706151D01*
X90266651Y-63700000D01*
X91700001Y-63700000D01*
X91700001Y-64591213D01*
X91700412Y-64598335D01*
X91702910Y-64619876D01*
X91748213Y-64722479D01*
X91827519Y-64801785D01*
X91930125Y-64847090D01*
X91951659Y-64849588D01*
X91958780Y-64849999D01*
X92649999Y-64849999D01*
X92650000Y-64849998D01*
X92650000Y-63700000D01*
X91700001Y-63700000D01*
X90266651Y-63700000D01*
X90262616Y-63698689D01*
X90244638Y-63691242D01*
X90223128Y-63680282D01*
X90223127Y-63680281D01*
X90223126Y-63680281D01*
X90199270Y-63676502D01*
X90180359Y-63671962D01*
X90157393Y-63664500D01*
X90123488Y-63664500D01*
X90068994Y-63664500D01*
X90001955Y-63644815D01*
X89956200Y-63592011D01*
X89954313Y-63585247D01*
X89918919Y-63505086D01*
X89909847Y-63435808D01*
X89918919Y-63404913D01*
X89947585Y-63339991D01*
X89950500Y-63314865D01*
X89950499Y-62325136D01*
X89947585Y-62300009D01*
X89918919Y-62235086D01*
X89909847Y-62165808D01*
X89918919Y-62134913D01*
X89920174Y-62132071D01*
X89947585Y-62069991D01*
X89950500Y-62044865D01*
X89950499Y-61055136D01*
X89947585Y-61030009D01*
X89918919Y-60965086D01*
X89909847Y-60895808D01*
X89918919Y-60864913D01*
X89947585Y-60799991D01*
X89950500Y-60774865D01*
X89950499Y-60707837D01*
X89970183Y-60640800D01*
X90022986Y-60595044D01*
X90092144Y-60585100D01*
X90132124Y-60598041D01*
X90213593Y-60640800D01*
X90249775Y-60659790D01*
X90380174Y-60691930D01*
X90440555Y-60727086D01*
X90472344Y-60789305D01*
X90474500Y-60812326D01*
X90474500Y-61718102D01*
X90474940Y-61721765D01*
X90485123Y-61806567D01*
X90540541Y-61947093D01*
X90540639Y-61947342D01*
X90569419Y-61985294D01*
X90632077Y-62067922D01*
X90662500Y-62090992D01*
X90752658Y-62159361D01*
X90786648Y-62172765D01*
X90893432Y-62214876D01*
X90893434Y-62214876D01*
X90893436Y-62214877D01*
X90981898Y-62225500D01*
X90985599Y-62225500D01*
X91625036Y-62225500D01*
X91692075Y-62245185D01*
X91737830Y-62297989D01*
X91747774Y-62367147D01*
X91738471Y-62399585D01*
X91702910Y-62480124D01*
X91700411Y-62501659D01*
X91700000Y-62508780D01*
X91700000Y-63400000D01*
X93899999Y-63400000D01*
X93899999Y-62508786D01*
X93899587Y-62501664D01*
X93897089Y-62480123D01*
X93850683Y-62375021D01*
X93841612Y-62305743D01*
X93871436Y-62242558D01*
X93918628Y-62209581D01*
X94047096Y-62158919D01*
X94167565Y-62067565D01*
X94258921Y-61947093D01*
X94314385Y-61806448D01*
X94324559Y-61721723D01*
X94325000Y-61714359D01*
X94325000Y-61350000D01*
X92550000Y-61350000D01*
X92550000Y-61714359D01*
X92550440Y-61721723D01*
X92560614Y-61806448D01*
X92616078Y-61947093D01*
X92694929Y-62051075D01*
X92719752Y-62116387D01*
X92705324Y-62184750D01*
X92656226Y-62234461D01*
X92596125Y-62250000D01*
X92204501Y-62250000D01*
X92137462Y-62230315D01*
X92091707Y-62177511D01*
X92081763Y-62108353D01*
X92105695Y-62051077D01*
X92184361Y-61947342D01*
X92239877Y-61806564D01*
X92250500Y-61718102D01*
X92250500Y-61050000D01*
X92550000Y-61050000D01*
X93287500Y-61050000D01*
X93287500Y-60175000D01*
X93587500Y-60175000D01*
X93587500Y-61050000D01*
X94325000Y-61050000D01*
X94325000Y-60685640D01*
X94324559Y-60678276D01*
X94314385Y-60593551D01*
X94258921Y-60452906D01*
X94167565Y-60332434D01*
X94047093Y-60241078D01*
X93906448Y-60185614D01*
X93821723Y-60175440D01*
X93814360Y-60175000D01*
X93587500Y-60175000D01*
X93287500Y-60175000D01*
X93060640Y-60175000D01*
X93053276Y-60175440D01*
X92968551Y-60185614D01*
X92827906Y-60241078D01*
X92707434Y-60332434D01*
X92616078Y-60452906D01*
X92560614Y-60593551D01*
X92550440Y-60678276D01*
X92550000Y-60685640D01*
X92550000Y-61050000D01*
X92250500Y-61050000D01*
X92250500Y-60681898D01*
X92239877Y-60593436D01*
X92239876Y-60593434D01*
X92239876Y-60593432D01*
X92190383Y-60467929D01*
X92184361Y-60452658D01*
X92112585Y-60358007D01*
X92092922Y-60332077D01*
X92013416Y-60271787D01*
X91972342Y-60240639D01*
X91972340Y-60240638D01*
X91831567Y-60185123D01*
X91768862Y-60177593D01*
X91743102Y-60174500D01*
X91739401Y-60174500D01*
X91327610Y-60174500D01*
X91260571Y-60154815D01*
X91239929Y-60138181D01*
X91237087Y-60135339D01*
X91203602Y-60074016D01*
X91201672Y-60032715D01*
X91205645Y-60000000D01*
X91185140Y-59831128D01*
X91124818Y-59672070D01*
X91028183Y-59532071D01*
X90900852Y-59419266D01*
X90845453Y-59390190D01*
X90750224Y-59340209D01*
X90625765Y-59309533D01*
X90585056Y-59299500D01*
X90414944Y-59299500D01*
X90373651Y-59309677D01*
X90249772Y-59340210D01*
X90132125Y-59401957D01*
X90063617Y-59415683D01*
X89998563Y-59390190D01*
X89957619Y-59333575D01*
X89950499Y-59292165D01*
X89950499Y-58515136D01*
X89947585Y-58490009D01*
X89918919Y-58425086D01*
X89909847Y-58355808D01*
X89918919Y-58324913D01*
X89947585Y-58259991D01*
X89950500Y-58234865D01*
X89950499Y-57245136D01*
X89947585Y-57220009D01*
X89918919Y-57155086D01*
X89909847Y-57085808D01*
X89918919Y-57054913D01*
X89947585Y-56989991D01*
X89950500Y-56964865D01*
X89950499Y-55975136D01*
X89947585Y-55950009D01*
X89918919Y-55885086D01*
X89909847Y-55815808D01*
X89918919Y-55784913D01*
X89947585Y-55719991D01*
X89950500Y-55694865D01*
X89950499Y-54705136D01*
X89947585Y-54680009D01*
X89918919Y-54615086D01*
X89909847Y-54545808D01*
X89918919Y-54514913D01*
X89947585Y-54449991D01*
X89950500Y-54424865D01*
X89950499Y-53435136D01*
X89947585Y-53410009D01*
X89918919Y-53345086D01*
X89909847Y-53275808D01*
X89918919Y-53244913D01*
X89922143Y-53237612D01*
X89947585Y-53179991D01*
X89950500Y-53154865D01*
X89950499Y-52165136D01*
X89947585Y-52140009D01*
X89918644Y-52074465D01*
X89909574Y-52005189D01*
X89918646Y-51974294D01*
X89947089Y-51909875D01*
X89949588Y-51888340D01*
X89950000Y-51881219D01*
X89950000Y-51540000D01*
X87850001Y-51540000D01*
X87850001Y-51881213D01*
X87850412Y-51888335D01*
X87852910Y-51909876D01*
X87881354Y-51974296D01*
X87890425Y-52043574D01*
X87881354Y-52074466D01*
X87852415Y-52140007D01*
X87849911Y-52161585D01*
X87849911Y-52161592D01*
X87849500Y-52165135D01*
X87849500Y-52168708D01*
X87849500Y-52168709D01*
X87849500Y-53151285D01*
X87849500Y-53151302D01*
X87849501Y-53154864D01*
X87852415Y-53179991D01*
X87875970Y-53233339D01*
X87881081Y-53244913D01*
X87890152Y-53314192D01*
X87881081Y-53345084D01*
X87852415Y-53410007D01*
X87849911Y-53431585D01*
X87849911Y-53431592D01*
X87849500Y-53435135D01*
X87849500Y-53438708D01*
X87849500Y-53438709D01*
X87849500Y-54421285D01*
X87849500Y-54421302D01*
X87849501Y-54424864D01*
X87849912Y-54428407D01*
X87852415Y-54449991D01*
X87881081Y-54514913D01*
X87890152Y-54584192D01*
X87881081Y-54615084D01*
X87852413Y-54680011D01*
X87851825Y-54685083D01*
X87824544Y-54749407D01*
X87782643Y-54777978D01*
X87784370Y-54781367D01*
X87745356Y-54801244D01*
X87727387Y-54808687D01*
X87704417Y-54816151D01*
X87684877Y-54830347D01*
X87668294Y-54840509D01*
X87646780Y-54851471D01*
X85051471Y-57446780D01*
X85040509Y-57468294D01*
X85030347Y-57484877D01*
X85016151Y-57504417D01*
X85008687Y-57527387D01*
X85001244Y-57545356D01*
X84990280Y-57566874D01*
X84986503Y-57590723D01*
X84981962Y-57609639D01*
X84974500Y-57632606D01*
X84974500Y-61985294D01*
X84954815Y-62052333D01*
X84932727Y-62078109D01*
X84871817Y-62132069D01*
X84775182Y-62272069D01*
X84714860Y-62431127D01*
X84694354Y-62600000D01*
X84714860Y-62768872D01*
X84775182Y-62927930D01*
X84871815Y-63067927D01*
X84871816Y-63067928D01*
X84871817Y-63067929D01*
X84999148Y-63180734D01*
X85149775Y-63259790D01*
X85314944Y-63300500D01*
X85314945Y-63300500D01*
X85398390Y-63300500D01*
X85465429Y-63320185D01*
X85511184Y-63372989D01*
X85521128Y-63442147D01*
X85492103Y-63505703D01*
X85486075Y-63512175D01*
X84748751Y-64249500D01*
X84335070Y-64663181D01*
X84273747Y-64696666D01*
X84247389Y-64699500D01*
X84114944Y-64699500D01*
X84082284Y-64707549D01*
X83949775Y-64740209D01*
X83799149Y-64819265D01*
X83671815Y-64932072D01*
X83575182Y-65072069D01*
X83514860Y-65231127D01*
X83494354Y-65399999D01*
X83514860Y-65568872D01*
X83575182Y-65727930D01*
X83671815Y-65867927D01*
X83671816Y-65867928D01*
X83671817Y-65867929D01*
X83799148Y-65980734D01*
X83949775Y-66059790D01*
X84114944Y-66100500D01*
X84114945Y-66100500D01*
X84285055Y-66100500D01*
X84285056Y-66100500D01*
X84450225Y-66059790D01*
X84600852Y-65980734D01*
X84728183Y-65867929D01*
X84824818Y-65727930D01*
X84885140Y-65568872D01*
X84905645Y-65400000D01*
X84901672Y-65367285D01*
X84913131Y-65298366D01*
X84937084Y-65264662D01*
X86924554Y-63277194D01*
X86924553Y-63277193D01*
X86948526Y-63253222D01*
X86948526Y-63253221D01*
X86948528Y-63253220D01*
X86959491Y-63231702D01*
X86969656Y-63215115D01*
X86983850Y-63195580D01*
X86991313Y-63172609D01*
X86998751Y-63154650D01*
X87009719Y-63133126D01*
X87013495Y-63109278D01*
X87018036Y-63090360D01*
X87025500Y-63067393D01*
X87025500Y-62932607D01*
X87025500Y-58417609D01*
X87045185Y-58350570D01*
X87061815Y-58329932D01*
X87637821Y-57753925D01*
X87699142Y-57720442D01*
X87768833Y-57725426D01*
X87824767Y-57767297D01*
X87849184Y-57832762D01*
X87849500Y-57841608D01*
X87849500Y-58231285D01*
X87849500Y-58231302D01*
X87849501Y-58234864D01*
X87849912Y-58238407D01*
X87852415Y-58259991D01*
X87881081Y-58324913D01*
X87890152Y-58394192D01*
X87881081Y-58425084D01*
X87852415Y-58490007D01*
X87849911Y-58511585D01*
X87849911Y-58511592D01*
X87849500Y-58515135D01*
X87849500Y-58518708D01*
X87849500Y-58518709D01*
X87849500Y-59501285D01*
X87849500Y-59501302D01*
X87849501Y-59504864D01*
X87849912Y-59508407D01*
X87852415Y-59529991D01*
X87881081Y-59594913D01*
X87890152Y-59664192D01*
X87881081Y-59695084D01*
X87852415Y-59760007D01*
X87849911Y-59781585D01*
X87849911Y-59781592D01*
X87849500Y-59785135D01*
X87849500Y-59788708D01*
X87849500Y-59788709D01*
X87849500Y-60771285D01*
X87849500Y-60771302D01*
X87849501Y-60774864D01*
X87849912Y-60778407D01*
X87852415Y-60799991D01*
X87881081Y-60864913D01*
X87890152Y-60934192D01*
X87881081Y-60965084D01*
X87852415Y-61030007D01*
X87849911Y-61051585D01*
X87849911Y-61051592D01*
X87849500Y-61055135D01*
X87849500Y-61058708D01*
X87849500Y-61058709D01*
X87849500Y-62041285D01*
X87849500Y-62041302D01*
X87849501Y-62044864D01*
X87852415Y-62069991D01*
X87879825Y-62132070D01*
X87881081Y-62134913D01*
X87890152Y-62204192D01*
X87881081Y-62235084D01*
X87852415Y-62300007D01*
X87849911Y-62321585D01*
X87849911Y-62321592D01*
X87849500Y-62325135D01*
X87849500Y-62328708D01*
X87849500Y-62328709D01*
X87849500Y-63311285D01*
X87849500Y-63311302D01*
X87849501Y-63314864D01*
X87852415Y-63339991D01*
X87878911Y-63400000D01*
X87881081Y-63404913D01*
X87890152Y-63474192D01*
X87881081Y-63505084D01*
X87852415Y-63570007D01*
X87849911Y-63591585D01*
X87849910Y-63591599D01*
X87849500Y-63595135D01*
X87849500Y-63598708D01*
X87849500Y-63598709D01*
X87849500Y-64581285D01*
X87849500Y-64581302D01*
X87849501Y-64584864D01*
X87849912Y-64588407D01*
X87852415Y-64609991D01*
X87881081Y-64674913D01*
X87890152Y-64744192D01*
X87881081Y-64775084D01*
X87852413Y-64840011D01*
X87851825Y-64845083D01*
X87824543Y-64909406D01*
X87782645Y-64937975D01*
X87784372Y-64941365D01*
X87745362Y-64961241D01*
X87727386Y-64968687D01*
X87704419Y-64976149D01*
X87684881Y-64990344D01*
X87668298Y-65000506D01*
X87646780Y-65011471D01*
X87564245Y-65094002D01*
X87564219Y-65094032D01*
X86786780Y-65871472D01*
X86691471Y-65966780D01*
X86680509Y-65988294D01*
X86670347Y-66004877D01*
X86656151Y-66024417D01*
X86648687Y-66047387D01*
X86641244Y-66065356D01*
X86630280Y-66086874D01*
X86626503Y-66110723D01*
X86621962Y-66129639D01*
X86614500Y-66152606D01*
X86614500Y-67858451D01*
X86594815Y-67925490D01*
X86542011Y-67971245D01*
X86472853Y-67981189D01*
X86440415Y-67971886D01*
X86384992Y-67947415D01*
X86363414Y-67944911D01*
X86363401Y-67944910D01*
X86359865Y-67944500D01*
X86356290Y-67944500D01*
X85373714Y-67944500D01*
X85373696Y-67944500D01*
X85370136Y-67944501D01*
X85366592Y-67944911D01*
X85366592Y-67944912D01*
X85345006Y-67947415D01*
X85280085Y-67976081D01*
X85210807Y-67985152D01*
X85179915Y-67976081D01*
X85114991Y-67947415D01*
X85093414Y-67944911D01*
X85093401Y-67944910D01*
X85089865Y-67944500D01*
X85086290Y-67944500D01*
X84103714Y-67944500D01*
X84103696Y-67944500D01*
X84100136Y-67944501D01*
X84096592Y-67944911D01*
X84096592Y-67944912D01*
X84075006Y-67947415D01*
X84010085Y-67976081D01*
X83940807Y-67985152D01*
X83909915Y-67976081D01*
X83844991Y-67947415D01*
X83823414Y-67944911D01*
X83823401Y-67944910D01*
X83819865Y-67944500D01*
X83816290Y-67944500D01*
X82833714Y-67944500D01*
X82833696Y-67944500D01*
X82830136Y-67944501D01*
X82826592Y-67944911D01*
X82826592Y-67944912D01*
X82805006Y-67947415D01*
X82740085Y-67976081D01*
X82670807Y-67985152D01*
X82639915Y-67976081D01*
X82574991Y-67947415D01*
X82553414Y-67944911D01*
X82553401Y-67944910D01*
X82549865Y-67944500D01*
X82546290Y-67944500D01*
X81563714Y-67944500D01*
X81563696Y-67944500D01*
X81560136Y-67944501D01*
X81556592Y-67944911D01*
X81556592Y-67944912D01*
X81535006Y-67947415D01*
X81470085Y-67976081D01*
X81400807Y-67985152D01*
X81369915Y-67976081D01*
X81304991Y-67947415D01*
X81283414Y-67944911D01*
X81283401Y-67944910D01*
X81279865Y-67944500D01*
X81276290Y-67944500D01*
X80293714Y-67944500D01*
X80293696Y-67944500D01*
X80290136Y-67944501D01*
X80286592Y-67944911D01*
X80286592Y-67944912D01*
X80265006Y-67947415D01*
X80200085Y-67976081D01*
X80130807Y-67985152D01*
X80099915Y-67976081D01*
X80034991Y-67947415D01*
X80013414Y-67944911D01*
X80013401Y-67944910D01*
X80009865Y-67944500D01*
X80006290Y-67944500D01*
X79023714Y-67944500D01*
X79023696Y-67944500D01*
X79020136Y-67944501D01*
X79016592Y-67944911D01*
X79016592Y-67944912D01*
X78995006Y-67947415D01*
X78930085Y-67976081D01*
X78860807Y-67985152D01*
X78829915Y-67976081D01*
X78764991Y-67947415D01*
X78743414Y-67944911D01*
X78743401Y-67944910D01*
X78739865Y-67944500D01*
X78736290Y-67944500D01*
X77753714Y-67944500D01*
X77753696Y-67944500D01*
X77750136Y-67944501D01*
X77746592Y-67944911D01*
X77746592Y-67944912D01*
X77725006Y-67947415D01*
X77660085Y-67976081D01*
X77590807Y-67985152D01*
X77559915Y-67976081D01*
X77494991Y-67947415D01*
X77473414Y-67944911D01*
X77473401Y-67944910D01*
X77469865Y-67944500D01*
X77466290Y-67944500D01*
X76483714Y-67944500D01*
X76483696Y-67944500D01*
X76480136Y-67944501D01*
X76476592Y-67944911D01*
X76476592Y-67944912D01*
X76455006Y-67947415D01*
X76390085Y-67976081D01*
X76320807Y-67985152D01*
X76289915Y-67976081D01*
X76224991Y-67947415D01*
X76203414Y-67944911D01*
X76203401Y-67944910D01*
X76199865Y-67944500D01*
X76196290Y-67944500D01*
X75213714Y-67944500D01*
X75213696Y-67944500D01*
X75210136Y-67944501D01*
X75206592Y-67944911D01*
X75206592Y-67944912D01*
X75185006Y-67947415D01*
X75119466Y-67976354D01*
X75050187Y-67985425D01*
X75019295Y-67976354D01*
X74954874Y-67947909D01*
X74933340Y-67945411D01*
X74926219Y-67945000D01*
X74585000Y-67945000D01*
X74585000Y-70044999D01*
X74926214Y-70044999D01*
X74933335Y-70044587D01*
X74954877Y-70042089D01*
X75019295Y-70013646D01*
X75088573Y-70004574D01*
X75119467Y-70013646D01*
X75185006Y-70042584D01*
X75185009Y-70042585D01*
X75210135Y-70045500D01*
X76199864Y-70045499D01*
X76224991Y-70042585D01*
X76289914Y-70013918D01*
X76359190Y-70004847D01*
X76390085Y-70013919D01*
X76455006Y-70042584D01*
X76455009Y-70042585D01*
X76480135Y-70045500D01*
X77469864Y-70045499D01*
X77494991Y-70042585D01*
X77559914Y-70013918D01*
X77629190Y-70004847D01*
X77660085Y-70013919D01*
X77725006Y-70042584D01*
X77725009Y-70042585D01*
X77750135Y-70045500D01*
X78739864Y-70045499D01*
X78764991Y-70042585D01*
X78829914Y-70013918D01*
X78899190Y-70004847D01*
X78930085Y-70013919D01*
X78995006Y-70042584D01*
X78995009Y-70042585D01*
X79020135Y-70045500D01*
X80009864Y-70045499D01*
X80034991Y-70042585D01*
X80099914Y-70013918D01*
X80169190Y-70004847D01*
X80200085Y-70013919D01*
X80265006Y-70042584D01*
X80265009Y-70042585D01*
X80290135Y-70045500D01*
X81279864Y-70045499D01*
X81304991Y-70042585D01*
X81369914Y-70013918D01*
X81439190Y-70004847D01*
X81470085Y-70013919D01*
X81535006Y-70042584D01*
X81535009Y-70042585D01*
X81560135Y-70045500D01*
X82549864Y-70045499D01*
X82574991Y-70042585D01*
X82639914Y-70013918D01*
X82709190Y-70004847D01*
X82740085Y-70013919D01*
X82805006Y-70042584D01*
X82805009Y-70042585D01*
X82830135Y-70045500D01*
X83819864Y-70045499D01*
X83844991Y-70042585D01*
X83909914Y-70013918D01*
X83979190Y-70004847D01*
X84010085Y-70013919D01*
X84075006Y-70042584D01*
X84075009Y-70042585D01*
X84100135Y-70045500D01*
X85089864Y-70045499D01*
X85114991Y-70042585D01*
X85179914Y-70013918D01*
X85249190Y-70004847D01*
X85280085Y-70013919D01*
X85345006Y-70042584D01*
X85345009Y-70042585D01*
X85370135Y-70045500D01*
X86359864Y-70045499D01*
X86384991Y-70042585D01*
X86440415Y-70018112D01*
X86509693Y-70009042D01*
X86572877Y-70038866D01*
X86609908Y-70098115D01*
X86614500Y-70131548D01*
X86614500Y-70496080D01*
X86594815Y-70563119D01*
X86542011Y-70608874D01*
X86535294Y-70611706D01*
X86524985Y-70615699D01*
X86343698Y-70727947D01*
X86186126Y-70871594D01*
X86057631Y-71041747D01*
X85962595Y-71232609D01*
X85904243Y-71437689D01*
X85893471Y-71553950D01*
X85867685Y-71618887D01*
X85810885Y-71659575D01*
X85741104Y-71663095D01*
X85680497Y-71628330D01*
X85648307Y-71566317D01*
X85646529Y-71553950D01*
X85635756Y-71437689D01*
X85610064Y-71347393D01*
X85577405Y-71232611D01*
X85567444Y-71212607D01*
X85482368Y-71041747D01*
X85353873Y-70871594D01*
X85196301Y-70727947D01*
X85015017Y-70615701D01*
X84816198Y-70538679D01*
X84783218Y-70532514D01*
X84606610Y-70499500D01*
X84393390Y-70499500D01*
X84312078Y-70514700D01*
X84183801Y-70538679D01*
X83984982Y-70615701D01*
X83803698Y-70727947D01*
X83646126Y-70871594D01*
X83517631Y-71041747D01*
X83422595Y-71232609D01*
X83364243Y-71437689D01*
X83353471Y-71553950D01*
X83327685Y-71618887D01*
X83270885Y-71659575D01*
X83201104Y-71663095D01*
X83140497Y-71628330D01*
X83108307Y-71566317D01*
X83106529Y-71553950D01*
X83095756Y-71437689D01*
X83070064Y-71347393D01*
X83037405Y-71232611D01*
X83027444Y-71212607D01*
X82942368Y-71041747D01*
X82813873Y-70871594D01*
X82656301Y-70727947D01*
X82475017Y-70615701D01*
X82276198Y-70538679D01*
X82243218Y-70532514D01*
X82066610Y-70499500D01*
X81853390Y-70499500D01*
X81772078Y-70514700D01*
X81643801Y-70538679D01*
X81444982Y-70615701D01*
X81263698Y-70727947D01*
X81106126Y-70871594D01*
X80977631Y-71041747D01*
X80882595Y-71232609D01*
X80824243Y-71437689D01*
X80809765Y-71593945D01*
X80809500Y-71596806D01*
X80809500Y-73003194D01*
X80809764Y-73006053D01*
X80809765Y-73006054D01*
X80824243Y-73162310D01*
X80882593Y-73367386D01*
X80909155Y-73420729D01*
X80921415Y-73489515D01*
X80894541Y-73554009D01*
X80837065Y-73593737D01*
X80798154Y-73600000D01*
X80518124Y-73600000D01*
X80451085Y-73580315D01*
X80405330Y-73527511D01*
X80395386Y-73458353D01*
X80399463Y-73440005D01*
X80455300Y-73255934D01*
X80470500Y-73101608D01*
X80470500Y-71498392D01*
X80455300Y-71344066D01*
X80395232Y-71146046D01*
X80297685Y-70963550D01*
X80230089Y-70881183D01*
X80166410Y-70803589D01*
X80068952Y-70723609D01*
X80006450Y-70672315D01*
X79823954Y-70574768D01*
X79724944Y-70544733D01*
X79625932Y-70514699D01*
X79420000Y-70494417D01*
X79214067Y-70514699D01*
X79016043Y-70574769D01*
X78833551Y-70672314D01*
X78673589Y-70803589D01*
X78542314Y-70963551D01*
X78444769Y-71146043D01*
X78384699Y-71344067D01*
X78369798Y-71495358D01*
X78369797Y-71495374D01*
X78369500Y-71498392D01*
X78369500Y-73101608D01*
X78369797Y-73104626D01*
X78369798Y-73104641D01*
X78384699Y-73255932D01*
X78384700Y-73255934D01*
X78434689Y-73420729D01*
X78440537Y-73440005D01*
X78441160Y-73509872D01*
X78403912Y-73568985D01*
X78340617Y-73598576D01*
X78321876Y-73600000D01*
X78041288Y-73600000D01*
X77974249Y-73580315D01*
X77928494Y-73527511D01*
X77918550Y-73458353D01*
X77930287Y-73420729D01*
X77956938Y-73367204D01*
X78015262Y-73162219D01*
X78029734Y-73006030D01*
X78030000Y-73000297D01*
X78030000Y-72450000D01*
X77357065Y-72450000D01*
X77380000Y-72371889D01*
X77380000Y-72228111D01*
X77357065Y-72150000D01*
X78030000Y-72150000D01*
X78030000Y-71599702D01*
X78029734Y-71593969D01*
X78015262Y-71437780D01*
X77956937Y-71232791D01*
X77861941Y-71042011D01*
X77733502Y-70871932D01*
X77575996Y-70728345D01*
X77394798Y-70616153D01*
X77196061Y-70539162D01*
X77030000Y-70508119D01*
X77030000Y-71818829D01*
X77022315Y-71815320D01*
X76915763Y-71800000D01*
X76844237Y-71800000D01*
X76737685Y-71815320D01*
X76730000Y-71818829D01*
X76730000Y-70508119D01*
X76563938Y-70539162D01*
X76365201Y-70616153D01*
X76184003Y-70728345D01*
X76026497Y-70871932D01*
X75898058Y-71042011D01*
X75803062Y-71232791D01*
X75744737Y-71437780D01*
X75730265Y-71593969D01*
X75730000Y-71599702D01*
X75730000Y-72150000D01*
X76402935Y-72150000D01*
X76380000Y-72228111D01*
X76380000Y-72371889D01*
X76402935Y-72450000D01*
X75730000Y-72450000D01*
X75730000Y-73000297D01*
X75730265Y-73006030D01*
X75744737Y-73162219D01*
X75803061Y-73367204D01*
X75829713Y-73420729D01*
X75841973Y-73489515D01*
X75815099Y-73554009D01*
X75757623Y-73593737D01*
X75718712Y-73600000D01*
X75438124Y-73600000D01*
X75371085Y-73580315D01*
X75325330Y-73527511D01*
X75315386Y-73458353D01*
X75319463Y-73440005D01*
X75375300Y-73255934D01*
X75390500Y-73101608D01*
X75390500Y-71498392D01*
X75375300Y-71344066D01*
X75315232Y-71146046D01*
X75217685Y-70963550D01*
X75150089Y-70881183D01*
X75086410Y-70803589D01*
X74988952Y-70723608D01*
X74926450Y-70672315D01*
X74743954Y-70574768D01*
X74644944Y-70544733D01*
X74545932Y-70514699D01*
X74356884Y-70496080D01*
X74340000Y-70494417D01*
X74339999Y-70494417D01*
X74134067Y-70514699D01*
X73936043Y-70574769D01*
X73753551Y-70672314D01*
X73593589Y-70803589D01*
X73462314Y-70963551D01*
X73364769Y-71146043D01*
X73304699Y-71344067D01*
X73289798Y-71495358D01*
X73289797Y-71495374D01*
X73289500Y-71498392D01*
X73289500Y-73101608D01*
X73289797Y-73104626D01*
X73289798Y-73104641D01*
X73304699Y-73255932D01*
X73304700Y-73255934D01*
X73354689Y-73420729D01*
X73360537Y-73440005D01*
X73361160Y-73509872D01*
X73323912Y-73568985D01*
X73260617Y-73598576D01*
X73241876Y-73600000D01*
X72961846Y-73600000D01*
X72894807Y-73580315D01*
X72849052Y-73527511D01*
X72839108Y-73458353D01*
X72850845Y-73420729D01*
X72877406Y-73367386D01*
X72935756Y-73162310D01*
X72935764Y-73162219D01*
X72950500Y-73003194D01*
X72950500Y-71596806D01*
X72935756Y-71437690D01*
X72877405Y-71232611D01*
X72867444Y-71212607D01*
X72782368Y-71041747D01*
X72653873Y-70871594D01*
X72496301Y-70727947D01*
X72315017Y-70615701D01*
X72116198Y-70538679D01*
X72083218Y-70532514D01*
X71906610Y-70499500D01*
X71693390Y-70499500D01*
X71612078Y-70514700D01*
X71483801Y-70538679D01*
X71284982Y-70615701D01*
X71103698Y-70727947D01*
X70946125Y-70871595D01*
X70922953Y-70902280D01*
X70866844Y-70943915D01*
X70797131Y-70948606D01*
X70735950Y-70914863D01*
X70702724Y-70853399D01*
X70700000Y-70827552D01*
X70700000Y-69145000D01*
X73685001Y-69145000D01*
X73685001Y-69786213D01*
X73685412Y-69793335D01*
X73687910Y-69814876D01*
X73733213Y-69917479D01*
X73812519Y-69996785D01*
X73915125Y-70042090D01*
X73936659Y-70044588D01*
X73943780Y-70044999D01*
X74284999Y-70044999D01*
X74285000Y-70044998D01*
X74285000Y-69145000D01*
X73685001Y-69145000D01*
X70700000Y-69145000D01*
X70700000Y-68845000D01*
X73685000Y-68845000D01*
X74285000Y-68845000D01*
X74285000Y-67945000D01*
X73943786Y-67945000D01*
X73936664Y-67945412D01*
X73915123Y-67947910D01*
X73812520Y-67993213D01*
X73733214Y-68072519D01*
X73687909Y-68175125D01*
X73685411Y-68196659D01*
X73685000Y-68203780D01*
X73685000Y-68845000D01*
X70700000Y-68845000D01*
X70700000Y-68774499D01*
X70719685Y-68707460D01*
X70772489Y-68661705D01*
X70823996Y-68650499D01*
X72194864Y-68650499D01*
X72219991Y-68647585D01*
X72322765Y-68602206D01*
X72402206Y-68522765D01*
X72447585Y-68419991D01*
X72450500Y-68394865D01*
X72450499Y-67405136D01*
X72447585Y-67380009D01*
X72418919Y-67315086D01*
X72409847Y-67245808D01*
X72418919Y-67214913D01*
X72447585Y-67149991D01*
X72450500Y-67124865D01*
X72450499Y-66135136D01*
X72447585Y-66110009D01*
X72402206Y-66007235D01*
X72402204Y-66007233D01*
X72402204Y-66007232D01*
X72322767Y-65927795D01*
X72219990Y-65882414D01*
X72198414Y-65879911D01*
X72198401Y-65879910D01*
X72194865Y-65879500D01*
X72191290Y-65879500D01*
X71891194Y-65879500D01*
X71824155Y-65859815D01*
X71778400Y-65807011D01*
X71768456Y-65737853D01*
X71797481Y-65674297D01*
X71847223Y-65639558D01*
X72017930Y-65574818D01*
X72026544Y-65568872D01*
X72157929Y-65478183D01*
X72270734Y-65350852D01*
X72349790Y-65200225D01*
X72390500Y-65035056D01*
X72390500Y-64864944D01*
X72349790Y-64699775D01*
X72270734Y-64549148D01*
X72157929Y-64421817D01*
X72157928Y-64421816D01*
X72157927Y-64421815D01*
X72017930Y-64325182D01*
X71858872Y-64264860D01*
X71736092Y-64249951D01*
X71736080Y-64249950D01*
X71732372Y-64249500D01*
X71647628Y-64249500D01*
X71643920Y-64249950D01*
X71643907Y-64249951D01*
X71521127Y-64264860D01*
X71362069Y-64325182D01*
X71222072Y-64421815D01*
X71109265Y-64549149D01*
X71030209Y-64699775D01*
X70989500Y-64864944D01*
X70989500Y-65035056D01*
X70997328Y-65066815D01*
X71030209Y-65200224D01*
X71081719Y-65298366D01*
X71109266Y-65350852D01*
X71180384Y-65431128D01*
X71222072Y-65478184D01*
X71362069Y-65574818D01*
X71532777Y-65639558D01*
X71588480Y-65681736D01*
X71612537Y-65747333D01*
X71597310Y-65815523D01*
X71547635Y-65864657D01*
X71488806Y-65879500D01*
X70824000Y-65879500D01*
X70756961Y-65859815D01*
X70711206Y-65807011D01*
X70700000Y-65755500D01*
X70700000Y-61154499D01*
X70719685Y-61087460D01*
X70772489Y-61041705D01*
X70823996Y-61030499D01*
X71462442Y-61030499D01*
X71529480Y-61050184D01*
X71575235Y-61102988D01*
X71585179Y-61172146D01*
X71556154Y-61235702D01*
X71506412Y-61270441D01*
X71362069Y-61325182D01*
X71222072Y-61421815D01*
X71109265Y-61549149D01*
X71030209Y-61699775D01*
X71003889Y-61806564D01*
X70989500Y-61864944D01*
X70989500Y-62035056D01*
X70993448Y-62051074D01*
X71030209Y-62200224D01*
X71095769Y-62325136D01*
X71109266Y-62350852D01*
X71180384Y-62431128D01*
X71222072Y-62478184D01*
X71256089Y-62501664D01*
X71362070Y-62574818D01*
X71521128Y-62635140D01*
X71647628Y-62650500D01*
X71651377Y-62650500D01*
X71728623Y-62650500D01*
X71732372Y-62650500D01*
X71858872Y-62635140D01*
X72017930Y-62574818D01*
X72157929Y-62478183D01*
X72270734Y-62350852D01*
X72349790Y-62200225D01*
X72390500Y-62035056D01*
X72390500Y-61864944D01*
X72349790Y-61699775D01*
X72270734Y-61549148D01*
X72157929Y-61421817D01*
X72157928Y-61421816D01*
X72157927Y-61421815D01*
X72017930Y-61325182D01*
X71873588Y-61270441D01*
X71817886Y-61228264D01*
X71793828Y-61162666D01*
X71809055Y-61094476D01*
X71858730Y-61045342D01*
X71917558Y-61030499D01*
X72194864Y-61030499D01*
X72219991Y-61027585D01*
X72322765Y-60982206D01*
X72402206Y-60902765D01*
X72447585Y-60799991D01*
X72450500Y-60774865D01*
X72450499Y-59785136D01*
X72447585Y-59760009D01*
X72418919Y-59695086D01*
X72409847Y-59625808D01*
X72418919Y-59594913D01*
X72429181Y-59571672D01*
X72447585Y-59529991D01*
X72450500Y-59504865D01*
X72450499Y-58515136D01*
X72447585Y-58490009D01*
X72418919Y-58425086D01*
X72409847Y-58355808D01*
X72418919Y-58324913D01*
X72447585Y-58259991D01*
X72450500Y-58234865D01*
X72450499Y-57245136D01*
X72447585Y-57220009D01*
X72418919Y-57155086D01*
X72409847Y-57085808D01*
X72418919Y-57054913D01*
X72447585Y-56989991D01*
X72450500Y-56964865D01*
X72450499Y-55975136D01*
X72447585Y-55950009D01*
X72418919Y-55885086D01*
X72409847Y-55815808D01*
X72418919Y-55784913D01*
X72447585Y-55719991D01*
X72450500Y-55694865D01*
X72450499Y-54705136D01*
X72447585Y-54680009D01*
X72418919Y-54615086D01*
X72409847Y-54545808D01*
X72418919Y-54514913D01*
X72455163Y-54432829D01*
X72458859Y-54434461D01*
X72473091Y-54400894D01*
X72530813Y-54361524D01*
X72568993Y-54355500D01*
X75179097Y-54355500D01*
X75246136Y-54375185D01*
X75291891Y-54427989D01*
X75302193Y-54464553D01*
X75314860Y-54568872D01*
X75375182Y-54727930D01*
X75471815Y-54867927D01*
X75471816Y-54867928D01*
X75471817Y-54867929D01*
X75599148Y-54980734D01*
X75749775Y-55059790D01*
X75914944Y-55100500D01*
X75914945Y-55100500D01*
X76085055Y-55100500D01*
X76085056Y-55100500D01*
X76250225Y-55059790D01*
X76400852Y-54980734D01*
X76528183Y-54867929D01*
X76624818Y-54727930D01*
X76685140Y-54568872D01*
X76705645Y-54400000D01*
X76685140Y-54231128D01*
X76624818Y-54072070D01*
X76528183Y-53932071D01*
X76400852Y-53819266D01*
X76359882Y-53797763D01*
X76250224Y-53740209D01*
X76125765Y-53709533D01*
X76085056Y-53699500D01*
X75952610Y-53699500D01*
X75885571Y-53679815D01*
X75864929Y-53663181D01*
X75807194Y-53605446D01*
X75783220Y-53581471D01*
X75761703Y-53570508D01*
X75745111Y-53560340D01*
X75725582Y-53546151D01*
X75702616Y-53538689D01*
X75684638Y-53531242D01*
X75663128Y-53520282D01*
X75663127Y-53520281D01*
X75663126Y-53520281D01*
X75639270Y-53516502D01*
X75620359Y-53511962D01*
X75597393Y-53504500D01*
X75563488Y-53504500D01*
X75188110Y-53504500D01*
X75121071Y-53484815D01*
X75075316Y-53432011D01*
X75065372Y-53362853D01*
X75094397Y-53299297D01*
X75105874Y-53287692D01*
X75128183Y-53267929D01*
X75224818Y-53127930D01*
X75285140Y-52968872D01*
X75305645Y-52800000D01*
X75285140Y-52631128D01*
X75224818Y-52472070D01*
X75128183Y-52332071D01*
X75000852Y-52219266D01*
X74982245Y-52209500D01*
X74850224Y-52140209D01*
X74725765Y-52109533D01*
X74685056Y-52099500D01*
X74514944Y-52099500D01*
X74482284Y-52107549D01*
X74349775Y-52140209D01*
X74274673Y-52179626D01*
X74244817Y-52195296D01*
X74187192Y-52209500D01*
X72559067Y-52209500D01*
X72492028Y-52189815D01*
X72446273Y-52137011D01*
X72445633Y-52135587D01*
X72418646Y-52074468D01*
X72409574Y-52005189D01*
X72418646Y-51974294D01*
X72447089Y-51909875D01*
X72449588Y-51888340D01*
X72450000Y-51881219D01*
X72450000Y-51540000D01*
X71374000Y-51540000D01*
X71306961Y-51520315D01*
X71261206Y-51467511D01*
X71250000Y-51416000D01*
X71250000Y-50640000D01*
X71550000Y-50640000D01*
X71550000Y-51240000D01*
X72449999Y-51240000D01*
X87850000Y-51240000D01*
X88750000Y-51240000D01*
X88750000Y-50640000D01*
X89050000Y-50640000D01*
X89050000Y-51240000D01*
X89949999Y-51240000D01*
X89949999Y-50898786D01*
X89949587Y-50891664D01*
X89947089Y-50870123D01*
X89901786Y-50767520D01*
X89822480Y-50688214D01*
X89719874Y-50642909D01*
X89698340Y-50640411D01*
X89691219Y-50640000D01*
X89050000Y-50640000D01*
X88750000Y-50640000D01*
X88108786Y-50640000D01*
X88101664Y-50640412D01*
X88080123Y-50642910D01*
X87977520Y-50688213D01*
X87898214Y-50767519D01*
X87852909Y-50870125D01*
X87850411Y-50891659D01*
X87850000Y-50898780D01*
X87850000Y-51240000D01*
X72449999Y-51240000D01*
X72449999Y-50898786D01*
X72449587Y-50891664D01*
X72447089Y-50870123D01*
X72401786Y-50767520D01*
X72322480Y-50688214D01*
X72219874Y-50642909D01*
X72198340Y-50640411D01*
X72191219Y-50640000D01*
X71550000Y-50640000D01*
X71250000Y-50640000D01*
X70824000Y-50640000D01*
X70756961Y-50620315D01*
X70711206Y-50567511D01*
X70700000Y-50516000D01*
X70700000Y-50374000D01*
X70719685Y-50306961D01*
X70772489Y-50261206D01*
X70824000Y-50250000D01*
X90376000Y-50250000D01*
X90443039Y-50269685D01*
G37*
%TD.AperFunction*%
%TD*%
M02*
