%TF.GenerationSoftware,KiCad,Pcbnew,7.0.2-1.fc38*%
%TF.CreationDate,2023-06-06T15:14:39+02:00*%
%TF.ProjectId,F0_MyCompass,46305f4d-7943-46f6-9d70-6173732e6b69,rev?*%
%TF.SameCoordinates,Original*%
%TF.FileFunction,Paste,Top*%
%TF.FilePolarity,Positive*%
%FSLAX46Y46*%
G04 Gerber Fmt 4.6, Leading zero omitted, Abs format (unit mm)*
G04 Created by KiCad (PCBNEW 7.0.2-1.fc38) date 2023-06-06 15:14:39*
%MOMM*%
%LPD*%
G01*
G04 APERTURE LIST*
G04 Aperture macros list*
%AMRoundRect*
0 Rectangle with rounded corners*
0 $1 Rounding radius*
0 $2 $3 $4 $5 $6 $7 $8 $9 X,Y pos of 4 corners*
0 Add a 4 corners polygon primitive as box body*
4,1,4,$2,$3,$4,$5,$6,$7,$8,$9,$2,$3,0*
0 Add four circle primitives for the rounded corners*
1,1,$1+$1,$2,$3*
1,1,$1+$1,$4,$5*
1,1,$1+$1,$6,$7*
1,1,$1+$1,$8,$9*
0 Add four rect primitives between the rounded corners*
20,1,$1+$1,$2,$3,$4,$5,0*
20,1,$1+$1,$4,$5,$6,$7,0*
20,1,$1+$1,$6,$7,$8,$9,0*
20,1,$1+$1,$8,$9,$2,$3,0*%
G04 Aperture macros list end*
%ADD10R,0.720000X0.580000*%
%ADD11R,0.580000X0.720000*%
%ADD12RoundRect,0.237500X-0.250000X-0.237500X0.250000X-0.237500X0.250000X0.237500X-0.250000X0.237500X0*%
G04 APERTURE END LIST*
D10*
%TO.C,U1*%
X95500000Y-85475000D03*
X95500000Y-86325000D03*
X95500000Y-87375000D03*
X95500000Y-88225000D03*
X95500000Y-89275000D03*
X95500000Y-90125000D03*
X95500000Y-91175000D03*
X95500000Y-92025000D03*
X95500000Y-93075000D03*
X95500000Y-93925000D03*
X96500000Y-85475000D03*
X96500000Y-86325000D03*
X96500000Y-87375000D03*
X96500000Y-88225000D03*
X96500000Y-89275000D03*
X96500000Y-90125000D03*
X96500000Y-91175000D03*
X96500000Y-92025000D03*
X96500000Y-93075000D03*
X96500000Y-93925000D03*
D11*
X98375000Y-82600000D03*
X98375000Y-83600000D03*
X98375000Y-95800000D03*
X98375000Y-96800000D03*
X99225000Y-82600000D03*
X99225000Y-83600000D03*
X99225000Y-95800000D03*
X99225000Y-96800000D03*
X100275000Y-82600000D03*
X100275000Y-83600000D03*
X100275000Y-95800000D03*
X100275000Y-96800000D03*
X101125000Y-82600000D03*
X101125000Y-83600000D03*
X101125000Y-95800000D03*
X101125000Y-96800000D03*
X102175000Y-82600000D03*
X102175000Y-83600000D03*
X102175000Y-95800000D03*
X102175000Y-96800000D03*
X103025000Y-82600000D03*
X103025000Y-83600000D03*
X103025000Y-95800000D03*
X103025000Y-96800000D03*
X104075000Y-82600000D03*
X104075000Y-83600000D03*
X104075000Y-95800000D03*
X104075000Y-96800000D03*
X104925000Y-82600000D03*
X104925000Y-83600000D03*
X104925000Y-95800000D03*
X104925000Y-96800000D03*
X105975000Y-82600000D03*
X105975000Y-83600000D03*
X105975000Y-95800000D03*
X105975000Y-96800000D03*
X106825000Y-82600000D03*
X106825000Y-83600000D03*
X106825000Y-95800000D03*
X106825000Y-96800000D03*
D10*
X108700000Y-85475000D03*
X108700000Y-86325000D03*
X108700000Y-87375000D03*
X108700000Y-88225000D03*
X108700000Y-89275000D03*
X108700000Y-90125000D03*
X108700000Y-91175000D03*
X108700000Y-92025000D03*
X108700000Y-93075000D03*
X108700000Y-93925000D03*
X109700000Y-85475000D03*
X109700000Y-86325000D03*
X109700000Y-87375000D03*
X109700000Y-88225000D03*
X109700000Y-89275000D03*
X109700000Y-90125000D03*
X109700000Y-91175000D03*
X109700000Y-92025000D03*
X109700000Y-93075000D03*
X109700000Y-93925000D03*
%TD*%
D12*
%TO.C,R1*%
X91187500Y-82800000D03*
X93012500Y-82800000D03*
%TD*%
M02*
