%TF.GenerationSoftware,KiCad,Pcbnew,7.0.2-1.fc38*%
%TF.CreationDate,2023-06-06T15:14:39+02:00*%
%TF.ProjectId,F0_MyCompass,46305f4d-7943-46f6-9d70-6173732e6b69,rev?*%
%TF.SameCoordinates,Original*%
%TF.FileFunction,Copper,L1,Top*%
%TF.FilePolarity,Positive*%
%FSLAX46Y46*%
G04 Gerber Fmt 4.6, Leading zero omitted, Abs format (unit mm)*
G04 Created by KiCad (PCBNEW 7.0.2-1.fc38) date 2023-06-06 15:14:39*
%MOMM*%
%LPD*%
G01*
G04 APERTURE LIST*
G04 Aperture macros list*
%AMRoundRect*
0 Rectangle with rounded corners*
0 $1 Rounding radius*
0 $2 $3 $4 $5 $6 $7 $8 $9 X,Y pos of 4 corners*
0 Add a 4 corners polygon primitive as box body*
4,1,4,$2,$3,$4,$5,$6,$7,$8,$9,$2,$3,0*
0 Add four circle primitives for the rounded corners*
1,1,$1+$1,$2,$3*
1,1,$1+$1,$4,$5*
1,1,$1+$1,$6,$7*
1,1,$1+$1,$8,$9*
0 Add four rect primitives between the rounded corners*
20,1,$1+$1,$2,$3,$4,$5,0*
20,1,$1+$1,$4,$5,$6,$7,0*
20,1,$1+$1,$6,$7,$8,$9,0*
20,1,$1+$1,$8,$9,$2,$3,0*%
G04 Aperture macros list end*
%TA.AperFunction,ComponentPad*%
%ADD10R,1.700000X1.700000*%
%TD*%
%TA.AperFunction,ComponentPad*%
%ADD11O,1.700000X1.700000*%
%TD*%
%TA.AperFunction,SMDPad,CuDef*%
%ADD12R,1.800000X1.500000*%
%TD*%
%TA.AperFunction,SMDPad,CuDef*%
%ADD13R,1.500000X1.800000*%
%TD*%
%TA.AperFunction,SMDPad,CuDef*%
%ADD14RoundRect,0.237500X-0.250000X-0.237500X0.250000X-0.237500X0.250000X0.237500X-0.250000X0.237500X0*%
%TD*%
%TA.AperFunction,ComponentPad*%
%ADD15C,1.700000*%
%TD*%
%TA.AperFunction,ViaPad*%
%ADD16C,0.800000*%
%TD*%
%TA.AperFunction,Conductor*%
%ADD17C,0.250000*%
%TD*%
G04 APERTURE END LIST*
D10*
%TO.P,GY-271,1,Pin_1*%
%TO.N,+3V3*%
X92850000Y-95850000D03*
D11*
%TO.P,GY-271,2,Pin_2*%
%TO.N,GND*%
X92850000Y-93310000D03*
%TO.P,GY-271,3,Pin_3*%
%TO.N,Net-(GY-271-Pin_3)*%
X92850000Y-90770000D03*
%TO.P,GY-271,4,Pin_4*%
%TO.N,Net-(GY-271-Pin_4)*%
X92850000Y-88230000D03*
%TO.P,GY-271,5,Pin_5*%
%TO.N,unconnected-(GY-271-Pin_5-Pad5)*%
X92850000Y-85690000D03*
%TD*%
D12*
%TO.P,U1,1,GND*%
%TO.N,GND*%
X96000000Y-85900000D03*
%TO.P,U1,2,VCC_IO*%
%TO.N,+3V3*%
X96000000Y-87800000D03*
%TO.P,U1,3,V_BCKP*%
X96000000Y-89700000D03*
%TO.P,U1,4,GND*%
%TO.N,GND*%
X96000000Y-91600000D03*
%TO.P,U1,5,GND*%
X96000000Y-93500000D03*
D13*
%TO.P,U1,6,GND*%
X98800000Y-96300000D03*
%TO.P,U1,7,TIMEPULSE*%
%TO.N,unconnected-(U1-TIMEPULSE-Pad7)*%
X100700000Y-96300000D03*
%TO.P,U1,8,~{SAFEBOOT}*%
%TO.N,unconnected-(U1-~{SAFEBOOT}-Pad8)*%
X102600000Y-96300000D03*
%TO.P,U1,9,SDA*%
%TO.N,Net-(GY-271-Pin_4)*%
X104500000Y-96300000D03*
%TO.P,U1,10,GND*%
%TO.N,GND*%
X106400000Y-96300000D03*
D12*
%TO.P,U1,11,GND*%
X109200000Y-93500000D03*
%TO.P,U1,12,SCL*%
%TO.N,Net-(GY-271-Pin_3)*%
X109200000Y-91600000D03*
%TO.P,U1,13,TXD*%
%TO.N,Net-(U1-TXD)*%
X109200000Y-89700000D03*
%TO.P,U1,14,RXD*%
%TO.N,Net-(U1-RXD)*%
X109200000Y-87800000D03*
%TO.P,U1,15,GND*%
%TO.N,GND*%
X109200000Y-85900000D03*
D13*
%TO.P,U1,16,GND*%
X106400000Y-83100000D03*
%TO.P,U1,17,VCC*%
%TO.N,+3V3*%
X104500000Y-83100000D03*
%TO.P,U1,18,~{RESET}*%
%TO.N,Net-(U1-~{RESET})*%
X102600000Y-83100000D03*
%TO.P,U1,19,EXTINT*%
%TO.N,unconnected-(U1-EXTINT-Pad19)*%
X100700000Y-83100000D03*
%TO.P,U1,20,GND*%
%TO.N,GND*%
X98800000Y-83100000D03*
%TD*%
D14*
%TO.P,R1,1*%
%TO.N,+3V3*%
X91187500Y-82800000D03*
%TO.P,R1,2*%
%TO.N,Net-(U1-~{RESET})*%
X93012500Y-82800000D03*
%TD*%
D15*
%TO.P,J1,1,Pin_1*%
%TO.N,Net-(J1-Pin_1)*%
X82220000Y-100000000D03*
D11*
%TO.P,J1,2,Pin_2*%
%TO.N,unconnected-(J1-Pin_2-Pad2)*%
X84760000Y-100000000D03*
%TO.P,J1,3,Pin_3*%
%TO.N,GND*%
X87300000Y-100000000D03*
%TO.P,J1,4,Pin_4*%
%TO.N,unconnected-(J1-Pin_4-Pad4)*%
X89840000Y-100000000D03*
%TO.P,J1,5,Pin_5*%
%TO.N,Net-(J1-Pin_5)*%
X92380000Y-100000000D03*
%TO.P,J1,6,Pin_6*%
%TO.N,Net-(J1-Pin_6)*%
X94920000Y-100000000D03*
%TO.P,J1,7,Pin_7*%
%TO.N,Net-(GY-271-Pin_4)*%
X97460000Y-100000000D03*
%TO.P,J1,8,Pin_8*%
%TO.N,Net-(GY-271-Pin_3)*%
X100000000Y-100000000D03*
%TO.P,J1,9,Pin_9*%
%TO.N,unconnected-(J1-Pin_9-Pad9)*%
X102540000Y-100000000D03*
%TO.P,J1,10,Pin_10*%
%TO.N,GND*%
X105080000Y-100000000D03*
%TD*%
D16*
%TO.N,+3V3*%
X89300000Y-86800000D03*
%TO.N,GND*%
X95900000Y-83300000D03*
X104900000Y-93500000D03*
X89900000Y-97800000D03*
X98800000Y-90200000D03*
X109000000Y-83200000D03*
X109100000Y-96000000D03*
X90300000Y-92100000D03*
X84600000Y-86600000D03*
%TO.N,Net-(U1-RXD)*%
X106900000Y-87800000D03*
%TO.N,Net-(U1-TXD)*%
X106900000Y-89700000D03*
%TD*%
D17*
%TO.N,+3V3*%
X94500000Y-87450000D02*
X94500000Y-84750000D01*
X94500000Y-84750000D02*
X93750000Y-84000000D01*
X93750000Y-84000000D02*
X92387500Y-84000000D01*
X92387500Y-84000000D02*
X91187500Y-82800000D01*
X96000000Y-87800000D02*
X94850000Y-87800000D01*
X94850000Y-87800000D02*
X94500000Y-87450000D01*
X104500000Y-83500000D02*
X102700000Y-85300000D01*
X89300000Y-86800000D02*
X91187500Y-84912500D01*
X104500000Y-83100000D02*
X104500000Y-83500000D01*
X96000000Y-87800000D02*
X96000000Y-89700000D01*
X98600000Y-87800000D02*
X96000000Y-87800000D01*
X102700000Y-85300000D02*
X101100000Y-85300000D01*
X101100000Y-85300000D02*
X98600000Y-87800000D01*
X91187500Y-84912500D02*
X91187500Y-82800000D01*
%TO.N,Net-(GY-271-Pin_3)*%
X104036396Y-98550000D02*
X101450000Y-98550000D01*
X107600000Y-92050000D02*
X107600000Y-97400000D01*
X101450000Y-98550000D02*
X100000000Y-100000000D01*
X106100000Y-98500000D02*
X104086396Y-98500000D01*
X107200000Y-97800000D02*
X106800000Y-97800000D01*
X106800000Y-97800000D02*
X106100000Y-98500000D01*
X104086396Y-98500000D02*
X104036396Y-98550000D01*
X107600000Y-97400000D02*
X107200000Y-97800000D01*
X109200000Y-91600000D02*
X108050000Y-91600000D01*
X108050000Y-91600000D02*
X107600000Y-92050000D01*
%TO.N,Net-(GY-271-Pin_4)*%
X99360000Y-98100000D02*
X97460000Y-100000000D01*
X103850000Y-98100000D02*
X99360000Y-98100000D01*
X92850000Y-88230000D02*
X94400000Y-89780000D01*
X104500000Y-96300000D02*
X104500000Y-97450000D01*
X94400000Y-96940000D02*
X97460000Y-100000000D01*
X94400000Y-89780000D02*
X94400000Y-96940000D01*
X104500000Y-97450000D02*
X103850000Y-98100000D01*
%TO.N,Net-(U1-~{RESET})*%
X102600000Y-81950000D02*
X102600000Y-83100000D01*
X93012500Y-82800000D02*
X94212500Y-81600000D01*
X102250000Y-81600000D02*
X102600000Y-81950000D01*
X94212500Y-81600000D02*
X102250000Y-81600000D01*
%TO.N,Net-(U1-RXD)*%
X109200000Y-87800000D02*
X106900000Y-87800000D01*
%TO.N,Net-(U1-TXD)*%
X109200000Y-89700000D02*
X106900000Y-89700000D01*
%TD*%
%TA.AperFunction,Conductor*%
%TO.N,GND*%
G36*
X81006031Y-80004633D02*
G01*
X81160018Y-80007878D01*
X81171073Y-80008606D01*
X81180893Y-80009695D01*
X81308179Y-80023815D01*
X81311870Y-80024283D01*
X81464871Y-80046140D01*
X81476313Y-80048328D01*
X81609784Y-80080446D01*
X81612912Y-80081243D01*
X81762745Y-80121540D01*
X81774412Y-80125307D01*
X81901873Y-80173547D01*
X81904299Y-80174495D01*
X82049137Y-80232944D01*
X82060798Y-80238369D01*
X82180686Y-80301927D01*
X82319755Y-80378694D01*
X82331152Y-80385822D01*
X82439497Y-80462053D01*
X82570438Y-80556568D01*
X82581347Y-80565427D01*
X82673912Y-80649743D01*
X82797435Y-80763909D01*
X82807580Y-80774464D01*
X82865921Y-80842846D01*
X82921568Y-80908389D01*
X82986990Y-80985448D01*
X82990790Y-80991667D01*
X82993222Y-80994069D01*
X82998878Y-81000553D01*
X82999899Y-81000699D01*
X82999900Y-81000700D01*
X82999900Y-81000699D01*
X83023735Y-81004118D01*
X83032574Y-81000819D01*
X83041458Y-81000500D01*
X93628046Y-81000500D01*
X93695085Y-81020185D01*
X93740840Y-81072989D01*
X93750784Y-81142147D01*
X93721759Y-81205703D01*
X93715727Y-81212181D01*
X93139726Y-81788181D01*
X93078403Y-81821666D01*
X93052045Y-81824500D01*
X92716473Y-81824500D01*
X92716453Y-81824500D01*
X92713324Y-81824501D01*
X92710192Y-81824820D01*
X92710190Y-81824821D01*
X92612247Y-81834825D01*
X92448484Y-81889091D01*
X92301647Y-81979661D01*
X92187681Y-82093628D01*
X92126358Y-82127113D01*
X92056666Y-82122129D01*
X92012319Y-82093628D01*
X91898352Y-81979661D01*
X91751515Y-81889091D01*
X91587753Y-81834825D01*
X91489809Y-81824819D01*
X91489790Y-81824818D01*
X91486677Y-81824500D01*
X91483528Y-81824500D01*
X90891473Y-81824500D01*
X90891453Y-81824500D01*
X90888324Y-81824501D01*
X90885192Y-81824820D01*
X90885190Y-81824821D01*
X90787247Y-81834825D01*
X90623484Y-81889091D01*
X90476647Y-81979661D01*
X90354661Y-82101647D01*
X90264091Y-82248484D01*
X90209825Y-82412246D01*
X90199819Y-82510190D01*
X90199817Y-82510210D01*
X90199500Y-82513323D01*
X90199500Y-82516470D01*
X90199500Y-82516471D01*
X90199500Y-83083526D01*
X90199500Y-83083545D01*
X90199501Y-83086676D01*
X90199820Y-83089808D01*
X90199821Y-83089809D01*
X90209825Y-83187752D01*
X90264091Y-83351515D01*
X90354661Y-83498352D01*
X90476648Y-83620339D01*
X90503096Y-83636652D01*
X90549821Y-83688599D01*
X90562000Y-83742191D01*
X90562000Y-84602047D01*
X90542315Y-84669086D01*
X90525681Y-84689728D01*
X89352228Y-85863181D01*
X89290905Y-85896666D01*
X89264547Y-85899500D01*
X89205352Y-85899500D01*
X89020197Y-85938855D01*
X88847269Y-86015848D01*
X88694129Y-86127110D01*
X88567466Y-86267783D01*
X88472820Y-86431715D01*
X88414326Y-86611742D01*
X88394540Y-86800000D01*
X88414326Y-86988257D01*
X88472820Y-87168284D01*
X88567466Y-87332216D01*
X88694129Y-87472889D01*
X88847269Y-87584151D01*
X89020197Y-87661144D01*
X89205352Y-87700500D01*
X89205354Y-87700500D01*
X89394648Y-87700500D01*
X89518083Y-87674262D01*
X89579803Y-87661144D01*
X89752730Y-87584151D01*
X89905871Y-87472888D01*
X90032533Y-87332216D01*
X90127179Y-87168284D01*
X90185674Y-86988256D01*
X90203321Y-86820344D01*
X90229904Y-86755734D01*
X90238951Y-86745638D01*
X91290239Y-85694350D01*
X91351560Y-85660867D01*
X91421252Y-85665851D01*
X91477185Y-85707723D01*
X91501446Y-85771225D01*
X91514936Y-85925407D01*
X91518540Y-85938856D01*
X91576097Y-86153663D01*
X91675965Y-86367830D01*
X91811505Y-86561401D01*
X91978599Y-86728495D01*
X92164160Y-86858426D01*
X92207783Y-86913002D01*
X92214976Y-86982501D01*
X92183454Y-87044855D01*
X92164158Y-87061575D01*
X92004602Y-87173298D01*
X91978595Y-87191508D01*
X91811505Y-87358598D01*
X91675965Y-87552170D01*
X91576097Y-87766336D01*
X91514936Y-87994592D01*
X91494340Y-88230000D01*
X91514936Y-88465407D01*
X91549540Y-88594550D01*
X91576097Y-88693663D01*
X91675965Y-88907830D01*
X91811505Y-89101401D01*
X91978599Y-89268495D01*
X92164160Y-89398426D01*
X92207783Y-89453002D01*
X92214976Y-89522501D01*
X92183454Y-89584855D01*
X92164158Y-89601575D01*
X92023595Y-89699999D01*
X91978595Y-89731508D01*
X91811505Y-89898598D01*
X91675965Y-90092170D01*
X91576097Y-90306336D01*
X91514936Y-90534592D01*
X91494340Y-90769999D01*
X91514936Y-91005407D01*
X91551109Y-91140406D01*
X91576097Y-91233663D01*
X91675965Y-91447830D01*
X91811505Y-91641401D01*
X91978599Y-91808495D01*
X92164596Y-91938732D01*
X92208219Y-91993307D01*
X92215412Y-92062806D01*
X92183890Y-92125160D01*
X92164595Y-92141880D01*
X91978919Y-92271892D01*
X91811890Y-92438921D01*
X91676400Y-92632421D01*
X91576569Y-92846507D01*
X91519364Y-93059999D01*
X91519364Y-93060000D01*
X92416314Y-93060000D01*
X92390507Y-93100156D01*
X92350000Y-93238111D01*
X92350000Y-93381889D01*
X92390507Y-93519844D01*
X92416314Y-93560000D01*
X91519364Y-93560000D01*
X91576569Y-93773492D01*
X91676399Y-93987576D01*
X91811893Y-94181081D01*
X91933946Y-94303134D01*
X91967431Y-94364457D01*
X91962447Y-94434149D01*
X91920575Y-94490082D01*
X91889599Y-94506997D01*
X91757669Y-94556204D01*
X91642454Y-94642454D01*
X91556204Y-94757668D01*
X91507298Y-94888794D01*
X91505909Y-94892517D01*
X91499500Y-94952127D01*
X91499500Y-94955448D01*
X91499500Y-94955449D01*
X91499500Y-96744560D01*
X91499500Y-96744578D01*
X91499501Y-96747872D01*
X91505909Y-96807483D01*
X91556204Y-96942331D01*
X91642454Y-97057546D01*
X91757669Y-97143796D01*
X91892517Y-97194091D01*
X91952127Y-97200500D01*
X93747872Y-97200499D01*
X93746582Y-97200533D01*
X93814083Y-97216478D01*
X93853052Y-97251354D01*
X93873181Y-97279060D01*
X93879593Y-97288822D01*
X93901826Y-97326416D01*
X93901829Y-97326419D01*
X93901830Y-97326420D01*
X93915995Y-97340585D01*
X93928627Y-97355375D01*
X93940406Y-97371587D01*
X93974058Y-97399426D01*
X93982699Y-97407289D01*
X95007602Y-98432192D01*
X95041087Y-98493515D01*
X95036103Y-98563207D01*
X94994231Y-98619140D01*
X94930729Y-98643401D01*
X94684592Y-98664936D01*
X94456336Y-98726097D01*
X94242170Y-98825965D01*
X94048598Y-98961505D01*
X93881505Y-99128598D01*
X93751575Y-99314159D01*
X93696998Y-99357784D01*
X93627500Y-99364978D01*
X93565145Y-99333455D01*
X93548425Y-99314159D01*
X93440947Y-99160664D01*
X93418495Y-99128599D01*
X93251401Y-98961505D01*
X93057830Y-98825965D01*
X92843663Y-98726097D01*
X92782501Y-98709709D01*
X92615407Y-98664936D01*
X92379999Y-98644340D01*
X92144592Y-98664936D01*
X91916336Y-98726097D01*
X91702170Y-98825965D01*
X91508598Y-98961505D01*
X91341505Y-99128598D01*
X91211575Y-99314159D01*
X91156998Y-99357784D01*
X91087500Y-99364978D01*
X91025145Y-99333455D01*
X91008425Y-99314159D01*
X90900947Y-99160664D01*
X90878495Y-99128599D01*
X90711401Y-98961505D01*
X90517830Y-98825965D01*
X90303663Y-98726097D01*
X90242502Y-98709709D01*
X90075407Y-98664936D01*
X89840000Y-98644340D01*
X89604592Y-98664936D01*
X89376336Y-98726097D01*
X89162170Y-98825965D01*
X88968598Y-98961505D01*
X88801508Y-99128595D01*
X88801505Y-99128598D01*
X88801505Y-99128599D01*
X88779053Y-99160664D01*
X88671269Y-99314596D01*
X88616692Y-99358220D01*
X88547193Y-99365413D01*
X88484839Y-99333891D01*
X88468119Y-99314595D01*
X88338109Y-99128921D01*
X88171081Y-98961893D01*
X87977576Y-98826399D01*
X87763492Y-98726569D01*
X87550000Y-98669364D01*
X87550000Y-99564498D01*
X87442315Y-99515320D01*
X87335763Y-99500000D01*
X87264237Y-99500000D01*
X87157685Y-99515320D01*
X87050000Y-99564498D01*
X87050000Y-98669364D01*
X87049999Y-98669364D01*
X86836507Y-98726569D01*
X86622421Y-98826400D01*
X86428921Y-98961890D01*
X86261893Y-99128918D01*
X86131880Y-99314596D01*
X86077303Y-99358220D01*
X86007804Y-99365413D01*
X85945450Y-99333891D01*
X85928730Y-99314595D01*
X85820947Y-99160664D01*
X85798495Y-99128599D01*
X85631401Y-98961505D01*
X85437830Y-98825965D01*
X85223663Y-98726097D01*
X85162502Y-98709709D01*
X84995407Y-98664936D01*
X84760000Y-98644340D01*
X84524592Y-98664936D01*
X84296336Y-98726097D01*
X84082170Y-98825965D01*
X83888598Y-98961505D01*
X83721505Y-99128598D01*
X83591575Y-99314159D01*
X83536998Y-99357784D01*
X83467500Y-99364978D01*
X83405145Y-99333455D01*
X83388425Y-99314159D01*
X83280947Y-99160664D01*
X83258495Y-99128599D01*
X83091401Y-98961505D01*
X82897830Y-98825965D01*
X82683663Y-98726097D01*
X82622502Y-98709709D01*
X82455407Y-98664936D01*
X82220000Y-98644340D01*
X81984592Y-98664936D01*
X81756336Y-98726097D01*
X81542170Y-98825965D01*
X81348598Y-98961505D01*
X81181505Y-99128598D01*
X81045965Y-99322170D01*
X80946097Y-99536336D01*
X80884936Y-99764592D01*
X80864340Y-99999999D01*
X80884936Y-100235407D01*
X80910496Y-100330798D01*
X80946097Y-100463663D01*
X81045965Y-100677830D01*
X81181505Y-100871401D01*
X81348599Y-101038495D01*
X81542170Y-101174035D01*
X81756337Y-101273903D01*
X81968059Y-101330633D01*
X81984592Y-101335063D01*
X82219999Y-101355659D01*
X82219999Y-101355658D01*
X82220000Y-101355659D01*
X82455408Y-101335063D01*
X82683663Y-101273903D01*
X82897830Y-101174035D01*
X83091401Y-101038495D01*
X83258495Y-100871401D01*
X83388426Y-100685839D01*
X83443002Y-100642216D01*
X83512500Y-100635022D01*
X83574855Y-100666545D01*
X83591571Y-100685837D01*
X83721505Y-100871401D01*
X83888599Y-101038495D01*
X84082170Y-101174035D01*
X84296337Y-101273903D01*
X84524592Y-101335063D01*
X84760000Y-101355659D01*
X84995408Y-101335063D01*
X85223663Y-101273903D01*
X85437830Y-101174035D01*
X85631401Y-101038495D01*
X85798495Y-100871401D01*
X85928732Y-100685403D01*
X85983307Y-100641780D01*
X86052805Y-100634586D01*
X86115160Y-100666109D01*
X86131880Y-100685404D01*
X86261893Y-100871081D01*
X86428918Y-101038106D01*
X86622423Y-101173600D01*
X86836509Y-101273430D01*
X87050000Y-101330634D01*
X87050000Y-100435501D01*
X87157685Y-100484680D01*
X87264237Y-100500000D01*
X87335763Y-100500000D01*
X87442315Y-100484680D01*
X87550000Y-100435501D01*
X87550000Y-101330633D01*
X87763490Y-101273430D01*
X87977576Y-101173600D01*
X88171081Y-101038106D01*
X88338109Y-100871078D01*
X88468119Y-100685405D01*
X88522696Y-100641780D01*
X88592194Y-100634586D01*
X88654549Y-100666109D01*
X88671265Y-100685400D01*
X88801505Y-100871401D01*
X88968599Y-101038495D01*
X89162170Y-101174035D01*
X89376337Y-101273903D01*
X89604592Y-101335063D01*
X89840000Y-101355659D01*
X90075408Y-101335063D01*
X90303663Y-101273903D01*
X90517830Y-101174035D01*
X90711401Y-101038495D01*
X90878495Y-100871401D01*
X91008427Y-100685838D01*
X91063001Y-100642216D01*
X91132499Y-100635022D01*
X91194854Y-100666545D01*
X91211572Y-100685838D01*
X91341505Y-100871401D01*
X91508599Y-101038495D01*
X91702170Y-101174035D01*
X91916337Y-101273903D01*
X92128059Y-101330633D01*
X92144592Y-101335063D01*
X92379999Y-101355659D01*
X92379999Y-101355658D01*
X92380000Y-101355659D01*
X92615408Y-101335063D01*
X92843663Y-101273903D01*
X93057830Y-101174035D01*
X93251401Y-101038495D01*
X93418495Y-100871401D01*
X93548427Y-100685838D01*
X93603001Y-100642216D01*
X93672499Y-100635022D01*
X93734854Y-100666545D01*
X93751572Y-100685838D01*
X93881505Y-100871401D01*
X94048599Y-101038495D01*
X94242170Y-101174035D01*
X94456337Y-101273903D01*
X94668059Y-101330633D01*
X94684592Y-101335063D01*
X94919999Y-101355659D01*
X94919999Y-101355658D01*
X94920000Y-101355659D01*
X95155408Y-101335063D01*
X95383663Y-101273903D01*
X95597830Y-101174035D01*
X95791401Y-101038495D01*
X95958495Y-100871401D01*
X96088427Y-100685838D01*
X96143001Y-100642216D01*
X96212499Y-100635022D01*
X96274854Y-100666545D01*
X96291572Y-100685838D01*
X96421505Y-100871401D01*
X96588599Y-101038495D01*
X96782170Y-101174035D01*
X96996337Y-101273903D01*
X97224592Y-101335063D01*
X97460000Y-101355659D01*
X97695408Y-101335063D01*
X97923663Y-101273903D01*
X98137830Y-101174035D01*
X98331401Y-101038495D01*
X98498495Y-100871401D01*
X98628427Y-100685838D01*
X98683001Y-100642216D01*
X98752499Y-100635022D01*
X98814854Y-100666545D01*
X98831572Y-100685838D01*
X98961505Y-100871401D01*
X99128599Y-101038495D01*
X99322170Y-101174035D01*
X99536337Y-101273903D01*
X99764592Y-101335063D01*
X100000000Y-101355659D01*
X100235408Y-101335063D01*
X100463663Y-101273903D01*
X100677830Y-101174035D01*
X100871401Y-101038495D01*
X101038495Y-100871401D01*
X101168427Y-100685838D01*
X101223001Y-100642216D01*
X101292499Y-100635022D01*
X101354854Y-100666545D01*
X101371572Y-100685838D01*
X101501505Y-100871401D01*
X101668599Y-101038495D01*
X101862170Y-101174035D01*
X102076337Y-101273903D01*
X102304592Y-101335063D01*
X102540000Y-101355659D01*
X102775408Y-101335063D01*
X103003663Y-101273903D01*
X103217830Y-101174035D01*
X103411401Y-101038495D01*
X103578495Y-100871401D01*
X103708732Y-100685403D01*
X103763307Y-100641780D01*
X103832805Y-100634586D01*
X103895160Y-100666109D01*
X103911880Y-100685404D01*
X104041893Y-100871081D01*
X104208918Y-101038106D01*
X104402423Y-101173600D01*
X104616509Y-101273430D01*
X104830000Y-101330634D01*
X104830000Y-100435501D01*
X104937685Y-100484680D01*
X105044237Y-100500000D01*
X105115763Y-100500000D01*
X105222315Y-100484680D01*
X105330000Y-100435501D01*
X105330000Y-101330633D01*
X105543490Y-101273430D01*
X105757576Y-101173600D01*
X105951081Y-101038106D01*
X106118106Y-100871081D01*
X106253600Y-100677576D01*
X106353430Y-100463492D01*
X106410636Y-100250000D01*
X105513686Y-100250000D01*
X105539493Y-100209844D01*
X105580000Y-100071889D01*
X105580000Y-99928111D01*
X105539493Y-99790156D01*
X105513686Y-99750000D01*
X106410636Y-99750000D01*
X106410635Y-99749999D01*
X106353430Y-99536507D01*
X106253599Y-99322420D01*
X106228260Y-99286233D01*
X106205932Y-99220027D01*
X106222942Y-99152260D01*
X106273889Y-99104446D01*
X106284190Y-99099816D01*
X106297403Y-99094585D01*
X106308444Y-99090803D01*
X106350390Y-99078618D01*
X106367629Y-99068422D01*
X106385102Y-99059862D01*
X106403732Y-99052486D01*
X106439064Y-99026814D01*
X106448830Y-99020400D01*
X106486418Y-98998171D01*
X106486417Y-98998171D01*
X106486420Y-98998170D01*
X106500585Y-98984004D01*
X106515373Y-98971373D01*
X106531587Y-98959594D01*
X106559438Y-98925926D01*
X106567269Y-98917319D01*
X106687822Y-98796767D01*
X106749142Y-98763285D01*
X106818834Y-98768269D01*
X106874767Y-98810141D01*
X106899184Y-98875605D01*
X106899500Y-98884451D01*
X106899500Y-101675500D01*
X106879815Y-101742539D01*
X106827011Y-101788294D01*
X106775500Y-101799500D01*
X80524500Y-101799500D01*
X80457461Y-101779815D01*
X80411706Y-101727011D01*
X80400500Y-101675500D01*
X80400500Y-98224759D01*
X80400528Y-98224616D01*
X80400524Y-98224616D01*
X80400539Y-98200002D01*
X80400541Y-98200000D01*
X80400462Y-98199808D01*
X80400384Y-98199618D01*
X80400383Y-98199617D01*
X80400099Y-98199500D01*
X80400000Y-98199459D01*
X80375446Y-98199459D01*
X80375240Y-98199500D01*
X79124500Y-98199500D01*
X79057461Y-98179815D01*
X79011706Y-98127011D01*
X79000500Y-98075500D01*
X79000500Y-94685055D01*
X80169500Y-94685055D01*
X80210209Y-94850224D01*
X80249063Y-94924253D01*
X80289266Y-95000852D01*
X80402071Y-95128183D01*
X80402072Y-95128184D01*
X80445138Y-95157910D01*
X80542070Y-95224818D01*
X80701128Y-95285140D01*
X80827628Y-95300500D01*
X80831377Y-95300500D01*
X80908623Y-95300500D01*
X80912372Y-95300500D01*
X81038872Y-95285140D01*
X81197930Y-95224818D01*
X81337929Y-95128183D01*
X81450734Y-95000852D01*
X81529790Y-94850225D01*
X81570500Y-94685056D01*
X81570500Y-94514944D01*
X81529790Y-94349775D01*
X81450734Y-94199148D01*
X81337929Y-94071817D01*
X81337928Y-94071816D01*
X81337927Y-94071815D01*
X81197930Y-93975182D01*
X81038872Y-93914860D01*
X80916092Y-93899951D01*
X80916080Y-93899950D01*
X80912372Y-93899500D01*
X80827628Y-93899500D01*
X80823920Y-93899950D01*
X80823907Y-93899951D01*
X80701127Y-93914860D01*
X80542069Y-93975182D01*
X80402072Y-94071815D01*
X80289265Y-94199149D01*
X80210209Y-94349775D01*
X80169500Y-94514944D01*
X80169500Y-94685055D01*
X79000500Y-94685055D01*
X79000500Y-91514943D01*
X80169499Y-91514943D01*
X80169500Y-91514944D01*
X80169500Y-91685056D01*
X80174545Y-91705525D01*
X80210209Y-91850224D01*
X80259446Y-91944035D01*
X80289266Y-92000852D01*
X80402071Y-92128183D01*
X80542070Y-92224818D01*
X80701128Y-92285140D01*
X80827628Y-92300500D01*
X80831377Y-92300500D01*
X80908623Y-92300500D01*
X80912372Y-92300500D01*
X81038872Y-92285140D01*
X81197930Y-92224818D01*
X81337929Y-92128183D01*
X81450734Y-92000852D01*
X81529790Y-91850225D01*
X81570500Y-91685056D01*
X81570500Y-91514944D01*
X81529790Y-91349775D01*
X81450734Y-91199148D01*
X81337929Y-91071817D01*
X81337928Y-91071816D01*
X81337927Y-91071815D01*
X81197930Y-90975182D01*
X81038872Y-90914860D01*
X80916092Y-90899951D01*
X80916080Y-90899950D01*
X80912372Y-90899500D01*
X80827628Y-90899500D01*
X80823920Y-90899950D01*
X80823907Y-90899951D01*
X80701127Y-90914860D01*
X80542069Y-90975182D01*
X80402072Y-91071815D01*
X80289265Y-91199149D01*
X80210209Y-91349775D01*
X80169499Y-91514943D01*
X79000500Y-91514943D01*
X79000500Y-84010334D01*
X79001318Y-83998857D01*
X78993480Y-83989208D01*
X78886717Y-83827346D01*
X78837369Y-83752134D01*
X78830059Y-83739410D01*
X78770731Y-83620340D01*
X78755058Y-83588883D01*
X78735735Y-83549387D01*
X78700031Y-83476410D01*
X78694580Y-83463451D01*
X78685415Y-83437658D01*
X78640489Y-83311226D01*
X78631447Y-83284772D01*
X78597664Y-83185932D01*
X78594014Y-83172992D01*
X78559246Y-83017946D01*
X78531802Y-82885071D01*
X78529873Y-82872450D01*
X78514306Y-82716932D01*
X78514077Y-82714349D01*
X78511463Y-82680913D01*
X78503458Y-82578513D01*
X78503110Y-82566268D01*
X78504506Y-82500000D01*
X79494356Y-82500000D01*
X79514891Y-82747816D01*
X79514891Y-82747819D01*
X79514892Y-82747821D01*
X79575937Y-82988881D01*
X79601928Y-83048134D01*
X79675825Y-83216604D01*
X79675827Y-83216607D01*
X79811836Y-83424785D01*
X79980256Y-83607738D01*
X79996446Y-83620339D01*
X80176485Y-83760470D01*
X80176487Y-83760471D01*
X80176491Y-83760474D01*
X80395190Y-83878828D01*
X80630386Y-83959571D01*
X80875665Y-84000500D01*
X81124335Y-84000500D01*
X81369614Y-83959571D01*
X81604810Y-83878828D01*
X81823509Y-83760474D01*
X82019744Y-83607738D01*
X82188164Y-83424785D01*
X82324173Y-83216607D01*
X82424063Y-82988881D01*
X82485108Y-82747821D01*
X82505643Y-82500000D01*
X82485108Y-82252179D01*
X82424063Y-82011119D01*
X82324173Y-81783393D01*
X82188164Y-81575215D01*
X82019744Y-81392262D01*
X81895706Y-81295719D01*
X81823514Y-81239529D01*
X81823510Y-81239526D01*
X81823509Y-81239526D01*
X81604810Y-81121172D01*
X81604806Y-81121170D01*
X81604805Y-81121170D01*
X81369615Y-81040429D01*
X81124335Y-80999500D01*
X80875665Y-80999500D01*
X80630384Y-81040429D01*
X80395194Y-81121170D01*
X80395190Y-81121171D01*
X80395190Y-81121172D01*
X80359649Y-81140406D01*
X80176485Y-81239529D01*
X79980259Y-81392259D01*
X79980256Y-81392261D01*
X79980256Y-81392262D01*
X79835586Y-81549416D01*
X79811837Y-81575214D01*
X79675825Y-81783395D01*
X79599130Y-81958245D01*
X79575937Y-82011119D01*
X79533433Y-82178964D01*
X79514891Y-82252183D01*
X79494356Y-82500000D01*
X78504506Y-82500000D01*
X78506379Y-82411111D01*
X78506489Y-82407903D01*
X78513026Y-82270813D01*
X78514131Y-82259192D01*
X78514989Y-82253190D01*
X78535981Y-82106237D01*
X78536583Y-82102454D01*
X78560362Y-81966630D01*
X78562748Y-81955856D01*
X78602764Y-81807067D01*
X78603975Y-81802872D01*
X78644737Y-81670621D01*
X78648224Y-81660802D01*
X78705752Y-81518244D01*
X78707706Y-81513675D01*
X78764856Y-81387280D01*
X78769262Y-81378487D01*
X78843419Y-81244147D01*
X78846226Y-81239326D01*
X78918901Y-81120870D01*
X78923998Y-81113222D01*
X79013730Y-80988908D01*
X79017462Y-80984004D01*
X79104484Y-80875500D01*
X79110102Y-80868977D01*
X79214113Y-80756441D01*
X79218840Y-80751604D01*
X79318810Y-80654828D01*
X79324750Y-80649441D01*
X79441502Y-80550318D01*
X79447299Y-80545691D01*
X79558624Y-80462198D01*
X79564690Y-80457928D01*
X79692530Y-80373606D01*
X79699341Y-80369426D01*
X79820272Y-80300533D01*
X79826276Y-80297330D01*
X79963370Y-80229021D01*
X79971233Y-80225442D01*
X80099732Y-80172295D01*
X80105483Y-80170085D01*
X80249984Y-80118738D01*
X80258789Y-80115976D01*
X80392761Y-80079402D01*
X80398209Y-80078048D01*
X80547940Y-80044472D01*
X80557654Y-80042696D01*
X80694955Y-80023229D01*
X80699923Y-80022629D01*
X80852860Y-80007320D01*
X80863260Y-80006721D01*
X81001689Y-80004620D01*
X81006031Y-80004633D01*
G37*
%TD.AperFunction*%
%TA.AperFunction,Conductor*%
G36*
X109504417Y-81000815D02*
G01*
X109569755Y-81005489D01*
X109712453Y-81016719D01*
X109729056Y-81019168D01*
X109818500Y-81038625D01*
X109820979Y-81039192D01*
X109932570Y-81065983D01*
X109946925Y-81070365D01*
X110037735Y-81104236D01*
X110041696Y-81105794D01*
X110142794Y-81147670D01*
X110154758Y-81153394D01*
X110241588Y-81200807D01*
X110246915Y-81203892D01*
X110267025Y-81216215D01*
X110338433Y-81259974D01*
X110347951Y-81266432D01*
X110427845Y-81326241D01*
X110434037Y-81331193D01*
X110505535Y-81392259D01*
X110515086Y-81400416D01*
X110522235Y-81407025D01*
X110592973Y-81477763D01*
X110599582Y-81484912D01*
X110666770Y-81563579D01*
X110668793Y-81565947D01*
X110673764Y-81572162D01*
X110693471Y-81598487D01*
X110733564Y-81652045D01*
X110740024Y-81661565D01*
X110796100Y-81753072D01*
X110799206Y-81758436D01*
X110846602Y-81845237D01*
X110852330Y-81857209D01*
X110875679Y-81913578D01*
X110894181Y-81958245D01*
X110895790Y-81962335D01*
X110929627Y-82053056D01*
X110934019Y-82067442D01*
X110960793Y-82178964D01*
X110961385Y-82181553D01*
X110980828Y-82270933D01*
X110983280Y-82287561D01*
X110994517Y-82430330D01*
X110999184Y-82495584D01*
X110999500Y-82504425D01*
X110999500Y-96495572D01*
X110999184Y-96504418D01*
X110994517Y-96569668D01*
X110983279Y-96712441D01*
X110980828Y-96729066D01*
X110961390Y-96818423D01*
X110960798Y-96821012D01*
X110934019Y-96932556D01*
X110929627Y-96946942D01*
X110895790Y-97037663D01*
X110894169Y-97041784D01*
X110852330Y-97142789D01*
X110846602Y-97154761D01*
X110799206Y-97241562D01*
X110796100Y-97246926D01*
X110740024Y-97338433D01*
X110733564Y-97347953D01*
X110673770Y-97427829D01*
X110668793Y-97434051D01*
X110599582Y-97515086D01*
X110592973Y-97522235D01*
X110522235Y-97592973D01*
X110515086Y-97599582D01*
X110434051Y-97668793D01*
X110427829Y-97673770D01*
X110347953Y-97733564D01*
X110338433Y-97740024D01*
X110246926Y-97796100D01*
X110241562Y-97799206D01*
X110154761Y-97846602D01*
X110142789Y-97852330D01*
X110041784Y-97894169D01*
X110037663Y-97895790D01*
X109946942Y-97929627D01*
X109932556Y-97934019D01*
X109821012Y-97960798D01*
X109818423Y-97961390D01*
X109729067Y-97980828D01*
X109712439Y-97983280D01*
X109569669Y-97994517D01*
X109504416Y-97999184D01*
X109495575Y-97999500D01*
X108181640Y-97999500D01*
X108114601Y-97979815D01*
X108068846Y-97927011D01*
X108058902Y-97857853D01*
X108087927Y-97794297D01*
X108091249Y-97790615D01*
X108110062Y-97770582D01*
X108119717Y-97753018D01*
X108130394Y-97736764D01*
X108142673Y-97720936D01*
X108160018Y-97680852D01*
X108165160Y-97670356D01*
X108186197Y-97632092D01*
X108191179Y-97612684D01*
X108197481Y-97594280D01*
X108205437Y-97575896D01*
X108212269Y-97532752D01*
X108214633Y-97521338D01*
X108225500Y-97479019D01*
X108225500Y-97458982D01*
X108227027Y-97439584D01*
X108227903Y-97434051D01*
X108230160Y-97419804D01*
X108226050Y-97376324D01*
X108225500Y-97364655D01*
X108225500Y-94874000D01*
X108245185Y-94806961D01*
X108297989Y-94761206D01*
X108349500Y-94750000D01*
X108950000Y-94750000D01*
X108950000Y-93750000D01*
X109450000Y-93750000D01*
X109450000Y-94750000D01*
X110144518Y-94750000D01*
X110151132Y-94749645D01*
X110207371Y-94743599D01*
X110342089Y-94693352D01*
X110457188Y-94607188D01*
X110543352Y-94492089D01*
X110593599Y-94357371D01*
X110599645Y-94301132D01*
X110600000Y-94294518D01*
X110600000Y-93750000D01*
X109450000Y-93750000D01*
X108950000Y-93750000D01*
X108950000Y-93374000D01*
X108969685Y-93306961D01*
X109022489Y-93261206D01*
X109074000Y-93250000D01*
X110600000Y-93250000D01*
X110600000Y-92705481D01*
X110599646Y-92698885D01*
X110593597Y-92642622D01*
X110575480Y-92594049D01*
X110570494Y-92524358D01*
X110575474Y-92507395D01*
X110594091Y-92457483D01*
X110600500Y-92397873D01*
X110600499Y-90802128D01*
X110594091Y-90742517D01*
X110575745Y-90693331D01*
X110570762Y-90623643D01*
X110575747Y-90606665D01*
X110594091Y-90557483D01*
X110600500Y-90497873D01*
X110600499Y-88902128D01*
X110594091Y-88842517D01*
X110575745Y-88793331D01*
X110570762Y-88723643D01*
X110575747Y-88706665D01*
X110594091Y-88657483D01*
X110600500Y-88597873D01*
X110600499Y-87002128D01*
X110594091Y-86942517D01*
X110575478Y-86892615D01*
X110570495Y-86822926D01*
X110575480Y-86805947D01*
X110593598Y-86757374D01*
X110599646Y-86701114D01*
X110600000Y-86694518D01*
X110600000Y-86150000D01*
X107800000Y-86150000D01*
X107800000Y-86694518D01*
X107800354Y-86701132D01*
X107806401Y-86757375D01*
X107824519Y-86805953D01*
X107829503Y-86875644D01*
X107824520Y-86892617D01*
X107805909Y-86942517D01*
X107799500Y-87002127D01*
X107799500Y-87005449D01*
X107799500Y-87050500D01*
X107779815Y-87117539D01*
X107727011Y-87163294D01*
X107675500Y-87174500D01*
X107603747Y-87174500D01*
X107536708Y-87154815D01*
X107511599Y-87133473D01*
X107505871Y-87127112D01*
X107352730Y-87015849D01*
X107352729Y-87015848D01*
X107352727Y-87015847D01*
X107179802Y-86938855D01*
X106994648Y-86899500D01*
X106994646Y-86899500D01*
X106805354Y-86899500D01*
X106805352Y-86899500D01*
X106620197Y-86938855D01*
X106447269Y-87015848D01*
X106294129Y-87127110D01*
X106167466Y-87267783D01*
X106072820Y-87431715D01*
X106014326Y-87611742D01*
X105994540Y-87799999D01*
X106014326Y-87988257D01*
X106072820Y-88168284D01*
X106167466Y-88332216D01*
X106294129Y-88472889D01*
X106447269Y-88584151D01*
X106565341Y-88636721D01*
X106618578Y-88681971D01*
X106638899Y-88748820D01*
X106619854Y-88816044D01*
X106567488Y-88862299D01*
X106565341Y-88863279D01*
X106447269Y-88915848D01*
X106294129Y-89027110D01*
X106167466Y-89167783D01*
X106072820Y-89331715D01*
X106014326Y-89511742D01*
X105994540Y-89699999D01*
X106014326Y-89888257D01*
X106072820Y-90068284D01*
X106167466Y-90232216D01*
X106294129Y-90372889D01*
X106447269Y-90484151D01*
X106620197Y-90561144D01*
X106805352Y-90600500D01*
X106805354Y-90600500D01*
X106994648Y-90600500D01*
X107118083Y-90574262D01*
X107179803Y-90561144D01*
X107352730Y-90484151D01*
X107505871Y-90372888D01*
X107511598Y-90366527D01*
X107571084Y-90329879D01*
X107603747Y-90325500D01*
X107675501Y-90325500D01*
X107742540Y-90345185D01*
X107788295Y-90397989D01*
X107799501Y-90449499D01*
X107799501Y-90497872D01*
X107805909Y-90557483D01*
X107824252Y-90606665D01*
X107824253Y-90606666D01*
X107829237Y-90676358D01*
X107824253Y-90693331D01*
X107805909Y-90742513D01*
X107802954Y-90769999D01*
X107799500Y-90802127D01*
X107799500Y-90805449D01*
X107799500Y-90945657D01*
X107779815Y-91012696D01*
X107748382Y-91045977D01*
X107710931Y-91073185D01*
X107701174Y-91079595D01*
X107663580Y-91101829D01*
X107649413Y-91115996D01*
X107634624Y-91128626D01*
X107618413Y-91140404D01*
X107590572Y-91174058D01*
X107582711Y-91182697D01*
X107216211Y-91549197D01*
X107200112Y-91562095D01*
X107152097Y-91613224D01*
X107149393Y-91616015D01*
X107132628Y-91632780D01*
X107132621Y-91632787D01*
X107129880Y-91635529D01*
X107127499Y-91638597D01*
X107127490Y-91638608D01*
X107127411Y-91638711D01*
X107119842Y-91647572D01*
X107089935Y-91679420D01*
X107080285Y-91696974D01*
X107069609Y-91713228D01*
X107057326Y-91729063D01*
X107039975Y-91769158D01*
X107034838Y-91779644D01*
X107013802Y-91817907D01*
X107008821Y-91837309D01*
X107002520Y-91855711D01*
X106994561Y-91874102D01*
X106987728Y-91917242D01*
X106985360Y-91928674D01*
X106974499Y-91970977D01*
X106974500Y-91991016D01*
X106972973Y-92010414D01*
X106969840Y-92030194D01*
X106973950Y-92073673D01*
X106974500Y-92085343D01*
X106974500Y-94776000D01*
X106954815Y-94843039D01*
X106902011Y-94888794D01*
X106850500Y-94900000D01*
X106650000Y-94900000D01*
X106650000Y-96426000D01*
X106630315Y-96493039D01*
X106577511Y-96538794D01*
X106526000Y-96550000D01*
X106274000Y-96550000D01*
X106206961Y-96530315D01*
X106161206Y-96477511D01*
X106150000Y-96426000D01*
X106150000Y-94900000D01*
X105605482Y-94900000D01*
X105598867Y-94900354D01*
X105542624Y-94906401D01*
X105494046Y-94924519D01*
X105424354Y-94929503D01*
X105407381Y-94924519D01*
X105357485Y-94905909D01*
X105301166Y-94899854D01*
X105301165Y-94899853D01*
X105297873Y-94899500D01*
X105294550Y-94899500D01*
X103705439Y-94899500D01*
X103705420Y-94899500D01*
X103702128Y-94899501D01*
X103698848Y-94899853D01*
X103698840Y-94899854D01*
X103642514Y-94905909D01*
X103593332Y-94924253D01*
X103523640Y-94929237D01*
X103506667Y-94924253D01*
X103457484Y-94905909D01*
X103401166Y-94899854D01*
X103401165Y-94899853D01*
X103397873Y-94899500D01*
X103394550Y-94899500D01*
X101805439Y-94899500D01*
X101805420Y-94899500D01*
X101802128Y-94899501D01*
X101798848Y-94899853D01*
X101798840Y-94899854D01*
X101742514Y-94905909D01*
X101693332Y-94924253D01*
X101623640Y-94929237D01*
X101606667Y-94924253D01*
X101557484Y-94905909D01*
X101501166Y-94899854D01*
X101501165Y-94899853D01*
X101497873Y-94899500D01*
X101494550Y-94899500D01*
X99905439Y-94899500D01*
X99905420Y-94899500D01*
X99902128Y-94899501D01*
X99898848Y-94899853D01*
X99898840Y-94899854D01*
X99842516Y-94905909D01*
X99792616Y-94924520D01*
X99722924Y-94929503D01*
X99705953Y-94924519D01*
X99657375Y-94906401D01*
X99601132Y-94900354D01*
X99594518Y-94900000D01*
X99050000Y-94900000D01*
X99050000Y-96426000D01*
X99030315Y-96493039D01*
X98977511Y-96538794D01*
X98926000Y-96550000D01*
X97550000Y-96550000D01*
X97550000Y-97244518D01*
X97550354Y-97251132D01*
X97556400Y-97307371D01*
X97606647Y-97442089D01*
X97692811Y-97557188D01*
X97807910Y-97643352D01*
X97942628Y-97693599D01*
X97998867Y-97699645D01*
X98005482Y-97700000D01*
X98576047Y-97700000D01*
X98643086Y-97719685D01*
X98688841Y-97772489D01*
X98698785Y-97841647D01*
X98669760Y-97905203D01*
X98663728Y-97911681D01*
X97915646Y-98659762D01*
X97854323Y-98693247D01*
X97795872Y-98691856D01*
X97711930Y-98669364D01*
X97695405Y-98664936D01*
X97460000Y-98644340D01*
X97224591Y-98664936D01*
X97124125Y-98691855D01*
X97054275Y-98690192D01*
X97004352Y-98659761D01*
X95061818Y-96717227D01*
X95028333Y-96655904D01*
X95025500Y-96629555D01*
X95025500Y-96050000D01*
X97550000Y-96050000D01*
X98550000Y-96050000D01*
X98550000Y-94900000D01*
X98005482Y-94900000D01*
X97998867Y-94900354D01*
X97942628Y-94906400D01*
X97807910Y-94956647D01*
X97692811Y-95042811D01*
X97606647Y-95157910D01*
X97556400Y-95292628D01*
X97550354Y-95348867D01*
X97550000Y-95355481D01*
X97550000Y-96050000D01*
X95025500Y-96050000D01*
X95025500Y-94873999D01*
X95045185Y-94806960D01*
X95097989Y-94761206D01*
X95149500Y-94750000D01*
X95750000Y-94750000D01*
X95750000Y-93750000D01*
X96250000Y-93750000D01*
X96250000Y-94750000D01*
X96944518Y-94750000D01*
X96951132Y-94749645D01*
X97007371Y-94743599D01*
X97142089Y-94693352D01*
X97257188Y-94607188D01*
X97343352Y-94492089D01*
X97393599Y-94357371D01*
X97399645Y-94301132D01*
X97400000Y-94294518D01*
X97400000Y-93750000D01*
X96250000Y-93750000D01*
X95750000Y-93750000D01*
X95750000Y-93250000D01*
X96249999Y-93250000D01*
X97400000Y-93250000D01*
X97400000Y-92705481D01*
X97399646Y-92698885D01*
X97393597Y-92642621D01*
X97375214Y-92593335D01*
X97370228Y-92523643D01*
X97375214Y-92506665D01*
X97393597Y-92457378D01*
X97399646Y-92401114D01*
X97400000Y-92394518D01*
X97400000Y-91850000D01*
X96250000Y-91850000D01*
X96249999Y-93250000D01*
X95750000Y-93250000D01*
X95750000Y-91474000D01*
X95769685Y-91406961D01*
X95822489Y-91361206D01*
X95874000Y-91350000D01*
X97400000Y-91350000D01*
X97400000Y-90805481D01*
X97399646Y-90798885D01*
X97393597Y-90742622D01*
X97375480Y-90694049D01*
X97370494Y-90624358D01*
X97375474Y-90607395D01*
X97394091Y-90557483D01*
X97400500Y-90497873D01*
X97400499Y-88902128D01*
X97394091Y-88842517D01*
X97375745Y-88793331D01*
X97370762Y-88723643D01*
X97375747Y-88706665D01*
X97394091Y-88657483D01*
X97400500Y-88597873D01*
X97400500Y-88549500D01*
X97420185Y-88482461D01*
X97472989Y-88436706D01*
X97524500Y-88425500D01*
X98517256Y-88425500D01*
X98537762Y-88427764D01*
X98540665Y-88427672D01*
X98540667Y-88427673D01*
X98607872Y-88425561D01*
X98611768Y-88425500D01*
X98635448Y-88425500D01*
X98639350Y-88425500D01*
X98643313Y-88424999D01*
X98654962Y-88424080D01*
X98698627Y-88422709D01*
X98717859Y-88417120D01*
X98736918Y-88413174D01*
X98743196Y-88412381D01*
X98756792Y-88410664D01*
X98797407Y-88394582D01*
X98808444Y-88390803D01*
X98850390Y-88378618D01*
X98867629Y-88368422D01*
X98885102Y-88359862D01*
X98903732Y-88352486D01*
X98939064Y-88326814D01*
X98948830Y-88320400D01*
X98986418Y-88298171D01*
X98986417Y-88298171D01*
X98986420Y-88298170D01*
X99000585Y-88284004D01*
X99015373Y-88271373D01*
X99031587Y-88259594D01*
X99059438Y-88225926D01*
X99067279Y-88217309D01*
X101322771Y-85961819D01*
X101384095Y-85928334D01*
X101410453Y-85925500D01*
X102617256Y-85925500D01*
X102637762Y-85927764D01*
X102640665Y-85927672D01*
X102640667Y-85927673D01*
X102707872Y-85925561D01*
X102711768Y-85925500D01*
X102735448Y-85925500D01*
X102739350Y-85925500D01*
X102743313Y-85924999D01*
X102754962Y-85924080D01*
X102798627Y-85922709D01*
X102817859Y-85917120D01*
X102836918Y-85913174D01*
X102843196Y-85912381D01*
X102856792Y-85910664D01*
X102897407Y-85894582D01*
X102908444Y-85890803D01*
X102950390Y-85878618D01*
X102967629Y-85868422D01*
X102985102Y-85859862D01*
X103003732Y-85852486D01*
X103039064Y-85826814D01*
X103048830Y-85820400D01*
X103086418Y-85798171D01*
X103086417Y-85798171D01*
X103086420Y-85798170D01*
X103100585Y-85784004D01*
X103115373Y-85771373D01*
X103131587Y-85759594D01*
X103159438Y-85725926D01*
X103167279Y-85717309D01*
X103234588Y-85650000D01*
X107800000Y-85650000D01*
X108950000Y-85650000D01*
X108950000Y-84650000D01*
X109450000Y-84650000D01*
X109450000Y-85650000D01*
X110600000Y-85650000D01*
X110600000Y-85105481D01*
X110599645Y-85098867D01*
X110593599Y-85042628D01*
X110543352Y-84907910D01*
X110457188Y-84792811D01*
X110342089Y-84706647D01*
X110207371Y-84656400D01*
X110151132Y-84650354D01*
X110144518Y-84650000D01*
X109450000Y-84650000D01*
X108950000Y-84650000D01*
X108255482Y-84650000D01*
X108248867Y-84650354D01*
X108192628Y-84656400D01*
X108057910Y-84706647D01*
X107942811Y-84792811D01*
X107856647Y-84907910D01*
X107806400Y-85042628D01*
X107800354Y-85098867D01*
X107800000Y-85105481D01*
X107800000Y-85650000D01*
X103234588Y-85650000D01*
X104347771Y-84536818D01*
X104409095Y-84503333D01*
X104435453Y-84500499D01*
X105294561Y-84500499D01*
X105297872Y-84500499D01*
X105357483Y-84494091D01*
X105407382Y-84475479D01*
X105477069Y-84470494D01*
X105494048Y-84475480D01*
X105542621Y-84493597D01*
X105598885Y-84499646D01*
X105605482Y-84500000D01*
X106150000Y-84500000D01*
X106150000Y-83350000D01*
X106650000Y-83350000D01*
X106650000Y-84500000D01*
X107194518Y-84500000D01*
X107201132Y-84499645D01*
X107257371Y-84493599D01*
X107392089Y-84443352D01*
X107507188Y-84357188D01*
X107593352Y-84242089D01*
X107643599Y-84107371D01*
X107649645Y-84051132D01*
X107650000Y-84044518D01*
X107650000Y-83350000D01*
X106650000Y-83350000D01*
X106150000Y-83350000D01*
X106150000Y-81700000D01*
X106650000Y-81700000D01*
X106650000Y-82850000D01*
X107650000Y-82850000D01*
X107650000Y-82155481D01*
X107649645Y-82148867D01*
X107643599Y-82092628D01*
X107593352Y-81957910D01*
X107507188Y-81842811D01*
X107392089Y-81756647D01*
X107257371Y-81706400D01*
X107201132Y-81700354D01*
X107194518Y-81700000D01*
X106650000Y-81700000D01*
X106150000Y-81700000D01*
X105605482Y-81700000D01*
X105598867Y-81700354D01*
X105542624Y-81706401D01*
X105494046Y-81724519D01*
X105424354Y-81729503D01*
X105407381Y-81724519D01*
X105357485Y-81705909D01*
X105301166Y-81699854D01*
X105301165Y-81699853D01*
X105297873Y-81699500D01*
X105294550Y-81699500D01*
X103705439Y-81699500D01*
X103705420Y-81699500D01*
X103702128Y-81699501D01*
X103698848Y-81699853D01*
X103698840Y-81699854D01*
X103642514Y-81705909D01*
X103593332Y-81724253D01*
X103523640Y-81729237D01*
X103506667Y-81724253D01*
X103457484Y-81705909D01*
X103401166Y-81699854D01*
X103401165Y-81699853D01*
X103397873Y-81699500D01*
X103394551Y-81699500D01*
X103254342Y-81699500D01*
X103187303Y-81679815D01*
X103154024Y-81648385D01*
X103126815Y-81610935D01*
X103120401Y-81601171D01*
X103103249Y-81572169D01*
X103098170Y-81563580D01*
X103084006Y-81549416D01*
X103071368Y-81534619D01*
X103059593Y-81518412D01*
X103025942Y-81490573D01*
X103017302Y-81482711D01*
X102750805Y-81216215D01*
X102733777Y-81194957D01*
X102731218Y-81190923D01*
X102711929Y-81123769D01*
X102732009Y-81056846D01*
X102785082Y-81011404D01*
X102835927Y-81000500D01*
X109495574Y-81000500D01*
X109504417Y-81000815D01*
G37*
%TD.AperFunction*%
%TA.AperFunction,Conductor*%
G36*
X97493039Y-82245185D02*
G01*
X97538794Y-82297989D01*
X97550000Y-82349500D01*
X97550000Y-82850000D01*
X98926000Y-82850000D01*
X98993039Y-82869685D01*
X99038794Y-82922489D01*
X99050000Y-82974000D01*
X99050000Y-84500000D01*
X99594518Y-84500000D01*
X99601114Y-84499646D01*
X99657374Y-84493598D01*
X99705947Y-84475480D01*
X99775639Y-84470494D01*
X99792615Y-84475479D01*
X99811081Y-84482366D01*
X99841192Y-84493597D01*
X99842517Y-84494091D01*
X99902127Y-84500500D01*
X100769834Y-84500499D01*
X100836872Y-84520183D01*
X100882627Y-84572987D01*
X100892571Y-84642146D01*
X100863546Y-84705702D01*
X100832903Y-84731261D01*
X100832319Y-84731606D01*
X100814904Y-84740133D01*
X100796267Y-84747512D01*
X100760931Y-84773185D01*
X100751174Y-84779595D01*
X100713580Y-84801829D01*
X100699413Y-84815996D01*
X100684624Y-84828626D01*
X100668413Y-84840404D01*
X100640572Y-84874058D01*
X100632711Y-84882697D01*
X98377228Y-87138181D01*
X98315905Y-87171666D01*
X98289547Y-87174500D01*
X97524499Y-87174500D01*
X97457460Y-87154815D01*
X97411705Y-87102011D01*
X97400499Y-87050500D01*
X97400499Y-87005439D01*
X97400499Y-87005438D01*
X97400499Y-87002128D01*
X97394091Y-86942517D01*
X97375478Y-86892615D01*
X97370495Y-86822926D01*
X97375480Y-86805947D01*
X97393598Y-86757374D01*
X97399646Y-86701114D01*
X97400000Y-86694518D01*
X97400000Y-86150000D01*
X95874000Y-86150000D01*
X95806961Y-86130315D01*
X95761206Y-86077511D01*
X95750000Y-86026000D01*
X95750000Y-84650000D01*
X96250000Y-84650000D01*
X96250000Y-85650000D01*
X97400000Y-85650000D01*
X97400000Y-85105481D01*
X97399645Y-85098867D01*
X97393599Y-85042628D01*
X97343352Y-84907910D01*
X97257188Y-84792811D01*
X97142089Y-84706647D01*
X97007371Y-84656400D01*
X96951132Y-84650354D01*
X96944518Y-84650000D01*
X96250000Y-84650000D01*
X95750000Y-84650000D01*
X95217420Y-84650000D01*
X95150381Y-84630315D01*
X95104626Y-84577511D01*
X95102128Y-84571649D01*
X95094588Y-84552606D01*
X95090804Y-84541552D01*
X95078619Y-84499613D01*
X95078618Y-84499612D01*
X95078618Y-84499610D01*
X95068417Y-84482361D01*
X95059860Y-84464895D01*
X95052486Y-84446268D01*
X95026813Y-84410932D01*
X95020402Y-84401172D01*
X95018609Y-84398141D01*
X94998170Y-84363579D01*
X94984006Y-84349415D01*
X94971369Y-84334620D01*
X94959595Y-84318414D01*
X94949533Y-84310090D01*
X94925935Y-84290568D01*
X94917305Y-84282714D01*
X94250802Y-83616211D01*
X94237906Y-83600113D01*
X94186775Y-83552098D01*
X94183978Y-83549387D01*
X94167227Y-83532636D01*
X94164471Y-83529880D01*
X94161290Y-83527412D01*
X94152422Y-83519837D01*
X94120582Y-83489938D01*
X94103024Y-83480285D01*
X94086764Y-83469604D01*
X94070936Y-83457327D01*
X94030851Y-83439980D01*
X94020348Y-83434834D01*
X94015980Y-83432432D01*
X93966722Y-83382880D01*
X93959672Y-83350000D01*
X97550000Y-83350000D01*
X97550000Y-84044518D01*
X97550354Y-84051132D01*
X97556400Y-84107371D01*
X97606647Y-84242089D01*
X97692811Y-84357188D01*
X97807910Y-84443352D01*
X97942628Y-84493599D01*
X97998867Y-84499645D01*
X98005482Y-84500000D01*
X98550000Y-84500000D01*
X98550000Y-83350000D01*
X97550000Y-83350000D01*
X93959672Y-83350000D01*
X93952073Y-83314563D01*
X93958022Y-83284778D01*
X93990174Y-83187753D01*
X94000500Y-83086677D01*
X94000499Y-82747951D01*
X94020183Y-82680913D01*
X94036813Y-82660276D01*
X94435271Y-82261819D01*
X94496595Y-82228334D01*
X94522953Y-82225500D01*
X97426000Y-82225500D01*
X97493039Y-82245185D01*
G37*
%TD.AperFunction*%
%TD*%
M02*
