M48
; DRILL file {KiCad 7.0.2-1.fc38} date mar 6 giu 2023, 15:14:37
; FORMAT={-:-/ absolute / inch / decimal}
; #@! TF.CreationDate,2023-06-06T15:14:37+02:00
; #@! TF.GenerationSoftware,Kicad,Pcbnew,7.0.2-1.fc38
; #@! TF.FileFunction,Plated,1,2,PTH
FMAT,2
INCH
; #@! TA.AperFunction,Plated,PTH,ViaDrill
T1C0.0157
; #@! TA.AperFunction,Plated,PTH,ComponentDrill
T2C0.0394
%
G90
G05
T1
X3.3307Y-3.4094
X3.5157Y-3.4173
X3.5394Y-3.8504
X3.5551Y-3.626
X3.7756Y-3.2795
X3.8898Y-3.5512
X4.1299Y-3.6811
X4.2087Y-3.4567
X4.2087Y-3.5315
X4.2913Y-3.2756
X4.2953Y-3.7795
T2
X3.237Y-3.937
X3.337Y-3.937
X3.437Y-3.937
X3.537Y-3.937
X3.637Y-3.937
X3.6555Y-3.3736
X3.6555Y-3.4736
X3.6555Y-3.5736
X3.6555Y-3.6736
X3.6555Y-3.7736
X3.737Y-3.937
X3.837Y-3.937
X3.937Y-3.937
X4.037Y-3.937
X4.137Y-3.937
T0
M30
