M48
; DRILL file {KiCad 7.0.2} date Sun May 28 00:49:19 2023
; FORMAT={-:-/ absolute / inch / decimal}
; #@! TF.CreationDate,2023-05-28T00:49:19+02:00
; #@! TF.GenerationSoftware,Kicad,Pcbnew,7.0.2
; #@! TF.FileFunction,Plated,1,2,PTH
FMAT,2
INCH
; #@! TA.AperFunction,Plated,PTH,ViaDrill
T1C0.0157
; #@! TA.AperFunction,Plated,PTH,ComponentDrill
T2C0.0354
; #@! TA.AperFunction,Plated,PTH,ComponentDrill
T3C0.0394
%
G90
G05
T1
X1.5394Y-3.7402
X1.6535Y-3.7244
X1.7756Y-3.6732
X1.9173Y-3.7047
X1.9449Y-3.5472
X2.0157Y-3.3465
X2.0157Y-3.4921
T2
X2.0811Y-3.2756
X2.1811Y-3.2756
T3
X1.3843Y-3.3142
X1.3843Y-3.4142
X1.3843Y-3.5142
X1.3843Y-3.6142
X1.4724Y-3.1063
X1.474Y-3.8228
X1.4843Y-3.3142
X1.4843Y-3.4142
X1.4843Y-3.5142
X1.4843Y-3.6142
X1.5724Y-3.1063
X1.574Y-3.8228
X1.6724Y-3.1063
X1.674Y-3.8228
X1.7724Y-3.1063
X1.774Y-3.8228
X1.8724Y-3.1063
X1.874Y-3.8228
X1.9724Y-3.1063
X1.974Y-3.8228
X2.0724Y-3.1063
X2.074Y-3.8228
X2.1724Y-3.1063
X2.174Y-3.8228
T0
M30
