%TF.GenerationSoftware,KiCad,Pcbnew,7.0.2*%
%TF.CreationDate,2023-05-28T00:49:17+02:00*%
%TF.ProjectId,cc1101_pcb,63633131-3031-45f7-9063-622e6b696361,rev?*%
%TF.SameCoordinates,Original*%
%TF.FileFunction,Legend,Bot*%
%TF.FilePolarity,Positive*%
%FSLAX46Y46*%
G04 Gerber Fmt 4.6, Leading zero omitted, Abs format (unit mm)*
G04 Created by KiCad (PCBNEW 7.0.2) date 2023-05-28 00:49:17*
%MOMM*%
%LPD*%
G01*
G04 APERTURE LIST*
%ADD10C,0.150000*%
%ADD11C,0.120000*%
G04 APERTURE END LIST*
D10*
X36461904Y-81474761D02*
X36366666Y-81522380D01*
X36366666Y-81522380D02*
X36223809Y-81522380D01*
X36223809Y-81522380D02*
X36080952Y-81474761D01*
X36080952Y-81474761D02*
X35985714Y-81379523D01*
X35985714Y-81379523D02*
X35938095Y-81284285D01*
X35938095Y-81284285D02*
X35890476Y-81093809D01*
X35890476Y-81093809D02*
X35890476Y-80950952D01*
X35890476Y-80950952D02*
X35938095Y-80760476D01*
X35938095Y-80760476D02*
X35985714Y-80665238D01*
X35985714Y-80665238D02*
X36080952Y-80570000D01*
X36080952Y-80570000D02*
X36223809Y-80522380D01*
X36223809Y-80522380D02*
X36319047Y-80522380D01*
X36319047Y-80522380D02*
X36461904Y-80570000D01*
X36461904Y-80570000D02*
X36509523Y-80617619D01*
X36509523Y-80617619D02*
X36509523Y-80950952D01*
X36509523Y-80950952D02*
X36319047Y-80950952D01*
X36938095Y-80522380D02*
X36938095Y-81522380D01*
X36938095Y-81522380D02*
X37509523Y-80522380D01*
X37509523Y-80522380D02*
X37509523Y-81522380D01*
X37985714Y-80522380D02*
X37985714Y-81522380D01*
X37985714Y-81522380D02*
X38223809Y-81522380D01*
X38223809Y-81522380D02*
X38366666Y-81474761D01*
X38366666Y-81474761D02*
X38461904Y-81379523D01*
X38461904Y-81379523D02*
X38509523Y-81284285D01*
X38509523Y-81284285D02*
X38557142Y-81093809D01*
X38557142Y-81093809D02*
X38557142Y-80950952D01*
X38557142Y-80950952D02*
X38509523Y-80760476D01*
X38509523Y-80760476D02*
X38461904Y-80665238D01*
X38461904Y-80665238D02*
X38366666Y-80570000D01*
X38366666Y-80570000D02*
X38223809Y-80522380D01*
X38223809Y-80522380D02*
X37985714Y-80522380D01*
X55514285Y-81522380D02*
X55038095Y-81522380D01*
X55038095Y-81522380D02*
X54990476Y-81046190D01*
X54990476Y-81046190D02*
X55038095Y-81093809D01*
X55038095Y-81093809D02*
X55133333Y-81141428D01*
X55133333Y-81141428D02*
X55371428Y-81141428D01*
X55371428Y-81141428D02*
X55466666Y-81093809D01*
X55466666Y-81093809D02*
X55514285Y-81046190D01*
X55514285Y-81046190D02*
X55561904Y-80950952D01*
X55561904Y-80950952D02*
X55561904Y-80712857D01*
X55561904Y-80712857D02*
X55514285Y-80617619D01*
X55514285Y-80617619D02*
X55466666Y-80570000D01*
X55466666Y-80570000D02*
X55371428Y-80522380D01*
X55371428Y-80522380D02*
X55133333Y-80522380D01*
X55133333Y-80522380D02*
X55038095Y-80570000D01*
X55038095Y-80570000D02*
X54990476Y-80617619D01*
X55847619Y-81522380D02*
X56180952Y-80522380D01*
X56180952Y-80522380D02*
X56514285Y-81522380D01*
X37685714Y-94577619D02*
X38161904Y-94577619D01*
X38161904Y-94577619D02*
X38209523Y-95053809D01*
X38209523Y-95053809D02*
X38161904Y-95006190D01*
X38161904Y-95006190D02*
X38066666Y-94958571D01*
X38066666Y-94958571D02*
X37828571Y-94958571D01*
X37828571Y-94958571D02*
X37733333Y-95006190D01*
X37733333Y-95006190D02*
X37685714Y-95053809D01*
X37685714Y-95053809D02*
X37638095Y-95149047D01*
X37638095Y-95149047D02*
X37638095Y-95387142D01*
X37638095Y-95387142D02*
X37685714Y-95482380D01*
X37685714Y-95482380D02*
X37733333Y-95530000D01*
X37733333Y-95530000D02*
X37828571Y-95577619D01*
X37828571Y-95577619D02*
X38066666Y-95577619D01*
X38066666Y-95577619D02*
X38161904Y-95530000D01*
X38161904Y-95530000D02*
X38209523Y-95482380D01*
X37352380Y-94577619D02*
X37019047Y-95577619D01*
X37019047Y-95577619D02*
X36685714Y-94577619D01*
X55938095Y-94625238D02*
X56033333Y-94577619D01*
X56033333Y-94577619D02*
X56176190Y-94577619D01*
X56176190Y-94577619D02*
X56319047Y-94625238D01*
X56319047Y-94625238D02*
X56414285Y-94720476D01*
X56414285Y-94720476D02*
X56461904Y-94815714D01*
X56461904Y-94815714D02*
X56509523Y-95006190D01*
X56509523Y-95006190D02*
X56509523Y-95149047D01*
X56509523Y-95149047D02*
X56461904Y-95339523D01*
X56461904Y-95339523D02*
X56414285Y-95434761D01*
X56414285Y-95434761D02*
X56319047Y-95530000D01*
X56319047Y-95530000D02*
X56176190Y-95577619D01*
X56176190Y-95577619D02*
X56080952Y-95577619D01*
X56080952Y-95577619D02*
X55938095Y-95530000D01*
X55938095Y-95530000D02*
X55890476Y-95482380D01*
X55890476Y-95482380D02*
X55890476Y-95149047D01*
X55890476Y-95149047D02*
X56080952Y-95149047D01*
X55461904Y-95577619D02*
X55461904Y-94577619D01*
X55461904Y-94577619D02*
X54890476Y-95577619D01*
X54890476Y-95577619D02*
X54890476Y-94577619D01*
X54414285Y-95577619D02*
X54414285Y-94577619D01*
X54414285Y-94577619D02*
X54176190Y-94577619D01*
X54176190Y-94577619D02*
X54033333Y-94625238D01*
X54033333Y-94625238D02*
X53938095Y-94720476D01*
X53938095Y-94720476D02*
X53890476Y-94815714D01*
X53890476Y-94815714D02*
X53842857Y-95006190D01*
X53842857Y-95006190D02*
X53842857Y-95149047D01*
X53842857Y-95149047D02*
X53890476Y-95339523D01*
X53890476Y-95339523D02*
X53938095Y-95434761D01*
X53938095Y-95434761D02*
X54033333Y-95530000D01*
X54033333Y-95530000D02*
X54176190Y-95577619D01*
X54176190Y-95577619D02*
X54414285Y-95577619D01*
X56061904Y-86277619D02*
X56061904Y-85277619D01*
X56061904Y-85277619D02*
X55823809Y-85277619D01*
X55823809Y-85277619D02*
X55680952Y-85325238D01*
X55680952Y-85325238D02*
X55585714Y-85420476D01*
X55585714Y-85420476D02*
X55538095Y-85515714D01*
X55538095Y-85515714D02*
X55490476Y-85706190D01*
X55490476Y-85706190D02*
X55490476Y-85849047D01*
X55490476Y-85849047D02*
X55538095Y-86039523D01*
X55538095Y-86039523D02*
X55585714Y-86134761D01*
X55585714Y-86134761D02*
X55680952Y-86230000D01*
X55680952Y-86230000D02*
X55823809Y-86277619D01*
X55823809Y-86277619D02*
X56061904Y-86277619D01*
X54633333Y-86277619D02*
X54633333Y-85753809D01*
X54633333Y-85753809D02*
X54680952Y-85658571D01*
X54680952Y-85658571D02*
X54776190Y-85610952D01*
X54776190Y-85610952D02*
X54966666Y-85610952D01*
X54966666Y-85610952D02*
X55061904Y-85658571D01*
X54633333Y-86230000D02*
X54728571Y-86277619D01*
X54728571Y-86277619D02*
X54966666Y-86277619D01*
X54966666Y-86277619D02*
X55061904Y-86230000D01*
X55061904Y-86230000D02*
X55109523Y-86134761D01*
X55109523Y-86134761D02*
X55109523Y-86039523D01*
X55109523Y-86039523D02*
X55061904Y-85944285D01*
X55061904Y-85944285D02*
X54966666Y-85896666D01*
X54966666Y-85896666D02*
X54728571Y-85896666D01*
X54728571Y-85896666D02*
X54633333Y-85849047D01*
X53728571Y-86277619D02*
X53728571Y-85277619D01*
X53728571Y-86230000D02*
X53823809Y-86277619D01*
X53823809Y-86277619D02*
X54014285Y-86277619D01*
X54014285Y-86277619D02*
X54109523Y-86230000D01*
X54109523Y-86230000D02*
X54157142Y-86182380D01*
X54157142Y-86182380D02*
X54204761Y-86087142D01*
X54204761Y-86087142D02*
X54204761Y-85801428D01*
X54204761Y-85801428D02*
X54157142Y-85706190D01*
X54157142Y-85706190D02*
X54109523Y-85658571D01*
X54109523Y-85658571D02*
X54014285Y-85610952D01*
X54014285Y-85610952D02*
X53823809Y-85610952D01*
X53823809Y-85610952D02*
X53728571Y-85658571D01*
X52871428Y-86230000D02*
X52966666Y-86277619D01*
X52966666Y-86277619D02*
X53157142Y-86277619D01*
X53157142Y-86277619D02*
X53252380Y-86230000D01*
X53252380Y-86230000D02*
X53299999Y-86134761D01*
X53299999Y-86134761D02*
X53299999Y-85753809D01*
X53299999Y-85753809D02*
X53252380Y-85658571D01*
X53252380Y-85658571D02*
X53157142Y-85610952D01*
X53157142Y-85610952D02*
X52966666Y-85610952D01*
X52966666Y-85610952D02*
X52871428Y-85658571D01*
X52871428Y-85658571D02*
X52823809Y-85753809D01*
X52823809Y-85753809D02*
X52823809Y-85849047D01*
X52823809Y-85849047D02*
X53299999Y-85944285D01*
X52490475Y-85277619D02*
X51871428Y-85277619D01*
X51871428Y-85277619D02*
X52204761Y-85658571D01*
X52204761Y-85658571D02*
X52061904Y-85658571D01*
X52061904Y-85658571D02*
X51966666Y-85706190D01*
X51966666Y-85706190D02*
X51919047Y-85753809D01*
X51919047Y-85753809D02*
X51871428Y-85849047D01*
X51871428Y-85849047D02*
X51871428Y-86087142D01*
X51871428Y-86087142D02*
X51919047Y-86182380D01*
X51919047Y-86182380D02*
X51966666Y-86230000D01*
X51966666Y-86230000D02*
X52061904Y-86277619D01*
X52061904Y-86277619D02*
X52347618Y-86277619D01*
X52347618Y-86277619D02*
X52442856Y-86230000D01*
X52442856Y-86230000D02*
X52490475Y-86182380D01*
X51061904Y-86230000D02*
X51157142Y-86277619D01*
X51157142Y-86277619D02*
X51347618Y-86277619D01*
X51347618Y-86277619D02*
X51442856Y-86230000D01*
X51442856Y-86230000D02*
X51490475Y-86134761D01*
X51490475Y-86134761D02*
X51490475Y-85753809D01*
X51490475Y-85753809D02*
X51442856Y-85658571D01*
X51442856Y-85658571D02*
X51347618Y-85610952D01*
X51347618Y-85610952D02*
X51157142Y-85610952D01*
X51157142Y-85610952D02*
X51061904Y-85658571D01*
X51061904Y-85658571D02*
X51014285Y-85753809D01*
X51014285Y-85753809D02*
X51014285Y-85849047D01*
X51014285Y-85849047D02*
X51490475Y-85944285D01*
X49871427Y-85372857D02*
X49823808Y-85325238D01*
X49823808Y-85325238D02*
X49728570Y-85277619D01*
X49728570Y-85277619D02*
X49490475Y-85277619D01*
X49490475Y-85277619D02*
X49395237Y-85325238D01*
X49395237Y-85325238D02*
X49347618Y-85372857D01*
X49347618Y-85372857D02*
X49299999Y-85468095D01*
X49299999Y-85468095D02*
X49299999Y-85563333D01*
X49299999Y-85563333D02*
X49347618Y-85706190D01*
X49347618Y-85706190D02*
X49919046Y-86277619D01*
X49919046Y-86277619D02*
X49299999Y-86277619D01*
X48680951Y-85277619D02*
X48585713Y-85277619D01*
X48585713Y-85277619D02*
X48490475Y-85325238D01*
X48490475Y-85325238D02*
X48442856Y-85372857D01*
X48442856Y-85372857D02*
X48395237Y-85468095D01*
X48395237Y-85468095D02*
X48347618Y-85658571D01*
X48347618Y-85658571D02*
X48347618Y-85896666D01*
X48347618Y-85896666D02*
X48395237Y-86087142D01*
X48395237Y-86087142D02*
X48442856Y-86182380D01*
X48442856Y-86182380D02*
X48490475Y-86230000D01*
X48490475Y-86230000D02*
X48585713Y-86277619D01*
X48585713Y-86277619D02*
X48680951Y-86277619D01*
X48680951Y-86277619D02*
X48776189Y-86230000D01*
X48776189Y-86230000D02*
X48823808Y-86182380D01*
X48823808Y-86182380D02*
X48871427Y-86087142D01*
X48871427Y-86087142D02*
X48919046Y-85896666D01*
X48919046Y-85896666D02*
X48919046Y-85658571D01*
X48919046Y-85658571D02*
X48871427Y-85468095D01*
X48871427Y-85468095D02*
X48823808Y-85372857D01*
X48823808Y-85372857D02*
X48776189Y-85325238D01*
X48776189Y-85325238D02*
X48680951Y-85277619D01*
X47966665Y-85372857D02*
X47919046Y-85325238D01*
X47919046Y-85325238D02*
X47823808Y-85277619D01*
X47823808Y-85277619D02*
X47585713Y-85277619D01*
X47585713Y-85277619D02*
X47490475Y-85325238D01*
X47490475Y-85325238D02*
X47442856Y-85372857D01*
X47442856Y-85372857D02*
X47395237Y-85468095D01*
X47395237Y-85468095D02*
X47395237Y-85563333D01*
X47395237Y-85563333D02*
X47442856Y-85706190D01*
X47442856Y-85706190D02*
X48014284Y-86277619D01*
X48014284Y-86277619D02*
X47395237Y-86277619D01*
X47061903Y-85277619D02*
X46442856Y-85277619D01*
X46442856Y-85277619D02*
X46776189Y-85658571D01*
X46776189Y-85658571D02*
X46633332Y-85658571D01*
X46633332Y-85658571D02*
X46538094Y-85706190D01*
X46538094Y-85706190D02*
X46490475Y-85753809D01*
X46490475Y-85753809D02*
X46442856Y-85849047D01*
X46442856Y-85849047D02*
X46442856Y-86087142D01*
X46442856Y-86087142D02*
X46490475Y-86182380D01*
X46490475Y-86182380D02*
X46538094Y-86230000D01*
X46538094Y-86230000D02*
X46633332Y-86277619D01*
X46633332Y-86277619D02*
X46919046Y-86277619D01*
X46919046Y-86277619D02*
X47014284Y-86230000D01*
X47014284Y-86230000D02*
X47061903Y-86182380D01*
X55728571Y-87553809D02*
X56061904Y-87553809D01*
X56061904Y-88077619D02*
X56061904Y-87077619D01*
X56061904Y-87077619D02*
X55585714Y-87077619D01*
X55061904Y-88077619D02*
X55157142Y-88030000D01*
X55157142Y-88030000D02*
X55204761Y-87934761D01*
X55204761Y-87934761D02*
X55204761Y-87077619D01*
X54680951Y-88077619D02*
X54680951Y-87410952D01*
X54680951Y-87077619D02*
X54728570Y-87125238D01*
X54728570Y-87125238D02*
X54680951Y-87172857D01*
X54680951Y-87172857D02*
X54633332Y-87125238D01*
X54633332Y-87125238D02*
X54680951Y-87077619D01*
X54680951Y-87077619D02*
X54680951Y-87172857D01*
X54204761Y-87410952D02*
X54204761Y-88410952D01*
X54204761Y-87458571D02*
X54109523Y-87410952D01*
X54109523Y-87410952D02*
X53919047Y-87410952D01*
X53919047Y-87410952D02*
X53823809Y-87458571D01*
X53823809Y-87458571D02*
X53776190Y-87506190D01*
X53776190Y-87506190D02*
X53728571Y-87601428D01*
X53728571Y-87601428D02*
X53728571Y-87887142D01*
X53728571Y-87887142D02*
X53776190Y-87982380D01*
X53776190Y-87982380D02*
X53823809Y-88030000D01*
X53823809Y-88030000D02*
X53919047Y-88077619D01*
X53919047Y-88077619D02*
X54109523Y-88077619D01*
X54109523Y-88077619D02*
X54204761Y-88030000D01*
X53299999Y-87410952D02*
X53299999Y-88410952D01*
X53299999Y-87458571D02*
X53204761Y-87410952D01*
X53204761Y-87410952D02*
X53014285Y-87410952D01*
X53014285Y-87410952D02*
X52919047Y-87458571D01*
X52919047Y-87458571D02*
X52871428Y-87506190D01*
X52871428Y-87506190D02*
X52823809Y-87601428D01*
X52823809Y-87601428D02*
X52823809Y-87887142D01*
X52823809Y-87887142D02*
X52871428Y-87982380D01*
X52871428Y-87982380D02*
X52919047Y-88030000D01*
X52919047Y-88030000D02*
X53014285Y-88077619D01*
X53014285Y-88077619D02*
X53204761Y-88077619D01*
X53204761Y-88077619D02*
X53299999Y-88030000D01*
X52014285Y-88030000D02*
X52109523Y-88077619D01*
X52109523Y-88077619D02*
X52299999Y-88077619D01*
X52299999Y-88077619D02*
X52395237Y-88030000D01*
X52395237Y-88030000D02*
X52442856Y-87934761D01*
X52442856Y-87934761D02*
X52442856Y-87553809D01*
X52442856Y-87553809D02*
X52395237Y-87458571D01*
X52395237Y-87458571D02*
X52299999Y-87410952D01*
X52299999Y-87410952D02*
X52109523Y-87410952D01*
X52109523Y-87410952D02*
X52014285Y-87458571D01*
X52014285Y-87458571D02*
X51966666Y-87553809D01*
X51966666Y-87553809D02*
X51966666Y-87649047D01*
X51966666Y-87649047D02*
X52442856Y-87744285D01*
X51538094Y-88077619D02*
X51538094Y-87410952D01*
X51538094Y-87601428D02*
X51490475Y-87506190D01*
X51490475Y-87506190D02*
X51442856Y-87458571D01*
X51442856Y-87458571D02*
X51347618Y-87410952D01*
X51347618Y-87410952D02*
X51252380Y-87410952D01*
X49585713Y-87982380D02*
X49633332Y-88030000D01*
X49633332Y-88030000D02*
X49776189Y-88077619D01*
X49776189Y-88077619D02*
X49871427Y-88077619D01*
X49871427Y-88077619D02*
X50014284Y-88030000D01*
X50014284Y-88030000D02*
X50109522Y-87934761D01*
X50109522Y-87934761D02*
X50157141Y-87839523D01*
X50157141Y-87839523D02*
X50204760Y-87649047D01*
X50204760Y-87649047D02*
X50204760Y-87506190D01*
X50204760Y-87506190D02*
X50157141Y-87315714D01*
X50157141Y-87315714D02*
X50109522Y-87220476D01*
X50109522Y-87220476D02*
X50014284Y-87125238D01*
X50014284Y-87125238D02*
X49871427Y-87077619D01*
X49871427Y-87077619D02*
X49776189Y-87077619D01*
X49776189Y-87077619D02*
X49633332Y-87125238D01*
X49633332Y-87125238D02*
X49585713Y-87172857D01*
X48585713Y-87982380D02*
X48633332Y-88030000D01*
X48633332Y-88030000D02*
X48776189Y-88077619D01*
X48776189Y-88077619D02*
X48871427Y-88077619D01*
X48871427Y-88077619D02*
X49014284Y-88030000D01*
X49014284Y-88030000D02*
X49109522Y-87934761D01*
X49109522Y-87934761D02*
X49157141Y-87839523D01*
X49157141Y-87839523D02*
X49204760Y-87649047D01*
X49204760Y-87649047D02*
X49204760Y-87506190D01*
X49204760Y-87506190D02*
X49157141Y-87315714D01*
X49157141Y-87315714D02*
X49109522Y-87220476D01*
X49109522Y-87220476D02*
X49014284Y-87125238D01*
X49014284Y-87125238D02*
X48871427Y-87077619D01*
X48871427Y-87077619D02*
X48776189Y-87077619D01*
X48776189Y-87077619D02*
X48633332Y-87125238D01*
X48633332Y-87125238D02*
X48585713Y-87172857D01*
X47633332Y-88077619D02*
X48204760Y-88077619D01*
X47919046Y-88077619D02*
X47919046Y-87077619D01*
X47919046Y-87077619D02*
X48014284Y-87220476D01*
X48014284Y-87220476D02*
X48109522Y-87315714D01*
X48109522Y-87315714D02*
X48204760Y-87363333D01*
X46680951Y-88077619D02*
X47252379Y-88077619D01*
X46966665Y-88077619D02*
X46966665Y-87077619D01*
X46966665Y-87077619D02*
X47061903Y-87220476D01*
X47061903Y-87220476D02*
X47157141Y-87315714D01*
X47157141Y-87315714D02*
X47252379Y-87363333D01*
X46061903Y-87077619D02*
X45966665Y-87077619D01*
X45966665Y-87077619D02*
X45871427Y-87125238D01*
X45871427Y-87125238D02*
X45823808Y-87172857D01*
X45823808Y-87172857D02*
X45776189Y-87268095D01*
X45776189Y-87268095D02*
X45728570Y-87458571D01*
X45728570Y-87458571D02*
X45728570Y-87696666D01*
X45728570Y-87696666D02*
X45776189Y-87887142D01*
X45776189Y-87887142D02*
X45823808Y-87982380D01*
X45823808Y-87982380D02*
X45871427Y-88030000D01*
X45871427Y-88030000D02*
X45966665Y-88077619D01*
X45966665Y-88077619D02*
X46061903Y-88077619D01*
X46061903Y-88077619D02*
X46157141Y-88030000D01*
X46157141Y-88030000D02*
X46204760Y-87982380D01*
X46204760Y-87982380D02*
X46252379Y-87887142D01*
X46252379Y-87887142D02*
X46299998Y-87696666D01*
X46299998Y-87696666D02*
X46299998Y-87458571D01*
X46299998Y-87458571D02*
X46252379Y-87268095D01*
X46252379Y-87268095D02*
X46204760Y-87172857D01*
X46204760Y-87172857D02*
X46157141Y-87125238D01*
X46157141Y-87125238D02*
X46061903Y-87077619D01*
X44776189Y-88077619D02*
X45347617Y-88077619D01*
X45061903Y-88077619D02*
X45061903Y-87077619D01*
X45061903Y-87077619D02*
X45157141Y-87220476D01*
X45157141Y-87220476D02*
X45252379Y-87315714D01*
X45252379Y-87315714D02*
X45347617Y-87363333D01*
D11*
%TO.C,J1*%
X56510000Y-80230000D02*
X56510000Y-78900000D01*
X53910000Y-77570000D02*
X36070000Y-77570000D01*
X55180000Y-80230000D02*
X56510000Y-80230000D01*
X53910000Y-80230000D02*
X36070000Y-80230000D01*
X36070000Y-80230000D02*
X36070000Y-77570000D01*
X53910000Y-80230000D02*
X53910000Y-77570000D01*
%TO.C,J2*%
X36110000Y-95770000D02*
X36110000Y-97100000D01*
X37440000Y-95770000D02*
X36110000Y-95770000D01*
X38710000Y-95770000D02*
X56550000Y-95770000D01*
X38710000Y-95770000D02*
X38710000Y-98430000D01*
X56550000Y-95770000D02*
X56550000Y-98430000D01*
X38710000Y-98430000D02*
X56550000Y-98430000D01*
%TO.C,J3*%
X39030000Y-93130000D02*
X33830000Y-93130000D01*
X39030000Y-82850000D02*
X39030000Y-93130000D01*
X39030000Y-82850000D02*
X36430000Y-82850000D01*
X36430000Y-85450000D02*
X33830000Y-85450000D01*
X36430000Y-82850000D02*
X36430000Y-85450000D01*
X35160000Y-82850000D02*
X33830000Y-82850000D01*
X33830000Y-85450000D02*
X33830000Y-93130000D01*
X33830000Y-82850000D02*
X33830000Y-84180000D01*
%TD*%
M02*
