%TF.GenerationSoftware,KiCad,Pcbnew,7.0.2*%
%TF.CreationDate,2023-05-27T23:34:56+02:00*%
%TF.ProjectId,cc1101_pcb,63633131-3031-45f7-9063-622e6b696361,rev?*%
%TF.SameCoordinates,Original*%
%TF.FileFunction,Copper,L2,Bot*%
%TF.FilePolarity,Positive*%
%FSLAX46Y46*%
G04 Gerber Fmt 4.6, Leading zero omitted, Abs format (unit mm)*
G04 Created by KiCad (PCBNEW 7.0.2) date 2023-05-27 23:34:56*
%MOMM*%
%LPD*%
G01*
G04 APERTURE LIST*
%TA.AperFunction,ComponentPad*%
%ADD10C,1.700000*%
%TD*%
%TA.AperFunction,ComponentPad*%
%ADD11O,1.700000X1.700000*%
%TD*%
%TA.AperFunction,ComponentPad*%
%ADD12R,1.700000X1.700000*%
%TD*%
%TA.AperFunction,ComponentPad*%
%ADD13R,1.800000X1.800000*%
%TD*%
%TA.AperFunction,ComponentPad*%
%ADD14C,1.800000*%
%TD*%
%TA.AperFunction,ViaPad*%
%ADD15C,0.800000*%
%TD*%
%TA.AperFunction,Conductor*%
%ADD16C,0.250000*%
%TD*%
G04 APERTURE END LIST*
D10*
%TO.P,J2,1,Pin_1*%
%TO.N,Net-(J2-Pin_1)*%
X37440000Y-97100000D03*
D11*
%TO.P,J2,2,Pin_2*%
%TO.N,Net-(J2-Pin_2)*%
X39980000Y-97100000D03*
%TO.P,J2,3,Pin_3*%
%TO.N,Net-(J2-Pin_3)*%
X42520000Y-97100000D03*
%TO.P,J2,4,Pin_4*%
%TO.N,Net-(J2-Pin_4)*%
X45060000Y-97100000D03*
%TO.P,J2,5,Pin_5*%
%TO.N,Net-(J2-Pin_5)*%
X47600000Y-97100000D03*
%TO.P,J2,6,Pin_6*%
%TO.N,Net-(J2-Pin_6)*%
X50140000Y-97100000D03*
%TO.P,J2,7,Pin_7*%
%TO.N,unconnected-(J2-Pin_7-Pad7)*%
X52680000Y-97100000D03*
D12*
%TO.P,J2,8,Pin_8*%
%TO.N,GND*%
X55220000Y-97100000D03*
%TD*%
D13*
%TO.P,LED,1,K*%
%TO.N,GND*%
X52860000Y-83200000D03*
D14*
%TO.P,LED,2,A*%
%TO.N,Net-(D1-A)*%
X55400000Y-83200000D03*
%TD*%
D12*
%TO.P,J3,1,Pin_1*%
%TO.N,GND*%
X35160000Y-84180000D03*
D11*
%TO.P,J3,2,Pin_2*%
%TO.N,Net-(J3-Pin_2)*%
X37700000Y-84180000D03*
%TO.P,J3,3,Pin_3*%
%TO.N,Net-(J2-Pin_6)*%
X35160000Y-86720000D03*
%TO.P,J3,4,Pin_4*%
%TO.N,Net-(J2-Pin_4)*%
X37700000Y-86720000D03*
%TO.P,J3,5,Pin_5*%
%TO.N,Net-(J2-Pin_5)*%
X35160000Y-89260000D03*
%TO.P,J3,6,Pin_6*%
%TO.N,Net-(J2-Pin_2)*%
X37700000Y-89260000D03*
%TO.P,J3,7,Pin_7*%
%TO.N,Net-(J2-Pin_3)*%
X35160000Y-91800000D03*
%TO.P,J3,8,Pin_8*%
%TO.N,unconnected-(J3-Pin_8-Pad8)*%
X37700000Y-91800000D03*
%TD*%
D15*
%TO.N,Net-(J2-Pin_3)*%
X38700000Y-95000000D03*
%TO.N,Net-(J2-Pin_5)*%
X42000000Y-94600000D03*
%TD*%
D16*
%TO.N,Net-(J2-Pin_2)*%
X39980000Y-97100000D02*
X39980000Y-91540000D01*
X39980000Y-91540000D02*
X37700000Y-89260000D01*
%TO.N,Net-(J2-Pin_3)*%
X38700000Y-95000000D02*
X38360000Y-95000000D01*
X38360000Y-95000000D02*
X35160000Y-91800000D01*
%TO.N,Net-(J2-Pin_4)*%
X45060000Y-97100000D02*
X45060000Y-93260000D01*
X45060000Y-93260000D02*
X38520000Y-86720000D01*
X38520000Y-86720000D02*
X37700000Y-86720000D01*
%TO.N,Net-(J2-Pin_5)*%
X38600000Y-88000000D02*
X36420000Y-88000000D01*
X42000000Y-94600000D02*
X42000000Y-91400000D01*
X36420000Y-88000000D02*
X35160000Y-89260000D01*
X42000000Y-91400000D02*
X38600000Y-88000000D01*
%TO.N,Net-(J2-Pin_6)*%
X38440000Y-85400000D02*
X36480000Y-85400000D01*
X50140000Y-97100000D02*
X38440000Y-85400000D01*
X36480000Y-85400000D02*
X35160000Y-86720000D01*
%TD*%
%TA.AperFunction,Conductor*%
%TO.N,GND*%
G36*
X56676526Y-80899476D02*
G01*
X56743480Y-80919445D01*
X56789011Y-80972442D01*
X56799999Y-81023475D01*
X56800000Y-82565736D01*
X56780315Y-82632775D01*
X56727512Y-82678530D01*
X56658353Y-82688474D01*
X56594797Y-82659449D01*
X56563618Y-82618141D01*
X56553835Y-82597162D01*
X56530568Y-82547266D01*
X56400047Y-82360861D01*
X56400046Y-82360859D01*
X56239140Y-82199953D01*
X56052735Y-82069432D01*
X55846497Y-81973261D01*
X55626689Y-81914364D01*
X55399999Y-81894531D01*
X55173310Y-81914364D01*
X54953502Y-81973261D01*
X54747264Y-82069432D01*
X54560862Y-82199950D01*
X54467402Y-82293411D01*
X54406078Y-82326895D01*
X54336387Y-82321911D01*
X54280454Y-82280039D01*
X54256431Y-82218982D01*
X54253597Y-82192624D01*
X54203352Y-82057910D01*
X54117188Y-81942811D01*
X54002089Y-81856647D01*
X53867371Y-81806400D01*
X53811132Y-81800354D01*
X53804518Y-81800000D01*
X53110000Y-81800000D01*
X53110000Y-82825810D01*
X53057453Y-82789984D01*
X52927827Y-82750000D01*
X52826276Y-82750000D01*
X52725862Y-82765135D01*
X52610000Y-82820931D01*
X52610000Y-81800000D01*
X51915482Y-81800000D01*
X51908867Y-81800354D01*
X51852628Y-81806400D01*
X51717910Y-81856647D01*
X51602811Y-81942811D01*
X51516647Y-82057910D01*
X51466400Y-82192628D01*
X51460354Y-82248867D01*
X51460000Y-82255481D01*
X51460000Y-82950000D01*
X52484722Y-82950000D01*
X52436375Y-83033740D01*
X52406190Y-83165992D01*
X52416327Y-83301265D01*
X52465887Y-83427541D01*
X52483797Y-83450000D01*
X51460000Y-83450000D01*
X51460000Y-84144518D01*
X51460354Y-84151132D01*
X51466400Y-84207371D01*
X51516647Y-84342089D01*
X51602811Y-84457188D01*
X51717910Y-84543352D01*
X51852628Y-84593599D01*
X51908867Y-84599645D01*
X51915482Y-84600000D01*
X52610000Y-84600000D01*
X52610000Y-83574189D01*
X52662547Y-83610016D01*
X52792173Y-83650000D01*
X52893724Y-83650000D01*
X52994138Y-83634865D01*
X53110000Y-83579068D01*
X53110000Y-84600000D01*
X53804518Y-84600000D01*
X53811132Y-84599645D01*
X53867371Y-84593599D01*
X54002089Y-84543352D01*
X54117188Y-84457188D01*
X54203352Y-84342089D01*
X54253597Y-84207375D01*
X54256431Y-84181018D01*
X54283168Y-84116466D01*
X54340559Y-84076616D01*
X54410384Y-84074121D01*
X54467402Y-84106589D01*
X54560859Y-84200046D01*
X54747264Y-84330567D01*
X54747265Y-84330567D01*
X54747266Y-84330568D01*
X54953504Y-84426739D01*
X55173308Y-84485635D01*
X55324436Y-84498857D01*
X55399999Y-84505468D01*
X55399999Y-84505467D01*
X55400000Y-84505468D01*
X55626692Y-84485635D01*
X55846496Y-84426739D01*
X56052734Y-84330568D01*
X56239139Y-84200047D01*
X56400047Y-84039139D01*
X56530568Y-83852734D01*
X56563618Y-83781857D01*
X56609790Y-83729419D01*
X56676984Y-83710267D01*
X56743865Y-83730483D01*
X56789200Y-83783648D01*
X56800000Y-83834263D01*
X56800000Y-96089156D01*
X56780315Y-96156195D01*
X56727511Y-96201950D01*
X56658353Y-96211894D01*
X56594797Y-96182869D01*
X56559818Y-96132490D01*
X56513352Y-96007910D01*
X56427188Y-95892811D01*
X56312089Y-95806647D01*
X56177371Y-95756400D01*
X56121132Y-95750354D01*
X56114518Y-95750000D01*
X55470000Y-95750000D01*
X55470000Y-96664498D01*
X55362315Y-96615320D01*
X55255763Y-96600000D01*
X55184237Y-96600000D01*
X55077685Y-96615320D01*
X54970000Y-96664498D01*
X54970000Y-95750000D01*
X54325482Y-95750000D01*
X54318867Y-95750354D01*
X54262628Y-95756400D01*
X54127910Y-95806647D01*
X54012811Y-95892811D01*
X53926647Y-96007910D01*
X53876400Y-96142628D01*
X53870354Y-96198867D01*
X53870000Y-96205481D01*
X53870000Y-96226037D01*
X53850315Y-96293076D01*
X53797511Y-96338831D01*
X53728353Y-96348775D01*
X53664797Y-96319750D01*
X53644427Y-96297163D01*
X53641597Y-96293122D01*
X53486880Y-96138405D01*
X53486880Y-96138404D01*
X53486877Y-96138402D01*
X53307639Y-96012898D01*
X53216205Y-95970261D01*
X53109331Y-95920425D01*
X52897974Y-95863792D01*
X52680000Y-95844722D01*
X52462025Y-95863792D01*
X52250668Y-95920425D01*
X52052361Y-96012898D01*
X51873122Y-96138402D01*
X51718402Y-96293122D01*
X51592898Y-96472361D01*
X51522382Y-96623583D01*
X51476209Y-96676022D01*
X51409016Y-96695174D01*
X51342135Y-96674958D01*
X51297618Y-96623583D01*
X51283118Y-96592488D01*
X51227102Y-96472362D01*
X51101598Y-96293123D01*
X50946877Y-96138402D01*
X50767639Y-96012898D01*
X50676205Y-95970261D01*
X50569331Y-95920425D01*
X50357974Y-95863792D01*
X50139999Y-95844722D01*
X49922025Y-95863792D01*
X49774241Y-95903391D01*
X49704391Y-95901728D01*
X49654466Y-95871297D01*
X38819441Y-85036272D01*
X38816498Y-85033227D01*
X38778012Y-84992018D01*
X38746640Y-84929587D01*
X38754002Y-84860106D01*
X38767057Y-84836265D01*
X38787102Y-84807639D01*
X38879575Y-84609330D01*
X38936207Y-84397977D01*
X38955277Y-84180000D01*
X38936207Y-83962023D01*
X38879575Y-83750670D01*
X38787102Y-83552362D01*
X38661598Y-83373123D01*
X38506877Y-83218402D01*
X38327639Y-83092898D01*
X38236205Y-83050261D01*
X38129331Y-83000425D01*
X37917974Y-82943792D01*
X37700000Y-82924722D01*
X37482025Y-82943792D01*
X37270668Y-83000425D01*
X37072361Y-83092898D01*
X36893122Y-83218402D01*
X36738402Y-83373122D01*
X36735573Y-83377163D01*
X36680995Y-83420787D01*
X36611496Y-83427978D01*
X36549142Y-83396454D01*
X36513730Y-83336223D01*
X36510000Y-83306037D01*
X36510000Y-83285481D01*
X36509645Y-83278867D01*
X36503599Y-83222628D01*
X36453352Y-83087910D01*
X36367188Y-82972811D01*
X36252089Y-82886647D01*
X36117371Y-82836400D01*
X36061132Y-82830354D01*
X36054518Y-82830000D01*
X35410000Y-82830000D01*
X35410000Y-83744498D01*
X35302315Y-83695320D01*
X35195763Y-83680000D01*
X35124237Y-83680000D01*
X35017685Y-83695320D01*
X34910000Y-83744498D01*
X34910000Y-82830000D01*
X34265482Y-82830000D01*
X34258867Y-82830354D01*
X34202628Y-82836400D01*
X34067910Y-82886647D01*
X33952811Y-82972811D01*
X33866647Y-83087910D01*
X33816400Y-83222628D01*
X33810354Y-83278867D01*
X33810000Y-83285481D01*
X33810000Y-83930000D01*
X34726314Y-83930000D01*
X34700507Y-83970156D01*
X34660000Y-84108111D01*
X34660000Y-84251889D01*
X34700507Y-84389844D01*
X34726314Y-84430000D01*
X33810000Y-84430000D01*
X33810000Y-85074518D01*
X33810354Y-85081132D01*
X33816400Y-85137371D01*
X33866647Y-85272089D01*
X33952811Y-85387188D01*
X34067910Y-85473352D01*
X34202628Y-85523599D01*
X34258867Y-85529645D01*
X34265482Y-85530000D01*
X34286038Y-85530000D01*
X34353077Y-85549685D01*
X34398832Y-85602489D01*
X34408776Y-85671647D01*
X34379751Y-85735203D01*
X34357168Y-85755569D01*
X34353123Y-85758402D01*
X34353121Y-85758403D01*
X34353118Y-85758406D01*
X34198402Y-85913122D01*
X34072898Y-86092361D01*
X33980425Y-86290668D01*
X33923792Y-86502025D01*
X33904722Y-86720000D01*
X33923792Y-86937974D01*
X33923793Y-86937977D01*
X33980425Y-87149330D01*
X34072898Y-87347639D01*
X34198402Y-87526877D01*
X34353123Y-87681598D01*
X34532361Y-87807102D01*
X34631237Y-87853208D01*
X34683582Y-87877618D01*
X34736021Y-87923791D01*
X34755173Y-87990984D01*
X34734957Y-88057865D01*
X34683582Y-88102382D01*
X34532361Y-88172898D01*
X34353122Y-88298402D01*
X34198402Y-88453122D01*
X34072898Y-88632361D01*
X33980425Y-88830668D01*
X33923792Y-89042025D01*
X33904722Y-89260000D01*
X33923792Y-89477974D01*
X33980425Y-89689331D01*
X34002382Y-89736417D01*
X34072898Y-89887639D01*
X34198402Y-90066877D01*
X34353123Y-90221598D01*
X34532361Y-90347102D01*
X34631237Y-90393208D01*
X34683582Y-90417618D01*
X34736021Y-90463791D01*
X34755173Y-90530984D01*
X34734957Y-90597865D01*
X34683582Y-90642382D01*
X34532361Y-90712898D01*
X34353122Y-90838402D01*
X34198402Y-90993122D01*
X34072898Y-91172361D01*
X33980425Y-91370668D01*
X33923792Y-91582025D01*
X33904722Y-91800000D01*
X33923792Y-92017974D01*
X33980425Y-92229331D01*
X34030261Y-92336205D01*
X34072898Y-92427639D01*
X34198402Y-92606877D01*
X34353123Y-92761598D01*
X34532361Y-92887102D01*
X34730670Y-92979575D01*
X34942023Y-93036207D01*
X35160000Y-93055277D01*
X35377977Y-93036207D01*
X35525761Y-92996608D01*
X35595607Y-92998271D01*
X35645533Y-93028702D01*
X37977614Y-95360783D01*
X37994926Y-95382491D01*
X37996734Y-95385368D01*
X38070184Y-95502262D01*
X38197738Y-95629816D01*
X38350478Y-95725789D01*
X38520745Y-95785368D01*
X38655186Y-95800515D01*
X38699999Y-95805565D01*
X38699999Y-95805564D01*
X38700000Y-95805565D01*
X38879255Y-95785368D01*
X39049522Y-95725789D01*
X39202262Y-95629816D01*
X39242818Y-95589259D01*
X39304141Y-95555774D01*
X39373832Y-95560758D01*
X39429766Y-95602629D01*
X39454184Y-95668093D01*
X39454500Y-95676940D01*
X39454500Y-95886273D01*
X39434815Y-95953312D01*
X39382907Y-95998654D01*
X39352362Y-96012897D01*
X39173122Y-96138402D01*
X39018402Y-96293122D01*
X38892898Y-96472361D01*
X38822382Y-96623583D01*
X38776209Y-96676022D01*
X38709016Y-96695174D01*
X38642135Y-96674958D01*
X38597618Y-96623583D01*
X38583118Y-96592488D01*
X38527102Y-96472362D01*
X38401598Y-96293123D01*
X38246877Y-96138402D01*
X38067639Y-96012898D01*
X37976205Y-95970261D01*
X37869331Y-95920425D01*
X37657974Y-95863792D01*
X37440000Y-95844722D01*
X37222025Y-95863792D01*
X37010668Y-95920425D01*
X36812361Y-96012898D01*
X36633122Y-96138402D01*
X36478402Y-96293122D01*
X36352898Y-96472361D01*
X36260425Y-96670668D01*
X36203792Y-96882025D01*
X36184722Y-97100000D01*
X36203792Y-97317974D01*
X36259275Y-97525041D01*
X36260425Y-97529330D01*
X36352898Y-97727639D01*
X36478402Y-97906877D01*
X36633123Y-98061598D01*
X36812361Y-98187102D01*
X37010670Y-98279575D01*
X37222023Y-98336207D01*
X37440000Y-98355277D01*
X37657977Y-98336207D01*
X37869330Y-98279575D01*
X38067639Y-98187102D01*
X38246877Y-98061598D01*
X38401598Y-97906877D01*
X38527102Y-97727639D01*
X38597617Y-97576417D01*
X38643790Y-97523978D01*
X38710984Y-97504826D01*
X38777865Y-97525042D01*
X38822382Y-97576417D01*
X38892898Y-97727639D01*
X39018402Y-97906877D01*
X39173123Y-98061598D01*
X39352361Y-98187102D01*
X39550670Y-98279575D01*
X39762023Y-98336207D01*
X39907341Y-98348920D01*
X39979999Y-98355277D01*
X39979999Y-98355276D01*
X39980000Y-98355277D01*
X40197977Y-98336207D01*
X40409330Y-98279575D01*
X40607639Y-98187102D01*
X40786877Y-98061598D01*
X40941598Y-97906877D01*
X41067102Y-97727639D01*
X41137617Y-97576417D01*
X41183790Y-97523978D01*
X41250984Y-97504826D01*
X41317865Y-97525042D01*
X41362382Y-97576417D01*
X41432898Y-97727639D01*
X41558402Y-97906877D01*
X41713123Y-98061598D01*
X41892361Y-98187102D01*
X42090670Y-98279575D01*
X42302023Y-98336207D01*
X42520000Y-98355277D01*
X42737977Y-98336207D01*
X42949330Y-98279575D01*
X43147639Y-98187102D01*
X43326877Y-98061598D01*
X43481598Y-97906877D01*
X43607102Y-97727639D01*
X43677617Y-97576417D01*
X43723790Y-97523978D01*
X43790984Y-97504826D01*
X43857865Y-97525042D01*
X43902382Y-97576417D01*
X43972898Y-97727639D01*
X44098402Y-97906877D01*
X44253123Y-98061598D01*
X44432361Y-98187102D01*
X44630670Y-98279575D01*
X44842023Y-98336207D01*
X45060000Y-98355277D01*
X45277977Y-98336207D01*
X45489330Y-98279575D01*
X45687639Y-98187102D01*
X45866877Y-98061598D01*
X46021598Y-97906877D01*
X46147102Y-97727639D01*
X46217618Y-97576416D01*
X46263789Y-97523978D01*
X46330982Y-97504826D01*
X46397864Y-97525041D01*
X46442381Y-97576417D01*
X46493174Y-97685342D01*
X46512898Y-97727639D01*
X46638402Y-97906877D01*
X46793123Y-98061598D01*
X46972361Y-98187102D01*
X47170670Y-98279575D01*
X47382023Y-98336207D01*
X47600000Y-98355277D01*
X47817977Y-98336207D01*
X48029330Y-98279575D01*
X48227639Y-98187102D01*
X48406877Y-98061598D01*
X48561598Y-97906877D01*
X48687102Y-97727639D01*
X48757617Y-97576417D01*
X48803790Y-97523978D01*
X48870984Y-97504826D01*
X48937865Y-97525042D01*
X48982382Y-97576417D01*
X49052898Y-97727639D01*
X49178402Y-97906877D01*
X49333123Y-98061598D01*
X49512361Y-98187102D01*
X49710670Y-98279575D01*
X49922023Y-98336207D01*
X50067340Y-98348920D01*
X50139999Y-98355277D01*
X50139999Y-98355276D01*
X50140000Y-98355277D01*
X50357977Y-98336207D01*
X50569330Y-98279575D01*
X50767639Y-98187102D01*
X50946877Y-98061598D01*
X51101598Y-97906877D01*
X51227102Y-97727639D01*
X51297617Y-97576417D01*
X51343790Y-97523978D01*
X51410984Y-97504826D01*
X51477865Y-97525042D01*
X51522382Y-97576417D01*
X51592898Y-97727639D01*
X51718402Y-97906877D01*
X51873123Y-98061598D01*
X52052361Y-98187102D01*
X52250670Y-98279575D01*
X52462023Y-98336207D01*
X52680000Y-98355277D01*
X52897977Y-98336207D01*
X53109330Y-98279575D01*
X53307639Y-98187102D01*
X53486877Y-98061598D01*
X53641598Y-97906877D01*
X53644427Y-97902836D01*
X53699001Y-97859214D01*
X53768499Y-97852020D01*
X53830854Y-97883542D01*
X53866269Y-97943772D01*
X53870000Y-97973962D01*
X53870000Y-97994518D01*
X53870354Y-98001132D01*
X53876400Y-98057371D01*
X53926647Y-98192089D01*
X54012811Y-98307188D01*
X54127910Y-98393352D01*
X54262628Y-98443599D01*
X54318867Y-98449645D01*
X54325482Y-98450000D01*
X54970000Y-98450000D01*
X54970000Y-97535501D01*
X55077685Y-97584680D01*
X55184237Y-97600000D01*
X55255763Y-97600000D01*
X55362315Y-97584680D01*
X55470000Y-97535501D01*
X55470000Y-98450000D01*
X56114518Y-98450000D01*
X56121132Y-98449645D01*
X56177371Y-98443599D01*
X56312089Y-98393352D01*
X56427188Y-98307188D01*
X56513352Y-98192088D01*
X56559818Y-98067510D01*
X56601689Y-98011576D01*
X56667154Y-97987159D01*
X56735427Y-98002011D01*
X56784832Y-98051416D01*
X56800000Y-98110843D01*
X56800000Y-98576000D01*
X56780315Y-98643039D01*
X56727511Y-98688794D01*
X56676000Y-98700000D01*
X35924000Y-98700000D01*
X35856961Y-98680315D01*
X35811206Y-98627511D01*
X35800000Y-98576000D01*
X35800000Y-94900000D01*
X33324000Y-94900000D01*
X33256961Y-94880315D01*
X33211206Y-94827511D01*
X33200000Y-94776000D01*
X33200000Y-80924526D01*
X33219685Y-80857487D01*
X33272489Y-80811732D01*
X33324522Y-80800527D01*
X56676526Y-80899476D01*
G37*
%TD.AperFunction*%
%TD*%
M02*
