%TF.GenerationSoftware,KiCad,Pcbnew,7.0.2*%
%TF.CreationDate,2023-05-28T00:49:17+02:00*%
%TF.ProjectId,cc1101_pcb,63633131-3031-45f7-9063-622e6b696361,rev?*%
%TF.SameCoordinates,Original*%
%TF.FileFunction,Legend,Top*%
%TF.FilePolarity,Positive*%
%FSLAX46Y46*%
G04 Gerber Fmt 4.6, Leading zero omitted, Abs format (unit mm)*
G04 Created by KiCad (PCBNEW 7.0.2) date 2023-05-28 00:49:17*
%MOMM*%
%LPD*%
G01*
G04 APERTURE LIST*
%ADD10C,0.150000*%
%ADD11C,0.120000*%
G04 APERTURE END LIST*
D10*
X55985714Y-81222380D02*
X56461904Y-81222380D01*
X56461904Y-81222380D02*
X56509523Y-80746190D01*
X56509523Y-80746190D02*
X56461904Y-80793809D01*
X56461904Y-80793809D02*
X56366666Y-80841428D01*
X56366666Y-80841428D02*
X56128571Y-80841428D01*
X56128571Y-80841428D02*
X56033333Y-80793809D01*
X56033333Y-80793809D02*
X55985714Y-80746190D01*
X55985714Y-80746190D02*
X55938095Y-80650952D01*
X55938095Y-80650952D02*
X55938095Y-80412857D01*
X55938095Y-80412857D02*
X55985714Y-80317619D01*
X55985714Y-80317619D02*
X56033333Y-80270000D01*
X56033333Y-80270000D02*
X56128571Y-80222380D01*
X56128571Y-80222380D02*
X56366666Y-80222380D01*
X56366666Y-80222380D02*
X56461904Y-80270000D01*
X56461904Y-80270000D02*
X56509523Y-80317619D01*
X55652380Y-81222380D02*
X55319047Y-80222380D01*
X55319047Y-80222380D02*
X54985714Y-81222380D01*
X38038095Y-81474761D02*
X38133333Y-81522380D01*
X38133333Y-81522380D02*
X38276190Y-81522380D01*
X38276190Y-81522380D02*
X38419047Y-81474761D01*
X38419047Y-81474761D02*
X38514285Y-81379523D01*
X38514285Y-81379523D02*
X38561904Y-81284285D01*
X38561904Y-81284285D02*
X38609523Y-81093809D01*
X38609523Y-81093809D02*
X38609523Y-80950952D01*
X38609523Y-80950952D02*
X38561904Y-80760476D01*
X38561904Y-80760476D02*
X38514285Y-80665238D01*
X38514285Y-80665238D02*
X38419047Y-80570000D01*
X38419047Y-80570000D02*
X38276190Y-80522380D01*
X38276190Y-80522380D02*
X38180952Y-80522380D01*
X38180952Y-80522380D02*
X38038095Y-80570000D01*
X38038095Y-80570000D02*
X37990476Y-80617619D01*
X37990476Y-80617619D02*
X37990476Y-80950952D01*
X37990476Y-80950952D02*
X38180952Y-80950952D01*
X37561904Y-80522380D02*
X37561904Y-81522380D01*
X37561904Y-81522380D02*
X36990476Y-80522380D01*
X36990476Y-80522380D02*
X36990476Y-81522380D01*
X36514285Y-80522380D02*
X36514285Y-81522380D01*
X36514285Y-81522380D02*
X36276190Y-81522380D01*
X36276190Y-81522380D02*
X36133333Y-81474761D01*
X36133333Y-81474761D02*
X36038095Y-81379523D01*
X36038095Y-81379523D02*
X35990476Y-81284285D01*
X35990476Y-81284285D02*
X35942857Y-81093809D01*
X35942857Y-81093809D02*
X35942857Y-80950952D01*
X35942857Y-80950952D02*
X35990476Y-80760476D01*
X35990476Y-80760476D02*
X36038095Y-80665238D01*
X36038095Y-80665238D02*
X36133333Y-80570000D01*
X36133333Y-80570000D02*
X36276190Y-80522380D01*
X36276190Y-80522380D02*
X36514285Y-80522380D01*
X54461904Y-94625238D02*
X54366666Y-94577619D01*
X54366666Y-94577619D02*
X54223809Y-94577619D01*
X54223809Y-94577619D02*
X54080952Y-94625238D01*
X54080952Y-94625238D02*
X53985714Y-94720476D01*
X53985714Y-94720476D02*
X53938095Y-94815714D01*
X53938095Y-94815714D02*
X53890476Y-95006190D01*
X53890476Y-95006190D02*
X53890476Y-95149047D01*
X53890476Y-95149047D02*
X53938095Y-95339523D01*
X53938095Y-95339523D02*
X53985714Y-95434761D01*
X53985714Y-95434761D02*
X54080952Y-95530000D01*
X54080952Y-95530000D02*
X54223809Y-95577619D01*
X54223809Y-95577619D02*
X54319047Y-95577619D01*
X54319047Y-95577619D02*
X54461904Y-95530000D01*
X54461904Y-95530000D02*
X54509523Y-95482380D01*
X54509523Y-95482380D02*
X54509523Y-95149047D01*
X54509523Y-95149047D02*
X54319047Y-95149047D01*
X54938095Y-95577619D02*
X54938095Y-94577619D01*
X54938095Y-94577619D02*
X55509523Y-95577619D01*
X55509523Y-95577619D02*
X55509523Y-94577619D01*
X55985714Y-95577619D02*
X55985714Y-94577619D01*
X55985714Y-94577619D02*
X56223809Y-94577619D01*
X56223809Y-94577619D02*
X56366666Y-94625238D01*
X56366666Y-94625238D02*
X56461904Y-94720476D01*
X56461904Y-94720476D02*
X56509523Y-94815714D01*
X56509523Y-94815714D02*
X56557142Y-95006190D01*
X56557142Y-95006190D02*
X56557142Y-95149047D01*
X56557142Y-95149047D02*
X56509523Y-95339523D01*
X56509523Y-95339523D02*
X56461904Y-95434761D01*
X56461904Y-95434761D02*
X56366666Y-95530000D01*
X56366666Y-95530000D02*
X56223809Y-95577619D01*
X56223809Y-95577619D02*
X55985714Y-95577619D01*
X37014285Y-94577619D02*
X36538095Y-94577619D01*
X36538095Y-94577619D02*
X36490476Y-95053809D01*
X36490476Y-95053809D02*
X36538095Y-95006190D01*
X36538095Y-95006190D02*
X36633333Y-94958571D01*
X36633333Y-94958571D02*
X36871428Y-94958571D01*
X36871428Y-94958571D02*
X36966666Y-95006190D01*
X36966666Y-95006190D02*
X37014285Y-95053809D01*
X37014285Y-95053809D02*
X37061904Y-95149047D01*
X37061904Y-95149047D02*
X37061904Y-95387142D01*
X37061904Y-95387142D02*
X37014285Y-95482380D01*
X37014285Y-95482380D02*
X36966666Y-95530000D01*
X36966666Y-95530000D02*
X36871428Y-95577619D01*
X36871428Y-95577619D02*
X36633333Y-95577619D01*
X36633333Y-95577619D02*
X36538095Y-95530000D01*
X36538095Y-95530000D02*
X36490476Y-95482380D01*
X37347619Y-94577619D02*
X37680952Y-95577619D01*
X37680952Y-95577619D02*
X38014285Y-94577619D01*
D11*
%TO.C,R1*%
X43954167Y-83370095D02*
X43687500Y-82989142D01*
X43497024Y-83370095D02*
X43497024Y-82570095D01*
X43497024Y-82570095D02*
X43801786Y-82570095D01*
X43801786Y-82570095D02*
X43877976Y-82608190D01*
X43877976Y-82608190D02*
X43916071Y-82646285D01*
X43916071Y-82646285D02*
X43954167Y-82722476D01*
X43954167Y-82722476D02*
X43954167Y-82836761D01*
X43954167Y-82836761D02*
X43916071Y-82912952D01*
X43916071Y-82912952D02*
X43877976Y-82951047D01*
X43877976Y-82951047D02*
X43801786Y-82989142D01*
X43801786Y-82989142D02*
X43497024Y-82989142D01*
X44716071Y-83370095D02*
X44258928Y-83370095D01*
X44487500Y-83370095D02*
X44487500Y-82570095D01*
X44487500Y-82570095D02*
X44411309Y-82684380D01*
X44411309Y-82684380D02*
X44335119Y-82760571D01*
X44335119Y-82760571D02*
X44258928Y-82798666D01*
%TO.C,C1*%
X44366667Y-87993904D02*
X44328571Y-88032000D01*
X44328571Y-88032000D02*
X44214286Y-88070095D01*
X44214286Y-88070095D02*
X44138095Y-88070095D01*
X44138095Y-88070095D02*
X44023809Y-88032000D01*
X44023809Y-88032000D02*
X43947619Y-87955809D01*
X43947619Y-87955809D02*
X43909524Y-87879619D01*
X43909524Y-87879619D02*
X43871428Y-87727238D01*
X43871428Y-87727238D02*
X43871428Y-87612952D01*
X43871428Y-87612952D02*
X43909524Y-87460571D01*
X43909524Y-87460571D02*
X43947619Y-87384380D01*
X43947619Y-87384380D02*
X44023809Y-87308190D01*
X44023809Y-87308190D02*
X44138095Y-87270095D01*
X44138095Y-87270095D02*
X44214286Y-87270095D01*
X44214286Y-87270095D02*
X44328571Y-87308190D01*
X44328571Y-87308190D02*
X44366667Y-87346285D01*
X45128571Y-88070095D02*
X44671428Y-88070095D01*
X44900000Y-88070095D02*
X44900000Y-87270095D01*
X44900000Y-87270095D02*
X44823809Y-87384380D01*
X44823809Y-87384380D02*
X44747619Y-87460571D01*
X44747619Y-87460571D02*
X44671428Y-87498666D01*
%TO.C,MCP1700*%
X39909523Y-94370095D02*
X39909523Y-93570095D01*
X39909523Y-93570095D02*
X40176189Y-94141523D01*
X40176189Y-94141523D02*
X40442856Y-93570095D01*
X40442856Y-93570095D02*
X40442856Y-94370095D01*
X41280952Y-94293904D02*
X41242856Y-94332000D01*
X41242856Y-94332000D02*
X41128571Y-94370095D01*
X41128571Y-94370095D02*
X41052380Y-94370095D01*
X41052380Y-94370095D02*
X40938094Y-94332000D01*
X40938094Y-94332000D02*
X40861904Y-94255809D01*
X40861904Y-94255809D02*
X40823809Y-94179619D01*
X40823809Y-94179619D02*
X40785713Y-94027238D01*
X40785713Y-94027238D02*
X40785713Y-93912952D01*
X40785713Y-93912952D02*
X40823809Y-93760571D01*
X40823809Y-93760571D02*
X40861904Y-93684380D01*
X40861904Y-93684380D02*
X40938094Y-93608190D01*
X40938094Y-93608190D02*
X41052380Y-93570095D01*
X41052380Y-93570095D02*
X41128571Y-93570095D01*
X41128571Y-93570095D02*
X41242856Y-93608190D01*
X41242856Y-93608190D02*
X41280952Y-93646285D01*
X41623809Y-94370095D02*
X41623809Y-93570095D01*
X41623809Y-93570095D02*
X41928571Y-93570095D01*
X41928571Y-93570095D02*
X42004761Y-93608190D01*
X42004761Y-93608190D02*
X42042856Y-93646285D01*
X42042856Y-93646285D02*
X42080952Y-93722476D01*
X42080952Y-93722476D02*
X42080952Y-93836761D01*
X42080952Y-93836761D02*
X42042856Y-93912952D01*
X42042856Y-93912952D02*
X42004761Y-93951047D01*
X42004761Y-93951047D02*
X41928571Y-93989142D01*
X41928571Y-93989142D02*
X41623809Y-93989142D01*
X42842856Y-94370095D02*
X42385713Y-94370095D01*
X42614285Y-94370095D02*
X42614285Y-93570095D01*
X42614285Y-93570095D02*
X42538094Y-93684380D01*
X42538094Y-93684380D02*
X42461904Y-93760571D01*
X42461904Y-93760571D02*
X42385713Y-93798666D01*
X43109523Y-93570095D02*
X43642857Y-93570095D01*
X43642857Y-93570095D02*
X43299999Y-94370095D01*
X44100000Y-93570095D02*
X44176190Y-93570095D01*
X44176190Y-93570095D02*
X44252381Y-93608190D01*
X44252381Y-93608190D02*
X44290476Y-93646285D01*
X44290476Y-93646285D02*
X44328571Y-93722476D01*
X44328571Y-93722476D02*
X44366666Y-93874857D01*
X44366666Y-93874857D02*
X44366666Y-94065333D01*
X44366666Y-94065333D02*
X44328571Y-94217714D01*
X44328571Y-94217714D02*
X44290476Y-94293904D01*
X44290476Y-94293904D02*
X44252381Y-94332000D01*
X44252381Y-94332000D02*
X44176190Y-94370095D01*
X44176190Y-94370095D02*
X44100000Y-94370095D01*
X44100000Y-94370095D02*
X44023809Y-94332000D01*
X44023809Y-94332000D02*
X43985714Y-94293904D01*
X43985714Y-94293904D02*
X43947619Y-94217714D01*
X43947619Y-94217714D02*
X43909523Y-94065333D01*
X43909523Y-94065333D02*
X43909523Y-93874857D01*
X43909523Y-93874857D02*
X43947619Y-93722476D01*
X43947619Y-93722476D02*
X43985714Y-93646285D01*
X43985714Y-93646285D02*
X44023809Y-93608190D01*
X44023809Y-93608190D02*
X44100000Y-93570095D01*
X44861905Y-93570095D02*
X44938095Y-93570095D01*
X44938095Y-93570095D02*
X45014286Y-93608190D01*
X45014286Y-93608190D02*
X45052381Y-93646285D01*
X45052381Y-93646285D02*
X45090476Y-93722476D01*
X45090476Y-93722476D02*
X45128571Y-93874857D01*
X45128571Y-93874857D02*
X45128571Y-94065333D01*
X45128571Y-94065333D02*
X45090476Y-94217714D01*
X45090476Y-94217714D02*
X45052381Y-94293904D01*
X45052381Y-94293904D02*
X45014286Y-94332000D01*
X45014286Y-94332000D02*
X44938095Y-94370095D01*
X44938095Y-94370095D02*
X44861905Y-94370095D01*
X44861905Y-94370095D02*
X44785714Y-94332000D01*
X44785714Y-94332000D02*
X44747619Y-94293904D01*
X44747619Y-94293904D02*
X44709524Y-94217714D01*
X44709524Y-94217714D02*
X44671428Y-94065333D01*
X44671428Y-94065333D02*
X44671428Y-93874857D01*
X44671428Y-93874857D02*
X44709524Y-93722476D01*
X44709524Y-93722476D02*
X44747619Y-93646285D01*
X44747619Y-93646285D02*
X44785714Y-93608190D01*
X44785714Y-93608190D02*
X44861905Y-93570095D01*
%TO.C,LED*%
X49885714Y-83570095D02*
X49504762Y-83570095D01*
X49504762Y-83570095D02*
X49504762Y-82770095D01*
X50152381Y-83151047D02*
X50419047Y-83151047D01*
X50533333Y-83570095D02*
X50152381Y-83570095D01*
X50152381Y-83570095D02*
X50152381Y-82770095D01*
X50152381Y-82770095D02*
X50533333Y-82770095D01*
X50876191Y-83570095D02*
X50876191Y-82770095D01*
X50876191Y-82770095D02*
X51066667Y-82770095D01*
X51066667Y-82770095D02*
X51180953Y-82808190D01*
X51180953Y-82808190D02*
X51257143Y-82884380D01*
X51257143Y-82884380D02*
X51295238Y-82960571D01*
X51295238Y-82960571D02*
X51333334Y-83112952D01*
X51333334Y-83112952D02*
X51333334Y-83227238D01*
X51333334Y-83227238D02*
X51295238Y-83379619D01*
X51295238Y-83379619D02*
X51257143Y-83455809D01*
X51257143Y-83455809D02*
X51180953Y-83532000D01*
X51180953Y-83532000D02*
X51066667Y-83570095D01*
X51066667Y-83570095D02*
X50876191Y-83570095D01*
%TO.C,C2*%
X44366667Y-85793904D02*
X44328571Y-85832000D01*
X44328571Y-85832000D02*
X44214286Y-85870095D01*
X44214286Y-85870095D02*
X44138095Y-85870095D01*
X44138095Y-85870095D02*
X44023809Y-85832000D01*
X44023809Y-85832000D02*
X43947619Y-85755809D01*
X43947619Y-85755809D02*
X43909524Y-85679619D01*
X43909524Y-85679619D02*
X43871428Y-85527238D01*
X43871428Y-85527238D02*
X43871428Y-85412952D01*
X43871428Y-85412952D02*
X43909524Y-85260571D01*
X43909524Y-85260571D02*
X43947619Y-85184380D01*
X43947619Y-85184380D02*
X44023809Y-85108190D01*
X44023809Y-85108190D02*
X44138095Y-85070095D01*
X44138095Y-85070095D02*
X44214286Y-85070095D01*
X44214286Y-85070095D02*
X44328571Y-85108190D01*
X44328571Y-85108190D02*
X44366667Y-85146285D01*
X44671428Y-85146285D02*
X44709524Y-85108190D01*
X44709524Y-85108190D02*
X44785714Y-85070095D01*
X44785714Y-85070095D02*
X44976190Y-85070095D01*
X44976190Y-85070095D02*
X45052381Y-85108190D01*
X45052381Y-85108190D02*
X45090476Y-85146285D01*
X45090476Y-85146285D02*
X45128571Y-85222476D01*
X45128571Y-85222476D02*
X45128571Y-85298666D01*
X45128571Y-85298666D02*
X45090476Y-85412952D01*
X45090476Y-85412952D02*
X44633333Y-85870095D01*
X44633333Y-85870095D02*
X45128571Y-85870095D01*
%TO.C,R1*%
X41842224Y-82477500D02*
X41332776Y-82477500D01*
X41842224Y-83522500D02*
X41332776Y-83522500D01*
%TO.C,C1*%
X41438748Y-88535000D02*
X41961252Y-88535000D01*
X41438748Y-87065000D02*
X41961252Y-87065000D01*
%TO.C,MCP1700*%
X43060000Y-91400000D02*
X43060000Y-89725000D01*
X43060000Y-91400000D02*
X43060000Y-92050000D01*
X39940000Y-91400000D02*
X39940000Y-90750000D01*
X39940000Y-91400000D02*
X39940000Y-92050000D01*
%TO.C,LED*%
X55689999Y-81964485D02*
G75*
G03*
X52457666Y-82121392I-1559999J-1235515D01*
G01*
X55170960Y-82120001D02*
G75*
G03*
X53088871Y-82120164I-1040960J-1079999D01*
G01*
X53088871Y-84279836D02*
G75*
G03*
X55170960Y-84279999I1041129J1079836D01*
G01*
X52457666Y-84278608D02*
G75*
G03*
X55689999Y-84435515I1672334J1078608D01*
G01*
X55690000Y-82120000D02*
X55690000Y-81964000D01*
X55690000Y-84436000D02*
X55690000Y-84280000D01*
%TO.C,C2*%
X41438748Y-86135000D02*
X41961252Y-86135000D01*
X41438748Y-84665000D02*
X41961252Y-84665000D01*
%TD*%
M02*
