%TF.GenerationSoftware,KiCad,Pcbnew,7.0.2*%
%TF.CreationDate,2023-05-27T23:34:55+02:00*%
%TF.ProjectId,cc1101_pcb,63633131-3031-45f7-9063-622e6b696361,rev?*%
%TF.SameCoordinates,Original*%
%TF.FileFunction,Copper,L1,Top*%
%TF.FilePolarity,Positive*%
%FSLAX46Y46*%
G04 Gerber Fmt 4.6, Leading zero omitted, Abs format (unit mm)*
G04 Created by KiCad (PCBNEW 7.0.2) date 2023-05-27 23:34:55*
%MOMM*%
%LPD*%
G01*
G04 APERTURE LIST*
G04 Aperture macros list*
%AMRoundRect*
0 Rectangle with rounded corners*
0 $1 Rounding radius*
0 $2 $3 $4 $5 $6 $7 $8 $9 X,Y pos of 4 corners*
0 Add a 4 corners polygon primitive as box body*
4,1,4,$2,$3,$4,$5,$6,$7,$8,$9,$2,$3,0*
0 Add four circle primitives for the rounded corners*
1,1,$1+$1,$2,$3*
1,1,$1+$1,$4,$5*
1,1,$1+$1,$6,$7*
1,1,$1+$1,$8,$9*
0 Add four rect primitives between the rounded corners*
20,1,$1+$1,$2,$3,$4,$5,0*
20,1,$1+$1,$4,$5,$6,$7,0*
20,1,$1+$1,$6,$7,$8,$9,0*
20,1,$1+$1,$8,$9,$2,$3,0*%
G04 Aperture macros list end*
%TA.AperFunction,SMDPad,CuDef*%
%ADD10RoundRect,0.237500X0.250000X0.237500X-0.250000X0.237500X-0.250000X-0.237500X0.250000X-0.237500X0*%
%TD*%
%TA.AperFunction,ComponentPad*%
%ADD11C,1.700000*%
%TD*%
%TA.AperFunction,ComponentPad*%
%ADD12O,1.700000X1.700000*%
%TD*%
%TA.AperFunction,ComponentPad*%
%ADD13R,1.700000X1.700000*%
%TD*%
%TA.AperFunction,SMDPad,CuDef*%
%ADD14RoundRect,0.250000X-0.475000X0.337500X-0.475000X-0.337500X0.475000X-0.337500X0.475000X0.337500X0*%
%TD*%
%TA.AperFunction,SMDPad,CuDef*%
%ADD15RoundRect,0.150000X-0.150000X0.587500X-0.150000X-0.587500X0.150000X-0.587500X0.150000X0.587500X0*%
%TD*%
%TA.AperFunction,ComponentPad*%
%ADD16R,1.800000X1.800000*%
%TD*%
%TA.AperFunction,ComponentPad*%
%ADD17C,1.800000*%
%TD*%
%TA.AperFunction,ViaPad*%
%ADD18C,0.800000*%
%TD*%
%TA.AperFunction,Conductor*%
%ADD19C,0.300000*%
%TD*%
%TA.AperFunction,Conductor*%
%ADD20C,0.250000*%
%TD*%
G04 APERTURE END LIST*
D10*
%TO.P,R1,1*%
%TO.N,Net-(D1-A)*%
X55112500Y-87600000D03*
%TO.P,R1,2*%
%TO.N,Net-(J3-Pin_2)*%
X53287500Y-87600000D03*
%TD*%
D11*
%TO.P,J2,1,Pin_1*%
%TO.N,Net-(J2-Pin_1)*%
X37440000Y-97100000D03*
D12*
%TO.P,J2,2,Pin_2*%
%TO.N,Net-(J2-Pin_2)*%
X39980000Y-97100000D03*
%TO.P,J2,3,Pin_3*%
%TO.N,Net-(J2-Pin_3)*%
X42520000Y-97100000D03*
%TO.P,J2,4,Pin_4*%
%TO.N,Net-(J2-Pin_4)*%
X45060000Y-97100000D03*
%TO.P,J2,5,Pin_5*%
%TO.N,Net-(J2-Pin_5)*%
X47600000Y-97100000D03*
%TO.P,J2,6,Pin_6*%
%TO.N,Net-(J2-Pin_6)*%
X50140000Y-97100000D03*
%TO.P,J2,7,Pin_7*%
%TO.N,unconnected-(J2-Pin_7-Pad7)*%
X52680000Y-97100000D03*
D13*
%TO.P,J2,8,Pin_8*%
%TO.N,GND*%
X55220000Y-97100000D03*
%TD*%
D14*
%TO.P,C1,1*%
%TO.N,Net-(J3-Pin_2)*%
X49200000Y-91700000D03*
%TO.P,C1,2*%
%TO.N,GND*%
X49200000Y-93775000D03*
%TD*%
D15*
%TO.P,MCP1700,1,GND*%
%TO.N,GND*%
X45350000Y-91862500D03*
%TO.P,MCP1700,2,VO*%
%TO.N,Net-(J3-Pin_2)*%
X43450000Y-91862500D03*
%TO.P,MCP1700,3,VI*%
%TO.N,Net-(J2-Pin_1)*%
X44400000Y-93737500D03*
%TD*%
D16*
%TO.P,LED,1,K*%
%TO.N,GND*%
X52860000Y-83200000D03*
D17*
%TO.P,LED,2,A*%
%TO.N,Net-(D1-A)*%
X55400000Y-83200000D03*
%TD*%
D14*
%TO.P,C2,1*%
%TO.N,Net-(J3-Pin_2)*%
X52210000Y-91700000D03*
%TO.P,C2,2*%
%TO.N,GND*%
X52210000Y-93775000D03*
%TD*%
D13*
%TO.P,J3,1,Pin_1*%
%TO.N,GND*%
X35160000Y-84180000D03*
D12*
%TO.P,J3,2,Pin_2*%
%TO.N,Net-(J3-Pin_2)*%
X37700000Y-84180000D03*
%TO.P,J3,3,Pin_3*%
%TO.N,Net-(J2-Pin_6)*%
X35160000Y-86720000D03*
%TO.P,J3,4,Pin_4*%
%TO.N,Net-(J2-Pin_4)*%
X37700000Y-86720000D03*
%TO.P,J3,5,Pin_5*%
%TO.N,Net-(J2-Pin_5)*%
X35160000Y-89260000D03*
%TO.P,J3,6,Pin_6*%
%TO.N,Net-(J2-Pin_2)*%
X37700000Y-89260000D03*
%TO.P,J3,7,Pin_7*%
%TO.N,Net-(J2-Pin_3)*%
X35160000Y-91800000D03*
%TO.P,J3,8,Pin_8*%
%TO.N,unconnected-(J3-Pin_8-Pad8)*%
X37700000Y-91800000D03*
%TD*%
D18*
%TO.N,Net-(J2-Pin_3)*%
X38700000Y-95000000D03*
%TO.N,Net-(J2-Pin_5)*%
X42000000Y-94600000D03*
%TD*%
D19*
%TO.N,Net-(J3-Pin_2)*%
X49200000Y-91700000D02*
X47500000Y-90000000D01*
X49200000Y-91700000D02*
X52210000Y-91700000D01*
X52210000Y-88677500D02*
X53287500Y-87600000D01*
X43450000Y-91862500D02*
X43450000Y-87550000D01*
X43450000Y-87550000D02*
X40080000Y-84180000D01*
X47500000Y-90000000D02*
X43450000Y-90000000D01*
X52210000Y-91700000D02*
X52210000Y-88677500D01*
X40080000Y-84180000D02*
X37700000Y-84180000D01*
%TO.N,Net-(J2-Pin_1)*%
X37440000Y-97100000D02*
X37440000Y-94860000D01*
X37440000Y-94860000D02*
X38562500Y-93737500D01*
X38562500Y-93737500D02*
X44400000Y-93737500D01*
D20*
%TO.N,Net-(J2-Pin_3)*%
X38700000Y-95000000D02*
X40420000Y-95000000D01*
X40420000Y-95000000D02*
X42520000Y-97100000D01*
%TO.N,Net-(J2-Pin_5)*%
X45300000Y-94800000D02*
X42200000Y-94800000D01*
X47600000Y-97100000D02*
X45300000Y-94800000D01*
X42200000Y-94800000D02*
X42000000Y-94600000D01*
D19*
%TO.N,Net-(D1-A)*%
X55400000Y-87312500D02*
X55400000Y-83200000D01*
X55112500Y-87600000D02*
X55400000Y-87312500D01*
%TD*%
%TA.AperFunction,Conductor*%
%TO.N,GND*%
G36*
X56676526Y-80899476D02*
G01*
X56743480Y-80919445D01*
X56789011Y-80972442D01*
X56799999Y-81023475D01*
X56800000Y-82565736D01*
X56780315Y-82632775D01*
X56727512Y-82678530D01*
X56658353Y-82688474D01*
X56594797Y-82659449D01*
X56563618Y-82618141D01*
X56553835Y-82597162D01*
X56530568Y-82547266D01*
X56400047Y-82360861D01*
X56400046Y-82360859D01*
X56239140Y-82199953D01*
X56052735Y-82069432D01*
X55846497Y-81973261D01*
X55626689Y-81914364D01*
X55399999Y-81894531D01*
X55173310Y-81914364D01*
X54953502Y-81973261D01*
X54747264Y-82069432D01*
X54560862Y-82199950D01*
X54467402Y-82293411D01*
X54406078Y-82326895D01*
X54336387Y-82321911D01*
X54280454Y-82280039D01*
X54256431Y-82218982D01*
X54253597Y-82192624D01*
X54203352Y-82057910D01*
X54117188Y-81942811D01*
X54002089Y-81856647D01*
X53867371Y-81806400D01*
X53811132Y-81800354D01*
X53804518Y-81800000D01*
X53110000Y-81800000D01*
X53110000Y-82825810D01*
X53057453Y-82789984D01*
X52927827Y-82750000D01*
X52826276Y-82750000D01*
X52725862Y-82765135D01*
X52610000Y-82820931D01*
X52610000Y-81800000D01*
X51915482Y-81800000D01*
X51908867Y-81800354D01*
X51852628Y-81806400D01*
X51717910Y-81856647D01*
X51602811Y-81942811D01*
X51516647Y-82057910D01*
X51466400Y-82192628D01*
X51460354Y-82248867D01*
X51460000Y-82255481D01*
X51460000Y-82950000D01*
X52484722Y-82950000D01*
X52436375Y-83033740D01*
X52406190Y-83165992D01*
X52416327Y-83301265D01*
X52465887Y-83427541D01*
X52483797Y-83450000D01*
X51460000Y-83450000D01*
X51460000Y-84144518D01*
X51460354Y-84151132D01*
X51466400Y-84207371D01*
X51516647Y-84342089D01*
X51602811Y-84457188D01*
X51717910Y-84543352D01*
X51852628Y-84593599D01*
X51908867Y-84599645D01*
X51915482Y-84600000D01*
X52610000Y-84600000D01*
X52610000Y-83574189D01*
X52662547Y-83610016D01*
X52792173Y-83650000D01*
X52893724Y-83650000D01*
X52994138Y-83634865D01*
X53110000Y-83579068D01*
X53110000Y-84600000D01*
X53804518Y-84600000D01*
X53811132Y-84599645D01*
X53867371Y-84593599D01*
X54002089Y-84543352D01*
X54117188Y-84457188D01*
X54203352Y-84342089D01*
X54253597Y-84207375D01*
X54256431Y-84181018D01*
X54283168Y-84116466D01*
X54340559Y-84076616D01*
X54410384Y-84074121D01*
X54467402Y-84106589D01*
X54560859Y-84200046D01*
X54747262Y-84330566D01*
X54747265Y-84330567D01*
X54747266Y-84330568D01*
X54777905Y-84344855D01*
X54830343Y-84391026D01*
X54849500Y-84457237D01*
X54849500Y-86608795D01*
X54829815Y-86675834D01*
X54777011Y-86721589D01*
X54760095Y-86727871D01*
X54607106Y-86772318D01*
X54468356Y-86854374D01*
X54354375Y-86968355D01*
X54306731Y-87048917D01*
X54255661Y-87096600D01*
X54186919Y-87109103D01*
X54122330Y-87082457D01*
X54093270Y-87048919D01*
X54045626Y-86968357D01*
X53931643Y-86854374D01*
X53931642Y-86854373D01*
X53792893Y-86772318D01*
X53638101Y-86727346D01*
X53604369Y-86724691D01*
X53604354Y-86724690D01*
X53601935Y-86724500D01*
X53599489Y-86724500D01*
X52975489Y-86724500D01*
X52975463Y-86724500D01*
X52973066Y-86724501D01*
X52970675Y-86724689D01*
X52970652Y-86724690D01*
X52936900Y-86727346D01*
X52782106Y-86772318D01*
X52643356Y-86854374D01*
X52529374Y-86968356D01*
X52447318Y-87107106D01*
X52402346Y-87261898D01*
X52399691Y-87295630D01*
X52399690Y-87295645D01*
X52399500Y-87298065D01*
X52399500Y-87300509D01*
X52399500Y-87300510D01*
X52399500Y-87658111D01*
X52379815Y-87725150D01*
X52363181Y-87745792D01*
X51828880Y-88280093D01*
X51825837Y-88283034D01*
X51778956Y-88326819D01*
X51757605Y-88361927D01*
X51750466Y-88372416D01*
X51725638Y-88405158D01*
X51719054Y-88421854D01*
X51709654Y-88440780D01*
X51702149Y-88453123D01*
X51700328Y-88456118D01*
X51694951Y-88475308D01*
X51689242Y-88495681D01*
X51685197Y-88507707D01*
X51670123Y-88545934D01*
X51668288Y-88563785D01*
X51664342Y-88584548D01*
X51659500Y-88601832D01*
X51659500Y-88642917D01*
X51658850Y-88655598D01*
X51654648Y-88696471D01*
X51657697Y-88714154D01*
X51659500Y-88735224D01*
X51659500Y-90613935D01*
X51639815Y-90680974D01*
X51587011Y-90726729D01*
X51570096Y-90733011D01*
X51474602Y-90760755D01*
X51333134Y-90844419D01*
X51216919Y-90960634D01*
X51141228Y-91088621D01*
X51090159Y-91136305D01*
X51034496Y-91149500D01*
X50375504Y-91149500D01*
X50308465Y-91129815D01*
X50268772Y-91088621D01*
X50193080Y-90960634D01*
X50076865Y-90844419D01*
X49935397Y-90760755D01*
X49777572Y-90714902D01*
X49743128Y-90712191D01*
X49743114Y-90712190D01*
X49740694Y-90712000D01*
X49738249Y-90712000D01*
X49041886Y-90712000D01*
X48974847Y-90692315D01*
X48954205Y-90675681D01*
X47897407Y-89618882D01*
X47894493Y-89615868D01*
X47850680Y-89568956D01*
X47850679Y-89568955D01*
X47850678Y-89568954D01*
X47815574Y-89547607D01*
X47805079Y-89540464D01*
X47772342Y-89515639D01*
X47772340Y-89515638D01*
X47755644Y-89509053D01*
X47736714Y-89499650D01*
X47721384Y-89490328D01*
X47690924Y-89481793D01*
X47681814Y-89479240D01*
X47669795Y-89475199D01*
X47631564Y-89460124D01*
X47631563Y-89460123D01*
X47631561Y-89460123D01*
X47613715Y-89458288D01*
X47592952Y-89454342D01*
X47575668Y-89449500D01*
X47575665Y-89449500D01*
X47534582Y-89449500D01*
X47521901Y-89448850D01*
X47481027Y-89444647D01*
X47463344Y-89447697D01*
X47442275Y-89449500D01*
X44124500Y-89449500D01*
X44057461Y-89429815D01*
X44011706Y-89377011D01*
X44000500Y-89325500D01*
X44000500Y-87561539D01*
X44000572Y-87557305D01*
X44002763Y-87493173D01*
X43993033Y-87453250D01*
X43990664Y-87440786D01*
X43985070Y-87400080D01*
X43977921Y-87383621D01*
X43971180Y-87363575D01*
X43966933Y-87346148D01*
X43946797Y-87310336D01*
X43941149Y-87298964D01*
X43924780Y-87261280D01*
X43913456Y-87247360D01*
X43901559Y-87229880D01*
X43892765Y-87214240D01*
X43863713Y-87185188D01*
X43855205Y-87175761D01*
X43833702Y-87149330D01*
X43829278Y-87143892D01*
X43829277Y-87143891D01*
X43814615Y-87133541D01*
X43798444Y-87119919D01*
X40477406Y-83798881D01*
X40474492Y-83795867D01*
X40430680Y-83748956D01*
X40430679Y-83748955D01*
X40430678Y-83748954D01*
X40395574Y-83727607D01*
X40385079Y-83720464D01*
X40371632Y-83710267D01*
X40352342Y-83695639D01*
X40352340Y-83695638D01*
X40335644Y-83689053D01*
X40316714Y-83679650D01*
X40301384Y-83670328D01*
X40270924Y-83661793D01*
X40261814Y-83659240D01*
X40249795Y-83655199D01*
X40211564Y-83640124D01*
X40211563Y-83640123D01*
X40211561Y-83640123D01*
X40193715Y-83638288D01*
X40172952Y-83634342D01*
X40155668Y-83629500D01*
X40155665Y-83629500D01*
X40114582Y-83629500D01*
X40101901Y-83628850D01*
X40061027Y-83624647D01*
X40043344Y-83627697D01*
X40022275Y-83629500D01*
X38902069Y-83629500D01*
X38835030Y-83609815D01*
X38789688Y-83557908D01*
X38787101Y-83552360D01*
X38699107Y-83426692D01*
X38661598Y-83373123D01*
X38506877Y-83218402D01*
X38327639Y-83092898D01*
X38236205Y-83050261D01*
X38129331Y-83000425D01*
X37917974Y-82943792D01*
X37700000Y-82924722D01*
X37482025Y-82943792D01*
X37270668Y-83000425D01*
X37072361Y-83092898D01*
X36893122Y-83218402D01*
X36738402Y-83373122D01*
X36735573Y-83377163D01*
X36680995Y-83420787D01*
X36611496Y-83427978D01*
X36549142Y-83396454D01*
X36513730Y-83336223D01*
X36510000Y-83306037D01*
X36510000Y-83285481D01*
X36509645Y-83278867D01*
X36503599Y-83222628D01*
X36453352Y-83087910D01*
X36367188Y-82972811D01*
X36252089Y-82886647D01*
X36117371Y-82836400D01*
X36061132Y-82830354D01*
X36054518Y-82830000D01*
X35410000Y-82830000D01*
X35410000Y-83744498D01*
X35302315Y-83695320D01*
X35195763Y-83680000D01*
X35124237Y-83680000D01*
X35017685Y-83695320D01*
X34910000Y-83744498D01*
X34910000Y-82830000D01*
X34265482Y-82830000D01*
X34258867Y-82830354D01*
X34202628Y-82836400D01*
X34067910Y-82886647D01*
X33952811Y-82972811D01*
X33866647Y-83087910D01*
X33816400Y-83222628D01*
X33810354Y-83278867D01*
X33810000Y-83285481D01*
X33810000Y-83930000D01*
X34726314Y-83930000D01*
X34700507Y-83970156D01*
X34660000Y-84108111D01*
X34660000Y-84251889D01*
X34700507Y-84389844D01*
X34726314Y-84430000D01*
X33810000Y-84430000D01*
X33810000Y-85074518D01*
X33810354Y-85081132D01*
X33816400Y-85137371D01*
X33866647Y-85272089D01*
X33952811Y-85387188D01*
X34067910Y-85473352D01*
X34202628Y-85523599D01*
X34258867Y-85529645D01*
X34265482Y-85530000D01*
X34286038Y-85530000D01*
X34353077Y-85549685D01*
X34398832Y-85602489D01*
X34408776Y-85671647D01*
X34379751Y-85735203D01*
X34357168Y-85755569D01*
X34353123Y-85758402D01*
X34353121Y-85758403D01*
X34353118Y-85758406D01*
X34198402Y-85913122D01*
X34072898Y-86092361D01*
X33980425Y-86290668D01*
X33923792Y-86502025D01*
X33904722Y-86720000D01*
X33923792Y-86937974D01*
X33978967Y-87143891D01*
X33980425Y-87149330D01*
X34072898Y-87347639D01*
X34198402Y-87526877D01*
X34353123Y-87681598D01*
X34532361Y-87807102D01*
X34631237Y-87853208D01*
X34683582Y-87877618D01*
X34736021Y-87923791D01*
X34755173Y-87990984D01*
X34734957Y-88057865D01*
X34683582Y-88102382D01*
X34532361Y-88172898D01*
X34353122Y-88298402D01*
X34198402Y-88453122D01*
X34072898Y-88632361D01*
X33980425Y-88830668D01*
X33923792Y-89042025D01*
X33904722Y-89260000D01*
X33923792Y-89477974D01*
X33961146Y-89617382D01*
X33980425Y-89689330D01*
X34072898Y-89887639D01*
X34198402Y-90066877D01*
X34353123Y-90221598D01*
X34532361Y-90347102D01*
X34631237Y-90393208D01*
X34683582Y-90417618D01*
X34736021Y-90463791D01*
X34755173Y-90530984D01*
X34734957Y-90597865D01*
X34683582Y-90642382D01*
X34532361Y-90712898D01*
X34353122Y-90838402D01*
X34198402Y-90993122D01*
X34072898Y-91172361D01*
X33980425Y-91370668D01*
X33923792Y-91582025D01*
X33904722Y-91800000D01*
X33923792Y-92017974D01*
X33980425Y-92229331D01*
X33999476Y-92270185D01*
X34072898Y-92427639D01*
X34198402Y-92606877D01*
X34353123Y-92761598D01*
X34532361Y-92887102D01*
X34730670Y-92979575D01*
X34942023Y-93036207D01*
X35160000Y-93055277D01*
X35377977Y-93036207D01*
X35589330Y-92979575D01*
X35787639Y-92887102D01*
X35966877Y-92761598D01*
X36121598Y-92606877D01*
X36247102Y-92427639D01*
X36317617Y-92276417D01*
X36363790Y-92223978D01*
X36430984Y-92204826D01*
X36497865Y-92225042D01*
X36542382Y-92276417D01*
X36612898Y-92427639D01*
X36738402Y-92606877D01*
X36893123Y-92761598D01*
X37072361Y-92887102D01*
X37270670Y-92979575D01*
X37482023Y-93036207D01*
X37700000Y-93055277D01*
X37917977Y-93036207D01*
X38129330Y-92979575D01*
X38327639Y-92887102D01*
X38506877Y-92761598D01*
X38661598Y-92606877D01*
X38787102Y-92427639D01*
X38879575Y-92229330D01*
X38936207Y-92017977D01*
X38955277Y-91800000D01*
X38936207Y-91582023D01*
X38879575Y-91370670D01*
X38787102Y-91172362D01*
X38661598Y-90993123D01*
X38506877Y-90838402D01*
X38327639Y-90712898D01*
X38176417Y-90642382D01*
X38123978Y-90596210D01*
X38104826Y-90529016D01*
X38125042Y-90462135D01*
X38176417Y-90417618D01*
X38179324Y-90416262D01*
X38327639Y-90347102D01*
X38506877Y-90221598D01*
X38661598Y-90066877D01*
X38787102Y-89887639D01*
X38879575Y-89689330D01*
X38936207Y-89477977D01*
X38955277Y-89260000D01*
X38936207Y-89042023D01*
X38879575Y-88830670D01*
X38787102Y-88632362D01*
X38661598Y-88453123D01*
X38506877Y-88298402D01*
X38327639Y-88172898D01*
X38176417Y-88102382D01*
X38123978Y-88056210D01*
X38104826Y-87989016D01*
X38125042Y-87922135D01*
X38176417Y-87877618D01*
X38179324Y-87876262D01*
X38327639Y-87807102D01*
X38506877Y-87681598D01*
X38661598Y-87526877D01*
X38787102Y-87347639D01*
X38879575Y-87149330D01*
X38936207Y-86937977D01*
X38955277Y-86720000D01*
X38936207Y-86502023D01*
X38879575Y-86290670D01*
X38787102Y-86092362D01*
X38661598Y-85913123D01*
X38506877Y-85758402D01*
X38327639Y-85632898D01*
X38176417Y-85562382D01*
X38123978Y-85516210D01*
X38104826Y-85449016D01*
X38125042Y-85382135D01*
X38176417Y-85337618D01*
X38179324Y-85336262D01*
X38327639Y-85267102D01*
X38506877Y-85141598D01*
X38661598Y-84986877D01*
X38787102Y-84807639D01*
X38789687Y-84802094D01*
X38835860Y-84749656D01*
X38902069Y-84730500D01*
X39800613Y-84730500D01*
X39867652Y-84750185D01*
X39888294Y-84766819D01*
X42863181Y-87741706D01*
X42896666Y-87803029D01*
X42899500Y-87829387D01*
X42899500Y-89976945D01*
X42899211Y-89985407D01*
X42895619Y-90037919D01*
X42896906Y-90044112D01*
X42899500Y-90069343D01*
X42899500Y-90850371D01*
X42879815Y-90917410D01*
X42874304Y-90925296D01*
X42815638Y-91002659D01*
X42760123Y-91143432D01*
X42756649Y-91172362D01*
X42749500Y-91231898D01*
X42749500Y-92493102D01*
X42749940Y-92496765D01*
X42760123Y-92581567D01*
X42815638Y-92722340D01*
X42815639Y-92722342D01*
X42845405Y-92761594D01*
X42907077Y-92842922D01*
X42952884Y-92877658D01*
X43027658Y-92934361D01*
X43042770Y-92940320D01*
X43061345Y-92947646D01*
X43116489Y-92990552D01*
X43139682Y-93056459D01*
X43123561Y-93124444D01*
X43073244Y-93172920D01*
X43015855Y-93187000D01*
X38574041Y-93187000D01*
X38569807Y-93186928D01*
X38505673Y-93184736D01*
X38465759Y-93194464D01*
X38453283Y-93196835D01*
X38412582Y-93202429D01*
X38412579Y-93202430D01*
X38412580Y-93202430D01*
X38396114Y-93209581D01*
X38376081Y-93216318D01*
X38358647Y-93220567D01*
X38322834Y-93240703D01*
X38311467Y-93246349D01*
X38273780Y-93262719D01*
X38259860Y-93274044D01*
X38242383Y-93285938D01*
X38226739Y-93294734D01*
X38197679Y-93323793D01*
X38188257Y-93332297D01*
X38156389Y-93358223D01*
X38146043Y-93372881D01*
X38132422Y-93389051D01*
X37058894Y-94462579D01*
X37055852Y-94465519D01*
X37008956Y-94509318D01*
X36987605Y-94544427D01*
X36980466Y-94554916D01*
X36955638Y-94587658D01*
X36949054Y-94604354D01*
X36939654Y-94623280D01*
X36930329Y-94638616D01*
X36919242Y-94678181D01*
X36915197Y-94690207D01*
X36900123Y-94728434D01*
X36898288Y-94746285D01*
X36894342Y-94767048D01*
X36889500Y-94784332D01*
X36889500Y-94825417D01*
X36888850Y-94838098D01*
X36884647Y-94878975D01*
X36887696Y-94896658D01*
X36889499Y-94917724D01*
X36889500Y-95897931D01*
X36869816Y-95964970D01*
X36817908Y-96010312D01*
X36812360Y-96012898D01*
X36633122Y-96138402D01*
X36478402Y-96293122D01*
X36352898Y-96472361D01*
X36260425Y-96670668D01*
X36203792Y-96882025D01*
X36184722Y-97100000D01*
X36203792Y-97317974D01*
X36259275Y-97525041D01*
X36260425Y-97529330D01*
X36352898Y-97727639D01*
X36478402Y-97906877D01*
X36633123Y-98061598D01*
X36812361Y-98187102D01*
X37010670Y-98279575D01*
X37222023Y-98336207D01*
X37440000Y-98355277D01*
X37657977Y-98336207D01*
X37869330Y-98279575D01*
X38067639Y-98187102D01*
X38246877Y-98061598D01*
X38401598Y-97906877D01*
X38527102Y-97727639D01*
X38597617Y-97576417D01*
X38643790Y-97523978D01*
X38710984Y-97504826D01*
X38777865Y-97525042D01*
X38822382Y-97576417D01*
X38892898Y-97727639D01*
X39018402Y-97906877D01*
X39173123Y-98061598D01*
X39352361Y-98187102D01*
X39550670Y-98279575D01*
X39762023Y-98336207D01*
X39907341Y-98348920D01*
X39979999Y-98355277D01*
X39979999Y-98355276D01*
X39980000Y-98355277D01*
X40197977Y-98336207D01*
X40409330Y-98279575D01*
X40607639Y-98187102D01*
X40786877Y-98061598D01*
X40941598Y-97906877D01*
X41067102Y-97727639D01*
X41137617Y-97576417D01*
X41183790Y-97523978D01*
X41250984Y-97504826D01*
X41317865Y-97525042D01*
X41362382Y-97576417D01*
X41432898Y-97727639D01*
X41558402Y-97906877D01*
X41713123Y-98061598D01*
X41892361Y-98187102D01*
X42090670Y-98279575D01*
X42302023Y-98336207D01*
X42520000Y-98355277D01*
X42737977Y-98336207D01*
X42949330Y-98279575D01*
X43147639Y-98187102D01*
X43326877Y-98061598D01*
X43481598Y-97906877D01*
X43607102Y-97727639D01*
X43677617Y-97576417D01*
X43723790Y-97523978D01*
X43790984Y-97504826D01*
X43857865Y-97525042D01*
X43902382Y-97576417D01*
X43972898Y-97727639D01*
X44098402Y-97906877D01*
X44253123Y-98061598D01*
X44432361Y-98187102D01*
X44630670Y-98279575D01*
X44842023Y-98336207D01*
X45060000Y-98355277D01*
X45277977Y-98336207D01*
X45489330Y-98279575D01*
X45687639Y-98187102D01*
X45866877Y-98061598D01*
X46021598Y-97906877D01*
X46147102Y-97727639D01*
X46217618Y-97576416D01*
X46263789Y-97523978D01*
X46330982Y-97504826D01*
X46397864Y-97525041D01*
X46442381Y-97576417D01*
X46493174Y-97685342D01*
X46512898Y-97727639D01*
X46638402Y-97906877D01*
X46793123Y-98061598D01*
X46972361Y-98187102D01*
X47170670Y-98279575D01*
X47382023Y-98336207D01*
X47600000Y-98355277D01*
X47817977Y-98336207D01*
X48029330Y-98279575D01*
X48227639Y-98187102D01*
X48406877Y-98061598D01*
X48561598Y-97906877D01*
X48687102Y-97727639D01*
X48757617Y-97576417D01*
X48803790Y-97523978D01*
X48870984Y-97504826D01*
X48937865Y-97525042D01*
X48982382Y-97576417D01*
X49052898Y-97727639D01*
X49178402Y-97906877D01*
X49333123Y-98061598D01*
X49512361Y-98187102D01*
X49710670Y-98279575D01*
X49922023Y-98336207D01*
X50067340Y-98348920D01*
X50139999Y-98355277D01*
X50139999Y-98355276D01*
X50140000Y-98355277D01*
X50357977Y-98336207D01*
X50569330Y-98279575D01*
X50767639Y-98187102D01*
X50946877Y-98061598D01*
X51101598Y-97906877D01*
X51227102Y-97727639D01*
X51297617Y-97576417D01*
X51343790Y-97523978D01*
X51410984Y-97504826D01*
X51477865Y-97525042D01*
X51522382Y-97576417D01*
X51592898Y-97727639D01*
X51718402Y-97906877D01*
X51873123Y-98061598D01*
X52052361Y-98187102D01*
X52250670Y-98279575D01*
X52462023Y-98336207D01*
X52680000Y-98355277D01*
X52897977Y-98336207D01*
X53109330Y-98279575D01*
X53307639Y-98187102D01*
X53486877Y-98061598D01*
X53641598Y-97906877D01*
X53644427Y-97902836D01*
X53699001Y-97859214D01*
X53768499Y-97852020D01*
X53830854Y-97883542D01*
X53866269Y-97943772D01*
X53870000Y-97973962D01*
X53870000Y-97994518D01*
X53870354Y-98001132D01*
X53876400Y-98057371D01*
X53926647Y-98192089D01*
X54012811Y-98307188D01*
X54127910Y-98393352D01*
X54262628Y-98443599D01*
X54318867Y-98449645D01*
X54325482Y-98450000D01*
X54970000Y-98450000D01*
X54970000Y-97535501D01*
X55077685Y-97584680D01*
X55184237Y-97600000D01*
X55255763Y-97600000D01*
X55362315Y-97584680D01*
X55470000Y-97535501D01*
X55470000Y-98450000D01*
X56114518Y-98450000D01*
X56121132Y-98449645D01*
X56177371Y-98443599D01*
X56312089Y-98393352D01*
X56427188Y-98307188D01*
X56513352Y-98192088D01*
X56559818Y-98067510D01*
X56601689Y-98011576D01*
X56667154Y-97987159D01*
X56735427Y-98002011D01*
X56784832Y-98051416D01*
X56800000Y-98110843D01*
X56800000Y-98576000D01*
X56780315Y-98643039D01*
X56727511Y-98688794D01*
X56676000Y-98700000D01*
X35924000Y-98700000D01*
X35856961Y-98680315D01*
X35811206Y-98627511D01*
X35800000Y-98576000D01*
X35800000Y-94900000D01*
X33324000Y-94900000D01*
X33256961Y-94880315D01*
X33211206Y-94827511D01*
X33200000Y-94776000D01*
X33200000Y-80924526D01*
X33219685Y-80857487D01*
X33272489Y-80811732D01*
X33324522Y-80800527D01*
X56676526Y-80899476D01*
G37*
%TD.AperFunction*%
%TA.AperFunction,Conductor*%
G36*
X56743865Y-83730483D02*
G01*
X56789200Y-83783648D01*
X56800000Y-83834263D01*
X56800000Y-96089156D01*
X56780315Y-96156195D01*
X56727511Y-96201950D01*
X56658353Y-96211894D01*
X56594797Y-96182869D01*
X56559818Y-96132490D01*
X56513352Y-96007910D01*
X56427188Y-95892811D01*
X56312089Y-95806647D01*
X56177371Y-95756400D01*
X56121132Y-95750354D01*
X56114518Y-95750000D01*
X55470000Y-95750000D01*
X55470000Y-96664498D01*
X55362315Y-96615320D01*
X55255763Y-96600000D01*
X55184237Y-96600000D01*
X55077685Y-96615320D01*
X54970000Y-96664498D01*
X54970000Y-95750000D01*
X54325482Y-95750000D01*
X54318867Y-95750354D01*
X54262628Y-95756400D01*
X54127910Y-95806647D01*
X54012811Y-95892811D01*
X53926647Y-96007910D01*
X53876400Y-96142628D01*
X53870354Y-96198867D01*
X53870000Y-96205481D01*
X53870000Y-96226037D01*
X53850315Y-96293076D01*
X53797511Y-96338831D01*
X53728353Y-96348775D01*
X53664797Y-96319750D01*
X53644427Y-96297163D01*
X53641597Y-96293122D01*
X53486880Y-96138405D01*
X53486880Y-96138404D01*
X53486877Y-96138402D01*
X53307639Y-96012898D01*
X53203064Y-95964134D01*
X53109331Y-95920425D01*
X52897974Y-95863792D01*
X52680000Y-95844722D01*
X52462025Y-95863792D01*
X52250668Y-95920425D01*
X52052361Y-96012898D01*
X51873122Y-96138402D01*
X51718402Y-96293122D01*
X51592898Y-96472361D01*
X51522382Y-96623583D01*
X51476209Y-96676022D01*
X51409016Y-96695174D01*
X51342135Y-96674958D01*
X51297618Y-96623583D01*
X51283118Y-96592488D01*
X51227102Y-96472362D01*
X51101598Y-96293123D01*
X50946877Y-96138402D01*
X50767639Y-96012898D01*
X50663064Y-95964134D01*
X50569331Y-95920425D01*
X50357974Y-95863792D01*
X50139999Y-95844722D01*
X49922025Y-95863792D01*
X49710668Y-95920425D01*
X49512361Y-96012898D01*
X49333122Y-96138402D01*
X49178402Y-96293122D01*
X49052898Y-96472361D01*
X48982382Y-96623583D01*
X48936209Y-96676022D01*
X48869016Y-96695174D01*
X48802135Y-96674958D01*
X48757618Y-96623583D01*
X48743118Y-96592488D01*
X48687102Y-96472362D01*
X48561598Y-96293123D01*
X48406877Y-96138402D01*
X48227639Y-96012898D01*
X48123064Y-95964134D01*
X48029331Y-95920425D01*
X47817974Y-95863792D01*
X47600000Y-95844722D01*
X47382025Y-95863792D01*
X47234241Y-95903391D01*
X47164391Y-95901728D01*
X47114466Y-95871297D01*
X45679441Y-94436272D01*
X45676498Y-94433227D01*
X45634753Y-94388529D01*
X45601488Y-94368300D01*
X45590992Y-94361157D01*
X45590111Y-94360489D01*
X45559975Y-94337636D01*
X45559973Y-94337635D01*
X45544488Y-94331528D01*
X45525556Y-94322125D01*
X45511327Y-94313473D01*
X45473843Y-94302970D01*
X45461810Y-94298924D01*
X45425586Y-94284639D01*
X45409021Y-94282936D01*
X45388255Y-94278990D01*
X45372228Y-94274500D01*
X45333296Y-94274500D01*
X45320616Y-94273850D01*
X45317031Y-94273481D01*
X45281890Y-94269868D01*
X45266842Y-94272463D01*
X45265486Y-94272697D01*
X45244419Y-94274500D01*
X45224500Y-94274500D01*
X45157461Y-94254815D01*
X45111706Y-94202011D01*
X45100500Y-94150500D01*
X45100500Y-94025000D01*
X47975001Y-94025000D01*
X47975001Y-94159329D01*
X47975321Y-94165611D01*
X47985493Y-94265195D01*
X48040642Y-94431622D01*
X48132683Y-94580845D01*
X48256654Y-94704816D01*
X48405877Y-94796857D01*
X48572303Y-94852006D01*
X48671890Y-94862180D01*
X48678168Y-94862499D01*
X48949999Y-94862499D01*
X48950000Y-94862498D01*
X48950000Y-94025000D01*
X49450000Y-94025000D01*
X49450000Y-94862499D01*
X49721829Y-94862499D01*
X49728111Y-94862178D01*
X49827695Y-94852006D01*
X49994122Y-94796857D01*
X50143345Y-94704816D01*
X50267316Y-94580845D01*
X50359357Y-94431622D01*
X50414506Y-94265196D01*
X50424680Y-94165609D01*
X50425000Y-94159331D01*
X50425000Y-94025000D01*
X50985001Y-94025000D01*
X50985001Y-94159329D01*
X50985321Y-94165611D01*
X50995493Y-94265195D01*
X51050642Y-94431622D01*
X51142683Y-94580845D01*
X51266654Y-94704816D01*
X51415877Y-94796857D01*
X51582303Y-94852006D01*
X51681890Y-94862180D01*
X51688168Y-94862499D01*
X51959999Y-94862499D01*
X51960000Y-94862498D01*
X51960000Y-94025000D01*
X52459999Y-94025000D01*
X52459999Y-94862498D01*
X52460000Y-94862499D01*
X52731829Y-94862499D01*
X52738111Y-94862178D01*
X52837695Y-94852006D01*
X53004122Y-94796857D01*
X53153345Y-94704816D01*
X53277316Y-94580845D01*
X53369357Y-94431622D01*
X53424506Y-94265196D01*
X53434680Y-94165609D01*
X53435000Y-94159331D01*
X53435000Y-94025000D01*
X52459999Y-94025000D01*
X51960000Y-94025000D01*
X50985001Y-94025000D01*
X50425000Y-94025000D01*
X49450000Y-94025000D01*
X48950000Y-94025000D01*
X47975001Y-94025000D01*
X45100500Y-94025000D01*
X45100500Y-93110604D01*
X45100500Y-93110603D01*
X45100500Y-93106898D01*
X45100166Y-93104124D01*
X45100000Y-93098549D01*
X45100000Y-92112500D01*
X45600000Y-92112500D01*
X45600000Y-93097295D01*
X45602488Y-93097099D01*
X45760200Y-93051280D01*
X45901557Y-92967682D01*
X46017682Y-92851557D01*
X46101282Y-92710197D01*
X46147099Y-92552493D01*
X46149808Y-92518076D01*
X46150000Y-92513196D01*
X46150000Y-92112500D01*
X45600000Y-92112500D01*
X45100000Y-92112500D01*
X44550000Y-92112500D01*
X44550000Y-92475500D01*
X44530315Y-92542539D01*
X44477511Y-92588294D01*
X44426000Y-92599500D01*
X44274500Y-92599500D01*
X44207461Y-92579815D01*
X44161706Y-92527011D01*
X44150500Y-92475500D01*
X44150500Y-91235599D01*
X44150500Y-91235598D01*
X44150500Y-91231898D01*
X44139877Y-91143436D01*
X44139876Y-91143434D01*
X44139876Y-91143432D01*
X44084361Y-91002659D01*
X44084361Y-91002658D01*
X44052034Y-90960029D01*
X44025696Y-90925296D01*
X44000873Y-90859984D01*
X44000500Y-90850371D01*
X44000500Y-90674500D01*
X44020185Y-90607461D01*
X44072989Y-90561706D01*
X44124500Y-90550500D01*
X44705898Y-90550500D01*
X44772937Y-90570185D01*
X44818692Y-90622989D01*
X44828636Y-90692147D01*
X44799611Y-90755703D01*
X44793579Y-90762181D01*
X44682317Y-90873442D01*
X44598717Y-91014802D01*
X44552900Y-91172506D01*
X44550191Y-91206923D01*
X44550000Y-91211803D01*
X44550000Y-91612500D01*
X46150000Y-91612500D01*
X46150000Y-91211803D01*
X46149808Y-91206923D01*
X46147099Y-91172506D01*
X46101282Y-91014802D01*
X46017682Y-90873442D01*
X45906421Y-90762181D01*
X45872936Y-90700858D01*
X45877920Y-90631166D01*
X45919792Y-90575233D01*
X45985256Y-90550816D01*
X45994102Y-90550500D01*
X47220613Y-90550500D01*
X47287652Y-90570185D01*
X47308294Y-90586819D01*
X48038181Y-91316705D01*
X48071666Y-91378028D01*
X48074500Y-91404385D01*
X48074500Y-92103194D01*
X48074690Y-92105614D01*
X48074691Y-92105628D01*
X48077402Y-92140072D01*
X48123255Y-92297897D01*
X48199984Y-92427639D01*
X48206919Y-92439365D01*
X48323135Y-92555581D01*
X48352194Y-92572766D01*
X48399876Y-92623833D01*
X48412380Y-92692574D01*
X48385735Y-92757164D01*
X48354169Y-92785035D01*
X48256655Y-92845182D01*
X48132683Y-92969154D01*
X48040642Y-93118377D01*
X47985493Y-93284803D01*
X47975319Y-93384390D01*
X47975000Y-93390668D01*
X47975000Y-93525000D01*
X50424999Y-93525000D01*
X50424999Y-93390670D01*
X50424678Y-93384388D01*
X50414506Y-93284804D01*
X50359357Y-93118377D01*
X50267316Y-92969154D01*
X50143346Y-92845184D01*
X50045830Y-92785036D01*
X49999106Y-92733088D01*
X49987883Y-92664125D01*
X50015727Y-92600043D01*
X50047803Y-92572767D01*
X50076865Y-92555581D01*
X50193081Y-92439365D01*
X50240158Y-92359760D01*
X50268772Y-92311379D01*
X50319841Y-92263695D01*
X50375504Y-92250500D01*
X51034496Y-92250500D01*
X51101535Y-92270185D01*
X51141228Y-92311379D01*
X51209984Y-92427639D01*
X51216919Y-92439365D01*
X51333135Y-92555581D01*
X51362194Y-92572766D01*
X51409876Y-92623833D01*
X51422380Y-92692574D01*
X51395735Y-92757164D01*
X51364169Y-92785035D01*
X51266655Y-92845182D01*
X51142683Y-92969154D01*
X51050642Y-93118377D01*
X50995493Y-93284803D01*
X50985319Y-93384390D01*
X50985000Y-93390668D01*
X50985000Y-93525000D01*
X53434999Y-93525000D01*
X53434999Y-93390670D01*
X53434678Y-93384388D01*
X53424506Y-93284804D01*
X53369357Y-93118377D01*
X53277316Y-92969154D01*
X53153346Y-92845184D01*
X53055830Y-92785036D01*
X53009106Y-92733088D01*
X52997883Y-92664125D01*
X53025727Y-92600043D01*
X53057803Y-92572767D01*
X53086865Y-92555581D01*
X53203081Y-92439365D01*
X53286744Y-92297898D01*
X53332598Y-92140069D01*
X53335500Y-92103194D01*
X53335500Y-91296806D01*
X53332598Y-91259931D01*
X53318615Y-91211803D01*
X53286744Y-91102102D01*
X53222294Y-90993123D01*
X53203081Y-90960635D01*
X53086865Y-90844419D01*
X52947808Y-90762181D01*
X52945397Y-90760755D01*
X52849904Y-90733011D01*
X52791018Y-90695404D01*
X52761813Y-90631931D01*
X52760500Y-90613935D01*
X52760500Y-89887636D01*
X52760500Y-88956881D01*
X52780184Y-88889846D01*
X52796810Y-88869213D01*
X53154205Y-88511817D01*
X53215528Y-88478333D01*
X53241886Y-88475499D01*
X53599511Y-88475499D01*
X53601934Y-88475499D01*
X53638098Y-88472654D01*
X53792894Y-88427681D01*
X53931643Y-88345626D01*
X54045626Y-88231643D01*
X54093270Y-88151079D01*
X54144335Y-88103400D01*
X54213076Y-88090895D01*
X54277666Y-88117540D01*
X54306731Y-88151083D01*
X54354374Y-88231642D01*
X54354374Y-88231643D01*
X54468357Y-88345626D01*
X54513657Y-88372416D01*
X54607106Y-88427681D01*
X54761898Y-88472653D01*
X54761902Y-88472654D01*
X54798065Y-88475500D01*
X55426934Y-88475499D01*
X55463098Y-88472654D01*
X55617894Y-88427681D01*
X55756643Y-88345626D01*
X55870626Y-88231643D01*
X55952681Y-88092894D01*
X55997654Y-87938098D01*
X56000500Y-87901935D01*
X56000499Y-87298066D01*
X55997654Y-87261902D01*
X55955422Y-87116540D01*
X55950499Y-87081957D01*
X55950499Y-84457236D01*
X55970184Y-84390198D01*
X56022094Y-84344854D01*
X56052734Y-84330568D01*
X56239139Y-84200047D01*
X56400047Y-84039139D01*
X56530568Y-83852734D01*
X56563618Y-83781857D01*
X56609790Y-83729419D01*
X56676984Y-83710267D01*
X56743865Y-83730483D01*
G37*
%TD.AperFunction*%
%TD*%
M02*
