%TF.GenerationSoftware,KiCad,Pcbnew,7.0.2*%
%TF.CreationDate,2023-05-28T00:49:17+02:00*%
%TF.ProjectId,cc1101_pcb,63633131-3031-45f7-9063-622e6b696361,rev?*%
%TF.SameCoordinates,Original*%
%TF.FileFunction,Copper,L2,Bot*%
%TF.FilePolarity,Positive*%
%FSLAX46Y46*%
G04 Gerber Fmt 4.6, Leading zero omitted, Abs format (unit mm)*
G04 Created by KiCad (PCBNEW 7.0.2) date 2023-05-28 00:49:17*
%MOMM*%
%LPD*%
G01*
G04 APERTURE LIST*
%TA.AperFunction,ComponentPad*%
%ADD10R,1.700000X1.700000*%
%TD*%
%TA.AperFunction,ComponentPad*%
%ADD11O,1.700000X1.700000*%
%TD*%
%TA.AperFunction,ComponentPad*%
%ADD12C,1.700000*%
%TD*%
%TA.AperFunction,ComponentPad*%
%ADD13C,1.800000*%
%TD*%
%TA.AperFunction,ComponentPad*%
%ADD14R,1.800000X1.800000*%
%TD*%
%TA.AperFunction,ViaPad*%
%ADD15C,0.800000*%
%TD*%
%TA.AperFunction,Conductor*%
%ADD16C,0.300000*%
%TD*%
%TA.AperFunction,Conductor*%
%ADD17C,0.250000*%
%TD*%
G04 APERTURE END LIST*
D10*
%TO.P,J1,8,Pin_8*%
%TO.N,GND*%
X37400000Y-78900000D03*
D11*
%TO.P,J1,7,Pin_7*%
%TO.N,unconnected-(J1-Pin_7-Pad7)*%
X39940000Y-78900000D03*
%TO.P,J1,6,Pin_6*%
%TO.N,Net-(J1-Pin_6)*%
X42480000Y-78900000D03*
%TO.P,J1,5,Pin_5*%
%TO.N,Net-(J1-Pin_5)*%
X45020000Y-78900000D03*
%TO.P,J1,4,Pin_4*%
%TO.N,Net-(J1-Pin_4)*%
X47560000Y-78900000D03*
%TO.P,J1,3,Pin_3*%
%TO.N,Net-(J1-Pin_3)*%
X50100000Y-78900000D03*
%TO.P,J1,2,Pin_2*%
%TO.N,Net-(J1-Pin_2)*%
X52640000Y-78900000D03*
D12*
%TO.P,J1,1,Pin_1*%
%TO.N,Net-(J1-Pin_1)*%
X55180000Y-78900000D03*
%TD*%
%TO.P,J2,1,Pin_1*%
%TO.N,Net-(J1-Pin_1)*%
X37440000Y-97100000D03*
D11*
%TO.P,J2,2,Pin_2*%
%TO.N,Net-(J1-Pin_2)*%
X39980000Y-97100000D03*
%TO.P,J2,3,Pin_3*%
%TO.N,Net-(J1-Pin_3)*%
X42520000Y-97100000D03*
%TO.P,J2,4,Pin_4*%
%TO.N,Net-(J1-Pin_4)*%
X45060000Y-97100000D03*
%TO.P,J2,5,Pin_5*%
%TO.N,Net-(J1-Pin_5)*%
X47600000Y-97100000D03*
%TO.P,J2,6,Pin_6*%
%TO.N,Net-(J1-Pin_6)*%
X50140000Y-97100000D03*
%TO.P,J2,7,Pin_7*%
%TO.N,unconnected-(J2-Pin_7-Pad7)*%
X52680000Y-97100000D03*
D10*
%TO.P,J2,8,Pin_8*%
%TO.N,GND*%
X55220000Y-97100000D03*
%TD*%
D13*
%TO.P,LED,2,A*%
%TO.N,Net-(D1-A)*%
X52860000Y-83200000D03*
D14*
%TO.P,LED,1,K*%
%TO.N,GND*%
X55400000Y-83200000D03*
%TD*%
D10*
%TO.P,J3,1,Pin_1*%
%TO.N,GND*%
X35160000Y-84180000D03*
D11*
%TO.P,J3,2,Pin_2*%
%TO.N,Net-(J3-Pin_2)*%
X37700000Y-84180000D03*
%TO.P,J3,3,Pin_3*%
%TO.N,Net-(J1-Pin_6)*%
X35160000Y-86720000D03*
%TO.P,J3,4,Pin_4*%
%TO.N,Net-(J1-Pin_4)*%
X37700000Y-86720000D03*
%TO.P,J3,5,Pin_5*%
%TO.N,Net-(J1-Pin_5)*%
X35160000Y-89260000D03*
%TO.P,J3,6,Pin_6*%
%TO.N,Net-(J1-Pin_2)*%
X37700000Y-89260000D03*
%TO.P,J3,7,Pin_7*%
%TO.N,Net-(J1-Pin_3)*%
X35160000Y-91800000D03*
%TO.P,J3,8,Pin_8*%
%TO.N,unconnected-(J3-Pin_8-Pad8)*%
X37700000Y-91800000D03*
%TD*%
D15*
%TO.N,GND*%
X51200000Y-88700000D03*
X51200000Y-85000000D03*
%TO.N,Net-(J1-Pin_4)*%
X45100000Y-93300000D03*
%TO.N,Net-(J1-Pin_3)*%
X48700000Y-94100000D03*
%TO.N,Net-(J1-Pin_1)*%
X49400000Y-90100000D03*
%TO.N,Net-(J1-Pin_3)*%
X39100000Y-95000000D03*
%TO.N,Net-(J1-Pin_5)*%
X42000000Y-94600000D03*
%TD*%
D16*
%TO.N,Net-(J1-Pin_1)*%
X54800000Y-78900000D02*
X55180000Y-78900000D01*
X49500000Y-84200000D02*
X54800000Y-78900000D01*
X49500000Y-90000000D02*
X49500000Y-84200000D01*
X49400000Y-90100000D02*
X49500000Y-90000000D01*
D17*
%TO.N,Net-(J1-Pin_2)*%
X41280000Y-98400000D02*
X39980000Y-97100000D01*
X48200000Y-92225000D02*
X51400000Y-95425000D01*
X50800000Y-98400000D02*
X41280000Y-98400000D01*
X48200000Y-83340000D02*
X48200000Y-92225000D01*
X51400000Y-95425000D02*
X51400000Y-97800000D01*
X52640000Y-78900000D02*
X48200000Y-83340000D01*
X51400000Y-97800000D02*
X50800000Y-98400000D01*
%TO.N,Net-(J1-Pin_3)*%
X46400000Y-82600000D02*
X50100000Y-78900000D01*
X46400000Y-91800000D02*
X46400000Y-82600000D01*
X48700000Y-94100000D02*
X46400000Y-91800000D01*
%TO.N,Net-(J1-Pin_4)*%
X45100000Y-93300000D02*
X45060000Y-93260000D01*
%TO.N,Net-(J1-Pin_2)*%
X39980000Y-97100000D02*
X39980000Y-91540000D01*
X39980000Y-91540000D02*
X37700000Y-89260000D01*
%TO.N,Net-(J1-Pin_6)*%
X50140000Y-97100000D02*
X38440000Y-85400000D01*
X38440000Y-85400000D02*
X36480000Y-85400000D01*
X36480000Y-85400000D02*
X35160000Y-86720000D01*
%TO.N,Net-(J1-Pin_5)*%
X42000000Y-94600000D02*
X42000000Y-91400000D01*
X42000000Y-91400000D02*
X38600000Y-88000000D01*
X38600000Y-88000000D02*
X36420000Y-88000000D01*
X36420000Y-88000000D02*
X35160000Y-89260000D01*
X33600000Y-87700000D02*
X35160000Y-89260000D01*
X33600000Y-82600000D02*
X33600000Y-87700000D01*
X41320000Y-82600000D02*
X33600000Y-82600000D01*
X45020000Y-78900000D02*
X41320000Y-82600000D01*
%TO.N,Net-(J1-Pin_3)*%
X39100000Y-95000000D02*
X38360000Y-95000000D01*
X38360000Y-95000000D02*
X35160000Y-91800000D01*
%TO.N,Net-(J1-Pin_4)*%
X45060000Y-97100000D02*
X45100000Y-93300000D01*
X45060000Y-93260000D02*
X38520000Y-86720000D01*
X38520000Y-86720000D02*
X37700000Y-86720000D01*
%TD*%
%TA.AperFunction,Conductor*%
%TO.N,GND*%
G36*
X55470000Y-98450000D02*
G01*
X56114518Y-98450000D01*
X56121132Y-98449645D01*
X56177371Y-98443599D01*
X56312089Y-98393352D01*
X56427188Y-98307188D01*
X56513352Y-98192088D01*
X56559818Y-98067510D01*
X56601689Y-98011576D01*
X56667154Y-97987159D01*
X56735427Y-98002011D01*
X56784832Y-98051416D01*
X56800000Y-98110843D01*
X56800000Y-98676000D01*
X56780315Y-98743039D01*
X56727511Y-98788794D01*
X56676000Y-98800000D01*
X51371820Y-98800000D01*
X51304781Y-98780315D01*
X51259026Y-98727511D01*
X51249082Y-98658353D01*
X51278107Y-98594797D01*
X51284139Y-98588319D01*
X51479106Y-98393352D01*
X51690654Y-98181803D01*
X51711292Y-98165173D01*
X51714589Y-98163055D01*
X51714592Y-98163052D01*
X51745340Y-98127566D01*
X51751376Y-98121083D01*
X51760275Y-98112184D01*
X51760275Y-98112183D01*
X51760279Y-98112180D01*
X51767835Y-98102084D01*
X51773367Y-98095219D01*
X51785731Y-98080950D01*
X51844503Y-98043177D01*
X51914373Y-98043174D01*
X51944721Y-98056726D01*
X51953435Y-98062121D01*
X51953438Y-98062124D01*
X52142599Y-98179247D01*
X52350060Y-98259618D01*
X52568757Y-98300500D01*
X52568759Y-98300500D01*
X52791241Y-98300500D01*
X52791243Y-98300500D01*
X53009940Y-98259618D01*
X53217401Y-98179247D01*
X53406562Y-98062124D01*
X53570981Y-97912236D01*
X53576585Y-97904815D01*
X53647046Y-97811510D01*
X53703154Y-97769873D01*
X53772866Y-97765181D01*
X53834048Y-97798923D01*
X53867276Y-97860387D01*
X53870000Y-97886236D01*
X53870000Y-97994518D01*
X53870354Y-98001132D01*
X53876400Y-98057371D01*
X53926647Y-98192089D01*
X54012811Y-98307188D01*
X54127910Y-98393352D01*
X54262628Y-98443599D01*
X54318867Y-98449645D01*
X54325482Y-98450000D01*
X54970000Y-98450000D01*
X54970000Y-97535501D01*
X55077685Y-97584680D01*
X55184237Y-97600000D01*
X55255763Y-97600000D01*
X55362315Y-97584680D01*
X55470000Y-97535501D01*
X55470000Y-98450000D01*
G37*
%TD.AperFunction*%
%TA.AperFunction,Conductor*%
G36*
X56743039Y-77219685D02*
G01*
X56788794Y-77272489D01*
X56800000Y-77324000D01*
X56800000Y-81801996D01*
X56780315Y-81869035D01*
X56727511Y-81914790D01*
X56658353Y-81924734D01*
X56601690Y-81901264D01*
X56542088Y-81856647D01*
X56407371Y-81806400D01*
X56351132Y-81800354D01*
X56344518Y-81800000D01*
X55650000Y-81800000D01*
X55650000Y-82825810D01*
X55597453Y-82789984D01*
X55467827Y-82750000D01*
X55366276Y-82750000D01*
X55265862Y-82765135D01*
X55150000Y-82820931D01*
X55150000Y-81800000D01*
X54455482Y-81800000D01*
X54448867Y-81800354D01*
X54392628Y-81806400D01*
X54257910Y-81856647D01*
X54142811Y-81942811D01*
X54056647Y-82057910D01*
X54006400Y-82192628D01*
X54000354Y-82248867D01*
X54000000Y-82255481D01*
X54000000Y-82272163D01*
X53980315Y-82339202D01*
X53927511Y-82384957D01*
X53858353Y-82394901D01*
X53794797Y-82365876D01*
X53788319Y-82359844D01*
X53666880Y-82238405D01*
X53666879Y-82238404D01*
X53666877Y-82238402D01*
X53487639Y-82112898D01*
X53369717Y-82057910D01*
X53289331Y-82020425D01*
X53077974Y-81963792D01*
X52859998Y-81944722D01*
X52764425Y-81953083D01*
X52695925Y-81939316D01*
X52645743Y-81890700D01*
X52629810Y-81822671D01*
X52653186Y-81756828D01*
X52665932Y-81741880D01*
X54440962Y-79966850D01*
X54502283Y-79933367D01*
X54571975Y-79938351D01*
X54593918Y-79949106D01*
X54642595Y-79979245D01*
X54642597Y-79979245D01*
X54642599Y-79979247D01*
X54850060Y-80059618D01*
X55068757Y-80100500D01*
X55068759Y-80100500D01*
X55291241Y-80100500D01*
X55291243Y-80100500D01*
X55509940Y-80059618D01*
X55717401Y-79979247D01*
X55906562Y-79862124D01*
X56070981Y-79712236D01*
X56205058Y-79534689D01*
X56304229Y-79335528D01*
X56307239Y-79324952D01*
X56353293Y-79163085D01*
X56365115Y-79121536D01*
X56385643Y-78900000D01*
X56365115Y-78678464D01*
X56334027Y-78569202D01*
X56304230Y-78464473D01*
X56205058Y-78265311D01*
X56070980Y-78087762D01*
X55906562Y-77937875D01*
X55717404Y-77820754D01*
X55656174Y-77797033D01*
X55509940Y-77740382D01*
X55291243Y-77699500D01*
X55068757Y-77699500D01*
X54850060Y-77740381D01*
X54850060Y-77740382D01*
X54642595Y-77820754D01*
X54453437Y-77937875D01*
X54289019Y-78087762D01*
X54154941Y-78265311D01*
X54055769Y-78464473D01*
X54029266Y-78557625D01*
X53991987Y-78616719D01*
X53928677Y-78646276D01*
X53859438Y-78636914D01*
X53806251Y-78591604D01*
X53790734Y-78557625D01*
X53764230Y-78464473D01*
X53665058Y-78265311D01*
X53530980Y-78087762D01*
X53366562Y-77937875D01*
X53177404Y-77820754D01*
X53116174Y-77797033D01*
X52969940Y-77740382D01*
X52751243Y-77699500D01*
X52528757Y-77699500D01*
X52310060Y-77740381D01*
X52310060Y-77740382D01*
X52102595Y-77820754D01*
X51913437Y-77937875D01*
X51749019Y-78087762D01*
X51614941Y-78265311D01*
X51515769Y-78464473D01*
X51489266Y-78557625D01*
X51451987Y-78616719D01*
X51388677Y-78646276D01*
X51319438Y-78636914D01*
X51266251Y-78591604D01*
X51250734Y-78557625D01*
X51224230Y-78464473D01*
X51125058Y-78265311D01*
X50990980Y-78087762D01*
X50826562Y-77937875D01*
X50637404Y-77820754D01*
X50576174Y-77797033D01*
X50429940Y-77740382D01*
X50211243Y-77699500D01*
X49988757Y-77699500D01*
X49770060Y-77740381D01*
X49770060Y-77740382D01*
X49562595Y-77820754D01*
X49373437Y-77937875D01*
X49209019Y-78087762D01*
X49074941Y-78265311D01*
X48975769Y-78464473D01*
X48949266Y-78557625D01*
X48911987Y-78616719D01*
X48848677Y-78646276D01*
X48779438Y-78636914D01*
X48726251Y-78591604D01*
X48710734Y-78557625D01*
X48684230Y-78464473D01*
X48585058Y-78265311D01*
X48450980Y-78087762D01*
X48286562Y-77937875D01*
X48097404Y-77820754D01*
X48036174Y-77797033D01*
X47889940Y-77740382D01*
X47671243Y-77699500D01*
X47448757Y-77699500D01*
X47230059Y-77740381D01*
X47230060Y-77740382D01*
X47022595Y-77820754D01*
X46833437Y-77937875D01*
X46669019Y-78087762D01*
X46534941Y-78265311D01*
X46435769Y-78464473D01*
X46409266Y-78557625D01*
X46371987Y-78616719D01*
X46308677Y-78646276D01*
X46239438Y-78636914D01*
X46186251Y-78591604D01*
X46170734Y-78557625D01*
X46144230Y-78464473D01*
X46045058Y-78265311D01*
X45910980Y-78087762D01*
X45746562Y-77937875D01*
X45557404Y-77820754D01*
X45496174Y-77797033D01*
X45349940Y-77740382D01*
X45131243Y-77699500D01*
X44908757Y-77699500D01*
X44690059Y-77740381D01*
X44690060Y-77740382D01*
X44482595Y-77820754D01*
X44293437Y-77937875D01*
X44129019Y-78087762D01*
X43994941Y-78265311D01*
X43895769Y-78464473D01*
X43869266Y-78557625D01*
X43831987Y-78616719D01*
X43768677Y-78646276D01*
X43699438Y-78636914D01*
X43646251Y-78591604D01*
X43630734Y-78557625D01*
X43604230Y-78464473D01*
X43505058Y-78265311D01*
X43370980Y-78087762D01*
X43206562Y-77937875D01*
X43017404Y-77820754D01*
X42956174Y-77797033D01*
X42809940Y-77740382D01*
X42591243Y-77699500D01*
X42368757Y-77699500D01*
X42150059Y-77740381D01*
X42150060Y-77740382D01*
X41942595Y-77820754D01*
X41753437Y-77937875D01*
X41589019Y-78087762D01*
X41454941Y-78265311D01*
X41355769Y-78464473D01*
X41329266Y-78557625D01*
X41291987Y-78616719D01*
X41228677Y-78646276D01*
X41159438Y-78636914D01*
X41106251Y-78591604D01*
X41090734Y-78557625D01*
X41064230Y-78464473D01*
X40965058Y-78265311D01*
X40830980Y-78087762D01*
X40666562Y-77937875D01*
X40477404Y-77820754D01*
X40416174Y-77797033D01*
X40269940Y-77740382D01*
X40051243Y-77699500D01*
X39828757Y-77699500D01*
X39610060Y-77740381D01*
X39610060Y-77740382D01*
X39402595Y-77820754D01*
X39213437Y-77937875D01*
X39049019Y-78087762D01*
X38972954Y-78188490D01*
X38916845Y-78230126D01*
X38847133Y-78234817D01*
X38785951Y-78201075D01*
X38752724Y-78139612D01*
X38750000Y-78113763D01*
X38750000Y-78005481D01*
X38749645Y-77998867D01*
X38743599Y-77942628D01*
X38693352Y-77807910D01*
X38607188Y-77692811D01*
X38492089Y-77606647D01*
X38357371Y-77556400D01*
X38301132Y-77550354D01*
X38294518Y-77550000D01*
X37650000Y-77550000D01*
X37650000Y-78464498D01*
X37542315Y-78415320D01*
X37435763Y-78400000D01*
X37364237Y-78400000D01*
X37257685Y-78415320D01*
X37150000Y-78464498D01*
X37150000Y-77550000D01*
X36505482Y-77550000D01*
X36498867Y-77550354D01*
X36442628Y-77556400D01*
X36307910Y-77606647D01*
X36192811Y-77692811D01*
X36106647Y-77807910D01*
X36056400Y-77942628D01*
X36050354Y-77998867D01*
X36050000Y-78005481D01*
X36050000Y-78650000D01*
X36966314Y-78650000D01*
X36940507Y-78690156D01*
X36900000Y-78828111D01*
X36900000Y-78971889D01*
X36940507Y-79109844D01*
X36966314Y-79150000D01*
X36050000Y-79150000D01*
X36050000Y-79794518D01*
X36050354Y-79801132D01*
X36056400Y-79857371D01*
X36106647Y-79992089D01*
X36192811Y-80107188D01*
X36307910Y-80193352D01*
X36442628Y-80243599D01*
X36498867Y-80249645D01*
X36505482Y-80250000D01*
X37150000Y-80250000D01*
X37150000Y-79335501D01*
X37257685Y-79384680D01*
X37364237Y-79400000D01*
X37435763Y-79400000D01*
X37542315Y-79384680D01*
X37650000Y-79335501D01*
X37650000Y-80250000D01*
X38294518Y-80250000D01*
X38301132Y-80249645D01*
X38357371Y-80243599D01*
X38492089Y-80193352D01*
X38607188Y-80107188D01*
X38693352Y-79992089D01*
X38743599Y-79857371D01*
X38749645Y-79801132D01*
X38750000Y-79794518D01*
X38750000Y-79686236D01*
X38769685Y-79619197D01*
X38822489Y-79573442D01*
X38891647Y-79563498D01*
X38955203Y-79592523D01*
X38972954Y-79611510D01*
X39049017Y-79712235D01*
X39213437Y-79862124D01*
X39402595Y-79979245D01*
X39402597Y-79979245D01*
X39402599Y-79979247D01*
X39610060Y-80059618D01*
X39828757Y-80100500D01*
X39828759Y-80100500D01*
X40051241Y-80100500D01*
X40051243Y-80100500D01*
X40269940Y-80059618D01*
X40477401Y-79979247D01*
X40666562Y-79862124D01*
X40830981Y-79712236D01*
X40965058Y-79534689D01*
X41064229Y-79335528D01*
X41067239Y-79324952D01*
X41090734Y-79242374D01*
X41128013Y-79183281D01*
X41191322Y-79153723D01*
X41260562Y-79163085D01*
X41313749Y-79208395D01*
X41329266Y-79242374D01*
X41355769Y-79335526D01*
X41454941Y-79534688D01*
X41589019Y-79712237D01*
X41753437Y-79862124D01*
X41942595Y-79979245D01*
X41942597Y-79979245D01*
X41942599Y-79979247D01*
X42150060Y-80059618D01*
X42368757Y-80100500D01*
X42368759Y-80100500D01*
X42591241Y-80100500D01*
X42591243Y-80100500D01*
X42809940Y-80059618D01*
X42878827Y-80032930D01*
X42948448Y-80027068D01*
X43010189Y-80059777D01*
X43044444Y-80120673D01*
X43040339Y-80190422D01*
X43011301Y-80236238D01*
X41159360Y-82088181D01*
X41098037Y-82121666D01*
X41071679Y-82124500D01*
X33531632Y-82124500D01*
X33507173Y-82131681D01*
X33489892Y-82135440D01*
X33464656Y-82139068D01*
X33441464Y-82149660D01*
X33424891Y-82155842D01*
X33400437Y-82163022D01*
X33391034Y-82169065D01*
X33323993Y-82188746D01*
X33256955Y-82169058D01*
X33211203Y-82116251D01*
X33200000Y-82064746D01*
X33200000Y-81324000D01*
X33219685Y-81256961D01*
X33272489Y-81211206D01*
X33324000Y-81200000D01*
X35700000Y-81200000D01*
X35700000Y-77324000D01*
X35719685Y-77256961D01*
X35772489Y-77211206D01*
X35824000Y-77200000D01*
X56676000Y-77200000D01*
X56743039Y-77219685D01*
G37*
%TD.AperFunction*%
%TA.AperFunction,Conductor*%
G36*
X51532889Y-82977437D02*
G01*
X51588822Y-83019309D01*
X51613239Y-83084773D01*
X51613083Y-83104425D01*
X51604722Y-83199998D01*
X51623792Y-83417974D01*
X51680425Y-83629331D01*
X51730261Y-83736205D01*
X51772898Y-83827639D01*
X51898402Y-84006877D01*
X52053123Y-84161598D01*
X52232361Y-84287102D01*
X52430670Y-84379575D01*
X52642023Y-84436207D01*
X52860000Y-84455277D01*
X53077977Y-84436207D01*
X53289330Y-84379575D01*
X53487639Y-84287102D01*
X53666877Y-84161598D01*
X53788318Y-84040156D01*
X53849642Y-84006671D01*
X53919334Y-84011655D01*
X53975267Y-84053527D01*
X53999684Y-84118991D01*
X54000000Y-84127837D01*
X54000000Y-84144518D01*
X54000354Y-84151132D01*
X54006400Y-84207371D01*
X54056647Y-84342089D01*
X54142811Y-84457188D01*
X54257910Y-84543352D01*
X54392628Y-84593599D01*
X54448867Y-84599645D01*
X54455482Y-84600000D01*
X55150000Y-84600000D01*
X55150000Y-83574189D01*
X55202547Y-83610016D01*
X55332173Y-83650000D01*
X55433724Y-83650000D01*
X55534138Y-83634865D01*
X55649999Y-83579068D01*
X55650000Y-84600000D01*
X56344518Y-84600000D01*
X56351132Y-84599645D01*
X56407371Y-84593599D01*
X56542089Y-84543352D01*
X56601689Y-84498736D01*
X56667154Y-84474319D01*
X56735427Y-84489171D01*
X56784832Y-84538576D01*
X56800000Y-84598003D01*
X56800000Y-96089156D01*
X56780315Y-96156195D01*
X56727511Y-96201950D01*
X56658353Y-96211894D01*
X56594797Y-96182869D01*
X56559818Y-96132490D01*
X56513352Y-96007910D01*
X56427188Y-95892811D01*
X56312089Y-95806647D01*
X56177371Y-95756400D01*
X56121132Y-95750354D01*
X56114518Y-95750000D01*
X55470000Y-95750000D01*
X55470000Y-96664498D01*
X55362315Y-96615320D01*
X55255763Y-96600000D01*
X55184237Y-96600000D01*
X55077685Y-96615320D01*
X54970000Y-96664498D01*
X54970000Y-95750000D01*
X54325482Y-95750000D01*
X54318867Y-95750354D01*
X54262628Y-95756400D01*
X54127910Y-95806647D01*
X54012811Y-95892811D01*
X53926647Y-96007910D01*
X53876400Y-96142628D01*
X53870354Y-96198867D01*
X53870000Y-96205481D01*
X53870000Y-96313763D01*
X53850315Y-96380802D01*
X53797511Y-96426557D01*
X53728353Y-96436501D01*
X53664797Y-96407476D01*
X53647046Y-96388490D01*
X53570980Y-96287762D01*
X53406562Y-96137875D01*
X53217404Y-96020754D01*
X53143865Y-95992265D01*
X53009940Y-95940382D01*
X52791243Y-95899500D01*
X52568757Y-95899500D01*
X52414992Y-95928244D01*
X52350060Y-95940382D01*
X52142595Y-96020754D01*
X52064777Y-96068937D01*
X51997416Y-96087492D01*
X51930717Y-96066684D01*
X51885856Y-96013118D01*
X51875500Y-95963510D01*
X51875500Y-95489453D01*
X51878334Y-95463094D01*
X51878684Y-95461486D01*
X51879166Y-95459270D01*
X51875816Y-95412432D01*
X51875500Y-95403586D01*
X51875500Y-95390990D01*
X51873707Y-95378524D01*
X51872760Y-95369716D01*
X51872085Y-95360276D01*
X51869411Y-95322885D01*
X51868042Y-95319216D01*
X51861488Y-95293534D01*
X51860931Y-95289658D01*
X51841416Y-95246926D01*
X51838038Y-95238771D01*
X51821627Y-95194771D01*
X51819285Y-95191643D01*
X51805755Y-95168839D01*
X51804131Y-95165283D01*
X51800646Y-95161261D01*
X51773367Y-95129778D01*
X51767830Y-95122908D01*
X51760278Y-95112820D01*
X51751384Y-95103926D01*
X51745352Y-95097448D01*
X51714588Y-95061944D01*
X51711287Y-95059823D01*
X51690648Y-95043190D01*
X48711818Y-92064360D01*
X48678333Y-92003037D01*
X48675499Y-91976679D01*
X48675499Y-91165311D01*
X48675499Y-90736225D01*
X48695184Y-90669189D01*
X48747988Y-90623434D01*
X48817146Y-90613490D01*
X48880702Y-90642515D01*
X48887180Y-90648547D01*
X48929110Y-90690477D01*
X49072310Y-90780456D01*
X49231941Y-90836313D01*
X49343980Y-90848936D01*
X49399999Y-90855249D01*
X49399999Y-90855248D01*
X49400000Y-90855249D01*
X49568059Y-90836313D01*
X49727690Y-90780456D01*
X49870890Y-90690477D01*
X49990477Y-90570890D01*
X50080456Y-90427690D01*
X50136313Y-90268059D01*
X50155249Y-90100000D01*
X50136313Y-89931941D01*
X50080456Y-89772310D01*
X50032211Y-89695528D01*
X50019506Y-89675308D01*
X50000500Y-89609336D01*
X50000500Y-84458675D01*
X50020185Y-84391636D01*
X50036814Y-84370999D01*
X51401876Y-83005936D01*
X51463197Y-82972453D01*
X51532889Y-82977437D01*
G37*
%TD.AperFunction*%
%TD*%
M02*
