%TF.GenerationSoftware,KiCad,Pcbnew,7.0.2*%
%TF.CreationDate,2023-05-28T00:49:17+02:00*%
%TF.ProjectId,cc1101_pcb,63633131-3031-45f7-9063-622e6b696361,rev?*%
%TF.SameCoordinates,Original*%
%TF.FileFunction,Copper,L1,Top*%
%TF.FilePolarity,Positive*%
%FSLAX46Y46*%
G04 Gerber Fmt 4.6, Leading zero omitted, Abs format (unit mm)*
G04 Created by KiCad (PCBNEW 7.0.2) date 2023-05-28 00:49:17*
%MOMM*%
%LPD*%
G01*
G04 APERTURE LIST*
G04 Aperture macros list*
%AMRoundRect*
0 Rectangle with rounded corners*
0 $1 Rounding radius*
0 $2 $3 $4 $5 $6 $7 $8 $9 X,Y pos of 4 corners*
0 Add a 4 corners polygon primitive as box body*
4,1,4,$2,$3,$4,$5,$6,$7,$8,$9,$2,$3,0*
0 Add four circle primitives for the rounded corners*
1,1,$1+$1,$2,$3*
1,1,$1+$1,$4,$5*
1,1,$1+$1,$6,$7*
1,1,$1+$1,$8,$9*
0 Add four rect primitives between the rounded corners*
20,1,$1+$1,$2,$3,$4,$5,0*
20,1,$1+$1,$4,$5,$6,$7,0*
20,1,$1+$1,$6,$7,$8,$9,0*
20,1,$1+$1,$8,$9,$2,$3,0*%
G04 Aperture macros list end*
%TA.AperFunction,ComponentPad*%
%ADD10R,1.700000X1.700000*%
%TD*%
%TA.AperFunction,ComponentPad*%
%ADD11O,1.700000X1.700000*%
%TD*%
%TA.AperFunction,ComponentPad*%
%ADD12C,1.700000*%
%TD*%
%TA.AperFunction,SMDPad,CuDef*%
%ADD13RoundRect,0.237500X0.250000X0.237500X-0.250000X0.237500X-0.250000X-0.237500X0.250000X-0.237500X0*%
%TD*%
%TA.AperFunction,SMDPad,CuDef*%
%ADD14RoundRect,0.250000X-0.337500X-0.475000X0.337500X-0.475000X0.337500X0.475000X-0.337500X0.475000X0*%
%TD*%
%TA.AperFunction,SMDPad,CuDef*%
%ADD15RoundRect,0.150000X-0.150000X0.587500X-0.150000X-0.587500X0.150000X-0.587500X0.150000X0.587500X0*%
%TD*%
%TA.AperFunction,ComponentPad*%
%ADD16C,1.800000*%
%TD*%
%TA.AperFunction,ComponentPad*%
%ADD17R,1.800000X1.800000*%
%TD*%
%TA.AperFunction,ViaPad*%
%ADD18C,0.800000*%
%TD*%
%TA.AperFunction,Conductor*%
%ADD19C,0.250000*%
%TD*%
%TA.AperFunction,Conductor*%
%ADD20C,0.300000*%
%TD*%
G04 APERTURE END LIST*
D10*
%TO.P,J1,8,Pin_8*%
%TO.N,GND*%
X37400000Y-78900000D03*
D11*
%TO.P,J1,7,Pin_7*%
%TO.N,unconnected-(J1-Pin_7-Pad7)*%
X39940000Y-78900000D03*
%TO.P,J1,6,Pin_6*%
%TO.N,Net-(J1-Pin_6)*%
X42480000Y-78900000D03*
%TO.P,J1,5,Pin_5*%
%TO.N,Net-(J1-Pin_5)*%
X45020000Y-78900000D03*
%TO.P,J1,4,Pin_4*%
%TO.N,Net-(J1-Pin_4)*%
X47560000Y-78900000D03*
%TO.P,J1,3,Pin_3*%
%TO.N,Net-(J1-Pin_3)*%
X50100000Y-78900000D03*
%TO.P,J1,2,Pin_2*%
%TO.N,Net-(J1-Pin_2)*%
X52640000Y-78900000D03*
D12*
%TO.P,J1,1,Pin_1*%
%TO.N,Net-(J1-Pin_1)*%
X55180000Y-78900000D03*
%TD*%
D13*
%TO.P,R1,2*%
%TO.N,Net-(J3-Pin_2)*%
X40675000Y-83000000D03*
%TO.P,R1,1*%
%TO.N,Net-(D1-A)*%
X42500000Y-83000000D03*
%TD*%
D12*
%TO.P,J2,1,Pin_1*%
%TO.N,Net-(J1-Pin_1)*%
X37440000Y-97100000D03*
D11*
%TO.P,J2,2,Pin_2*%
%TO.N,Net-(J1-Pin_2)*%
X39980000Y-97100000D03*
%TO.P,J2,3,Pin_3*%
%TO.N,Net-(J1-Pin_3)*%
X42520000Y-97100000D03*
%TO.P,J2,4,Pin_4*%
%TO.N,Net-(J1-Pin_4)*%
X45060000Y-97100000D03*
%TO.P,J2,5,Pin_5*%
%TO.N,Net-(J1-Pin_5)*%
X47600000Y-97100000D03*
%TO.P,J2,6,Pin_6*%
%TO.N,Net-(J1-Pin_6)*%
X50140000Y-97100000D03*
%TO.P,J2,7,Pin_7*%
%TO.N,unconnected-(J2-Pin_7-Pad7)*%
X52680000Y-97100000D03*
D10*
%TO.P,J2,8,Pin_8*%
%TO.N,GND*%
X55220000Y-97100000D03*
%TD*%
D14*
%TO.P,C1,2*%
%TO.N,GND*%
X42737500Y-87800000D03*
%TO.P,C1,1*%
%TO.N,Net-(J3-Pin_2)*%
X40662500Y-87800000D03*
%TD*%
D15*
%TO.P,MCP1700,1,GND*%
%TO.N,GND*%
X42450000Y-90462500D03*
%TO.P,MCP1700,2,VO*%
%TO.N,Net-(J3-Pin_2)*%
X40550000Y-90462500D03*
%TO.P,MCP1700,3,VI*%
%TO.N,Net-(J1-Pin_1)*%
X41500000Y-92337500D03*
%TD*%
D16*
%TO.P,LED,2,A*%
%TO.N,Net-(D1-A)*%
X52860000Y-83200000D03*
D17*
%TO.P,LED,1,K*%
%TO.N,GND*%
X55400000Y-83200000D03*
%TD*%
D14*
%TO.P,C2,2*%
%TO.N,GND*%
X42737500Y-85400000D03*
%TO.P,C2,1*%
%TO.N,Net-(J3-Pin_2)*%
X40662500Y-85400000D03*
%TD*%
D10*
%TO.P,J3,1,Pin_1*%
%TO.N,GND*%
X35160000Y-84180000D03*
D11*
%TO.P,J3,2,Pin_2*%
%TO.N,Net-(J3-Pin_2)*%
X37700000Y-84180000D03*
%TO.P,J3,3,Pin_3*%
%TO.N,Net-(J1-Pin_6)*%
X35160000Y-86720000D03*
%TO.P,J3,4,Pin_4*%
%TO.N,Net-(J1-Pin_4)*%
X37700000Y-86720000D03*
%TO.P,J3,5,Pin_5*%
%TO.N,Net-(J1-Pin_5)*%
X35160000Y-89260000D03*
%TO.P,J3,6,Pin_6*%
%TO.N,Net-(J1-Pin_2)*%
X37700000Y-89260000D03*
%TO.P,J3,7,Pin_7*%
%TO.N,Net-(J1-Pin_3)*%
X35160000Y-91800000D03*
%TO.P,J3,8,Pin_8*%
%TO.N,unconnected-(J3-Pin_8-Pad8)*%
X37700000Y-91800000D03*
%TD*%
D18*
%TO.N,GND*%
X51200000Y-88700000D03*
X51200000Y-85000000D03*
%TO.N,Net-(J1-Pin_4)*%
X45100000Y-93300000D03*
%TO.N,Net-(J1-Pin_3)*%
X48700000Y-94100000D03*
%TO.N,Net-(J1-Pin_1)*%
X49400000Y-90100000D03*
%TO.N,Net-(J1-Pin_3)*%
X39100000Y-95000000D03*
%TO.N,Net-(J1-Pin_5)*%
X42000000Y-94600000D03*
%TD*%
D19*
%TO.N,Net-(J1-Pin_4)*%
X47560000Y-78900000D02*
X49460000Y-80800000D01*
X54085000Y-88040305D02*
X48925305Y-93200000D01*
X54085000Y-81985000D02*
X54085000Y-88040305D01*
X49460000Y-80800000D02*
X52900000Y-80800000D01*
X52900000Y-80800000D02*
X54085000Y-81985000D01*
X48925305Y-93200000D02*
X45200000Y-93200000D01*
X45200000Y-93200000D02*
X45100000Y-93300000D01*
D20*
%TO.N,Net-(J1-Pin_1)*%
X49400000Y-90600000D02*
X47662500Y-92337500D01*
X49400000Y-90100000D02*
X49400000Y-90600000D01*
X47662500Y-92337500D02*
X41500000Y-92337500D01*
D19*
%TO.N,Net-(J1-Pin_3)*%
X43820000Y-98400000D02*
X42520000Y-97100000D01*
X48100000Y-98400000D02*
X43820000Y-98400000D01*
X48900000Y-97600000D02*
X48100000Y-98400000D01*
X48900000Y-94300000D02*
X48900000Y-97600000D01*
X48700000Y-94100000D02*
X48900000Y-94300000D01*
%TO.N,Net-(D1-A)*%
X43900000Y-81600000D02*
X51260000Y-81600000D01*
X42500000Y-83000000D02*
X43900000Y-81600000D01*
X51260000Y-81600000D02*
X52860000Y-83200000D01*
%TO.N,Net-(J1-Pin_5)*%
X47600000Y-97100000D02*
X45300000Y-94800000D01*
X42200000Y-94800000D02*
X42000000Y-94600000D01*
X45300000Y-94800000D02*
X42200000Y-94800000D01*
%TO.N,Net-(J1-Pin_6)*%
X42480000Y-78900000D02*
X41305000Y-80075000D01*
X41305000Y-80075000D02*
X39025000Y-80075000D01*
X39025000Y-80075000D02*
X36335000Y-82765000D01*
X36335000Y-82765000D02*
X36335000Y-85545000D01*
X36335000Y-85545000D02*
X35160000Y-86720000D01*
%TO.N,Net-(J1-Pin_3)*%
X40420000Y-95000000D02*
X42520000Y-97100000D01*
X39100000Y-95000000D02*
X40420000Y-95000000D01*
%TO.N,GND*%
X55400000Y-82500000D02*
X55400000Y-83200000D01*
D20*
%TO.N,Net-(J3-Pin_2)*%
X39442500Y-84180000D02*
X40662500Y-85400000D01*
X37700000Y-84180000D02*
X39442500Y-84180000D01*
X40662500Y-83012500D02*
X40675000Y-83000000D01*
X40662500Y-85400000D02*
X40662500Y-83012500D01*
X40662500Y-87800000D02*
X40662500Y-85400000D01*
X40550000Y-87912500D02*
X40662500Y-87800000D01*
X40550000Y-90462500D02*
X40550000Y-87912500D01*
%TO.N,Net-(J1-Pin_1)*%
X40100000Y-93737500D02*
X38562500Y-93737500D01*
X41500000Y-92337500D02*
X40100000Y-93737500D01*
X37440000Y-94860000D02*
X38562500Y-93737500D01*
X37440000Y-97100000D02*
X37440000Y-94860000D01*
%TD*%
%TA.AperFunction,Conductor*%
%TO.N,GND*%
G36*
X56743039Y-77219685D02*
G01*
X56788794Y-77272489D01*
X56800000Y-77324000D01*
X56800000Y-81801996D01*
X56780315Y-81869035D01*
X56727511Y-81914790D01*
X56658353Y-81924734D01*
X56601690Y-81901264D01*
X56542088Y-81856647D01*
X56407371Y-81806400D01*
X56351132Y-81800354D01*
X56344518Y-81800000D01*
X55650000Y-81800000D01*
X55650000Y-82825810D01*
X55597453Y-82789984D01*
X55467827Y-82750000D01*
X55366276Y-82750000D01*
X55265862Y-82765135D01*
X55150000Y-82820931D01*
X55150000Y-81800000D01*
X54602942Y-81800000D01*
X54535903Y-81780315D01*
X54490148Y-81727512D01*
X54489130Y-81725282D01*
X54458374Y-81689787D01*
X54452837Y-81682916D01*
X54445279Y-81672820D01*
X54445277Y-81672818D01*
X54445275Y-81672815D01*
X54436373Y-81663914D01*
X54430354Y-81657451D01*
X54399589Y-81621945D01*
X54396291Y-81619825D01*
X54375652Y-81603193D01*
X53281808Y-80509349D01*
X53265174Y-80488708D01*
X53263055Y-80485411D01*
X53227565Y-80454659D01*
X53221086Y-80448627D01*
X53212180Y-80439721D01*
X53202093Y-80432170D01*
X53195214Y-80426627D01*
X53159718Y-80395870D01*
X53159716Y-80395869D01*
X53156150Y-80394240D01*
X53133369Y-80380722D01*
X53130231Y-80378373D01*
X53121399Y-80375079D01*
X53086219Y-80361957D01*
X53078045Y-80358571D01*
X53035343Y-80339069D01*
X53034654Y-80338970D01*
X53031458Y-80338510D01*
X53005781Y-80331956D01*
X53002115Y-80330588D01*
X52955275Y-80327237D01*
X52946491Y-80326293D01*
X52934012Y-80324500D01*
X52934011Y-80324500D01*
X52921422Y-80324500D01*
X52912577Y-80324184D01*
X52900619Y-80323328D01*
X52890657Y-80322616D01*
X52825193Y-80298197D01*
X52783323Y-80242263D01*
X52778340Y-80172571D01*
X52811827Y-80111249D01*
X52873151Y-80077765D01*
X52876666Y-80077054D01*
X52969940Y-80059618D01*
X53177401Y-79979247D01*
X53366562Y-79862124D01*
X53530981Y-79712236D01*
X53665058Y-79534689D01*
X53764229Y-79335528D01*
X53767239Y-79324952D01*
X53790734Y-79242374D01*
X53828013Y-79183281D01*
X53891322Y-79153723D01*
X53960562Y-79163085D01*
X54013749Y-79208395D01*
X54029266Y-79242374D01*
X54055769Y-79335526D01*
X54154941Y-79534688D01*
X54289019Y-79712237D01*
X54453437Y-79862124D01*
X54642595Y-79979245D01*
X54642597Y-79979245D01*
X54642599Y-79979247D01*
X54850060Y-80059618D01*
X55068757Y-80100500D01*
X55068759Y-80100500D01*
X55291241Y-80100500D01*
X55291243Y-80100500D01*
X55509940Y-80059618D01*
X55717401Y-79979247D01*
X55906562Y-79862124D01*
X56070981Y-79712236D01*
X56205058Y-79534689D01*
X56304229Y-79335528D01*
X56307239Y-79324952D01*
X56353293Y-79163085D01*
X56365115Y-79121536D01*
X56385643Y-78900000D01*
X56365115Y-78678464D01*
X56334027Y-78569202D01*
X56304230Y-78464473D01*
X56205058Y-78265311D01*
X56070980Y-78087762D01*
X55906562Y-77937875D01*
X55717404Y-77820754D01*
X55656174Y-77797033D01*
X55509940Y-77740382D01*
X55291243Y-77699500D01*
X55068757Y-77699500D01*
X54850060Y-77740381D01*
X54850060Y-77740382D01*
X54642595Y-77820754D01*
X54453437Y-77937875D01*
X54289019Y-78087762D01*
X54154941Y-78265311D01*
X54055769Y-78464473D01*
X54029266Y-78557625D01*
X53991987Y-78616719D01*
X53928677Y-78646276D01*
X53859438Y-78636914D01*
X53806251Y-78591604D01*
X53790734Y-78557625D01*
X53764230Y-78464473D01*
X53665058Y-78265311D01*
X53530980Y-78087762D01*
X53366562Y-77937875D01*
X53177404Y-77820754D01*
X53116174Y-77797033D01*
X52969940Y-77740382D01*
X52751243Y-77699500D01*
X52528757Y-77699500D01*
X52310060Y-77740381D01*
X52310060Y-77740382D01*
X52102595Y-77820754D01*
X51913437Y-77937875D01*
X51749019Y-78087762D01*
X51614941Y-78265311D01*
X51515769Y-78464473D01*
X51489266Y-78557625D01*
X51451987Y-78616719D01*
X51388677Y-78646276D01*
X51319438Y-78636914D01*
X51266251Y-78591604D01*
X51250734Y-78557625D01*
X51224230Y-78464473D01*
X51125058Y-78265311D01*
X50990980Y-78087762D01*
X50826562Y-77937875D01*
X50637404Y-77820754D01*
X50576174Y-77797033D01*
X50429940Y-77740382D01*
X50211243Y-77699500D01*
X49988757Y-77699500D01*
X49770060Y-77740381D01*
X49770060Y-77740382D01*
X49562595Y-77820754D01*
X49373437Y-77937875D01*
X49209019Y-78087762D01*
X49074941Y-78265311D01*
X48975769Y-78464473D01*
X48949266Y-78557625D01*
X48911987Y-78616719D01*
X48848677Y-78646276D01*
X48779438Y-78636914D01*
X48726251Y-78591604D01*
X48710734Y-78557625D01*
X48684230Y-78464473D01*
X48585058Y-78265311D01*
X48450980Y-78087762D01*
X48286562Y-77937875D01*
X48097404Y-77820754D01*
X48036174Y-77797033D01*
X47889940Y-77740382D01*
X47671243Y-77699500D01*
X47448757Y-77699500D01*
X47230059Y-77740381D01*
X47230060Y-77740382D01*
X47022595Y-77820754D01*
X46833437Y-77937875D01*
X46669019Y-78087762D01*
X46534941Y-78265311D01*
X46435769Y-78464473D01*
X46409266Y-78557625D01*
X46371987Y-78616719D01*
X46308677Y-78646276D01*
X46239438Y-78636914D01*
X46186251Y-78591604D01*
X46170734Y-78557625D01*
X46144230Y-78464473D01*
X46045058Y-78265311D01*
X45910980Y-78087762D01*
X45746562Y-77937875D01*
X45557404Y-77820754D01*
X45496174Y-77797033D01*
X45349940Y-77740382D01*
X45131243Y-77699500D01*
X44908757Y-77699500D01*
X44690059Y-77740381D01*
X44690060Y-77740382D01*
X44482595Y-77820754D01*
X44293437Y-77937875D01*
X44129019Y-78087762D01*
X43994941Y-78265311D01*
X43895769Y-78464473D01*
X43869266Y-78557625D01*
X43831987Y-78616719D01*
X43768677Y-78646276D01*
X43699438Y-78636914D01*
X43646251Y-78591604D01*
X43630734Y-78557625D01*
X43604230Y-78464473D01*
X43505058Y-78265311D01*
X43370980Y-78087762D01*
X43206562Y-77937875D01*
X43017404Y-77820754D01*
X42956174Y-77797033D01*
X42809940Y-77740382D01*
X42591243Y-77699500D01*
X42368757Y-77699500D01*
X42150059Y-77740381D01*
X42150060Y-77740382D01*
X41942595Y-77820754D01*
X41753437Y-77937875D01*
X41589019Y-78087762D01*
X41454941Y-78265311D01*
X41355769Y-78464473D01*
X41329266Y-78557625D01*
X41291987Y-78616719D01*
X41228677Y-78646276D01*
X41159438Y-78636914D01*
X41106251Y-78591604D01*
X41090734Y-78557625D01*
X41064230Y-78464473D01*
X40965058Y-78265311D01*
X40830980Y-78087762D01*
X40666562Y-77937875D01*
X40477404Y-77820754D01*
X40416174Y-77797033D01*
X40269940Y-77740382D01*
X40051243Y-77699500D01*
X39828757Y-77699500D01*
X39610060Y-77740381D01*
X39610060Y-77740382D01*
X39402595Y-77820754D01*
X39213437Y-77937875D01*
X39049019Y-78087762D01*
X38972954Y-78188490D01*
X38916845Y-78230126D01*
X38847133Y-78234817D01*
X38785951Y-78201075D01*
X38752724Y-78139612D01*
X38750000Y-78113763D01*
X38750000Y-78005481D01*
X38749645Y-77998867D01*
X38743599Y-77942628D01*
X38693352Y-77807910D01*
X38607188Y-77692811D01*
X38492089Y-77606647D01*
X38357371Y-77556400D01*
X38301132Y-77550354D01*
X38294518Y-77550000D01*
X37650000Y-77550000D01*
X37650000Y-78464498D01*
X37542315Y-78415320D01*
X37435763Y-78400000D01*
X37364237Y-78400000D01*
X37257685Y-78415320D01*
X37150000Y-78464498D01*
X37150000Y-77550000D01*
X36505482Y-77550000D01*
X36498867Y-77550354D01*
X36442628Y-77556400D01*
X36307910Y-77606647D01*
X36192811Y-77692811D01*
X36106647Y-77807910D01*
X36056400Y-77942628D01*
X36050354Y-77998867D01*
X36050000Y-78005481D01*
X36050000Y-78650000D01*
X36966314Y-78650000D01*
X36940507Y-78690156D01*
X36900000Y-78828111D01*
X36900000Y-78971889D01*
X36940507Y-79109844D01*
X36966314Y-79150000D01*
X36050000Y-79150000D01*
X36050000Y-79794518D01*
X36050354Y-79801132D01*
X36056400Y-79857371D01*
X36106647Y-79992089D01*
X36192811Y-80107188D01*
X36307910Y-80193352D01*
X36442628Y-80243599D01*
X36498867Y-80249645D01*
X36505482Y-80250000D01*
X37150000Y-80250000D01*
X37150000Y-79335501D01*
X37257685Y-79384680D01*
X37364237Y-79400000D01*
X37435763Y-79400000D01*
X37542315Y-79384680D01*
X37650000Y-79335501D01*
X37650000Y-80250000D01*
X37878179Y-80250000D01*
X37945218Y-80269685D01*
X37990973Y-80322489D01*
X38000917Y-80391647D01*
X37971892Y-80455203D01*
X37965863Y-80461677D01*
X37001682Y-81425858D01*
X36044346Y-82383194D01*
X36023708Y-82399826D01*
X36020410Y-82401945D01*
X35989663Y-82437429D01*
X35983641Y-82443898D01*
X35974722Y-82452818D01*
X35967158Y-82462921D01*
X35961613Y-82469800D01*
X35930867Y-82505284D01*
X35929235Y-82508857D01*
X35915723Y-82531630D01*
X35913370Y-82534773D01*
X35896960Y-82578770D01*
X35893574Y-82586944D01*
X35874068Y-82629657D01*
X35873511Y-82633535D01*
X35866958Y-82659212D01*
X35865589Y-82662883D01*
X35862237Y-82709725D01*
X35861294Y-82718497D01*
X35860558Y-82723623D01*
X35831546Y-82787185D01*
X35772775Y-82824970D01*
X35737817Y-82830000D01*
X35410000Y-82830000D01*
X35410000Y-83744498D01*
X35302315Y-83695320D01*
X35195763Y-83680000D01*
X35124237Y-83680000D01*
X35017685Y-83695320D01*
X34910000Y-83744498D01*
X34910000Y-82830000D01*
X34265482Y-82830000D01*
X34258867Y-82830354D01*
X34202628Y-82836400D01*
X34067910Y-82886647D01*
X33952811Y-82972811D01*
X33866647Y-83087910D01*
X33816400Y-83222628D01*
X33810354Y-83278867D01*
X33810000Y-83285481D01*
X33810000Y-83930000D01*
X34726314Y-83930000D01*
X34700507Y-83970156D01*
X34660000Y-84108111D01*
X34660000Y-84251889D01*
X34700507Y-84389844D01*
X34726314Y-84430000D01*
X33810000Y-84430000D01*
X33810000Y-85074518D01*
X33810354Y-85081132D01*
X33816400Y-85137371D01*
X33866647Y-85272089D01*
X33952811Y-85387188D01*
X34067910Y-85473352D01*
X34202628Y-85523599D01*
X34258867Y-85529645D01*
X34265482Y-85530000D01*
X34365656Y-85530000D01*
X34432695Y-85549685D01*
X34478450Y-85602489D01*
X34488394Y-85671647D01*
X34459369Y-85735203D01*
X34441890Y-85750092D01*
X34441929Y-85750135D01*
X34269019Y-85907762D01*
X34134941Y-86085311D01*
X34035769Y-86284473D01*
X33974885Y-86498462D01*
X33954357Y-86720000D01*
X33974885Y-86941537D01*
X34035769Y-87155526D01*
X34134941Y-87354688D01*
X34269019Y-87532237D01*
X34433437Y-87682124D01*
X34587209Y-87777334D01*
X34622599Y-87799247D01*
X34816522Y-87874373D01*
X34871924Y-87916946D01*
X34895514Y-87982713D01*
X34879803Y-88050793D01*
X34829779Y-88099572D01*
X34816526Y-88105624D01*
X34721550Y-88142419D01*
X34622596Y-88180754D01*
X34433437Y-88297875D01*
X34269019Y-88447762D01*
X34134941Y-88625311D01*
X34035769Y-88824473D01*
X33974885Y-89038462D01*
X33954357Y-89260000D01*
X33974885Y-89481537D01*
X34035769Y-89695526D01*
X34134941Y-89894688D01*
X34269019Y-90072237D01*
X34433437Y-90222124D01*
X34587209Y-90317334D01*
X34622599Y-90339247D01*
X34816522Y-90414373D01*
X34871924Y-90456946D01*
X34895514Y-90522713D01*
X34879803Y-90590793D01*
X34829779Y-90639572D01*
X34816526Y-90645624D01*
X34768636Y-90664178D01*
X34622596Y-90720754D01*
X34433437Y-90837875D01*
X34269019Y-90987762D01*
X34134941Y-91165311D01*
X34035769Y-91364473D01*
X33974885Y-91578462D01*
X33954357Y-91800000D01*
X33974885Y-92021537D01*
X34035769Y-92235526D01*
X34134941Y-92434688D01*
X34269019Y-92612237D01*
X34433437Y-92762124D01*
X34622595Y-92879245D01*
X34622597Y-92879245D01*
X34622599Y-92879247D01*
X34830060Y-92959618D01*
X35048757Y-93000500D01*
X35048759Y-93000500D01*
X35271241Y-93000500D01*
X35271243Y-93000500D01*
X35489940Y-92959618D01*
X35697401Y-92879247D01*
X35886562Y-92762124D01*
X35886562Y-92762123D01*
X36050980Y-92612237D01*
X36126057Y-92512819D01*
X36185058Y-92434689D01*
X36284229Y-92235528D01*
X36310734Y-92142374D01*
X36348013Y-92083281D01*
X36411322Y-92053723D01*
X36480562Y-92063085D01*
X36533749Y-92108395D01*
X36549266Y-92142374D01*
X36575769Y-92235526D01*
X36674941Y-92434688D01*
X36809019Y-92612237D01*
X36973437Y-92762124D01*
X37162595Y-92879245D01*
X37162597Y-92879245D01*
X37162599Y-92879247D01*
X37370060Y-92959618D01*
X37588757Y-93000500D01*
X37588759Y-93000500D01*
X37811241Y-93000500D01*
X37811243Y-93000500D01*
X38029940Y-92959618D01*
X38237401Y-92879247D01*
X38426562Y-92762124D01*
X38426562Y-92762123D01*
X38590980Y-92612237D01*
X38666057Y-92512819D01*
X38725058Y-92434689D01*
X38824229Y-92235528D01*
X38885115Y-92021536D01*
X38905643Y-91800000D01*
X38885115Y-91578464D01*
X38860401Y-91491604D01*
X38824230Y-91364473D01*
X38725058Y-91165311D01*
X38590980Y-90987762D01*
X38426562Y-90837875D01*
X38237404Y-90720754D01*
X38160016Y-90690774D01*
X38043475Y-90645625D01*
X37988076Y-90603054D01*
X37964485Y-90537287D01*
X37980196Y-90469207D01*
X38030220Y-90420428D01*
X38043466Y-90414377D01*
X38237401Y-90339247D01*
X38426562Y-90222124D01*
X38590981Y-90072236D01*
X38725058Y-89894689D01*
X38824229Y-89695528D01*
X38885115Y-89481536D01*
X38905643Y-89260000D01*
X38885115Y-89038464D01*
X38860401Y-88951604D01*
X38824230Y-88824473D01*
X38725058Y-88625311D01*
X38590980Y-88447762D01*
X38426562Y-88297875D01*
X38237404Y-88180754D01*
X38147897Y-88146079D01*
X38043475Y-88105625D01*
X37988076Y-88063054D01*
X37964485Y-87997287D01*
X37980196Y-87929207D01*
X38030220Y-87880428D01*
X38043466Y-87874377D01*
X38237401Y-87799247D01*
X38426562Y-87682124D01*
X38590981Y-87532236D01*
X38725058Y-87354689D01*
X38824229Y-87155528D01*
X38885115Y-86941536D01*
X38905643Y-86720000D01*
X38885115Y-86498464D01*
X38856968Y-86399536D01*
X38824230Y-86284473D01*
X38725058Y-86085311D01*
X38590980Y-85907762D01*
X38426562Y-85757875D01*
X38237404Y-85640754D01*
X38202007Y-85627041D01*
X38043475Y-85565625D01*
X37988076Y-85523054D01*
X37964485Y-85457287D01*
X37980196Y-85389207D01*
X38030220Y-85340428D01*
X38043466Y-85334377D01*
X38237401Y-85259247D01*
X38426562Y-85142124D01*
X38590981Y-84992236D01*
X38725058Y-84814689D01*
X38757655Y-84749225D01*
X38805158Y-84697991D01*
X38868654Y-84680500D01*
X39183824Y-84680500D01*
X39250863Y-84700185D01*
X39271505Y-84716819D01*
X39688181Y-85133495D01*
X39721666Y-85194818D01*
X39724500Y-85221176D01*
X39724500Y-85910305D01*
X39724500Y-85910320D01*
X39724501Y-85914360D01*
X39725029Y-85918373D01*
X39725030Y-85918384D01*
X39739955Y-86031760D01*
X39800464Y-86177841D01*
X39896717Y-86303282D01*
X40022159Y-86399536D01*
X40085452Y-86425753D01*
X40139856Y-86469594D01*
X40161921Y-86535888D01*
X40162000Y-86540314D01*
X40162000Y-86659685D01*
X40142315Y-86726724D01*
X40089511Y-86772479D01*
X40085453Y-86774246D01*
X40022158Y-86800463D01*
X39896717Y-86896717D01*
X39800463Y-87022159D01*
X39739956Y-87168237D01*
X39739956Y-87168238D01*
X39724500Y-87285639D01*
X39724500Y-87289691D01*
X39724500Y-87289692D01*
X39724500Y-88310305D01*
X39724500Y-88310320D01*
X39724501Y-88314360D01*
X39725029Y-88318373D01*
X39725030Y-88318384D01*
X39739955Y-88431760D01*
X39800464Y-88577841D01*
X39896717Y-88703282D01*
X39963519Y-88754540D01*
X40000986Y-88783289D01*
X40042189Y-88839716D01*
X40049500Y-88881665D01*
X40049500Y-89466770D01*
X40029815Y-89533809D01*
X40024767Y-89541081D01*
X39956204Y-89632668D01*
X39905909Y-89767516D01*
X39901148Y-89811803D01*
X39899500Y-89827127D01*
X39899500Y-89830448D01*
X39899500Y-89830449D01*
X39899500Y-91094560D01*
X39899500Y-91094578D01*
X39899501Y-91097872D01*
X39899853Y-91101152D01*
X39899854Y-91101159D01*
X39905909Y-91157484D01*
X39931056Y-91224907D01*
X39956204Y-91292331D01*
X40042454Y-91407546D01*
X40157669Y-91493796D01*
X40292517Y-91544091D01*
X40352127Y-91550500D01*
X40727756Y-91550499D01*
X40794795Y-91570183D01*
X40840550Y-91622987D01*
X40851045Y-91687750D01*
X40849500Y-91702127D01*
X40849500Y-91705449D01*
X40849500Y-92228823D01*
X40829815Y-92295862D01*
X40813181Y-92316504D01*
X39929005Y-93200681D01*
X39867682Y-93234166D01*
X39841324Y-93237000D01*
X38629644Y-93237000D01*
X38603286Y-93234166D01*
X38598573Y-93233140D01*
X38549039Y-93236684D01*
X38540192Y-93237000D01*
X38526701Y-93237000D01*
X38513337Y-93238920D01*
X38504553Y-93239865D01*
X38455013Y-93243409D01*
X38450490Y-93245096D01*
X38424823Y-93251647D01*
X38420045Y-93252334D01*
X38374865Y-93272966D01*
X38366691Y-93276351D01*
X38320168Y-93293703D01*
X38316302Y-93296598D01*
X38293517Y-93310118D01*
X38289124Y-93312124D01*
X38251607Y-93344632D01*
X38244727Y-93350177D01*
X38233908Y-93358277D01*
X38224354Y-93367830D01*
X38217886Y-93373851D01*
X38180355Y-93406372D01*
X38177744Y-93410436D01*
X38161115Y-93431069D01*
X37133569Y-94458615D01*
X37112936Y-94475244D01*
X37108872Y-94477855D01*
X37076351Y-94515386D01*
X37070330Y-94521854D01*
X37060777Y-94531408D01*
X37052677Y-94542227D01*
X37047132Y-94549107D01*
X37014624Y-94586624D01*
X37012618Y-94591017D01*
X36999098Y-94613802D01*
X36996203Y-94617668D01*
X36978851Y-94664191D01*
X36975466Y-94672365D01*
X36954834Y-94717545D01*
X36954147Y-94722323D01*
X36947596Y-94747990D01*
X36945909Y-94752513D01*
X36942365Y-94802053D01*
X36941420Y-94810846D01*
X36939500Y-94824203D01*
X36939500Y-94837691D01*
X36939184Y-94846538D01*
X36935641Y-94896072D01*
X36936666Y-94900784D01*
X36939500Y-94927143D01*
X36939500Y-95928837D01*
X36919815Y-95995876D01*
X36880777Y-96034264D01*
X36713437Y-96137875D01*
X36549019Y-96287762D01*
X36414941Y-96465311D01*
X36315769Y-96664473D01*
X36254885Y-96878462D01*
X36234357Y-97100000D01*
X36254885Y-97321537D01*
X36315769Y-97535526D01*
X36414941Y-97734688D01*
X36549019Y-97912237D01*
X36713437Y-98062124D01*
X36902595Y-98179245D01*
X36902597Y-98179245D01*
X36902599Y-98179247D01*
X37110060Y-98259618D01*
X37328757Y-98300500D01*
X37328759Y-98300500D01*
X37551241Y-98300500D01*
X37551243Y-98300500D01*
X37769940Y-98259618D01*
X37977401Y-98179247D01*
X38166562Y-98062124D01*
X38317528Y-97924500D01*
X38330980Y-97912237D01*
X38330982Y-97912235D01*
X38465058Y-97734689D01*
X38564229Y-97535528D01*
X38567239Y-97524952D01*
X38590734Y-97442374D01*
X38628013Y-97383281D01*
X38691322Y-97353723D01*
X38760562Y-97363085D01*
X38813749Y-97408395D01*
X38829266Y-97442374D01*
X38855769Y-97535526D01*
X38954941Y-97734688D01*
X39089019Y-97912237D01*
X39253437Y-98062124D01*
X39442595Y-98179245D01*
X39442597Y-98179245D01*
X39442599Y-98179247D01*
X39650060Y-98259618D01*
X39868757Y-98300500D01*
X39868759Y-98300500D01*
X40091241Y-98300500D01*
X40091243Y-98300500D01*
X40309940Y-98259618D01*
X40517401Y-98179247D01*
X40706562Y-98062124D01*
X40857528Y-97924500D01*
X40870980Y-97912237D01*
X40870982Y-97912235D01*
X41005058Y-97734689D01*
X41104229Y-97535528D01*
X41107239Y-97524952D01*
X41130734Y-97442374D01*
X41168013Y-97383281D01*
X41231322Y-97353723D01*
X41300562Y-97363085D01*
X41353749Y-97408395D01*
X41369266Y-97442374D01*
X41395769Y-97535526D01*
X41494941Y-97734688D01*
X41629019Y-97912237D01*
X41793437Y-98062124D01*
X41982595Y-98179245D01*
X41982597Y-98179245D01*
X41982599Y-98179247D01*
X42190060Y-98259618D01*
X42408757Y-98300500D01*
X42408759Y-98300500D01*
X42631241Y-98300500D01*
X42631243Y-98300500D01*
X42849940Y-98259618D01*
X42887915Y-98244905D01*
X42957536Y-98239042D01*
X43019277Y-98271750D01*
X43020391Y-98272850D01*
X43335860Y-98588319D01*
X43369345Y-98649642D01*
X43364361Y-98719334D01*
X43322489Y-98775267D01*
X43257025Y-98799684D01*
X43248179Y-98800000D01*
X35824000Y-98800000D01*
X35756961Y-98780315D01*
X35711206Y-98727511D01*
X35700000Y-98676000D01*
X35700000Y-94700000D01*
X33324000Y-94700000D01*
X33256961Y-94680315D01*
X33211206Y-94627511D01*
X33200000Y-94576000D01*
X33200000Y-81324000D01*
X33219685Y-81256961D01*
X33272489Y-81211206D01*
X33324000Y-81200000D01*
X35700000Y-81200000D01*
X35700000Y-77324000D01*
X35719685Y-77256961D01*
X35772489Y-77211206D01*
X35824000Y-77200000D01*
X56676000Y-77200000D01*
X56743039Y-77219685D01*
G37*
%TD.AperFunction*%
%TA.AperFunction,Conductor*%
G36*
X51460562Y-97363085D02*
G01*
X51513749Y-97408395D01*
X51529266Y-97442374D01*
X51555769Y-97535526D01*
X51654941Y-97734688D01*
X51789019Y-97912237D01*
X51953437Y-98062124D01*
X52142595Y-98179245D01*
X52142597Y-98179245D01*
X52142599Y-98179247D01*
X52350060Y-98259618D01*
X52568757Y-98300500D01*
X52568759Y-98300500D01*
X52791241Y-98300500D01*
X52791243Y-98300500D01*
X53009940Y-98259618D01*
X53217401Y-98179247D01*
X53406562Y-98062124D01*
X53570981Y-97912236D01*
X53576585Y-97904815D01*
X53647046Y-97811510D01*
X53703154Y-97769873D01*
X53772866Y-97765181D01*
X53834048Y-97798923D01*
X53867276Y-97860387D01*
X53870000Y-97886236D01*
X53870000Y-97994518D01*
X53870354Y-98001132D01*
X53876400Y-98057371D01*
X53926647Y-98192089D01*
X54012811Y-98307188D01*
X54127910Y-98393352D01*
X54262628Y-98443599D01*
X54318867Y-98449645D01*
X54325482Y-98450000D01*
X54970000Y-98450000D01*
X54970000Y-97535501D01*
X55077685Y-97584680D01*
X55184237Y-97600000D01*
X55255763Y-97600000D01*
X55362315Y-97584680D01*
X55470000Y-97535501D01*
X55470000Y-98450000D01*
X56114518Y-98450000D01*
X56121132Y-98449645D01*
X56177371Y-98443599D01*
X56312089Y-98393352D01*
X56427188Y-98307188D01*
X56513352Y-98192088D01*
X56559818Y-98067510D01*
X56601689Y-98011576D01*
X56667154Y-97987159D01*
X56735427Y-98002011D01*
X56784832Y-98051416D01*
X56800000Y-98110843D01*
X56800000Y-98676000D01*
X56780315Y-98743039D01*
X56727511Y-98788794D01*
X56676000Y-98800000D01*
X48671820Y-98800000D01*
X48604781Y-98780315D01*
X48559026Y-98727511D01*
X48549082Y-98658353D01*
X48578107Y-98594797D01*
X48584139Y-98588319D01*
X48871958Y-98300500D01*
X49171160Y-98001297D01*
X49232481Y-97967814D01*
X49302172Y-97972798D01*
X49342372Y-97997339D01*
X49401692Y-98051416D01*
X49413440Y-98062126D01*
X49602595Y-98179245D01*
X49602597Y-98179245D01*
X49602599Y-98179247D01*
X49810060Y-98259618D01*
X50028757Y-98300500D01*
X50028759Y-98300500D01*
X50251241Y-98300500D01*
X50251243Y-98300500D01*
X50469940Y-98259618D01*
X50677401Y-98179247D01*
X50866562Y-98062124D01*
X51017528Y-97924500D01*
X51030980Y-97912237D01*
X51030982Y-97912235D01*
X51165058Y-97734689D01*
X51264229Y-97535528D01*
X51267239Y-97524952D01*
X51290734Y-97442374D01*
X51328013Y-97383281D01*
X51391322Y-97353723D01*
X51460562Y-97363085D01*
G37*
%TD.AperFunction*%
%TA.AperFunction,Conductor*%
G36*
X51078718Y-82095185D02*
G01*
X51099360Y-82111819D01*
X51646240Y-82658699D01*
X51679725Y-82720022D01*
X51678334Y-82778474D01*
X51623792Y-82982025D01*
X51604722Y-83200000D01*
X51623792Y-83417974D01*
X51680425Y-83629331D01*
X51730261Y-83736203D01*
X51772898Y-83827639D01*
X51898402Y-84006877D01*
X52053123Y-84161598D01*
X52232361Y-84287102D01*
X52430670Y-84379575D01*
X52642023Y-84436207D01*
X52860000Y-84455277D01*
X53077977Y-84436207D01*
X53289330Y-84379575D01*
X53433095Y-84312535D01*
X53502172Y-84302044D01*
X53565956Y-84330564D01*
X53604196Y-84389040D01*
X53609500Y-84424918D01*
X53609500Y-87791984D01*
X53589815Y-87859023D01*
X53573181Y-87879665D01*
X48764665Y-92688181D01*
X48703342Y-92721666D01*
X48676984Y-92724500D01*
X48282675Y-92724500D01*
X48215636Y-92704815D01*
X48169881Y-92652011D01*
X48159937Y-92582853D01*
X48188962Y-92519297D01*
X48194994Y-92512819D01*
X48943302Y-91764511D01*
X49706430Y-91001382D01*
X49727069Y-90984751D01*
X49731128Y-90982143D01*
X49763654Y-90944603D01*
X49769658Y-90938155D01*
X49779221Y-90928593D01*
X49787313Y-90917782D01*
X49792853Y-90910906D01*
X49825377Y-90873373D01*
X49827375Y-90868997D01*
X49840907Y-90846190D01*
X49840920Y-90846172D01*
X49843796Y-90842331D01*
X49861153Y-90795791D01*
X49864534Y-90787630D01*
X49885165Y-90742457D01*
X49885851Y-90737681D01*
X49892405Y-90712001D01*
X49894091Y-90707483D01*
X49894091Y-90707479D01*
X49900323Y-90690774D01*
X49901070Y-90691052D01*
X49918301Y-90644850D01*
X49929882Y-90631484D01*
X49990477Y-90570890D01*
X50080456Y-90427690D01*
X50136313Y-90268059D01*
X50155249Y-90100000D01*
X50136313Y-89931941D01*
X50080456Y-89772310D01*
X49990477Y-89629110D01*
X49870890Y-89509523D01*
X49727690Y-89419544D01*
X49568059Y-89363687D01*
X49568058Y-89363686D01*
X49568056Y-89363686D01*
X49400000Y-89344750D01*
X49231943Y-89363686D01*
X49072310Y-89419544D01*
X48929108Y-89509524D01*
X48809524Y-89629108D01*
X48719544Y-89772310D01*
X48663686Y-89931943D01*
X48644750Y-90100000D01*
X48663686Y-90268056D01*
X48716719Y-90419618D01*
X48719544Y-90427690D01*
X48722865Y-90432976D01*
X48741867Y-90500210D01*
X48721501Y-90567046D01*
X48705554Y-90586630D01*
X47491505Y-91800681D01*
X47430182Y-91834166D01*
X47403824Y-91837000D01*
X42999434Y-91837000D01*
X42932395Y-91817315D01*
X42886640Y-91764511D01*
X42876696Y-91695353D01*
X42905721Y-91631797D01*
X42936313Y-91606268D01*
X43001557Y-91567682D01*
X43117682Y-91451557D01*
X43201282Y-91310197D01*
X43247099Y-91152493D01*
X43249808Y-91118076D01*
X43250000Y-91113196D01*
X43250000Y-90712500D01*
X41650000Y-90712500D01*
X41650000Y-91113196D01*
X41650287Y-91120506D01*
X41650019Y-91115925D01*
X41635577Y-91184277D01*
X41586467Y-91233976D01*
X41526392Y-91249500D01*
X41322243Y-91249500D01*
X41255204Y-91229815D01*
X41209449Y-91177011D01*
X41198954Y-91112243D01*
X41200500Y-91097873D01*
X41200499Y-89827128D01*
X41194091Y-89767517D01*
X41143796Y-89632669D01*
X41075232Y-89541080D01*
X41050816Y-89475616D01*
X41050500Y-89466770D01*
X41050500Y-88982779D01*
X41070185Y-88915740D01*
X41122989Y-88869985D01*
X41154861Y-88860831D01*
X41156760Y-88860044D01*
X41156762Y-88860044D01*
X41302841Y-88799536D01*
X41428282Y-88703282D01*
X41515422Y-88589718D01*
X41571847Y-88548517D01*
X41641593Y-88544362D01*
X41702514Y-88578574D01*
X41719335Y-88600109D01*
X41807684Y-88743346D01*
X41931654Y-88867316D01*
X42080877Y-88959357D01*
X42188492Y-88995018D01*
X42245937Y-89034791D01*
X42272760Y-89099307D01*
X42260445Y-89168083D01*
X42212902Y-89219282D01*
X42184083Y-89231800D01*
X42039802Y-89273717D01*
X41898442Y-89357317D01*
X41782317Y-89473442D01*
X41698717Y-89614802D01*
X41652900Y-89772506D01*
X41650191Y-89806923D01*
X41650000Y-89811803D01*
X41650000Y-90212500D01*
X43250000Y-90212500D01*
X43250000Y-89811803D01*
X43249808Y-89806923D01*
X43247099Y-89772506D01*
X43201282Y-89614802D01*
X43117682Y-89473442D01*
X43001557Y-89357317D01*
X42860197Y-89273717D01*
X42840776Y-89268075D01*
X42781890Y-89230469D01*
X42752684Y-89166997D01*
X42762430Y-89097810D01*
X42808034Y-89044875D01*
X42875017Y-89025000D01*
X42875371Y-89024999D01*
X43121829Y-89024999D01*
X43128111Y-89024678D01*
X43227695Y-89014506D01*
X43394122Y-88959357D01*
X43543345Y-88867316D01*
X43667316Y-88743345D01*
X43759357Y-88594122D01*
X43814506Y-88427696D01*
X43824680Y-88328109D01*
X43825000Y-88321831D01*
X43825000Y-88050000D01*
X42611500Y-88050000D01*
X42544461Y-88030315D01*
X42498706Y-87977511D01*
X42487500Y-87926000D01*
X42487500Y-85650000D01*
X42987500Y-85650000D01*
X42987500Y-87550000D01*
X43824999Y-87550000D01*
X43824999Y-87278170D01*
X43824678Y-87271888D01*
X43814506Y-87172304D01*
X43759357Y-87005877D01*
X43667316Y-86856654D01*
X43543345Y-86732683D01*
X43499337Y-86705539D01*
X43452612Y-86653591D01*
X43441389Y-86584629D01*
X43469233Y-86520546D01*
X43499337Y-86494461D01*
X43543345Y-86467316D01*
X43667316Y-86343345D01*
X43759357Y-86194122D01*
X43814506Y-86027696D01*
X43824680Y-85928109D01*
X43825000Y-85921831D01*
X43825000Y-85650000D01*
X42987500Y-85650000D01*
X42487500Y-85650000D01*
X42487500Y-84175000D01*
X42987500Y-84175000D01*
X42987500Y-85150000D01*
X43824999Y-85150000D01*
X43824999Y-84878170D01*
X43824678Y-84871888D01*
X43814506Y-84772304D01*
X43759357Y-84605877D01*
X43667316Y-84456654D01*
X43543345Y-84332683D01*
X43394122Y-84240642D01*
X43227696Y-84185493D01*
X43128109Y-84175319D01*
X43121832Y-84175000D01*
X42987500Y-84175000D01*
X42487500Y-84175000D01*
X42353171Y-84175000D01*
X42346888Y-84175321D01*
X42247304Y-84185493D01*
X42080877Y-84240642D01*
X41931654Y-84332683D01*
X41807682Y-84456655D01*
X41719334Y-84599890D01*
X41667386Y-84646615D01*
X41598424Y-84657836D01*
X41534342Y-84629993D01*
X41515420Y-84610279D01*
X41506000Y-84598003D01*
X41498829Y-84588657D01*
X41428282Y-84496717D01*
X41302841Y-84400463D01*
X41239547Y-84374246D01*
X41185143Y-84330404D01*
X41163079Y-84264110D01*
X41163000Y-84259685D01*
X41163000Y-83857183D01*
X41182685Y-83790144D01*
X41211514Y-83758806D01*
X41221531Y-83751119D01*
X41221537Y-83751117D01*
X41344367Y-83656867D01*
X41438617Y-83534037D01*
X41472938Y-83451176D01*
X41516779Y-83396772D01*
X41583073Y-83374707D01*
X41650773Y-83391986D01*
X41698384Y-83443123D01*
X41702061Y-83451176D01*
X41736382Y-83534036D01*
X41830632Y-83656867D01*
X41948206Y-83747083D01*
X41953463Y-83751117D01*
X42096501Y-83810365D01*
X42211460Y-83825500D01*
X42215513Y-83825500D01*
X42784487Y-83825500D01*
X42788540Y-83825500D01*
X42903499Y-83810365D01*
X43046537Y-83751117D01*
X43169367Y-83656867D01*
X43263617Y-83534037D01*
X43322865Y-83390999D01*
X43338000Y-83276040D01*
X43338000Y-82885820D01*
X43357685Y-82818781D01*
X43374319Y-82798139D01*
X44060640Y-82111819D01*
X44121963Y-82078334D01*
X44148321Y-82075500D01*
X51011679Y-82075500D01*
X51078718Y-82095185D01*
G37*
%TD.AperFunction*%
%TA.AperFunction,Conductor*%
G36*
X55202547Y-83610016D02*
G01*
X55332173Y-83650000D01*
X55433724Y-83650000D01*
X55534138Y-83634865D01*
X55649999Y-83579068D01*
X55650000Y-84600000D01*
X56344518Y-84600000D01*
X56351132Y-84599645D01*
X56407371Y-84593599D01*
X56542089Y-84543352D01*
X56601689Y-84498736D01*
X56667154Y-84474319D01*
X56735427Y-84489171D01*
X56784832Y-84538576D01*
X56800000Y-84598003D01*
X56800000Y-96089156D01*
X56780315Y-96156195D01*
X56727511Y-96201950D01*
X56658353Y-96211894D01*
X56594797Y-96182869D01*
X56559818Y-96132490D01*
X56513352Y-96007910D01*
X56427188Y-95892811D01*
X56312089Y-95806647D01*
X56177371Y-95756400D01*
X56121132Y-95750354D01*
X56114518Y-95750000D01*
X55470000Y-95750000D01*
X55470000Y-96664498D01*
X55362315Y-96615320D01*
X55255763Y-96600000D01*
X55184237Y-96600000D01*
X55077685Y-96615320D01*
X54970000Y-96664498D01*
X54970000Y-95750000D01*
X54325482Y-95750000D01*
X54318867Y-95750354D01*
X54262628Y-95756400D01*
X54127910Y-95806647D01*
X54012811Y-95892811D01*
X53926647Y-96007910D01*
X53876400Y-96142628D01*
X53870354Y-96198867D01*
X53870000Y-96205481D01*
X53870000Y-96313763D01*
X53850315Y-96380802D01*
X53797511Y-96426557D01*
X53728353Y-96436501D01*
X53664797Y-96407476D01*
X53647046Y-96388490D01*
X53570980Y-96287762D01*
X53406562Y-96137875D01*
X53217404Y-96020754D01*
X53133759Y-95988350D01*
X53009940Y-95940382D01*
X52791243Y-95899500D01*
X52568757Y-95899500D01*
X52414992Y-95928244D01*
X52350060Y-95940382D01*
X52142595Y-96020754D01*
X51953437Y-96137875D01*
X51789019Y-96287762D01*
X51654941Y-96465311D01*
X51555769Y-96664473D01*
X51529266Y-96757625D01*
X51491987Y-96816719D01*
X51428677Y-96846276D01*
X51359438Y-96836914D01*
X51306251Y-96791604D01*
X51290734Y-96757625D01*
X51264230Y-96664473D01*
X51165058Y-96465311D01*
X51030980Y-96287762D01*
X50866562Y-96137875D01*
X50677404Y-96020754D01*
X50593759Y-95988350D01*
X50469940Y-95940382D01*
X50251243Y-95899500D01*
X50028757Y-95899500D01*
X49874992Y-95928244D01*
X49810060Y-95940382D01*
X49602596Y-96020754D01*
X49564776Y-96044171D01*
X49497415Y-96062725D01*
X49430716Y-96041916D01*
X49385855Y-95988350D01*
X49375500Y-95938743D01*
X49375500Y-94462922D01*
X49382458Y-94421968D01*
X49391590Y-94395870D01*
X49436313Y-94268059D01*
X49455249Y-94100000D01*
X49436313Y-93931941D01*
X49380456Y-93772310D01*
X49296077Y-93638023D01*
X49277078Y-93570787D01*
X49297446Y-93503952D01*
X49313386Y-93484376D01*
X54375654Y-88422108D01*
X54396292Y-88405478D01*
X54399589Y-88403360D01*
X54399592Y-88403357D01*
X54430340Y-88367871D01*
X54436376Y-88361388D01*
X54445275Y-88352489D01*
X54445275Y-88352488D01*
X54445279Y-88352485D01*
X54452835Y-88342389D01*
X54458387Y-88335501D01*
X54489130Y-88300023D01*
X54490757Y-88296458D01*
X54504281Y-88273666D01*
X54506629Y-88270531D01*
X54523042Y-88226521D01*
X54526430Y-88218345D01*
X54545931Y-88175647D01*
X54546487Y-88171774D01*
X54553044Y-88146085D01*
X54554412Y-88142419D01*
X54557762Y-88095571D01*
X54558709Y-88086769D01*
X54560500Y-88074315D01*
X54560500Y-88061731D01*
X54560816Y-88052884D01*
X54562430Y-88030315D01*
X54564167Y-88006034D01*
X54563333Y-88002204D01*
X54560500Y-87975846D01*
X54560500Y-84724000D01*
X54580185Y-84656961D01*
X54632989Y-84611206D01*
X54684500Y-84600000D01*
X55150000Y-84600000D01*
X55150000Y-83574189D01*
X55202547Y-83610016D01*
G37*
%TD.AperFunction*%
%TD*%
M02*
