%TF.GenerationSoftware,KiCad,Pcbnew,7.0.2-1.fc38*%
%TF.CreationDate,2023-05-30T15:06:55+02:00*%
%TF.ProjectId,marauder_mini_pcb,6d617261-7564-4657-925f-6d696e695f70,rev?*%
%TF.SameCoordinates,Original*%
%TF.FileFunction,Legend,Bot*%
%TF.FilePolarity,Positive*%
%FSLAX46Y46*%
G04 Gerber Fmt 4.6, Leading zero omitted, Abs format (unit mm)*
G04 Created by KiCad (PCBNEW 7.0.2-1.fc38) date 2023-05-30 15:06:55*
%MOMM*%
%LPD*%
G01*
G04 APERTURE LIST*
%ADD10C,0.150000*%
%ADD11C,0.120000*%
G04 APERTURE END LIST*
D10*
X76150238Y-64812904D02*
X76102619Y-64717666D01*
X76102619Y-64717666D02*
X76102619Y-64574809D01*
X76102619Y-64574809D02*
X76150238Y-64431952D01*
X76150238Y-64431952D02*
X76245476Y-64336714D01*
X76245476Y-64336714D02*
X76340714Y-64289095D01*
X76340714Y-64289095D02*
X76531190Y-64241476D01*
X76531190Y-64241476D02*
X76674047Y-64241476D01*
X76674047Y-64241476D02*
X76864523Y-64289095D01*
X76864523Y-64289095D02*
X76959761Y-64336714D01*
X76959761Y-64336714D02*
X77055000Y-64431952D01*
X77055000Y-64431952D02*
X77102619Y-64574809D01*
X77102619Y-64574809D02*
X77102619Y-64670047D01*
X77102619Y-64670047D02*
X77055000Y-64812904D01*
X77055000Y-64812904D02*
X77007380Y-64860523D01*
X77007380Y-64860523D02*
X76674047Y-64860523D01*
X76674047Y-64860523D02*
X76674047Y-64670047D01*
X77102619Y-65289095D02*
X76102619Y-65289095D01*
X76102619Y-65289095D02*
X77102619Y-65860523D01*
X77102619Y-65860523D02*
X76102619Y-65860523D01*
X77102619Y-66336714D02*
X76102619Y-66336714D01*
X76102619Y-66336714D02*
X76102619Y-66574809D01*
X76102619Y-66574809D02*
X76150238Y-66717666D01*
X76150238Y-66717666D02*
X76245476Y-66812904D01*
X76245476Y-66812904D02*
X76340714Y-66860523D01*
X76340714Y-66860523D02*
X76531190Y-66908142D01*
X76531190Y-66908142D02*
X76674047Y-66908142D01*
X76674047Y-66908142D02*
X76864523Y-66860523D01*
X76864523Y-66860523D02*
X76959761Y-66812904D01*
X76959761Y-66812904D02*
X77055000Y-66717666D01*
X77055000Y-66717666D02*
X77102619Y-66574809D01*
X77102619Y-66574809D02*
X77102619Y-66336714D01*
X57825238Y-64761904D02*
X57777619Y-64666666D01*
X57777619Y-64666666D02*
X57777619Y-64523809D01*
X57777619Y-64523809D02*
X57825238Y-64380952D01*
X57825238Y-64380952D02*
X57920476Y-64285714D01*
X57920476Y-64285714D02*
X58015714Y-64238095D01*
X58015714Y-64238095D02*
X58206190Y-64190476D01*
X58206190Y-64190476D02*
X58349047Y-64190476D01*
X58349047Y-64190476D02*
X58539523Y-64238095D01*
X58539523Y-64238095D02*
X58634761Y-64285714D01*
X58634761Y-64285714D02*
X58730000Y-64380952D01*
X58730000Y-64380952D02*
X58777619Y-64523809D01*
X58777619Y-64523809D02*
X58777619Y-64619047D01*
X58777619Y-64619047D02*
X58730000Y-64761904D01*
X58730000Y-64761904D02*
X58682380Y-64809523D01*
X58682380Y-64809523D02*
X58349047Y-64809523D01*
X58349047Y-64809523D02*
X58349047Y-64619047D01*
X58777619Y-65238095D02*
X57777619Y-65238095D01*
X57777619Y-65238095D02*
X58777619Y-65809523D01*
X58777619Y-65809523D02*
X57777619Y-65809523D01*
X58777619Y-66285714D02*
X57777619Y-66285714D01*
X57777619Y-66285714D02*
X57777619Y-66523809D01*
X57777619Y-66523809D02*
X57825238Y-66666666D01*
X57825238Y-66666666D02*
X57920476Y-66761904D01*
X57920476Y-66761904D02*
X58015714Y-66809523D01*
X58015714Y-66809523D02*
X58206190Y-66857142D01*
X58206190Y-66857142D02*
X58349047Y-66857142D01*
X58349047Y-66857142D02*
X58539523Y-66809523D01*
X58539523Y-66809523D02*
X58634761Y-66761904D01*
X58634761Y-66761904D02*
X58730000Y-66666666D01*
X58730000Y-66666666D02*
X58777619Y-66523809D01*
X58777619Y-66523809D02*
X58777619Y-66285714D01*
X50877619Y-63557142D02*
X50877619Y-62938095D01*
X50877619Y-62938095D02*
X51258571Y-63271428D01*
X51258571Y-63271428D02*
X51258571Y-63128571D01*
X51258571Y-63128571D02*
X51306190Y-63033333D01*
X51306190Y-63033333D02*
X51353809Y-62985714D01*
X51353809Y-62985714D02*
X51449047Y-62938095D01*
X51449047Y-62938095D02*
X51687142Y-62938095D01*
X51687142Y-62938095D02*
X51782380Y-62985714D01*
X51782380Y-62985714D02*
X51830000Y-63033333D01*
X51830000Y-63033333D02*
X51877619Y-63128571D01*
X51877619Y-63128571D02*
X51877619Y-63414285D01*
X51877619Y-63414285D02*
X51830000Y-63509523D01*
X51830000Y-63509523D02*
X51782380Y-63557142D01*
X50877619Y-62652380D02*
X51877619Y-62319047D01*
X51877619Y-62319047D02*
X50877619Y-61985714D01*
X50877619Y-61747618D02*
X50877619Y-61128571D01*
X50877619Y-61128571D02*
X51258571Y-61461904D01*
X51258571Y-61461904D02*
X51258571Y-61319047D01*
X51258571Y-61319047D02*
X51306190Y-61223809D01*
X51306190Y-61223809D02*
X51353809Y-61176190D01*
X51353809Y-61176190D02*
X51449047Y-61128571D01*
X51449047Y-61128571D02*
X51687142Y-61128571D01*
X51687142Y-61128571D02*
X51782380Y-61176190D01*
X51782380Y-61176190D02*
X51830000Y-61223809D01*
X51830000Y-61223809D02*
X51877619Y-61319047D01*
X51877619Y-61319047D02*
X51877619Y-61604761D01*
X51877619Y-61604761D02*
X51830000Y-61699999D01*
X51830000Y-61699999D02*
X51782380Y-61747618D01*
X64377619Y-64909523D02*
X63901428Y-64576190D01*
X64377619Y-64338095D02*
X63377619Y-64338095D01*
X63377619Y-64338095D02*
X63377619Y-64719047D01*
X63377619Y-64719047D02*
X63425238Y-64814285D01*
X63425238Y-64814285D02*
X63472857Y-64861904D01*
X63472857Y-64861904D02*
X63568095Y-64909523D01*
X63568095Y-64909523D02*
X63710952Y-64909523D01*
X63710952Y-64909523D02*
X63806190Y-64861904D01*
X63806190Y-64861904D02*
X63853809Y-64814285D01*
X63853809Y-64814285D02*
X63901428Y-64719047D01*
X63901428Y-64719047D02*
X63901428Y-64338095D01*
X63377619Y-65242857D02*
X64377619Y-65909523D01*
X63377619Y-65909523D02*
X64377619Y-65242857D01*
X63377619Y-66480952D02*
X63377619Y-66576190D01*
X63377619Y-66576190D02*
X63425238Y-66671428D01*
X63425238Y-66671428D02*
X63472857Y-66719047D01*
X63472857Y-66719047D02*
X63568095Y-66766666D01*
X63568095Y-66766666D02*
X63758571Y-66814285D01*
X63758571Y-66814285D02*
X63996666Y-66814285D01*
X63996666Y-66814285D02*
X64187142Y-66766666D01*
X64187142Y-66766666D02*
X64282380Y-66719047D01*
X64282380Y-66719047D02*
X64330000Y-66671428D01*
X64330000Y-66671428D02*
X64377619Y-66576190D01*
X64377619Y-66576190D02*
X64377619Y-66480952D01*
X64377619Y-66480952D02*
X64330000Y-66385714D01*
X64330000Y-66385714D02*
X64282380Y-66338095D01*
X64282380Y-66338095D02*
X64187142Y-66290476D01*
X64187142Y-66290476D02*
X63996666Y-66242857D01*
X63996666Y-66242857D02*
X63758571Y-66242857D01*
X63758571Y-66242857D02*
X63568095Y-66290476D01*
X63568095Y-66290476D02*
X63472857Y-66338095D01*
X63472857Y-66338095D02*
X63425238Y-66385714D01*
X63425238Y-66385714D02*
X63377619Y-66480952D01*
X72238095Y-52622380D02*
X72238095Y-53622380D01*
X72238095Y-53622380D02*
X72476190Y-53622380D01*
X72476190Y-53622380D02*
X72619047Y-53574761D01*
X72619047Y-53574761D02*
X72714285Y-53479523D01*
X72714285Y-53479523D02*
X72761904Y-53384285D01*
X72761904Y-53384285D02*
X72809523Y-53193809D01*
X72809523Y-53193809D02*
X72809523Y-53050952D01*
X72809523Y-53050952D02*
X72761904Y-52860476D01*
X72761904Y-52860476D02*
X72714285Y-52765238D01*
X72714285Y-52765238D02*
X72619047Y-52670000D01*
X72619047Y-52670000D02*
X72476190Y-52622380D01*
X72476190Y-52622380D02*
X72238095Y-52622380D01*
X73666666Y-52622380D02*
X73666666Y-53146190D01*
X73666666Y-53146190D02*
X73619047Y-53241428D01*
X73619047Y-53241428D02*
X73523809Y-53289047D01*
X73523809Y-53289047D02*
X73333333Y-53289047D01*
X73333333Y-53289047D02*
X73238095Y-53241428D01*
X73666666Y-52670000D02*
X73571428Y-52622380D01*
X73571428Y-52622380D02*
X73333333Y-52622380D01*
X73333333Y-52622380D02*
X73238095Y-52670000D01*
X73238095Y-52670000D02*
X73190476Y-52765238D01*
X73190476Y-52765238D02*
X73190476Y-52860476D01*
X73190476Y-52860476D02*
X73238095Y-52955714D01*
X73238095Y-52955714D02*
X73333333Y-53003333D01*
X73333333Y-53003333D02*
X73571428Y-53003333D01*
X73571428Y-53003333D02*
X73666666Y-53050952D01*
X74571428Y-52622380D02*
X74571428Y-53622380D01*
X74571428Y-52670000D02*
X74476190Y-52622380D01*
X74476190Y-52622380D02*
X74285714Y-52622380D01*
X74285714Y-52622380D02*
X74190476Y-52670000D01*
X74190476Y-52670000D02*
X74142857Y-52717619D01*
X74142857Y-52717619D02*
X74095238Y-52812857D01*
X74095238Y-52812857D02*
X74095238Y-53098571D01*
X74095238Y-53098571D02*
X74142857Y-53193809D01*
X74142857Y-53193809D02*
X74190476Y-53241428D01*
X74190476Y-53241428D02*
X74285714Y-53289047D01*
X74285714Y-53289047D02*
X74476190Y-53289047D01*
X74476190Y-53289047D02*
X74571428Y-53241428D01*
X75428571Y-52670000D02*
X75333333Y-52622380D01*
X75333333Y-52622380D02*
X75142857Y-52622380D01*
X75142857Y-52622380D02*
X75047619Y-52670000D01*
X75047619Y-52670000D02*
X75000000Y-52765238D01*
X75000000Y-52765238D02*
X75000000Y-53146190D01*
X75000000Y-53146190D02*
X75047619Y-53241428D01*
X75047619Y-53241428D02*
X75142857Y-53289047D01*
X75142857Y-53289047D02*
X75333333Y-53289047D01*
X75333333Y-53289047D02*
X75428571Y-53241428D01*
X75428571Y-53241428D02*
X75476190Y-53146190D01*
X75476190Y-53146190D02*
X75476190Y-53050952D01*
X75476190Y-53050952D02*
X75000000Y-52955714D01*
X75809524Y-53622380D02*
X76428571Y-53622380D01*
X76428571Y-53622380D02*
X76095238Y-53241428D01*
X76095238Y-53241428D02*
X76238095Y-53241428D01*
X76238095Y-53241428D02*
X76333333Y-53193809D01*
X76333333Y-53193809D02*
X76380952Y-53146190D01*
X76380952Y-53146190D02*
X76428571Y-53050952D01*
X76428571Y-53050952D02*
X76428571Y-52812857D01*
X76428571Y-52812857D02*
X76380952Y-52717619D01*
X76380952Y-52717619D02*
X76333333Y-52670000D01*
X76333333Y-52670000D02*
X76238095Y-52622380D01*
X76238095Y-52622380D02*
X75952381Y-52622380D01*
X75952381Y-52622380D02*
X75857143Y-52670000D01*
X75857143Y-52670000D02*
X75809524Y-52717619D01*
X77238095Y-52670000D02*
X77142857Y-52622380D01*
X77142857Y-52622380D02*
X76952381Y-52622380D01*
X76952381Y-52622380D02*
X76857143Y-52670000D01*
X76857143Y-52670000D02*
X76809524Y-52765238D01*
X76809524Y-52765238D02*
X76809524Y-53146190D01*
X76809524Y-53146190D02*
X76857143Y-53241428D01*
X76857143Y-53241428D02*
X76952381Y-53289047D01*
X76952381Y-53289047D02*
X77142857Y-53289047D01*
X77142857Y-53289047D02*
X77238095Y-53241428D01*
X77238095Y-53241428D02*
X77285714Y-53146190D01*
X77285714Y-53146190D02*
X77285714Y-53050952D01*
X77285714Y-53050952D02*
X76809524Y-52955714D01*
X62671428Y-51446190D02*
X62338095Y-51446190D01*
X62338095Y-50922380D02*
X62338095Y-51922380D01*
X62338095Y-51922380D02*
X62814285Y-51922380D01*
X63671428Y-50922380D02*
X63195238Y-50922380D01*
X63195238Y-50922380D02*
X63195238Y-51922380D01*
X64004762Y-50922380D02*
X64004762Y-51922380D01*
X64480952Y-50922380D02*
X64480952Y-51922380D01*
X64480952Y-51922380D02*
X64861904Y-51922380D01*
X64861904Y-51922380D02*
X64957142Y-51874761D01*
X64957142Y-51874761D02*
X65004761Y-51827142D01*
X65004761Y-51827142D02*
X65052380Y-51731904D01*
X65052380Y-51731904D02*
X65052380Y-51589047D01*
X65052380Y-51589047D02*
X65004761Y-51493809D01*
X65004761Y-51493809D02*
X64957142Y-51446190D01*
X64957142Y-51446190D02*
X64861904Y-51398571D01*
X64861904Y-51398571D02*
X64480952Y-51398571D01*
X65480952Y-50922380D02*
X65480952Y-51922380D01*
X65480952Y-51922380D02*
X65861904Y-51922380D01*
X65861904Y-51922380D02*
X65957142Y-51874761D01*
X65957142Y-51874761D02*
X66004761Y-51827142D01*
X66004761Y-51827142D02*
X66052380Y-51731904D01*
X66052380Y-51731904D02*
X66052380Y-51589047D01*
X66052380Y-51589047D02*
X66004761Y-51493809D01*
X66004761Y-51493809D02*
X65957142Y-51446190D01*
X65957142Y-51446190D02*
X65861904Y-51398571D01*
X65861904Y-51398571D02*
X65480952Y-51398571D01*
X66480952Y-51446190D02*
X66814285Y-51446190D01*
X66957142Y-50922380D02*
X66480952Y-50922380D01*
X66480952Y-50922380D02*
X66480952Y-51922380D01*
X66480952Y-51922380D02*
X66957142Y-51922380D01*
X67957142Y-50922380D02*
X67623809Y-51398571D01*
X67385714Y-50922380D02*
X67385714Y-51922380D01*
X67385714Y-51922380D02*
X67766666Y-51922380D01*
X67766666Y-51922380D02*
X67861904Y-51874761D01*
X67861904Y-51874761D02*
X67909523Y-51827142D01*
X67909523Y-51827142D02*
X67957142Y-51731904D01*
X67957142Y-51731904D02*
X67957142Y-51589047D01*
X67957142Y-51589047D02*
X67909523Y-51493809D01*
X67909523Y-51493809D02*
X67861904Y-51446190D01*
X67861904Y-51446190D02*
X67766666Y-51398571D01*
X67766666Y-51398571D02*
X67385714Y-51398571D01*
X69147619Y-51446190D02*
X69480952Y-51446190D01*
X69623809Y-50922380D02*
X69147619Y-50922380D01*
X69147619Y-50922380D02*
X69147619Y-51922380D01*
X69147619Y-51922380D02*
X69623809Y-51922380D01*
X70004762Y-50970000D02*
X70147619Y-50922380D01*
X70147619Y-50922380D02*
X70385714Y-50922380D01*
X70385714Y-50922380D02*
X70480952Y-50970000D01*
X70480952Y-50970000D02*
X70528571Y-51017619D01*
X70528571Y-51017619D02*
X70576190Y-51112857D01*
X70576190Y-51112857D02*
X70576190Y-51208095D01*
X70576190Y-51208095D02*
X70528571Y-51303333D01*
X70528571Y-51303333D02*
X70480952Y-51350952D01*
X70480952Y-51350952D02*
X70385714Y-51398571D01*
X70385714Y-51398571D02*
X70195238Y-51446190D01*
X70195238Y-51446190D02*
X70100000Y-51493809D01*
X70100000Y-51493809D02*
X70052381Y-51541428D01*
X70052381Y-51541428D02*
X70004762Y-51636666D01*
X70004762Y-51636666D02*
X70004762Y-51731904D01*
X70004762Y-51731904D02*
X70052381Y-51827142D01*
X70052381Y-51827142D02*
X70100000Y-51874761D01*
X70100000Y-51874761D02*
X70195238Y-51922380D01*
X70195238Y-51922380D02*
X70433333Y-51922380D01*
X70433333Y-51922380D02*
X70576190Y-51874761D01*
X71004762Y-50922380D02*
X71004762Y-51922380D01*
X71004762Y-51922380D02*
X71385714Y-51922380D01*
X71385714Y-51922380D02*
X71480952Y-51874761D01*
X71480952Y-51874761D02*
X71528571Y-51827142D01*
X71528571Y-51827142D02*
X71576190Y-51731904D01*
X71576190Y-51731904D02*
X71576190Y-51589047D01*
X71576190Y-51589047D02*
X71528571Y-51493809D01*
X71528571Y-51493809D02*
X71480952Y-51446190D01*
X71480952Y-51446190D02*
X71385714Y-51398571D01*
X71385714Y-51398571D02*
X71004762Y-51398571D01*
X71909524Y-51922380D02*
X72528571Y-51922380D01*
X72528571Y-51922380D02*
X72195238Y-51541428D01*
X72195238Y-51541428D02*
X72338095Y-51541428D01*
X72338095Y-51541428D02*
X72433333Y-51493809D01*
X72433333Y-51493809D02*
X72480952Y-51446190D01*
X72480952Y-51446190D02*
X72528571Y-51350952D01*
X72528571Y-51350952D02*
X72528571Y-51112857D01*
X72528571Y-51112857D02*
X72480952Y-51017619D01*
X72480952Y-51017619D02*
X72433333Y-50970000D01*
X72433333Y-50970000D02*
X72338095Y-50922380D01*
X72338095Y-50922380D02*
X72052381Y-50922380D01*
X72052381Y-50922380D02*
X71957143Y-50970000D01*
X71957143Y-50970000D02*
X71909524Y-51017619D01*
X72909524Y-51827142D02*
X72957143Y-51874761D01*
X72957143Y-51874761D02*
X73052381Y-51922380D01*
X73052381Y-51922380D02*
X73290476Y-51922380D01*
X73290476Y-51922380D02*
X73385714Y-51874761D01*
X73385714Y-51874761D02*
X73433333Y-51827142D01*
X73433333Y-51827142D02*
X73480952Y-51731904D01*
X73480952Y-51731904D02*
X73480952Y-51636666D01*
X73480952Y-51636666D02*
X73433333Y-51493809D01*
X73433333Y-51493809D02*
X72861905Y-50922380D01*
X72861905Y-50922380D02*
X73480952Y-50922380D01*
X74576191Y-51589047D02*
X74814286Y-50922380D01*
X74814286Y-50922380D02*
X75052381Y-51589047D01*
X75957143Y-50922380D02*
X75385715Y-50922380D01*
X75671429Y-50922380D02*
X75671429Y-51922380D01*
X75671429Y-51922380D02*
X75576191Y-51779523D01*
X75576191Y-51779523D02*
X75480953Y-51684285D01*
X75480953Y-51684285D02*
X75385715Y-51636666D01*
X76385715Y-51017619D02*
X76433334Y-50970000D01*
X76433334Y-50970000D02*
X76385715Y-50922380D01*
X76385715Y-50922380D02*
X76338096Y-50970000D01*
X76338096Y-50970000D02*
X76385715Y-51017619D01*
X76385715Y-51017619D02*
X76385715Y-50922380D01*
X77385714Y-50922380D02*
X76814286Y-50922380D01*
X77100000Y-50922380D02*
X77100000Y-51922380D01*
X77100000Y-51922380D02*
X77004762Y-51779523D01*
X77004762Y-51779523D02*
X76909524Y-51684285D01*
X76909524Y-51684285D02*
X76814286Y-51636666D01*
X65977619Y-64195238D02*
X65977619Y-64766666D01*
X66977619Y-64480952D02*
X65977619Y-64480952D01*
X65977619Y-65004762D02*
X66977619Y-65671428D01*
X65977619Y-65671428D02*
X66977619Y-65004762D01*
X65977619Y-66242857D02*
X65977619Y-66338095D01*
X65977619Y-66338095D02*
X66025238Y-66433333D01*
X66025238Y-66433333D02*
X66072857Y-66480952D01*
X66072857Y-66480952D02*
X66168095Y-66528571D01*
X66168095Y-66528571D02*
X66358571Y-66576190D01*
X66358571Y-66576190D02*
X66596666Y-66576190D01*
X66596666Y-66576190D02*
X66787142Y-66528571D01*
X66787142Y-66528571D02*
X66882380Y-66480952D01*
X66882380Y-66480952D02*
X66930000Y-66433333D01*
X66930000Y-66433333D02*
X66977619Y-66338095D01*
X66977619Y-66338095D02*
X66977619Y-66242857D01*
X66977619Y-66242857D02*
X66930000Y-66147619D01*
X66930000Y-66147619D02*
X66882380Y-66100000D01*
X66882380Y-66100000D02*
X66787142Y-66052381D01*
X66787142Y-66052381D02*
X66596666Y-66004762D01*
X66596666Y-66004762D02*
X66358571Y-66004762D01*
X66358571Y-66004762D02*
X66168095Y-66052381D01*
X66168095Y-66052381D02*
X66072857Y-66100000D01*
X66072857Y-66100000D02*
X66025238Y-66147619D01*
X66025238Y-66147619D02*
X65977619Y-66242857D01*
%TO.C,LED*%
X67142857Y-69762619D02*
X67619047Y-69762619D01*
X67619047Y-69762619D02*
X67619047Y-68762619D01*
X66809523Y-69238809D02*
X66476190Y-69238809D01*
X66333333Y-69762619D02*
X66809523Y-69762619D01*
X66809523Y-69762619D02*
X66809523Y-68762619D01*
X66809523Y-68762619D02*
X66333333Y-68762619D01*
X65904761Y-69762619D02*
X65904761Y-68762619D01*
X65904761Y-68762619D02*
X65666666Y-68762619D01*
X65666666Y-68762619D02*
X65523809Y-68810238D01*
X65523809Y-68810238D02*
X65428571Y-68905476D01*
X65428571Y-68905476D02*
X65380952Y-69000714D01*
X65380952Y-69000714D02*
X65333333Y-69191190D01*
X65333333Y-69191190D02*
X65333333Y-69334047D01*
X65333333Y-69334047D02*
X65380952Y-69524523D01*
X65380952Y-69524523D02*
X65428571Y-69619761D01*
X65428571Y-69619761D02*
X65523809Y-69715000D01*
X65523809Y-69715000D02*
X65666666Y-69762619D01*
X65666666Y-69762619D02*
X65904761Y-69762619D01*
%TO.C,C1*%
X54329166Y-53867380D02*
X54376785Y-53915000D01*
X54376785Y-53915000D02*
X54519642Y-53962619D01*
X54519642Y-53962619D02*
X54614880Y-53962619D01*
X54614880Y-53962619D02*
X54757737Y-53915000D01*
X54757737Y-53915000D02*
X54852975Y-53819761D01*
X54852975Y-53819761D02*
X54900594Y-53724523D01*
X54900594Y-53724523D02*
X54948213Y-53534047D01*
X54948213Y-53534047D02*
X54948213Y-53391190D01*
X54948213Y-53391190D02*
X54900594Y-53200714D01*
X54900594Y-53200714D02*
X54852975Y-53105476D01*
X54852975Y-53105476D02*
X54757737Y-53010238D01*
X54757737Y-53010238D02*
X54614880Y-52962619D01*
X54614880Y-52962619D02*
X54519642Y-52962619D01*
X54519642Y-52962619D02*
X54376785Y-53010238D01*
X54376785Y-53010238D02*
X54329166Y-53057857D01*
X53376785Y-53962619D02*
X53948213Y-53962619D01*
X53662499Y-53962619D02*
X53662499Y-52962619D01*
X53662499Y-52962619D02*
X53757737Y-53105476D01*
X53757737Y-53105476D02*
X53852975Y-53200714D01*
X53852975Y-53200714D02*
X53948213Y-53248333D01*
%TO.C,C2*%
X58529166Y-53767380D02*
X58576785Y-53815000D01*
X58576785Y-53815000D02*
X58719642Y-53862619D01*
X58719642Y-53862619D02*
X58814880Y-53862619D01*
X58814880Y-53862619D02*
X58957737Y-53815000D01*
X58957737Y-53815000D02*
X59052975Y-53719761D01*
X59052975Y-53719761D02*
X59100594Y-53624523D01*
X59100594Y-53624523D02*
X59148213Y-53434047D01*
X59148213Y-53434047D02*
X59148213Y-53291190D01*
X59148213Y-53291190D02*
X59100594Y-53100714D01*
X59100594Y-53100714D02*
X59052975Y-53005476D01*
X59052975Y-53005476D02*
X58957737Y-52910238D01*
X58957737Y-52910238D02*
X58814880Y-52862619D01*
X58814880Y-52862619D02*
X58719642Y-52862619D01*
X58719642Y-52862619D02*
X58576785Y-52910238D01*
X58576785Y-52910238D02*
X58529166Y-52957857D01*
X58148213Y-52957857D02*
X58100594Y-52910238D01*
X58100594Y-52910238D02*
X58005356Y-52862619D01*
X58005356Y-52862619D02*
X57767261Y-52862619D01*
X57767261Y-52862619D02*
X57672023Y-52910238D01*
X57672023Y-52910238D02*
X57624404Y-52957857D01*
X57624404Y-52957857D02*
X57576785Y-53053095D01*
X57576785Y-53053095D02*
X57576785Y-53148333D01*
X57576785Y-53148333D02*
X57624404Y-53291190D01*
X57624404Y-53291190D02*
X58195832Y-53862619D01*
X58195832Y-53862619D02*
X57576785Y-53862619D01*
%TO.C,R1*%
X62666666Y-69662619D02*
X62999999Y-69186428D01*
X63238094Y-69662619D02*
X63238094Y-68662619D01*
X63238094Y-68662619D02*
X62857142Y-68662619D01*
X62857142Y-68662619D02*
X62761904Y-68710238D01*
X62761904Y-68710238D02*
X62714285Y-68757857D01*
X62714285Y-68757857D02*
X62666666Y-68853095D01*
X62666666Y-68853095D02*
X62666666Y-68995952D01*
X62666666Y-68995952D02*
X62714285Y-69091190D01*
X62714285Y-69091190D02*
X62761904Y-69138809D01*
X62761904Y-69138809D02*
X62857142Y-69186428D01*
X62857142Y-69186428D02*
X63238094Y-69186428D01*
X61714285Y-69662619D02*
X62285713Y-69662619D01*
X61999999Y-69662619D02*
X61999999Y-68662619D01*
X61999999Y-68662619D02*
X62095237Y-68805476D01*
X62095237Y-68805476D02*
X62190475Y-68900714D01*
X62190475Y-68900714D02*
X62285713Y-68948333D01*
D11*
%TO.C,J1*%
X52370000Y-64051000D02*
X52370000Y-60749000D01*
X75290000Y-64051000D02*
X52370000Y-64051000D01*
X75290000Y-64051000D02*
X75290000Y-60749000D01*
X76560000Y-64051000D02*
X77890000Y-64051000D01*
X77890000Y-64051000D02*
X77890000Y-62400000D01*
X75290000Y-60749000D02*
X52370000Y-60749000D01*
%TO.C,SW3*%
X60400000Y-56550000D02*
X66600000Y-56550000D01*
X60400000Y-57200000D02*
X60400000Y-56550000D01*
X60400000Y-60250000D02*
X60400000Y-59600000D01*
X66600000Y-56550000D02*
X66600000Y-57200000D01*
X66600000Y-60250000D02*
X60400000Y-60250000D01*
X66600000Y-60250000D02*
X66600000Y-59600000D01*
%TO.C,LED*%
X66798752Y-68435000D02*
X66276248Y-68435000D01*
X66798752Y-66965000D02*
X66276248Y-66965000D01*
%TO.C,SW2*%
X52300000Y-56550000D02*
X58500000Y-56550000D01*
X52300000Y-57200000D02*
X52300000Y-56550000D01*
X52300000Y-60250000D02*
X52300000Y-59600000D01*
X58500000Y-56550000D02*
X58500000Y-57200000D01*
X58500000Y-60250000D02*
X52300000Y-60250000D01*
X58500000Y-60250000D02*
X58500000Y-59600000D01*
%TO.C,C1*%
X54423752Y-55835000D02*
X53901248Y-55835000D01*
X54423752Y-54365000D02*
X53901248Y-54365000D01*
%TO.C,SW1*%
X58650000Y-67260000D02*
X58650000Y-68050000D01*
X58050000Y-69060000D02*
X52350000Y-69060000D01*
X56800000Y-66210000D02*
X55100000Y-66210000D01*
X56600000Y-70350000D02*
X56400000Y-70560000D01*
X56600000Y-69060000D02*
X56600000Y-70350000D01*
X56400000Y-70560000D02*
X55500000Y-70560000D01*
X55300000Y-70350000D02*
X55500000Y-70560000D01*
X55300000Y-70350000D02*
X55300000Y-69060000D01*
X53800000Y-66210000D02*
X53600000Y-66210000D01*
X51750000Y-68050000D02*
X51750000Y-67260000D01*
%TO.C,C2*%
X58101248Y-54365000D02*
X58623752Y-54365000D01*
X58101248Y-55835000D02*
X58623752Y-55835000D01*
%TO.C,R1*%
X62723752Y-68435000D02*
X62201248Y-68435000D01*
X62723752Y-66965000D02*
X62201248Y-66965000D01*
%TD*%
M02*
