%TF.GenerationSoftware,KiCad,Pcbnew,7.0.2-1.fc38*%
%TF.CreationDate,2023-05-15T15:28:07+02:00*%
%TF.ProjectId,marauder_mini_pcb,6d617261-7564-4657-925f-6d696e695f70,rev?*%
%TF.SameCoordinates,Original*%
%TF.FileFunction,Legend,Top*%
%TF.FilePolarity,Positive*%
%FSLAX46Y46*%
G04 Gerber Fmt 4.6, Leading zero omitted, Abs format (unit mm)*
G04 Created by KiCad (PCBNEW 7.0.2-1.fc38) date 2023-05-15 15:28:07*
%MOMM*%
%LPD*%
G01*
G04 APERTURE LIST*
%ADD10C,0.150000*%
%ADD11C,0.120000*%
G04 APERTURE END LIST*
D10*
X46785714Y-46824571D02*
X47185714Y-46824571D01*
X47357142Y-47453142D02*
X46785714Y-47453142D01*
X46785714Y-47453142D02*
X46785714Y-46253142D01*
X46785714Y-46253142D02*
X47357142Y-46253142D01*
X47814285Y-47396000D02*
X47985714Y-47453142D01*
X47985714Y-47453142D02*
X48271428Y-47453142D01*
X48271428Y-47453142D02*
X48385714Y-47396000D01*
X48385714Y-47396000D02*
X48442856Y-47338857D01*
X48442856Y-47338857D02*
X48499999Y-47224571D01*
X48499999Y-47224571D02*
X48499999Y-47110285D01*
X48499999Y-47110285D02*
X48442856Y-46996000D01*
X48442856Y-46996000D02*
X48385714Y-46938857D01*
X48385714Y-46938857D02*
X48271428Y-46881714D01*
X48271428Y-46881714D02*
X48042856Y-46824571D01*
X48042856Y-46824571D02*
X47928571Y-46767428D01*
X47928571Y-46767428D02*
X47871428Y-46710285D01*
X47871428Y-46710285D02*
X47814285Y-46596000D01*
X47814285Y-46596000D02*
X47814285Y-46481714D01*
X47814285Y-46481714D02*
X47871428Y-46367428D01*
X47871428Y-46367428D02*
X47928571Y-46310285D01*
X47928571Y-46310285D02*
X48042856Y-46253142D01*
X48042856Y-46253142D02*
X48328571Y-46253142D01*
X48328571Y-46253142D02*
X48499999Y-46310285D01*
X49014285Y-47453142D02*
X49014285Y-46253142D01*
X49014285Y-46253142D02*
X49471428Y-46253142D01*
X49471428Y-46253142D02*
X49585713Y-46310285D01*
X49585713Y-46310285D02*
X49642856Y-46367428D01*
X49642856Y-46367428D02*
X49699999Y-46481714D01*
X49699999Y-46481714D02*
X49699999Y-46653142D01*
X49699999Y-46653142D02*
X49642856Y-46767428D01*
X49642856Y-46767428D02*
X49585713Y-46824571D01*
X49585713Y-46824571D02*
X49471428Y-46881714D01*
X49471428Y-46881714D02*
X49014285Y-46881714D01*
X50099999Y-46253142D02*
X50842856Y-46253142D01*
X50842856Y-46253142D02*
X50442856Y-46710285D01*
X50442856Y-46710285D02*
X50614285Y-46710285D01*
X50614285Y-46710285D02*
X50728571Y-46767428D01*
X50728571Y-46767428D02*
X50785713Y-46824571D01*
X50785713Y-46824571D02*
X50842856Y-46938857D01*
X50842856Y-46938857D02*
X50842856Y-47224571D01*
X50842856Y-47224571D02*
X50785713Y-47338857D01*
X50785713Y-47338857D02*
X50728571Y-47396000D01*
X50728571Y-47396000D02*
X50614285Y-47453142D01*
X50614285Y-47453142D02*
X50271428Y-47453142D01*
X50271428Y-47453142D02*
X50157142Y-47396000D01*
X50157142Y-47396000D02*
X50099999Y-47338857D01*
X51299999Y-46367428D02*
X51357142Y-46310285D01*
X51357142Y-46310285D02*
X51471428Y-46253142D01*
X51471428Y-46253142D02*
X51757142Y-46253142D01*
X51757142Y-46253142D02*
X51871428Y-46310285D01*
X51871428Y-46310285D02*
X51928570Y-46367428D01*
X51928570Y-46367428D02*
X51985713Y-46481714D01*
X51985713Y-46481714D02*
X51985713Y-46596000D01*
X51985713Y-46596000D02*
X51928570Y-46767428D01*
X51928570Y-46767428D02*
X51242856Y-47453142D01*
X51242856Y-47453142D02*
X51985713Y-47453142D01*
X52499999Y-46996000D02*
X53414285Y-46996000D01*
X53928570Y-47396000D02*
X54099999Y-47453142D01*
X54099999Y-47453142D02*
X54385713Y-47453142D01*
X54385713Y-47453142D02*
X54499999Y-47396000D01*
X54499999Y-47396000D02*
X54557141Y-47338857D01*
X54557141Y-47338857D02*
X54614284Y-47224571D01*
X54614284Y-47224571D02*
X54614284Y-47110285D01*
X54614284Y-47110285D02*
X54557141Y-46996000D01*
X54557141Y-46996000D02*
X54499999Y-46938857D01*
X54499999Y-46938857D02*
X54385713Y-46881714D01*
X54385713Y-46881714D02*
X54157141Y-46824571D01*
X54157141Y-46824571D02*
X54042856Y-46767428D01*
X54042856Y-46767428D02*
X53985713Y-46710285D01*
X53985713Y-46710285D02*
X53928570Y-46596000D01*
X53928570Y-46596000D02*
X53928570Y-46481714D01*
X53928570Y-46481714D02*
X53985713Y-46367428D01*
X53985713Y-46367428D02*
X54042856Y-46310285D01*
X54042856Y-46310285D02*
X54157141Y-46253142D01*
X54157141Y-46253142D02*
X54442856Y-46253142D01*
X54442856Y-46253142D02*
X54614284Y-46310285D01*
D11*
%TO.C,U1*%
X41375000Y-40840000D02*
X40755000Y-40840000D01*
X40755000Y-40840000D02*
X40755000Y-41840000D01*
X41375000Y-59080000D02*
X40755000Y-59080000D01*
X40755000Y-59080000D02*
X40755000Y-58080000D01*
%TD*%
M02*
