%TF.GenerationSoftware,KiCad,Pcbnew,7.0.2-1.fc38*%
%TF.CreationDate,2023-05-30T15:06:56+02:00*%
%TF.ProjectId,marauder_mini_pcb,6d617261-7564-4657-925f-6d696e695f70,rev?*%
%TF.SameCoordinates,Original*%
%TF.FileFunction,Soldermask,Top*%
%TF.FilePolarity,Negative*%
%FSLAX46Y46*%
G04 Gerber Fmt 4.6, Leading zero omitted, Abs format (unit mm)*
G04 Created by KiCad (PCBNEW 7.0.2-1.fc38) date 2023-05-30 15:06:56*
%MOMM*%
%LPD*%
G01*
G04 APERTURE LIST*
%ADD10R,0.900000X1.500000*%
%ADD11R,1.500000X0.900000*%
%ADD12O,1.500000X3.000000*%
%ADD13C,0.900000*%
G04 APERTURE END LIST*
D10*
%TO.C,U1*%
X68845000Y-51250000D03*
X67575000Y-51250000D03*
X66305000Y-51250000D03*
X65035000Y-51250000D03*
X63765000Y-51250000D03*
X62495000Y-51250000D03*
X61225000Y-51250000D03*
X59955000Y-51250000D03*
X58685000Y-51250000D03*
X57415000Y-51250000D03*
X56145000Y-51250000D03*
X54875000Y-51250000D03*
X53605000Y-51250000D03*
X52335000Y-51250000D03*
D11*
X51240000Y-54285000D03*
X51240000Y-55555000D03*
X51240000Y-56825000D03*
X51240000Y-58095000D03*
X51240000Y-59365000D03*
X51240000Y-60635000D03*
X51240000Y-61905000D03*
X51240000Y-63175000D03*
X51240000Y-64445000D03*
X51240000Y-65715000D03*
D10*
X52335000Y-68750000D03*
X53605000Y-68750000D03*
X54875000Y-68750000D03*
X56145000Y-68750000D03*
X57415000Y-68750000D03*
X58685000Y-68750000D03*
X59955000Y-68750000D03*
X61225000Y-68750000D03*
X62495000Y-68750000D03*
X63765000Y-68750000D03*
X65035000Y-68750000D03*
X66305000Y-68750000D03*
X67575000Y-68750000D03*
X68845000Y-68750000D03*
%TD*%
D12*
%TO.C,J1*%
X76560000Y-62400000D03*
X74020000Y-62400000D03*
X71480000Y-62400000D03*
X68940000Y-62400000D03*
X66400000Y-62400000D03*
X63860000Y-62400000D03*
X61320000Y-62400000D03*
X58780000Y-62400000D03*
X56240000Y-62400000D03*
X53700000Y-62400000D03*
%TD*%
D13*
%TO.C,SW1*%
X56700000Y-67660000D03*
X53700000Y-67660000D03*
%TD*%
M02*
