%TF.GenerationSoftware,KiCad,Pcbnew,7.0.2-1.fc38*%
%TF.CreationDate,2023-05-15T15:28:07+02:00*%
%TF.ProjectId,marauder_mini_pcb,6d617261-7564-4657-925f-6d696e695f70,rev?*%
%TF.SameCoordinates,Original*%
%TF.FileFunction,Legend,Bot*%
%TF.FilePolarity,Positive*%
%FSLAX46Y46*%
G04 Gerber Fmt 4.6, Leading zero omitted, Abs format (unit mm)*
G04 Created by KiCad (PCBNEW 7.0.2-1.fc38) date 2023-05-15 15:28:07*
%MOMM*%
%LPD*%
G01*
G04 APERTURE LIST*
%ADD10C,0.100000*%
%ADD11C,0.150000*%
%ADD12C,0.170000*%
%ADD13C,0.120000*%
G04 APERTURE END LIST*
D10*
X41597904Y-46709523D02*
X42397904Y-46709523D01*
X42397904Y-46709523D02*
X42397904Y-46404761D01*
X42397904Y-46404761D02*
X42359809Y-46328571D01*
X42359809Y-46328571D02*
X42321714Y-46290476D01*
X42321714Y-46290476D02*
X42245523Y-46252380D01*
X42245523Y-46252380D02*
X42131238Y-46252380D01*
X42131238Y-46252380D02*
X42055047Y-46290476D01*
X42055047Y-46290476D02*
X42016952Y-46328571D01*
X42016952Y-46328571D02*
X41978857Y-46404761D01*
X41978857Y-46404761D02*
X41978857Y-46709523D01*
X41597904Y-45909523D02*
X42131238Y-45909523D01*
X41978857Y-45909523D02*
X42055047Y-45871428D01*
X42055047Y-45871428D02*
X42093142Y-45833333D01*
X42093142Y-45833333D02*
X42131238Y-45757142D01*
X42131238Y-45757142D02*
X42131238Y-45680952D01*
X41597904Y-45300000D02*
X41636000Y-45376190D01*
X41636000Y-45376190D02*
X41674095Y-45414285D01*
X41674095Y-45414285D02*
X41750285Y-45452381D01*
X41750285Y-45452381D02*
X41978857Y-45452381D01*
X41978857Y-45452381D02*
X42055047Y-45414285D01*
X42055047Y-45414285D02*
X42093142Y-45376190D01*
X42093142Y-45376190D02*
X42131238Y-45300000D01*
X42131238Y-45300000D02*
X42131238Y-45185714D01*
X42131238Y-45185714D02*
X42093142Y-45109523D01*
X42093142Y-45109523D02*
X42055047Y-45071428D01*
X42055047Y-45071428D02*
X41978857Y-45033333D01*
X41978857Y-45033333D02*
X41750285Y-45033333D01*
X41750285Y-45033333D02*
X41674095Y-45071428D01*
X41674095Y-45071428D02*
X41636000Y-45109523D01*
X41636000Y-45109523D02*
X41597904Y-45185714D01*
X41597904Y-45185714D02*
X41597904Y-45300000D01*
X42131238Y-44347618D02*
X41483619Y-44347618D01*
X41483619Y-44347618D02*
X41407428Y-44385713D01*
X41407428Y-44385713D02*
X41369333Y-44423809D01*
X41369333Y-44423809D02*
X41331238Y-44499999D01*
X41331238Y-44499999D02*
X41331238Y-44614285D01*
X41331238Y-44614285D02*
X41369333Y-44690475D01*
X41636000Y-44347618D02*
X41597904Y-44423809D01*
X41597904Y-44423809D02*
X41597904Y-44576190D01*
X41597904Y-44576190D02*
X41636000Y-44652380D01*
X41636000Y-44652380D02*
X41674095Y-44690475D01*
X41674095Y-44690475D02*
X41750285Y-44728571D01*
X41750285Y-44728571D02*
X41978857Y-44728571D01*
X41978857Y-44728571D02*
X42055047Y-44690475D01*
X42055047Y-44690475D02*
X42093142Y-44652380D01*
X42093142Y-44652380D02*
X42131238Y-44576190D01*
X42131238Y-44576190D02*
X42131238Y-44423809D01*
X42131238Y-44423809D02*
X42093142Y-44347618D01*
D11*
X44222380Y-50257142D02*
X44222380Y-49638095D01*
X44222380Y-49638095D02*
X43841428Y-49971428D01*
X43841428Y-49971428D02*
X43841428Y-49828571D01*
X43841428Y-49828571D02*
X43793809Y-49733333D01*
X43793809Y-49733333D02*
X43746190Y-49685714D01*
X43746190Y-49685714D02*
X43650952Y-49638095D01*
X43650952Y-49638095D02*
X43412857Y-49638095D01*
X43412857Y-49638095D02*
X43317619Y-49685714D01*
X43317619Y-49685714D02*
X43270000Y-49733333D01*
X43270000Y-49733333D02*
X43222380Y-49828571D01*
X43222380Y-49828571D02*
X43222380Y-50114285D01*
X43222380Y-50114285D02*
X43270000Y-50209523D01*
X43270000Y-50209523D02*
X43317619Y-50257142D01*
X44222380Y-49352380D02*
X43222380Y-49019047D01*
X43222380Y-49019047D02*
X44222380Y-48685714D01*
X44222380Y-48447618D02*
X44222380Y-47828571D01*
X44222380Y-47828571D02*
X43841428Y-48161904D01*
X43841428Y-48161904D02*
X43841428Y-48019047D01*
X43841428Y-48019047D02*
X43793809Y-47923809D01*
X43793809Y-47923809D02*
X43746190Y-47876190D01*
X43746190Y-47876190D02*
X43650952Y-47828571D01*
X43650952Y-47828571D02*
X43412857Y-47828571D01*
X43412857Y-47828571D02*
X43317619Y-47876190D01*
X43317619Y-47876190D02*
X43270000Y-47923809D01*
X43270000Y-47923809D02*
X43222380Y-48019047D01*
X43222380Y-48019047D02*
X43222380Y-48304761D01*
X43222380Y-48304761D02*
X43270000Y-48399999D01*
X43270000Y-48399999D02*
X43317619Y-48447618D01*
X66874761Y-49638095D02*
X66922380Y-49733333D01*
X66922380Y-49733333D02*
X66922380Y-49876190D01*
X66922380Y-49876190D02*
X66874761Y-50019047D01*
X66874761Y-50019047D02*
X66779523Y-50114285D01*
X66779523Y-50114285D02*
X66684285Y-50161904D01*
X66684285Y-50161904D02*
X66493809Y-50209523D01*
X66493809Y-50209523D02*
X66350952Y-50209523D01*
X66350952Y-50209523D02*
X66160476Y-50161904D01*
X66160476Y-50161904D02*
X66065238Y-50114285D01*
X66065238Y-50114285D02*
X65970000Y-50019047D01*
X65970000Y-50019047D02*
X65922380Y-49876190D01*
X65922380Y-49876190D02*
X65922380Y-49780952D01*
X65922380Y-49780952D02*
X65970000Y-49638095D01*
X65970000Y-49638095D02*
X66017619Y-49590476D01*
X66017619Y-49590476D02*
X66350952Y-49590476D01*
X66350952Y-49590476D02*
X66350952Y-49780952D01*
X65922380Y-49161904D02*
X66922380Y-49161904D01*
X66922380Y-49161904D02*
X65922380Y-48590476D01*
X65922380Y-48590476D02*
X66922380Y-48590476D01*
X65922380Y-48114285D02*
X66922380Y-48114285D01*
X66922380Y-48114285D02*
X66922380Y-47876190D01*
X66922380Y-47876190D02*
X66874761Y-47733333D01*
X66874761Y-47733333D02*
X66779523Y-47638095D01*
X66779523Y-47638095D02*
X66684285Y-47590476D01*
X66684285Y-47590476D02*
X66493809Y-47542857D01*
X66493809Y-47542857D02*
X66350952Y-47542857D01*
X66350952Y-47542857D02*
X66160476Y-47590476D01*
X66160476Y-47590476D02*
X66065238Y-47638095D01*
X66065238Y-47638095D02*
X65970000Y-47733333D01*
X65970000Y-47733333D02*
X65922380Y-47876190D01*
X65922380Y-47876190D02*
X65922380Y-48114285D01*
X61922380Y-50304761D02*
X61922380Y-49733333D01*
X60922380Y-50019047D02*
X61922380Y-50019047D01*
X61922380Y-49495237D02*
X60922380Y-48828571D01*
X61922380Y-48828571D02*
X60922380Y-49495237D01*
X61827142Y-48495237D02*
X61874761Y-48447618D01*
X61874761Y-48447618D02*
X61922380Y-48352380D01*
X61922380Y-48352380D02*
X61922380Y-48114285D01*
X61922380Y-48114285D02*
X61874761Y-48019047D01*
X61874761Y-48019047D02*
X61827142Y-47971428D01*
X61827142Y-47971428D02*
X61731904Y-47923809D01*
X61731904Y-47923809D02*
X61636666Y-47923809D01*
X61636666Y-47923809D02*
X61493809Y-47971428D01*
X61493809Y-47971428D02*
X60922380Y-48542856D01*
X60922380Y-48542856D02*
X60922380Y-47923809D01*
X56822380Y-50304761D02*
X56822380Y-49733333D01*
X55822380Y-50019047D02*
X56822380Y-50019047D01*
X56822380Y-49495237D02*
X55822380Y-48828571D01*
X56822380Y-48828571D02*
X55822380Y-49495237D01*
X56822380Y-48257142D02*
X56822380Y-48161904D01*
X56822380Y-48161904D02*
X56774761Y-48066666D01*
X56774761Y-48066666D02*
X56727142Y-48019047D01*
X56727142Y-48019047D02*
X56631904Y-47971428D01*
X56631904Y-47971428D02*
X56441428Y-47923809D01*
X56441428Y-47923809D02*
X56203333Y-47923809D01*
X56203333Y-47923809D02*
X56012857Y-47971428D01*
X56012857Y-47971428D02*
X55917619Y-48019047D01*
X55917619Y-48019047D02*
X55870000Y-48066666D01*
X55870000Y-48066666D02*
X55822380Y-48161904D01*
X55822380Y-48161904D02*
X55822380Y-48257142D01*
X55822380Y-48257142D02*
X55870000Y-48352380D01*
X55870000Y-48352380D02*
X55917619Y-48399999D01*
X55917619Y-48399999D02*
X56012857Y-48447618D01*
X56012857Y-48447618D02*
X56203333Y-48495237D01*
X56203333Y-48495237D02*
X56441428Y-48495237D01*
X56441428Y-48495237D02*
X56631904Y-48447618D01*
X56631904Y-48447618D02*
X56727142Y-48399999D01*
X56727142Y-48399999D02*
X56774761Y-48352380D01*
X56774761Y-48352380D02*
X56822380Y-48257142D01*
X49174761Y-49738095D02*
X49222380Y-49833333D01*
X49222380Y-49833333D02*
X49222380Y-49976190D01*
X49222380Y-49976190D02*
X49174761Y-50119047D01*
X49174761Y-50119047D02*
X49079523Y-50214285D01*
X49079523Y-50214285D02*
X48984285Y-50261904D01*
X48984285Y-50261904D02*
X48793809Y-50309523D01*
X48793809Y-50309523D02*
X48650952Y-50309523D01*
X48650952Y-50309523D02*
X48460476Y-50261904D01*
X48460476Y-50261904D02*
X48365238Y-50214285D01*
X48365238Y-50214285D02*
X48270000Y-50119047D01*
X48270000Y-50119047D02*
X48222380Y-49976190D01*
X48222380Y-49976190D02*
X48222380Y-49880952D01*
X48222380Y-49880952D02*
X48270000Y-49738095D01*
X48270000Y-49738095D02*
X48317619Y-49690476D01*
X48317619Y-49690476D02*
X48650952Y-49690476D01*
X48650952Y-49690476D02*
X48650952Y-49880952D01*
X48222380Y-49261904D02*
X49222380Y-49261904D01*
X49222380Y-49261904D02*
X48222380Y-48690476D01*
X48222380Y-48690476D02*
X49222380Y-48690476D01*
X48222380Y-48214285D02*
X49222380Y-48214285D01*
X49222380Y-48214285D02*
X49222380Y-47976190D01*
X49222380Y-47976190D02*
X49174761Y-47833333D01*
X49174761Y-47833333D02*
X49079523Y-47738095D01*
X49079523Y-47738095D02*
X48984285Y-47690476D01*
X48984285Y-47690476D02*
X48793809Y-47642857D01*
X48793809Y-47642857D02*
X48650952Y-47642857D01*
X48650952Y-47642857D02*
X48460476Y-47690476D01*
X48460476Y-47690476D02*
X48365238Y-47738095D01*
X48365238Y-47738095D02*
X48270000Y-47833333D01*
X48270000Y-47833333D02*
X48222380Y-47976190D01*
X48222380Y-47976190D02*
X48222380Y-48214285D01*
D12*
X53571428Y-41746190D02*
X53238095Y-41746190D01*
X53238095Y-41222380D02*
X53238095Y-42222380D01*
X53238095Y-42222380D02*
X53714285Y-42222380D01*
X54571428Y-41222380D02*
X54095238Y-41222380D01*
X54095238Y-41222380D02*
X54095238Y-42222380D01*
X54904762Y-41222380D02*
X54904762Y-42222380D01*
X55380952Y-41222380D02*
X55380952Y-42222380D01*
X55380952Y-42222380D02*
X55761904Y-42222380D01*
X55761904Y-42222380D02*
X55857142Y-42174761D01*
X55857142Y-42174761D02*
X55904761Y-42127142D01*
X55904761Y-42127142D02*
X55952380Y-42031904D01*
X55952380Y-42031904D02*
X55952380Y-41889047D01*
X55952380Y-41889047D02*
X55904761Y-41793809D01*
X55904761Y-41793809D02*
X55857142Y-41746190D01*
X55857142Y-41746190D02*
X55761904Y-41698571D01*
X55761904Y-41698571D02*
X55380952Y-41698571D01*
X56380952Y-41222380D02*
X56380952Y-42222380D01*
X56380952Y-42222380D02*
X56761904Y-42222380D01*
X56761904Y-42222380D02*
X56857142Y-42174761D01*
X56857142Y-42174761D02*
X56904761Y-42127142D01*
X56904761Y-42127142D02*
X56952380Y-42031904D01*
X56952380Y-42031904D02*
X56952380Y-41889047D01*
X56952380Y-41889047D02*
X56904761Y-41793809D01*
X56904761Y-41793809D02*
X56857142Y-41746190D01*
X56857142Y-41746190D02*
X56761904Y-41698571D01*
X56761904Y-41698571D02*
X56380952Y-41698571D01*
X57380952Y-41746190D02*
X57714285Y-41746190D01*
X57857142Y-41222380D02*
X57380952Y-41222380D01*
X57380952Y-41222380D02*
X57380952Y-42222380D01*
X57380952Y-42222380D02*
X57857142Y-42222380D01*
X58857142Y-41222380D02*
X58523809Y-41698571D01*
X58285714Y-41222380D02*
X58285714Y-42222380D01*
X58285714Y-42222380D02*
X58666666Y-42222380D01*
X58666666Y-42222380D02*
X58761904Y-42174761D01*
X58761904Y-42174761D02*
X58809523Y-42127142D01*
X58809523Y-42127142D02*
X58857142Y-42031904D01*
X58857142Y-42031904D02*
X58857142Y-41889047D01*
X58857142Y-41889047D02*
X58809523Y-41793809D01*
X58809523Y-41793809D02*
X58761904Y-41746190D01*
X58761904Y-41746190D02*
X58666666Y-41698571D01*
X58666666Y-41698571D02*
X58285714Y-41698571D01*
X60047619Y-41746190D02*
X60380952Y-41746190D01*
X60523809Y-41222380D02*
X60047619Y-41222380D01*
X60047619Y-41222380D02*
X60047619Y-42222380D01*
X60047619Y-42222380D02*
X60523809Y-42222380D01*
X60904762Y-41270000D02*
X61047619Y-41222380D01*
X61047619Y-41222380D02*
X61285714Y-41222380D01*
X61285714Y-41222380D02*
X61380952Y-41270000D01*
X61380952Y-41270000D02*
X61428571Y-41317619D01*
X61428571Y-41317619D02*
X61476190Y-41412857D01*
X61476190Y-41412857D02*
X61476190Y-41508095D01*
X61476190Y-41508095D02*
X61428571Y-41603333D01*
X61428571Y-41603333D02*
X61380952Y-41650952D01*
X61380952Y-41650952D02*
X61285714Y-41698571D01*
X61285714Y-41698571D02*
X61095238Y-41746190D01*
X61095238Y-41746190D02*
X61000000Y-41793809D01*
X61000000Y-41793809D02*
X60952381Y-41841428D01*
X60952381Y-41841428D02*
X60904762Y-41936666D01*
X60904762Y-41936666D02*
X60904762Y-42031904D01*
X60904762Y-42031904D02*
X60952381Y-42127142D01*
X60952381Y-42127142D02*
X61000000Y-42174761D01*
X61000000Y-42174761D02*
X61095238Y-42222380D01*
X61095238Y-42222380D02*
X61333333Y-42222380D01*
X61333333Y-42222380D02*
X61476190Y-42174761D01*
X61904762Y-41222380D02*
X61904762Y-42222380D01*
X61904762Y-42222380D02*
X62285714Y-42222380D01*
X62285714Y-42222380D02*
X62380952Y-42174761D01*
X62380952Y-42174761D02*
X62428571Y-42127142D01*
X62428571Y-42127142D02*
X62476190Y-42031904D01*
X62476190Y-42031904D02*
X62476190Y-41889047D01*
X62476190Y-41889047D02*
X62428571Y-41793809D01*
X62428571Y-41793809D02*
X62380952Y-41746190D01*
X62380952Y-41746190D02*
X62285714Y-41698571D01*
X62285714Y-41698571D02*
X61904762Y-41698571D01*
X62809524Y-42222380D02*
X63428571Y-42222380D01*
X63428571Y-42222380D02*
X63095238Y-41841428D01*
X63095238Y-41841428D02*
X63238095Y-41841428D01*
X63238095Y-41841428D02*
X63333333Y-41793809D01*
X63333333Y-41793809D02*
X63380952Y-41746190D01*
X63380952Y-41746190D02*
X63428571Y-41650952D01*
X63428571Y-41650952D02*
X63428571Y-41412857D01*
X63428571Y-41412857D02*
X63380952Y-41317619D01*
X63380952Y-41317619D02*
X63333333Y-41270000D01*
X63333333Y-41270000D02*
X63238095Y-41222380D01*
X63238095Y-41222380D02*
X62952381Y-41222380D01*
X62952381Y-41222380D02*
X62857143Y-41270000D01*
X62857143Y-41270000D02*
X62809524Y-41317619D01*
X63809524Y-42127142D02*
X63857143Y-42174761D01*
X63857143Y-42174761D02*
X63952381Y-42222380D01*
X63952381Y-42222380D02*
X64190476Y-42222380D01*
X64190476Y-42222380D02*
X64285714Y-42174761D01*
X64285714Y-42174761D02*
X64333333Y-42127142D01*
X64333333Y-42127142D02*
X64380952Y-42031904D01*
X64380952Y-42031904D02*
X64380952Y-41936666D01*
X64380952Y-41936666D02*
X64333333Y-41793809D01*
X64333333Y-41793809D02*
X63761905Y-41222380D01*
X63761905Y-41222380D02*
X64380952Y-41222380D01*
X65428572Y-42222380D02*
X65761905Y-41222380D01*
X65761905Y-41222380D02*
X66095238Y-42222380D01*
X66952381Y-41222380D02*
X66380953Y-41222380D01*
X66666667Y-41222380D02*
X66666667Y-42222380D01*
X66666667Y-42222380D02*
X66571429Y-42079523D01*
X66571429Y-42079523D02*
X66476191Y-41984285D01*
X66476191Y-41984285D02*
X66380953Y-41936666D01*
D11*
X53322380Y-49790476D02*
X53798571Y-50123809D01*
X53322380Y-50361904D02*
X54322380Y-50361904D01*
X54322380Y-50361904D02*
X54322380Y-49980952D01*
X54322380Y-49980952D02*
X54274761Y-49885714D01*
X54274761Y-49885714D02*
X54227142Y-49838095D01*
X54227142Y-49838095D02*
X54131904Y-49790476D01*
X54131904Y-49790476D02*
X53989047Y-49790476D01*
X53989047Y-49790476D02*
X53893809Y-49838095D01*
X53893809Y-49838095D02*
X53846190Y-49885714D01*
X53846190Y-49885714D02*
X53798571Y-49980952D01*
X53798571Y-49980952D02*
X53798571Y-50361904D01*
X54322380Y-49457142D02*
X53322380Y-48790476D01*
X54322380Y-48790476D02*
X53322380Y-49457142D01*
X54322380Y-48219047D02*
X54322380Y-48123809D01*
X54322380Y-48123809D02*
X54274761Y-48028571D01*
X54274761Y-48028571D02*
X54227142Y-47980952D01*
X54227142Y-47980952D02*
X54131904Y-47933333D01*
X54131904Y-47933333D02*
X53941428Y-47885714D01*
X53941428Y-47885714D02*
X53703333Y-47885714D01*
X53703333Y-47885714D02*
X53512857Y-47933333D01*
X53512857Y-47933333D02*
X53417619Y-47980952D01*
X53417619Y-47980952D02*
X53370000Y-48028571D01*
X53370000Y-48028571D02*
X53322380Y-48123809D01*
X53322380Y-48123809D02*
X53322380Y-48219047D01*
X53322380Y-48219047D02*
X53370000Y-48314285D01*
X53370000Y-48314285D02*
X53417619Y-48361904D01*
X53417619Y-48361904D02*
X53512857Y-48409523D01*
X53512857Y-48409523D02*
X53703333Y-48457142D01*
X53703333Y-48457142D02*
X53941428Y-48457142D01*
X53941428Y-48457142D02*
X54131904Y-48409523D01*
X54131904Y-48409523D02*
X54227142Y-48361904D01*
X54227142Y-48361904D02*
X54274761Y-48314285D01*
X54274761Y-48314285D02*
X54322380Y-48219047D01*
D12*
X57338095Y-42922380D02*
X57338095Y-43922380D01*
X57338095Y-43922380D02*
X57576190Y-43922380D01*
X57576190Y-43922380D02*
X57719047Y-43874761D01*
X57719047Y-43874761D02*
X57814285Y-43779523D01*
X57814285Y-43779523D02*
X57861904Y-43684285D01*
X57861904Y-43684285D02*
X57909523Y-43493809D01*
X57909523Y-43493809D02*
X57909523Y-43350952D01*
X57909523Y-43350952D02*
X57861904Y-43160476D01*
X57861904Y-43160476D02*
X57814285Y-43065238D01*
X57814285Y-43065238D02*
X57719047Y-42970000D01*
X57719047Y-42970000D02*
X57576190Y-42922380D01*
X57576190Y-42922380D02*
X57338095Y-42922380D01*
X58766666Y-42922380D02*
X58766666Y-43446190D01*
X58766666Y-43446190D02*
X58719047Y-43541428D01*
X58719047Y-43541428D02*
X58623809Y-43589047D01*
X58623809Y-43589047D02*
X58433333Y-43589047D01*
X58433333Y-43589047D02*
X58338095Y-43541428D01*
X58766666Y-42970000D02*
X58671428Y-42922380D01*
X58671428Y-42922380D02*
X58433333Y-42922380D01*
X58433333Y-42922380D02*
X58338095Y-42970000D01*
X58338095Y-42970000D02*
X58290476Y-43065238D01*
X58290476Y-43065238D02*
X58290476Y-43160476D01*
X58290476Y-43160476D02*
X58338095Y-43255714D01*
X58338095Y-43255714D02*
X58433333Y-43303333D01*
X58433333Y-43303333D02*
X58671428Y-43303333D01*
X58671428Y-43303333D02*
X58766666Y-43350952D01*
X59671428Y-42922380D02*
X59671428Y-43922380D01*
X59671428Y-42970000D02*
X59576190Y-42922380D01*
X59576190Y-42922380D02*
X59385714Y-42922380D01*
X59385714Y-42922380D02*
X59290476Y-42970000D01*
X59290476Y-42970000D02*
X59242857Y-43017619D01*
X59242857Y-43017619D02*
X59195238Y-43112857D01*
X59195238Y-43112857D02*
X59195238Y-43398571D01*
X59195238Y-43398571D02*
X59242857Y-43493809D01*
X59242857Y-43493809D02*
X59290476Y-43541428D01*
X59290476Y-43541428D02*
X59385714Y-43589047D01*
X59385714Y-43589047D02*
X59576190Y-43589047D01*
X59576190Y-43589047D02*
X59671428Y-43541428D01*
X60528571Y-42970000D02*
X60433333Y-42922380D01*
X60433333Y-42922380D02*
X60242857Y-42922380D01*
X60242857Y-42922380D02*
X60147619Y-42970000D01*
X60147619Y-42970000D02*
X60100000Y-43065238D01*
X60100000Y-43065238D02*
X60100000Y-43446190D01*
X60100000Y-43446190D02*
X60147619Y-43541428D01*
X60147619Y-43541428D02*
X60242857Y-43589047D01*
X60242857Y-43589047D02*
X60433333Y-43589047D01*
X60433333Y-43589047D02*
X60528571Y-43541428D01*
X60528571Y-43541428D02*
X60576190Y-43446190D01*
X60576190Y-43446190D02*
X60576190Y-43350952D01*
X60576190Y-43350952D02*
X60100000Y-43255714D01*
X60909524Y-43922380D02*
X61528571Y-43922380D01*
X61528571Y-43922380D02*
X61195238Y-43541428D01*
X61195238Y-43541428D02*
X61338095Y-43541428D01*
X61338095Y-43541428D02*
X61433333Y-43493809D01*
X61433333Y-43493809D02*
X61480952Y-43446190D01*
X61480952Y-43446190D02*
X61528571Y-43350952D01*
X61528571Y-43350952D02*
X61528571Y-43112857D01*
X61528571Y-43112857D02*
X61480952Y-43017619D01*
X61480952Y-43017619D02*
X61433333Y-42970000D01*
X61433333Y-42970000D02*
X61338095Y-42922380D01*
X61338095Y-42922380D02*
X61052381Y-42922380D01*
X61052381Y-42922380D02*
X60957143Y-42970000D01*
X60957143Y-42970000D02*
X60909524Y-43017619D01*
X62338095Y-42970000D02*
X62242857Y-42922380D01*
X62242857Y-42922380D02*
X62052381Y-42922380D01*
X62052381Y-42922380D02*
X61957143Y-42970000D01*
X61957143Y-42970000D02*
X61909524Y-43065238D01*
X61909524Y-43065238D02*
X61909524Y-43446190D01*
X61909524Y-43446190D02*
X61957143Y-43541428D01*
X61957143Y-43541428D02*
X62052381Y-43589047D01*
X62052381Y-43589047D02*
X62242857Y-43589047D01*
X62242857Y-43589047D02*
X62338095Y-43541428D01*
X62338095Y-43541428D02*
X62385714Y-43446190D01*
X62385714Y-43446190D02*
X62385714Y-43350952D01*
X62385714Y-43350952D02*
X61909524Y-43255714D01*
X63528572Y-43827142D02*
X63576191Y-43874761D01*
X63576191Y-43874761D02*
X63671429Y-43922380D01*
X63671429Y-43922380D02*
X63909524Y-43922380D01*
X63909524Y-43922380D02*
X64004762Y-43874761D01*
X64004762Y-43874761D02*
X64052381Y-43827142D01*
X64052381Y-43827142D02*
X64100000Y-43731904D01*
X64100000Y-43731904D02*
X64100000Y-43636666D01*
X64100000Y-43636666D02*
X64052381Y-43493809D01*
X64052381Y-43493809D02*
X63480953Y-42922380D01*
X63480953Y-42922380D02*
X64100000Y-42922380D01*
X64719048Y-43922380D02*
X64814286Y-43922380D01*
X64814286Y-43922380D02*
X64909524Y-43874761D01*
X64909524Y-43874761D02*
X64957143Y-43827142D01*
X64957143Y-43827142D02*
X65004762Y-43731904D01*
X65004762Y-43731904D02*
X65052381Y-43541428D01*
X65052381Y-43541428D02*
X65052381Y-43303333D01*
X65052381Y-43303333D02*
X65004762Y-43112857D01*
X65004762Y-43112857D02*
X64957143Y-43017619D01*
X64957143Y-43017619D02*
X64909524Y-42970000D01*
X64909524Y-42970000D02*
X64814286Y-42922380D01*
X64814286Y-42922380D02*
X64719048Y-42922380D01*
X64719048Y-42922380D02*
X64623810Y-42970000D01*
X64623810Y-42970000D02*
X64576191Y-43017619D01*
X64576191Y-43017619D02*
X64528572Y-43112857D01*
X64528572Y-43112857D02*
X64480953Y-43303333D01*
X64480953Y-43303333D02*
X64480953Y-43541428D01*
X64480953Y-43541428D02*
X64528572Y-43731904D01*
X64528572Y-43731904D02*
X64576191Y-43827142D01*
X64576191Y-43827142D02*
X64623810Y-43874761D01*
X64623810Y-43874761D02*
X64719048Y-43922380D01*
X65433334Y-43827142D02*
X65480953Y-43874761D01*
X65480953Y-43874761D02*
X65576191Y-43922380D01*
X65576191Y-43922380D02*
X65814286Y-43922380D01*
X65814286Y-43922380D02*
X65909524Y-43874761D01*
X65909524Y-43874761D02*
X65957143Y-43827142D01*
X65957143Y-43827142D02*
X66004762Y-43731904D01*
X66004762Y-43731904D02*
X66004762Y-43636666D01*
X66004762Y-43636666D02*
X65957143Y-43493809D01*
X65957143Y-43493809D02*
X65385715Y-42922380D01*
X65385715Y-42922380D02*
X66004762Y-42922380D01*
X66338096Y-43922380D02*
X66957143Y-43922380D01*
X66957143Y-43922380D02*
X66623810Y-43541428D01*
X66623810Y-43541428D02*
X66766667Y-43541428D01*
X66766667Y-43541428D02*
X66861905Y-43493809D01*
X66861905Y-43493809D02*
X66909524Y-43446190D01*
X66909524Y-43446190D02*
X66957143Y-43350952D01*
X66957143Y-43350952D02*
X66957143Y-43112857D01*
X66957143Y-43112857D02*
X66909524Y-43017619D01*
X66909524Y-43017619D02*
X66861905Y-42970000D01*
X66861905Y-42970000D02*
X66766667Y-42922380D01*
X66766667Y-42922380D02*
X66480953Y-42922380D01*
X66480953Y-42922380D02*
X66385715Y-42970000D01*
X66385715Y-42970000D02*
X66338096Y-43017619D01*
D11*
X58422380Y-49790476D02*
X58898571Y-50123809D01*
X58422380Y-50361904D02*
X59422380Y-50361904D01*
X59422380Y-50361904D02*
X59422380Y-49980952D01*
X59422380Y-49980952D02*
X59374761Y-49885714D01*
X59374761Y-49885714D02*
X59327142Y-49838095D01*
X59327142Y-49838095D02*
X59231904Y-49790476D01*
X59231904Y-49790476D02*
X59089047Y-49790476D01*
X59089047Y-49790476D02*
X58993809Y-49838095D01*
X58993809Y-49838095D02*
X58946190Y-49885714D01*
X58946190Y-49885714D02*
X58898571Y-49980952D01*
X58898571Y-49980952D02*
X58898571Y-50361904D01*
X59422380Y-49457142D02*
X58422380Y-48790476D01*
X59422380Y-48790476D02*
X58422380Y-49457142D01*
X59327142Y-48457142D02*
X59374761Y-48409523D01*
X59374761Y-48409523D02*
X59422380Y-48314285D01*
X59422380Y-48314285D02*
X59422380Y-48076190D01*
X59422380Y-48076190D02*
X59374761Y-47980952D01*
X59374761Y-47980952D02*
X59327142Y-47933333D01*
X59327142Y-47933333D02*
X59231904Y-47885714D01*
X59231904Y-47885714D02*
X59136666Y-47885714D01*
X59136666Y-47885714D02*
X58993809Y-47933333D01*
X58993809Y-47933333D02*
X58422380Y-48504761D01*
X58422380Y-48504761D02*
X58422380Y-47885714D01*
D10*
%TO.C,C1*%
X45733332Y-45293904D02*
X45771428Y-45332000D01*
X45771428Y-45332000D02*
X45885713Y-45370095D01*
X45885713Y-45370095D02*
X45961904Y-45370095D01*
X45961904Y-45370095D02*
X46076190Y-45332000D01*
X46076190Y-45332000D02*
X46152380Y-45255809D01*
X46152380Y-45255809D02*
X46190475Y-45179619D01*
X46190475Y-45179619D02*
X46228571Y-45027238D01*
X46228571Y-45027238D02*
X46228571Y-44912952D01*
X46228571Y-44912952D02*
X46190475Y-44760571D01*
X46190475Y-44760571D02*
X46152380Y-44684380D01*
X46152380Y-44684380D02*
X46076190Y-44608190D01*
X46076190Y-44608190D02*
X45961904Y-44570095D01*
X45961904Y-44570095D02*
X45885713Y-44570095D01*
X45885713Y-44570095D02*
X45771428Y-44608190D01*
X45771428Y-44608190D02*
X45733332Y-44646285D01*
X44971428Y-45370095D02*
X45428571Y-45370095D01*
X45199999Y-45370095D02*
X45199999Y-44570095D01*
X45199999Y-44570095D02*
X45276190Y-44684380D01*
X45276190Y-44684380D02*
X45352380Y-44760571D01*
X45352380Y-44760571D02*
X45428571Y-44798666D01*
%TO.C,R1*%
X49733332Y-57270095D02*
X49999999Y-56889142D01*
X50190475Y-57270095D02*
X50190475Y-56470095D01*
X50190475Y-56470095D02*
X49885713Y-56470095D01*
X49885713Y-56470095D02*
X49809523Y-56508190D01*
X49809523Y-56508190D02*
X49771428Y-56546285D01*
X49771428Y-56546285D02*
X49733332Y-56622476D01*
X49733332Y-56622476D02*
X49733332Y-56736761D01*
X49733332Y-56736761D02*
X49771428Y-56812952D01*
X49771428Y-56812952D02*
X49809523Y-56851047D01*
X49809523Y-56851047D02*
X49885713Y-56889142D01*
X49885713Y-56889142D02*
X50190475Y-56889142D01*
X48971428Y-57270095D02*
X49428571Y-57270095D01*
X49199999Y-57270095D02*
X49199999Y-56470095D01*
X49199999Y-56470095D02*
X49276190Y-56584380D01*
X49276190Y-56584380D02*
X49352380Y-56660571D01*
X49352380Y-56660571D02*
X49428571Y-56698666D01*
%TO.C,C2*%
X48033332Y-45293904D02*
X48071428Y-45332000D01*
X48071428Y-45332000D02*
X48185713Y-45370095D01*
X48185713Y-45370095D02*
X48261904Y-45370095D01*
X48261904Y-45370095D02*
X48376190Y-45332000D01*
X48376190Y-45332000D02*
X48452380Y-45255809D01*
X48452380Y-45255809D02*
X48490475Y-45179619D01*
X48490475Y-45179619D02*
X48528571Y-45027238D01*
X48528571Y-45027238D02*
X48528571Y-44912952D01*
X48528571Y-44912952D02*
X48490475Y-44760571D01*
X48490475Y-44760571D02*
X48452380Y-44684380D01*
X48452380Y-44684380D02*
X48376190Y-44608190D01*
X48376190Y-44608190D02*
X48261904Y-44570095D01*
X48261904Y-44570095D02*
X48185713Y-44570095D01*
X48185713Y-44570095D02*
X48071428Y-44608190D01*
X48071428Y-44608190D02*
X48033332Y-44646285D01*
X47728571Y-44646285D02*
X47690475Y-44608190D01*
X47690475Y-44608190D02*
X47614285Y-44570095D01*
X47614285Y-44570095D02*
X47423809Y-44570095D01*
X47423809Y-44570095D02*
X47347618Y-44608190D01*
X47347618Y-44608190D02*
X47309523Y-44646285D01*
X47309523Y-44646285D02*
X47271428Y-44722476D01*
X47271428Y-44722476D02*
X47271428Y-44798666D01*
X47271428Y-44798666D02*
X47309523Y-44912952D01*
X47309523Y-44912952D02*
X47766666Y-45370095D01*
X47766666Y-45370095D02*
X47271428Y-45370095D01*
%TO.C,LED/IO04*%
X56604761Y-57170095D02*
X56985713Y-57170095D01*
X56985713Y-57170095D02*
X56985713Y-56370095D01*
X56338094Y-56751047D02*
X56071428Y-56751047D01*
X55957142Y-57170095D02*
X56338094Y-57170095D01*
X56338094Y-57170095D02*
X56338094Y-56370095D01*
X56338094Y-56370095D02*
X55957142Y-56370095D01*
X55614284Y-57170095D02*
X55614284Y-56370095D01*
X55614284Y-56370095D02*
X55423808Y-56370095D01*
X55423808Y-56370095D02*
X55309522Y-56408190D01*
X55309522Y-56408190D02*
X55233332Y-56484380D01*
X55233332Y-56484380D02*
X55195237Y-56560571D01*
X55195237Y-56560571D02*
X55157141Y-56712952D01*
X55157141Y-56712952D02*
X55157141Y-56827238D01*
X55157141Y-56827238D02*
X55195237Y-56979619D01*
X55195237Y-56979619D02*
X55233332Y-57055809D01*
X55233332Y-57055809D02*
X55309522Y-57132000D01*
X55309522Y-57132000D02*
X55423808Y-57170095D01*
X55423808Y-57170095D02*
X55614284Y-57170095D01*
X54242856Y-56332000D02*
X54928570Y-57360571D01*
X53976189Y-57170095D02*
X53976189Y-56370095D01*
X53442856Y-56370095D02*
X53290475Y-56370095D01*
X53290475Y-56370095D02*
X53214285Y-56408190D01*
X53214285Y-56408190D02*
X53138094Y-56484380D01*
X53138094Y-56484380D02*
X53099999Y-56636761D01*
X53099999Y-56636761D02*
X53099999Y-56903428D01*
X53099999Y-56903428D02*
X53138094Y-57055809D01*
X53138094Y-57055809D02*
X53214285Y-57132000D01*
X53214285Y-57132000D02*
X53290475Y-57170095D01*
X53290475Y-57170095D02*
X53442856Y-57170095D01*
X53442856Y-57170095D02*
X53519047Y-57132000D01*
X53519047Y-57132000D02*
X53595237Y-57055809D01*
X53595237Y-57055809D02*
X53633333Y-56903428D01*
X53633333Y-56903428D02*
X53633333Y-56636761D01*
X53633333Y-56636761D02*
X53595237Y-56484380D01*
X53595237Y-56484380D02*
X53519047Y-56408190D01*
X53519047Y-56408190D02*
X53442856Y-56370095D01*
X52604761Y-56370095D02*
X52528571Y-56370095D01*
X52528571Y-56370095D02*
X52452380Y-56408190D01*
X52452380Y-56408190D02*
X52414285Y-56446285D01*
X52414285Y-56446285D02*
X52376190Y-56522476D01*
X52376190Y-56522476D02*
X52338095Y-56674857D01*
X52338095Y-56674857D02*
X52338095Y-56865333D01*
X52338095Y-56865333D02*
X52376190Y-57017714D01*
X52376190Y-57017714D02*
X52414285Y-57093904D01*
X52414285Y-57093904D02*
X52452380Y-57132000D01*
X52452380Y-57132000D02*
X52528571Y-57170095D01*
X52528571Y-57170095D02*
X52604761Y-57170095D01*
X52604761Y-57170095D02*
X52680952Y-57132000D01*
X52680952Y-57132000D02*
X52719047Y-57093904D01*
X52719047Y-57093904D02*
X52757142Y-57017714D01*
X52757142Y-57017714D02*
X52795238Y-56865333D01*
X52795238Y-56865333D02*
X52795238Y-56674857D01*
X52795238Y-56674857D02*
X52757142Y-56522476D01*
X52757142Y-56522476D02*
X52719047Y-56446285D01*
X52719047Y-56446285D02*
X52680952Y-56408190D01*
X52680952Y-56408190D02*
X52604761Y-56370095D01*
X51652380Y-56636761D02*
X51652380Y-57170095D01*
X51842856Y-56332000D02*
X52033333Y-56903428D01*
X52033333Y-56903428D02*
X51538094Y-56903428D01*
D13*
%TO.C,SW1*%
X66150000Y-57855000D02*
X66150000Y-58645000D01*
X65550000Y-59655000D02*
X59850000Y-59655000D01*
X64300000Y-56805000D02*
X62600000Y-56805000D01*
X64100000Y-60945000D02*
X63900000Y-61155000D01*
X64100000Y-59655000D02*
X64100000Y-60945000D01*
X63900000Y-61155000D02*
X63000000Y-61155000D01*
X62800000Y-60945000D02*
X63000000Y-61155000D01*
X62800000Y-60945000D02*
X62800000Y-59655000D01*
X61300000Y-56805000D02*
X61100000Y-56805000D01*
X59250000Y-58645000D02*
X59250000Y-57855000D01*
%TO.C,C1*%
X44765000Y-42861252D02*
X44765000Y-42338748D01*
X46235000Y-42861252D02*
X46235000Y-42338748D01*
%TO.C,R1*%
X49861252Y-57665000D02*
X49338748Y-57665000D01*
X49861252Y-59135000D02*
X49338748Y-59135000D01*
%TO.C,JP1*%
X41900000Y-44050000D02*
X42500000Y-44050000D01*
X43200000Y-43350000D02*
X43200000Y-41950000D01*
X41200000Y-41950000D02*
X41200000Y-43350000D01*
X42500000Y-41250000D02*
X41900000Y-41250000D01*
X41200000Y-43350000D02*
G75*
G03*
X41900000Y-44050000I699999J-1D01*
G01*
X42500000Y-44050000D02*
G75*
G03*
X43200000Y-43350000I1J699999D01*
G01*
X41900000Y-41250000D02*
G75*
G03*
X41200000Y-41950000I0J-700000D01*
G01*
X43200000Y-41950000D02*
G75*
G03*
X42500000Y-41250000I-700000J0D01*
G01*
%TO.C,C2*%
X47165000Y-42861252D02*
X47165000Y-42338748D01*
X48635000Y-42861252D02*
X48635000Y-42338748D01*
%TO.C,LED/IO04*%
X54261252Y-59135000D02*
X53738748Y-59135000D01*
X54261252Y-57665000D02*
X53738748Y-57665000D01*
%TD*%
M02*
