%TF.GenerationSoftware,KiCad,Pcbnew,7.0.2*%
%TF.CreationDate,2023-05-14T05:20:11+02:00*%
%TF.ProjectId,marauder_mini_pcb,6d617261-7564-4657-925f-6d696e695f70,rev?*%
%TF.SameCoordinates,Original*%
%TF.FileFunction,Copper,L2,Bot*%
%TF.FilePolarity,Positive*%
%FSLAX46Y46*%
G04 Gerber Fmt 4.6, Leading zero omitted, Abs format (unit mm)*
G04 Created by KiCad (PCBNEW 7.0.2) date 2023-05-14 05:20:11*
%MOMM*%
%LPD*%
G01*
G04 APERTURE LIST*
G04 Aperture macros list*
%AMRoundRect*
0 Rectangle with rounded corners*
0 $1 Rounding radius*
0 $2 $3 $4 $5 $6 $7 $8 $9 X,Y pos of 4 corners*
0 Add a 4 corners polygon primitive as box body*
4,1,4,$2,$3,$4,$5,$6,$7,$8,$9,$2,$3,0*
0 Add four circle primitives for the rounded corners*
1,1,$1+$1,$2,$3*
1,1,$1+$1,$4,$5*
1,1,$1+$1,$6,$7*
1,1,$1+$1,$8,$9*
0 Add four rect primitives between the rounded corners*
20,1,$1+$1,$2,$3,$4,$5,0*
20,1,$1+$1,$4,$5,$6,$7,0*
20,1,$1+$1,$6,$7,$8,$9,0*
20,1,$1+$1,$8,$9,$2,$3,0*%
%AMFreePoly0*
4,1,19,0.500000,-0.750000,0.000000,-0.750000,0.000000,-0.744911,-0.071157,-0.744911,-0.207708,-0.704816,-0.327430,-0.627875,-0.420627,-0.520320,-0.479746,-0.390866,-0.500000,-0.250000,-0.500000,0.250000,-0.479746,0.390866,-0.420627,0.520320,-0.327430,0.627875,-0.207708,0.704816,-0.071157,0.744911,0.000000,0.744911,0.000000,0.750000,0.500000,0.750000,0.500000,-0.750000,0.500000,-0.750000,
$1*%
%AMFreePoly1*
4,1,19,0.000000,0.744911,0.071157,0.744911,0.207708,0.704816,0.327430,0.627875,0.420627,0.520320,0.479746,0.390866,0.500000,0.250000,0.500000,-0.250000,0.479746,-0.390866,0.420627,-0.520320,0.327430,-0.627875,0.207708,-0.704816,0.071157,-0.744911,0.000000,-0.744911,0.000000,-0.750000,-0.500000,-0.750000,-0.500000,0.750000,0.000000,0.750000,0.000000,0.744911,0.000000,0.744911,
$1*%
G04 Aperture macros list end*
%TA.AperFunction,ComponentPad*%
%ADD10O,1.500000X3.000000*%
%TD*%
%TA.AperFunction,SMDPad,CuDef*%
%ADD11R,1.000000X0.800000*%
%TD*%
%TA.AperFunction,SMDPad,CuDef*%
%ADD12R,0.700000X1.500000*%
%TD*%
%TA.AperFunction,SMDPad,CuDef*%
%ADD13RoundRect,0.250000X0.475000X-0.337500X0.475000X0.337500X-0.475000X0.337500X-0.475000X-0.337500X0*%
%TD*%
%TA.AperFunction,SMDPad,CuDef*%
%ADD14FreePoly0,90.000000*%
%TD*%
%TA.AperFunction,SMDPad,CuDef*%
%ADD15FreePoly1,90.000000*%
%TD*%
%TA.AperFunction,SMDPad,CuDef*%
%ADD16RoundRect,0.250000X0.337500X0.475000X-0.337500X0.475000X-0.337500X-0.475000X0.337500X-0.475000X0*%
%TD*%
%TA.AperFunction,ViaPad*%
%ADD17C,0.800000*%
%TD*%
%TA.AperFunction,Conductor*%
%ADD18C,0.200000*%
%TD*%
%TA.AperFunction,Conductor*%
%ADD19C,0.400000*%
%TD*%
%TA.AperFunction,Conductor*%
%ADD20C,0.250000*%
%TD*%
%TA.AperFunction,Conductor*%
%ADD21C,0.300000*%
%TD*%
G04 APERTURE END LIST*
D10*
%TO.P,J1,1,Pin_1*%
%TO.N,GND*%
X87180000Y-62300000D03*
%TO.P,J1,2,Pin_2*%
%TO.N,unconnected-(J1-Pin_2-Pad2)*%
X84640000Y-62300000D03*
%TO.P,J1,3,Pin_3*%
%TO.N,Net-(J1-Pin_3)*%
X82100000Y-62300000D03*
%TO.P,J1,4,Pin_4*%
%TO.N,Net-(J1-Pin_4)*%
X79560000Y-62300000D03*
%TO.P,J1,5,Pin_5*%
%TO.N,Net-(J1-Pin_5)*%
X77020000Y-62300000D03*
%TO.P,J1,6,Pin_6*%
%TO.N,Net-(J1-Pin_6)*%
X74480000Y-62300000D03*
%TO.P,J1,7,Pin_7*%
%TO.N,unconnected-(J1-Pin_7-Pad7)*%
X71940000Y-62300000D03*
%TO.P,J1,8,Pin_8*%
%TO.N,unconnected-(J1-Pin_8-Pad8)*%
X69400000Y-62300000D03*
%TO.P,J1,9,Pin_9*%
%TO.N,unconnected-(J1-Pin_9-Pad9)*%
X66860000Y-62300000D03*
%TO.P,J1,10,Pin_10*%
%TO.N,Net-(J1-Pin_10)*%
X64320000Y-62300000D03*
%TD*%
D11*
%TO.P,SW1,*%
%TO.N,*%
X87800000Y-69310000D03*
X87800000Y-67100000D03*
X80500000Y-69310000D03*
X80500000Y-67100000D03*
D12*
%TO.P,SW1,1,A*%
%TO.N,Net-(J1-Pin_10)*%
X86400000Y-66450000D03*
%TO.P,SW1,2,B*%
%TO.N,Net-(SW1-B)*%
X83400000Y-66450000D03*
%TO.P,SW1,3,C*%
%TO.N,unconnected-(SW1-C-Pad3)*%
X81900000Y-66450000D03*
%TD*%
D13*
%TO.P,C1,1*%
%TO.N,Net-(SW1-B)*%
X66100000Y-54100000D03*
%TO.P,C1,2*%
%TO.N,GND*%
X66100000Y-52025000D03*
%TD*%
D14*
%TO.P,PROG,1,A*%
%TO.N,Net-(JP1-A)*%
X88700000Y-57600000D03*
D15*
%TO.P,PROG,2,B*%
%TO.N,GND*%
X88700000Y-56300000D03*
%TD*%
D16*
%TO.P,R1,1*%
%TO.N,Net-(D1-A)*%
X69800000Y-68200000D03*
%TO.P,R1,2*%
%TO.N,Net-(SW1-B)*%
X67725000Y-68200000D03*
%TD*%
D13*
%TO.P,C2,1*%
%TO.N,Net-(SW1-B)*%
X63400000Y-54100000D03*
%TO.P,C2,2*%
%TO.N,GND*%
X63400000Y-52025000D03*
%TD*%
D16*
%TO.P,D1,1,K*%
%TO.N,GND*%
X75692000Y-68173600D03*
%TO.P,D1,2,A*%
%TO.N,Net-(D1-A)*%
X73617000Y-68173600D03*
%TD*%
D17*
%TO.N,GND*%
X71500000Y-55800000D03*
X78028800Y-55800000D03*
X64897000Y-55800000D03*
X78003400Y-66319400D03*
X84700000Y-55800000D03*
%TO.N,Net-(J1-Pin_3)*%
X66624200Y-66090800D03*
%TO.N,Net-(J1-Pin_4)*%
X65354200Y-65506600D03*
%TO.N,Net-(SW1-B)*%
X68630800Y-54102000D03*
%TO.N,Net-(JP1-A)*%
X66000000Y-57800000D03*
%TD*%
D18*
%TO.N,GND*%
X88450800Y-56500800D02*
X88700000Y-56750000D01*
D19*
%TO.N,Net-(D1-A)*%
X69800000Y-68200000D02*
X73590600Y-68200000D01*
X73590600Y-68200000D02*
X73617000Y-68173600D01*
%TO.N,Net-(J1-Pin_10)*%
X87600000Y-65900000D02*
X89400000Y-64100000D01*
X64320000Y-62300000D02*
X64320000Y-60880000D01*
X88000000Y-59000000D02*
X89400000Y-60400000D01*
X64320000Y-60880000D02*
X66200000Y-59000000D01*
X86400000Y-66100000D02*
X86600000Y-65900000D01*
X86400000Y-66450000D02*
X86400000Y-66100000D01*
X89400000Y-60400000D02*
X89400000Y-64100000D01*
X86600000Y-65900000D02*
X87600000Y-65900000D01*
X66200000Y-59000000D02*
X88000000Y-59000000D01*
D18*
%TO.N,Net-(J1-Pin_3)*%
X66624200Y-66090800D02*
X68015000Y-64700000D01*
X68015000Y-64700000D02*
X80308600Y-64700000D01*
X82100000Y-62908600D02*
X82100000Y-62300000D01*
X80308600Y-64700000D02*
X82100000Y-62908600D01*
%TO.N,Net-(J1-Pin_4)*%
X79560000Y-63086400D02*
X79560000Y-62300000D01*
X65354200Y-65506600D02*
X66560800Y-64300000D01*
X78346400Y-64300000D02*
X79560000Y-63086400D01*
X66560800Y-64300000D02*
X78346400Y-64300000D01*
D19*
%TO.N,Net-(SW1-B)*%
X63400000Y-54100000D02*
X66100000Y-54100000D01*
X65888600Y-68200000D02*
X62204600Y-64516000D01*
X68628800Y-54100000D02*
X66100000Y-54100000D01*
X83450000Y-65450000D02*
X83450000Y-66195000D01*
X62204600Y-64516000D02*
X62204600Y-55295400D01*
X67725000Y-68200000D02*
X67725000Y-67606200D01*
D20*
X68630800Y-54102000D02*
X68628800Y-54100000D01*
D19*
X67725000Y-68200000D02*
X65888600Y-68200000D01*
X83200000Y-65200000D02*
X83450000Y-65450000D01*
X67725000Y-67606200D02*
X70131200Y-65200000D01*
X70131200Y-65200000D02*
X83200000Y-65200000D01*
X62204600Y-55295400D02*
X63400000Y-54100000D01*
D21*
%TO.N,Net-(JP1-A)*%
X66000000Y-57800000D02*
X88500000Y-57800000D01*
D18*
X88500000Y-57800000D02*
X88700000Y-57600000D01*
%TD*%
%TA.AperFunction,Conductor*%
%TO.N,GND*%
G36*
X88004042Y-50000764D02*
G01*
X88083743Y-50005988D01*
X88261590Y-50018709D01*
X88276904Y-50020772D01*
X88389441Y-50043157D01*
X88530277Y-50073794D01*
X88543690Y-50077518D01*
X88657725Y-50116228D01*
X88661074Y-50117420D01*
X88788808Y-50165062D01*
X88800300Y-50170024D01*
X88910687Y-50224461D01*
X88915187Y-50226798D01*
X89032478Y-50290844D01*
X89041942Y-50296574D01*
X89145269Y-50365615D01*
X89150688Y-50369450D01*
X89256727Y-50448830D01*
X89264145Y-50454844D01*
X89357976Y-50537131D01*
X89363898Y-50542678D01*
X89457320Y-50636100D01*
X89462867Y-50642022D01*
X89545150Y-50735848D01*
X89551173Y-50743278D01*
X89588691Y-50793396D01*
X89630548Y-50849310D01*
X89634383Y-50854729D01*
X89703424Y-50958056D01*
X89709154Y-50967520D01*
X89773183Y-51084779D01*
X89775564Y-51089363D01*
X89829969Y-51199687D01*
X89834938Y-51211196D01*
X89882556Y-51338863D01*
X89883793Y-51342338D01*
X89922470Y-51456276D01*
X89926217Y-51469777D01*
X89956847Y-51610580D01*
X89979230Y-51723107D01*
X89981290Y-51738414D01*
X89994017Y-51916349D01*
X89999235Y-51995954D01*
X89999500Y-52004051D01*
X89999500Y-56642365D01*
X89979815Y-56709404D01*
X89927011Y-56755159D01*
X89857853Y-56765103D01*
X89794298Y-56736079D01*
X89723372Y-56674622D01*
X89592457Y-56614834D01*
X89450000Y-56594353D01*
X88985763Y-56594353D01*
X88914236Y-56594353D01*
X88485764Y-56594353D01*
X88414237Y-56594353D01*
X87950000Y-56594353D01*
X87947792Y-56594510D01*
X87947789Y-56594511D01*
X87878039Y-56599499D01*
X87739947Y-56640047D01*
X87618870Y-56717858D01*
X87524623Y-56826625D01*
X87464834Y-56957542D01*
X87452527Y-57043147D01*
X87423502Y-57106703D01*
X87364724Y-57144477D01*
X87329789Y-57149500D01*
X66676975Y-57149500D01*
X66609936Y-57129815D01*
X66604105Y-57125829D01*
X66452730Y-57015849D01*
X66452729Y-57015848D01*
X66452727Y-57015847D01*
X66279802Y-56938855D01*
X66094648Y-56899500D01*
X66094646Y-56899500D01*
X65905354Y-56899500D01*
X65905352Y-56899500D01*
X65720197Y-56938855D01*
X65547269Y-57015848D01*
X65394129Y-57127110D01*
X65267466Y-57267783D01*
X65172820Y-57431715D01*
X65114326Y-57611742D01*
X65094540Y-57800000D01*
X65114326Y-57988257D01*
X65172820Y-58168284D01*
X65267466Y-58332216D01*
X65334890Y-58407097D01*
X65394129Y-58472888D01*
X65474946Y-58531604D01*
X65517610Y-58586932D01*
X65523589Y-58656545D01*
X65490984Y-58718340D01*
X65489740Y-58719602D01*
X63842290Y-60367051D01*
X63836837Y-60372184D01*
X63796576Y-60407853D01*
X63773108Y-60424233D01*
X63628317Y-60502148D01*
X63452335Y-60642490D01*
X63304233Y-60812006D01*
X63188783Y-61005237D01*
X63145193Y-61121386D01*
X63103208Y-61177234D01*
X63037694Y-61201518D01*
X62969452Y-61186527D01*
X62920147Y-61137021D01*
X62905100Y-61077816D01*
X62905100Y-55636918D01*
X62924785Y-55569879D01*
X62941415Y-55549241D01*
X63266338Y-55224317D01*
X63327661Y-55190833D01*
X63354019Y-55187999D01*
X63921859Y-55187999D01*
X63925008Y-55187999D01*
X64027797Y-55177499D01*
X64194334Y-55122314D01*
X64343656Y-55030212D01*
X64467712Y-54906156D01*
X64496548Y-54859404D01*
X64548497Y-54812679D01*
X64602088Y-54800500D01*
X64897912Y-54800500D01*
X64964951Y-54820185D01*
X65003451Y-54859404D01*
X65032288Y-54906157D01*
X65156342Y-55030211D01*
X65212895Y-55065093D01*
X65305666Y-55122314D01*
X65417016Y-55159212D01*
X65472202Y-55177499D01*
X65571858Y-55187680D01*
X65571859Y-55187680D01*
X65574991Y-55188000D01*
X66625008Y-55187999D01*
X66727797Y-55177499D01*
X66894334Y-55122314D01*
X67043656Y-55030212D01*
X67167712Y-54906156D01*
X67196548Y-54859404D01*
X67248497Y-54812679D01*
X67302088Y-54800500D01*
X68019891Y-54800500D01*
X68086930Y-54820185D01*
X68092770Y-54824177D01*
X68178070Y-54886151D01*
X68178071Y-54886151D01*
X68178072Y-54886152D01*
X68350997Y-54963144D01*
X68536152Y-55002500D01*
X68536154Y-55002500D01*
X68725448Y-55002500D01*
X68848884Y-54976262D01*
X68910603Y-54963144D01*
X69083530Y-54886151D01*
X69120344Y-54859404D01*
X69236670Y-54774889D01*
X69363333Y-54634216D01*
X69457979Y-54470284D01*
X69457978Y-54470283D01*
X69516474Y-54290256D01*
X69536260Y-54102000D01*
X69516474Y-53913744D01*
X69457979Y-53733716D01*
X69457979Y-53733715D01*
X69363333Y-53569783D01*
X69236670Y-53429110D01*
X69083530Y-53317848D01*
X68910602Y-53240855D01*
X68725448Y-53201500D01*
X68725446Y-53201500D01*
X68536154Y-53201500D01*
X68536152Y-53201500D01*
X68350997Y-53240855D01*
X68178072Y-53317846D01*
X68113745Y-53364583D01*
X68098281Y-53375818D01*
X68032477Y-53399298D01*
X68025397Y-53399500D01*
X67302088Y-53399500D01*
X67235049Y-53379815D01*
X67196549Y-53340596D01*
X67167711Y-53293842D01*
X67043659Y-53169790D01*
X67040345Y-53167746D01*
X66993620Y-53115799D01*
X66982396Y-53046836D01*
X67010238Y-52982754D01*
X67040348Y-52956664D01*
X67043348Y-52954813D01*
X67167316Y-52830845D01*
X67259357Y-52681622D01*
X67314506Y-52515196D01*
X67324680Y-52415609D01*
X67325000Y-52409331D01*
X67325000Y-52275000D01*
X64875001Y-52275000D01*
X64875001Y-52409329D01*
X64875321Y-52415611D01*
X64885493Y-52515195D01*
X64940642Y-52681622D01*
X65032683Y-52830845D01*
X65156654Y-52954816D01*
X65159656Y-52956668D01*
X65206380Y-53008617D01*
X65217601Y-53077579D01*
X65189757Y-53141661D01*
X65159659Y-53167742D01*
X65156344Y-53169786D01*
X65032288Y-53293842D01*
X65003451Y-53340596D01*
X64951503Y-53387321D01*
X64897912Y-53399500D01*
X64602088Y-53399500D01*
X64535049Y-53379815D01*
X64496549Y-53340596D01*
X64467711Y-53293842D01*
X64343659Y-53169790D01*
X64340345Y-53167746D01*
X64293620Y-53115799D01*
X64282396Y-53046836D01*
X64310238Y-52982754D01*
X64340348Y-52956664D01*
X64343348Y-52954813D01*
X64467316Y-52830845D01*
X64559357Y-52681622D01*
X64614506Y-52515196D01*
X64624680Y-52415609D01*
X64625000Y-52409331D01*
X64625000Y-52275000D01*
X62175001Y-52275000D01*
X62175001Y-52409329D01*
X62175321Y-52415611D01*
X62185493Y-52515195D01*
X62240642Y-52681622D01*
X62332683Y-52830845D01*
X62456654Y-52954816D01*
X62459656Y-52956668D01*
X62506380Y-53008617D01*
X62517601Y-53077579D01*
X62489757Y-53141661D01*
X62459659Y-53167742D01*
X62456344Y-53169786D01*
X62332288Y-53293842D01*
X62240186Y-53443165D01*
X62185000Y-53609702D01*
X62174819Y-53709358D01*
X62174817Y-53709378D01*
X62174500Y-53712491D01*
X62174500Y-53715638D01*
X62174500Y-53715639D01*
X62174500Y-54283479D01*
X62154815Y-54350518D01*
X62138181Y-54371160D01*
X61726890Y-54782451D01*
X61721438Y-54787583D01*
X61676416Y-54827470D01*
X61642249Y-54876968D01*
X61637813Y-54882997D01*
X61600721Y-54930342D01*
X61596561Y-54939586D01*
X61585541Y-54959125D01*
X61579782Y-54967469D01*
X61558453Y-55023705D01*
X61555589Y-55030619D01*
X61530903Y-55085470D01*
X61529075Y-55095447D01*
X61523054Y-55117048D01*
X61519459Y-55126528D01*
X61512209Y-55186227D01*
X61511083Y-55193626D01*
X61500241Y-55252790D01*
X61503874Y-55312833D01*
X61504100Y-55320320D01*
X61504100Y-64491079D01*
X61503874Y-64498566D01*
X61500241Y-64558607D01*
X61511083Y-64617771D01*
X61512210Y-64625172D01*
X61519460Y-64684873D01*
X61523050Y-64694339D01*
X61529075Y-64715952D01*
X61530903Y-64725929D01*
X61555591Y-64780783D01*
X61558456Y-64787701D01*
X61579780Y-64843926D01*
X61579782Y-64843930D01*
X61585541Y-64852273D01*
X61596561Y-64871813D01*
X61600720Y-64881054D01*
X61637816Y-64928405D01*
X61642251Y-64934432D01*
X61676417Y-64983929D01*
X61721447Y-65023822D01*
X61726883Y-65028940D01*
X65375658Y-68677715D01*
X65380778Y-68683153D01*
X65420671Y-68728183D01*
X65420672Y-68728184D01*
X65470173Y-68762352D01*
X65476191Y-68766780D01*
X65523544Y-68803878D01*
X65532780Y-68808034D01*
X65552331Y-68819062D01*
X65560666Y-68824816D01*
X65560668Y-68824816D01*
X65560670Y-68824818D01*
X65616926Y-68846152D01*
X65623820Y-68849009D01*
X65678669Y-68873695D01*
X65688644Y-68875522D01*
X65710256Y-68881547D01*
X65719728Y-68885140D01*
X65779441Y-68892390D01*
X65786785Y-68893507D01*
X65845994Y-68904358D01*
X65902702Y-68900927D01*
X65906034Y-68900726D01*
X65913521Y-68900500D01*
X66582052Y-68900500D01*
X66649091Y-68920185D01*
X66694846Y-68972989D01*
X66699758Y-68985497D01*
X66702686Y-68994334D01*
X66794788Y-69143657D01*
X66918842Y-69267711D01*
X66918844Y-69267712D01*
X67068166Y-69359814D01*
X67179516Y-69396712D01*
X67234702Y-69414999D01*
X67334358Y-69425180D01*
X67334359Y-69425180D01*
X67337491Y-69425500D01*
X68112508Y-69425499D01*
X68215297Y-69414999D01*
X68381834Y-69359814D01*
X68531156Y-69267712D01*
X68655212Y-69143656D01*
X68656960Y-69140821D01*
X68708908Y-69094096D01*
X68777871Y-69082873D01*
X68841953Y-69110716D01*
X68868039Y-69140821D01*
X68869788Y-69143657D01*
X68993842Y-69267711D01*
X68993844Y-69267712D01*
X69143166Y-69359814D01*
X69254516Y-69396712D01*
X69309702Y-69414999D01*
X69409358Y-69425180D01*
X69409359Y-69425180D01*
X69412491Y-69425500D01*
X70187508Y-69425499D01*
X70290297Y-69414999D01*
X70456834Y-69359814D01*
X70606156Y-69267712D01*
X70730212Y-69143656D01*
X70822314Y-68994334D01*
X70825242Y-68985496D01*
X70865014Y-68928052D01*
X70929529Y-68901228D01*
X70942948Y-68900500D01*
X72483886Y-68900500D01*
X72550925Y-68920185D01*
X72589425Y-68959404D01*
X72686788Y-69117257D01*
X72810842Y-69241311D01*
X72810844Y-69241312D01*
X72960166Y-69333414D01*
X73071516Y-69370312D01*
X73126702Y-69388599D01*
X73226358Y-69398780D01*
X73226359Y-69398780D01*
X73229491Y-69399100D01*
X74004508Y-69399099D01*
X74107297Y-69388599D01*
X74273834Y-69333414D01*
X74423156Y-69241312D01*
X74547212Y-69117256D01*
X74549252Y-69113947D01*
X74601195Y-69067222D01*
X74670157Y-69055995D01*
X74734241Y-69083835D01*
X74760331Y-69113943D01*
X74762182Y-69116944D01*
X74886154Y-69240916D01*
X75035377Y-69332957D01*
X75201803Y-69388106D01*
X75301390Y-69398280D01*
X75307668Y-69398599D01*
X75441999Y-69398599D01*
X75442000Y-69398598D01*
X75442000Y-68423600D01*
X75942000Y-68423600D01*
X75942000Y-69398599D01*
X76076329Y-69398599D01*
X76082611Y-69398278D01*
X76182195Y-69388106D01*
X76348622Y-69332957D01*
X76497845Y-69240916D01*
X76621816Y-69116945D01*
X76713857Y-68967722D01*
X76769006Y-68801296D01*
X76779180Y-68701709D01*
X76779500Y-68695431D01*
X76779500Y-68423600D01*
X75942000Y-68423600D01*
X75442000Y-68423600D01*
X75442000Y-66948600D01*
X75942000Y-66948600D01*
X75942000Y-67923600D01*
X76779499Y-67923600D01*
X76779499Y-67651770D01*
X76779178Y-67645488D01*
X76769006Y-67545904D01*
X76713857Y-67379477D01*
X76621816Y-67230254D01*
X76497845Y-67106283D01*
X76348622Y-67014242D01*
X76182196Y-66959093D01*
X76082609Y-66948919D01*
X76076332Y-66948600D01*
X75942000Y-66948600D01*
X75442000Y-66948600D01*
X75307671Y-66948600D01*
X75301388Y-66948921D01*
X75201804Y-66959093D01*
X75035377Y-67014242D01*
X74886154Y-67106283D01*
X74762183Y-67230254D01*
X74760330Y-67233259D01*
X74708380Y-67279982D01*
X74639417Y-67291202D01*
X74575336Y-67263357D01*
X74549252Y-67233252D01*
X74547403Y-67230254D01*
X74547212Y-67229944D01*
X74547210Y-67229942D01*
X74547209Y-67229940D01*
X74423157Y-67105888D01*
X74273834Y-67013786D01*
X74107297Y-66958600D01*
X74007641Y-66948419D01*
X74007622Y-66948418D01*
X74004509Y-66948100D01*
X74001360Y-66948100D01*
X73232641Y-66948100D01*
X73232621Y-66948100D01*
X73229492Y-66948101D01*
X73226360Y-66948420D01*
X73226358Y-66948421D01*
X73126703Y-66958600D01*
X72960165Y-67013786D01*
X72810842Y-67105888D01*
X72686788Y-67229942D01*
X72594684Y-67379268D01*
X72583008Y-67414505D01*
X72543235Y-67471950D01*
X72478719Y-67498772D01*
X72465303Y-67499500D01*
X70942948Y-67499500D01*
X70875909Y-67479815D01*
X70830154Y-67427011D01*
X70825242Y-67414503D01*
X70822314Y-67405666D01*
X70761755Y-67307483D01*
X70730211Y-67256342D01*
X70606157Y-67132288D01*
X70456834Y-67040186D01*
X70290297Y-66985000D01*
X70190641Y-66974819D01*
X70190622Y-66974818D01*
X70187509Y-66974500D01*
X70184360Y-66974500D01*
X69646717Y-66974500D01*
X69579678Y-66954815D01*
X69533923Y-66902011D01*
X69523979Y-66832853D01*
X69553004Y-66769297D01*
X69559019Y-66762836D01*
X70385037Y-65936819D01*
X70446361Y-65903334D01*
X70472719Y-65900500D01*
X80925500Y-65900500D01*
X80992539Y-65920185D01*
X81038294Y-65972989D01*
X81049500Y-66024500D01*
X81049500Y-66075500D01*
X81029815Y-66142539D01*
X80977011Y-66188294D01*
X80925500Y-66199500D01*
X79955439Y-66199500D01*
X79955420Y-66199500D01*
X79952128Y-66199501D01*
X79948848Y-66199853D01*
X79948840Y-66199854D01*
X79892515Y-66205909D01*
X79757669Y-66256204D01*
X79642454Y-66342454D01*
X79556204Y-66457668D01*
X79505910Y-66592515D01*
X79505909Y-66592517D01*
X79499500Y-66652127D01*
X79499500Y-66655448D01*
X79499500Y-66655449D01*
X79499500Y-67544560D01*
X79499500Y-67544578D01*
X79499501Y-67547872D01*
X79505909Y-67607483D01*
X79556204Y-67742331D01*
X79642454Y-67857546D01*
X79757669Y-67943796D01*
X79892517Y-67994091D01*
X79952127Y-68000500D01*
X81047872Y-68000499D01*
X81107483Y-67994091D01*
X81242331Y-67943796D01*
X81357546Y-67857546D01*
X81437914Y-67750188D01*
X81493846Y-67708317D01*
X81537174Y-67700499D01*
X81921168Y-67700499D01*
X81988206Y-67720184D01*
X82033961Y-67772988D01*
X82043905Y-67842146D01*
X82030964Y-67882125D01*
X81990209Y-67959776D01*
X81949500Y-68124944D01*
X81949500Y-68295055D01*
X81990209Y-68460224D01*
X81990210Y-68460225D01*
X82069266Y-68610852D01*
X82147012Y-68698609D01*
X82182072Y-68738184D01*
X82252070Y-68786500D01*
X82322070Y-68834818D01*
X82481128Y-68895140D01*
X82607628Y-68910500D01*
X82611377Y-68910500D01*
X82688623Y-68910500D01*
X82692372Y-68910500D01*
X82818872Y-68895140D01*
X82977930Y-68834818D01*
X83117929Y-68738183D01*
X83230734Y-68610852D01*
X83309790Y-68460225D01*
X83350500Y-68295056D01*
X83350500Y-68124944D01*
X83309790Y-67959775D01*
X83269035Y-67882125D01*
X83255310Y-67813617D01*
X83280802Y-67748564D01*
X83337418Y-67707619D01*
X83378832Y-67700499D01*
X83794561Y-67700499D01*
X83797872Y-67700499D01*
X83857483Y-67694091D01*
X83992331Y-67643796D01*
X84107546Y-67557546D01*
X84193796Y-67442331D01*
X84244091Y-67307483D01*
X84250500Y-67247873D01*
X84250499Y-65652128D01*
X84244091Y-65592517D01*
X84193796Y-65457669D01*
X84171225Y-65427518D01*
X84148522Y-65375556D01*
X84143516Y-65348236D01*
X84142389Y-65340833D01*
X84139882Y-65320185D01*
X84135140Y-65281128D01*
X84135139Y-65281125D01*
X84131546Y-65271650D01*
X84125519Y-65250029D01*
X84123694Y-65240068D01*
X84099012Y-65185228D01*
X84096151Y-65178322D01*
X84074818Y-65122070D01*
X84069058Y-65113726D01*
X84058030Y-65094172D01*
X84053877Y-65084943D01*
X84016788Y-65037602D01*
X84012349Y-65031569D01*
X83978184Y-64982072D01*
X83969505Y-64974383D01*
X83933153Y-64942178D01*
X83927715Y-64937058D01*
X83712940Y-64722283D01*
X83707822Y-64716847D01*
X83667929Y-64671817D01*
X83618432Y-64637651D01*
X83612405Y-64633216D01*
X83577793Y-64606100D01*
X83565057Y-64596122D01*
X83565055Y-64596121D01*
X83565054Y-64596120D01*
X83555813Y-64591961D01*
X83536273Y-64580941D01*
X83527930Y-64575182D01*
X83527927Y-64575181D01*
X83527926Y-64575180D01*
X83471701Y-64553856D01*
X83464783Y-64550991D01*
X83409929Y-64526303D01*
X83399952Y-64524475D01*
X83378339Y-64518450D01*
X83368873Y-64514860D01*
X83309172Y-64507610D01*
X83301771Y-64506483D01*
X83242607Y-64495641D01*
X83182566Y-64499274D01*
X83175079Y-64499500D01*
X82468506Y-64499500D01*
X82401467Y-64479815D01*
X82355712Y-64427011D01*
X82345768Y-64357853D01*
X82374793Y-64294297D01*
X82430187Y-64257569D01*
X82593464Y-64204517D01*
X82791681Y-64097852D01*
X82967666Y-63957508D01*
X83115765Y-63787996D01*
X83231215Y-63594764D01*
X83253308Y-63535897D01*
X83295291Y-63480051D01*
X83360805Y-63455767D01*
X83429047Y-63470758D01*
X83478352Y-63520263D01*
X83481120Y-63525668D01*
X83562170Y-63693972D01*
X83630483Y-63787996D01*
X83694478Y-63876078D01*
X83857175Y-64031632D01*
X84045032Y-64155635D01*
X84252012Y-64244103D01*
X84471463Y-64294191D01*
X84676998Y-64303421D01*
X84696328Y-64304290D01*
X84696328Y-64304289D01*
X84696330Y-64304290D01*
X84919387Y-64274075D01*
X85133464Y-64204517D01*
X85331681Y-64097852D01*
X85507666Y-63957508D01*
X85655765Y-63787996D01*
X85771215Y-63594764D01*
X85793550Y-63535250D01*
X85835534Y-63479404D01*
X85901048Y-63455120D01*
X85969291Y-63470111D01*
X86018596Y-63519616D01*
X86021363Y-63525021D01*
X86102599Y-63693712D01*
X86234855Y-63875745D01*
X86397491Y-64031241D01*
X86585271Y-64155193D01*
X86792166Y-64243625D01*
X86929999Y-64275084D01*
X86930000Y-64275084D01*
X86930000Y-62735501D01*
X87037685Y-62784680D01*
X87144237Y-62800000D01*
X87215763Y-62800000D01*
X87322315Y-62784680D01*
X87430000Y-62735501D01*
X87430000Y-64277549D01*
X87459274Y-64273585D01*
X87673265Y-64204055D01*
X87871407Y-64097430D01*
X88047318Y-63957146D01*
X88195359Y-63787700D01*
X88310762Y-63594548D01*
X88389825Y-63383888D01*
X88430000Y-63162503D01*
X88430000Y-62550000D01*
X87613686Y-62550000D01*
X87639493Y-62509844D01*
X87680000Y-62371889D01*
X87680000Y-62228111D01*
X87639493Y-62090156D01*
X87613686Y-62050000D01*
X88430000Y-62050000D01*
X88430000Y-61496643D01*
X88429751Y-61491105D01*
X88414882Y-61325898D01*
X88355022Y-61109004D01*
X88257399Y-60906287D01*
X88125144Y-60724254D01*
X87962508Y-60568758D01*
X87774728Y-60444806D01*
X87567834Y-60356375D01*
X87430000Y-60324915D01*
X87430000Y-61864498D01*
X87322315Y-61815320D01*
X87215763Y-61800000D01*
X87144237Y-61800000D01*
X87037685Y-61815320D01*
X86929999Y-61864498D01*
X86929999Y-60322449D01*
X86929997Y-60322449D01*
X86900726Y-60326414D01*
X86686734Y-60395944D01*
X86488592Y-60502569D01*
X86312681Y-60642853D01*
X86164640Y-60812299D01*
X86049237Y-61005451D01*
X86026992Y-61064723D01*
X85985006Y-61120571D01*
X85919492Y-61144854D01*
X85851250Y-61129862D01*
X85801946Y-61080356D01*
X85799179Y-61074953D01*
X85717829Y-60906027D01*
X85585524Y-60723925D01*
X85585522Y-60723922D01*
X85422825Y-60568368D01*
X85422822Y-60568366D01*
X85422821Y-60568365D01*
X85234968Y-60444365D01*
X85027987Y-60355896D01*
X84808537Y-60305809D01*
X84583671Y-60295709D01*
X84360611Y-60325925D01*
X84146537Y-60395482D01*
X84098805Y-60421168D01*
X83948319Y-60502148D01*
X83948317Y-60502149D01*
X83948318Y-60502149D01*
X83772335Y-60642490D01*
X83624233Y-60812006D01*
X83508784Y-61005236D01*
X83486692Y-61064101D01*
X83444706Y-61119949D01*
X83379192Y-61144232D01*
X83310950Y-61129240D01*
X83261646Y-61079734D01*
X83258879Y-61074331D01*
X83225605Y-61005237D01*
X83177829Y-60906027D01*
X83045522Y-60723922D01*
X82882825Y-60568368D01*
X82882822Y-60568366D01*
X82882821Y-60568365D01*
X82694968Y-60444365D01*
X82487987Y-60355896D01*
X82268537Y-60305809D01*
X82043671Y-60295709D01*
X81820611Y-60325925D01*
X81606537Y-60395482D01*
X81558805Y-60421168D01*
X81408319Y-60502148D01*
X81408317Y-60502149D01*
X81408318Y-60502149D01*
X81232335Y-60642490D01*
X81084233Y-60812006D01*
X80968784Y-61005236D01*
X80946692Y-61064101D01*
X80904706Y-61119949D01*
X80839192Y-61144232D01*
X80770950Y-61129240D01*
X80721646Y-61079734D01*
X80718879Y-61074331D01*
X80685605Y-61005237D01*
X80637829Y-60906027D01*
X80505522Y-60723922D01*
X80342825Y-60568368D01*
X80342822Y-60568366D01*
X80342821Y-60568365D01*
X80154968Y-60444365D01*
X79947987Y-60355896D01*
X79728537Y-60305809D01*
X79503671Y-60295709D01*
X79280611Y-60325925D01*
X79066537Y-60395482D01*
X79018805Y-60421168D01*
X78868319Y-60502148D01*
X78868317Y-60502149D01*
X78868318Y-60502149D01*
X78692335Y-60642490D01*
X78544233Y-60812006D01*
X78428784Y-61005236D01*
X78406692Y-61064101D01*
X78364706Y-61119949D01*
X78299192Y-61144232D01*
X78230950Y-61129240D01*
X78181646Y-61079734D01*
X78178879Y-61074331D01*
X78145605Y-61005237D01*
X78097829Y-60906027D01*
X77965522Y-60723922D01*
X77802825Y-60568368D01*
X77802822Y-60568366D01*
X77802821Y-60568365D01*
X77614968Y-60444365D01*
X77407987Y-60355896D01*
X77188537Y-60305809D01*
X76963671Y-60295709D01*
X76740611Y-60325925D01*
X76526537Y-60395482D01*
X76478805Y-60421168D01*
X76328319Y-60502148D01*
X76328317Y-60502149D01*
X76328318Y-60502149D01*
X76152335Y-60642490D01*
X76004233Y-60812006D01*
X75888784Y-61005236D01*
X75866692Y-61064101D01*
X75824706Y-61119949D01*
X75759192Y-61144232D01*
X75690950Y-61129240D01*
X75641646Y-61079734D01*
X75638879Y-61074331D01*
X75605605Y-61005237D01*
X75557829Y-60906027D01*
X75425522Y-60723922D01*
X75262825Y-60568368D01*
X75262822Y-60568366D01*
X75262821Y-60568365D01*
X75074968Y-60444365D01*
X74867987Y-60355896D01*
X74648537Y-60305809D01*
X74423671Y-60295709D01*
X74200611Y-60325925D01*
X73986537Y-60395482D01*
X73938805Y-60421168D01*
X73788319Y-60502148D01*
X73788317Y-60502149D01*
X73788318Y-60502149D01*
X73612335Y-60642490D01*
X73464233Y-60812006D01*
X73348784Y-61005236D01*
X73326692Y-61064101D01*
X73284706Y-61119949D01*
X73219192Y-61144232D01*
X73150950Y-61129240D01*
X73101646Y-61079734D01*
X73098879Y-61074331D01*
X73065605Y-61005237D01*
X73017829Y-60906027D01*
X72885522Y-60723922D01*
X72722825Y-60568368D01*
X72722822Y-60568366D01*
X72722821Y-60568365D01*
X72534968Y-60444365D01*
X72327987Y-60355896D01*
X72108537Y-60305809D01*
X71883671Y-60295709D01*
X71660611Y-60325925D01*
X71446537Y-60395482D01*
X71398805Y-60421168D01*
X71248319Y-60502148D01*
X71248317Y-60502149D01*
X71248318Y-60502149D01*
X71072335Y-60642490D01*
X70924233Y-60812006D01*
X70808784Y-61005236D01*
X70786692Y-61064101D01*
X70744706Y-61119949D01*
X70679192Y-61144232D01*
X70610950Y-61129240D01*
X70561646Y-61079734D01*
X70558879Y-61074331D01*
X70525605Y-61005237D01*
X70477829Y-60906027D01*
X70345522Y-60723922D01*
X70182825Y-60568368D01*
X70182822Y-60568366D01*
X70182821Y-60568365D01*
X69994968Y-60444365D01*
X69787987Y-60355896D01*
X69568537Y-60305809D01*
X69343671Y-60295709D01*
X69120611Y-60325925D01*
X68906537Y-60395482D01*
X68858805Y-60421168D01*
X68708319Y-60502148D01*
X68708317Y-60502149D01*
X68708318Y-60502149D01*
X68532335Y-60642490D01*
X68384233Y-60812006D01*
X68268784Y-61005236D01*
X68246692Y-61064101D01*
X68204706Y-61119949D01*
X68139192Y-61144232D01*
X68070950Y-61129240D01*
X68021646Y-61079734D01*
X68018879Y-61074331D01*
X67985605Y-61005237D01*
X67937829Y-60906027D01*
X67805522Y-60723922D01*
X67642825Y-60568368D01*
X67642822Y-60568366D01*
X67642821Y-60568365D01*
X67454968Y-60444365D01*
X67247987Y-60355896D01*
X67028537Y-60305809D01*
X66803671Y-60295709D01*
X66580611Y-60325925D01*
X66366537Y-60395482D01*
X66318805Y-60421168D01*
X66168319Y-60502148D01*
X66168317Y-60502149D01*
X66168318Y-60502149D01*
X65992335Y-60642490D01*
X65844233Y-60812006D01*
X65728785Y-61005234D01*
X65706692Y-61064101D01*
X65664706Y-61119948D01*
X65599192Y-61144231D01*
X65530949Y-61129239D01*
X65481645Y-61079733D01*
X65478879Y-61074330D01*
X65399208Y-60908889D01*
X65387856Y-60839948D01*
X65415579Y-60775813D01*
X65423235Y-60767419D01*
X66453836Y-59736819D01*
X66515160Y-59703334D01*
X66541518Y-59700500D01*
X87658481Y-59700500D01*
X87725520Y-59720185D01*
X87746162Y-59736819D01*
X88663181Y-60653838D01*
X88696666Y-60715161D01*
X88699500Y-60741519D01*
X88699500Y-63758480D01*
X88679815Y-63825519D01*
X88663181Y-63846161D01*
X87346162Y-65163181D01*
X87284839Y-65196666D01*
X87258481Y-65199500D01*
X86624921Y-65199500D01*
X86617434Y-65199274D01*
X86557393Y-65195641D01*
X86547423Y-65197469D01*
X86525073Y-65199500D01*
X86005439Y-65199500D01*
X86005420Y-65199500D01*
X86002128Y-65199501D01*
X85998848Y-65199853D01*
X85998840Y-65199854D01*
X85942515Y-65205909D01*
X85807669Y-65256204D01*
X85692454Y-65342454D01*
X85606204Y-65457668D01*
X85555910Y-65592515D01*
X85555909Y-65592517D01*
X85549500Y-65652127D01*
X85549500Y-65655448D01*
X85549500Y-65655449D01*
X85549500Y-67244560D01*
X85549500Y-67244578D01*
X85549501Y-67247872D01*
X85549853Y-67251152D01*
X85549854Y-67251159D01*
X85555909Y-67307484D01*
X85575234Y-67359296D01*
X85580218Y-67428987D01*
X85546733Y-67490310D01*
X85494868Y-67518630D01*
X85495206Y-67519521D01*
X85488760Y-67521965D01*
X85485410Y-67523795D01*
X85482749Y-67524245D01*
X85322069Y-67585182D01*
X85182072Y-67681815D01*
X85069265Y-67809149D01*
X84990209Y-67959775D01*
X84949500Y-68124944D01*
X84949500Y-68295055D01*
X84990209Y-68460224D01*
X84990210Y-68460225D01*
X85069266Y-68610852D01*
X85147012Y-68698609D01*
X85182072Y-68738184D01*
X85252070Y-68786500D01*
X85322070Y-68834818D01*
X85481128Y-68895140D01*
X85607628Y-68910500D01*
X85611377Y-68910500D01*
X85688623Y-68910500D01*
X85692372Y-68910500D01*
X85818872Y-68895140D01*
X85977930Y-68834818D01*
X86117929Y-68738183D01*
X86230734Y-68610852D01*
X86309790Y-68460225D01*
X86350500Y-68295056D01*
X86350500Y-68124944D01*
X86309790Y-67959775D01*
X86269035Y-67882125D01*
X86255310Y-67813617D01*
X86280802Y-67748564D01*
X86337418Y-67707619D01*
X86378832Y-67700499D01*
X86762819Y-67700499D01*
X86829858Y-67720184D01*
X86862086Y-67750188D01*
X86942452Y-67857544D01*
X86942454Y-67857546D01*
X87057669Y-67943796D01*
X87192517Y-67994091D01*
X87252127Y-68000500D01*
X88347872Y-68000499D01*
X88407483Y-67994091D01*
X88542331Y-67943796D01*
X88657546Y-67857546D01*
X88743796Y-67742331D01*
X88794091Y-67607483D01*
X88800500Y-67547873D01*
X88800499Y-66652128D01*
X88794091Y-66592517D01*
X88743796Y-66457669D01*
X88657546Y-66342454D01*
X88542331Y-66256204D01*
X88542330Y-66256203D01*
X88542328Y-66256202D01*
X88498870Y-66239993D01*
X88442937Y-66198121D01*
X88418521Y-66132656D01*
X88433374Y-66064384D01*
X88454521Y-66036134D01*
X89787819Y-64702836D01*
X89849142Y-64669352D01*
X89918834Y-64674336D01*
X89974767Y-64716208D01*
X89999184Y-64781672D01*
X89999500Y-64790518D01*
X89999500Y-67995947D01*
X89999234Y-68004058D01*
X89994017Y-68083648D01*
X89981291Y-68261574D01*
X89979225Y-68276916D01*
X89956851Y-68389402D01*
X89926212Y-68530244D01*
X89922473Y-68543714D01*
X89883793Y-68657660D01*
X89882556Y-68661135D01*
X89834938Y-68788802D01*
X89829969Y-68800311D01*
X89775564Y-68910635D01*
X89773183Y-68915219D01*
X89709154Y-69032478D01*
X89703424Y-69041942D01*
X89634383Y-69145269D01*
X89630548Y-69150688D01*
X89551181Y-69256711D01*
X89545142Y-69264160D01*
X89462867Y-69357976D01*
X89457320Y-69363898D01*
X89363898Y-69457320D01*
X89357976Y-69462867D01*
X89264160Y-69545142D01*
X89256711Y-69551181D01*
X89150688Y-69630548D01*
X89145269Y-69634383D01*
X89041942Y-69703425D01*
X89032477Y-69709156D01*
X88983925Y-69735667D01*
X88915652Y-69750518D01*
X88850188Y-69726101D01*
X88808317Y-69670167D01*
X88800499Y-69626838D01*
X88800499Y-68862128D01*
X88794091Y-68802517D01*
X88743796Y-68667669D01*
X88657546Y-68552454D01*
X88542331Y-68466204D01*
X88407483Y-68415909D01*
X88347873Y-68409500D01*
X88344550Y-68409500D01*
X87255439Y-68409500D01*
X87255420Y-68409500D01*
X87252128Y-68409501D01*
X87248848Y-68409853D01*
X87248840Y-68409854D01*
X87192515Y-68415909D01*
X87057669Y-68466204D01*
X86942454Y-68552454D01*
X86856204Y-68667668D01*
X86805909Y-68802516D01*
X86801076Y-68847472D01*
X86799500Y-68862127D01*
X86799500Y-68865448D01*
X86799500Y-68865449D01*
X86799500Y-69754560D01*
X86799500Y-69754578D01*
X86799501Y-69757872D01*
X86799853Y-69761152D01*
X86799854Y-69761159D01*
X86805909Y-69817486D01*
X86811385Y-69832166D01*
X86816370Y-69901857D01*
X86782886Y-69963181D01*
X86721563Y-69996666D01*
X86695204Y-69999500D01*
X81604797Y-69999500D01*
X81537758Y-69979815D01*
X81492003Y-69927011D01*
X81482059Y-69857853D01*
X81488615Y-69832168D01*
X81494090Y-69817487D01*
X81494090Y-69817485D01*
X81494091Y-69817483D01*
X81500500Y-69757873D01*
X81500499Y-68862128D01*
X81494091Y-68802517D01*
X81443796Y-68667669D01*
X81357546Y-68552454D01*
X81242331Y-68466204D01*
X81107483Y-68415909D01*
X81047873Y-68409500D01*
X81044550Y-68409500D01*
X79955439Y-68409500D01*
X79955420Y-68409500D01*
X79952128Y-68409501D01*
X79948848Y-68409853D01*
X79948840Y-68409854D01*
X79892515Y-68415909D01*
X79757669Y-68466204D01*
X79642454Y-68552454D01*
X79556204Y-68667668D01*
X79505909Y-68802516D01*
X79501076Y-68847472D01*
X79499500Y-68862127D01*
X79499500Y-68865448D01*
X79499500Y-68865449D01*
X79499500Y-69754560D01*
X79499500Y-69754578D01*
X79499501Y-69757872D01*
X79499853Y-69761152D01*
X79499854Y-69761159D01*
X79505909Y-69817486D01*
X79511385Y-69832166D01*
X79516370Y-69901857D01*
X79482886Y-69963181D01*
X79421563Y-69996666D01*
X79395204Y-69999500D01*
X62004053Y-69999500D01*
X61995943Y-69999234D01*
X61916352Y-69994017D01*
X61738424Y-69981291D01*
X61723082Y-69979225D01*
X61665195Y-69967710D01*
X61610600Y-69956851D01*
X61469746Y-69926210D01*
X61456284Y-69922473D01*
X61342338Y-69883793D01*
X61338863Y-69882556D01*
X61211196Y-69834938D01*
X61199687Y-69829969D01*
X61134947Y-69798043D01*
X61089348Y-69775556D01*
X61084779Y-69773183D01*
X60967520Y-69709154D01*
X60958056Y-69703424D01*
X60854729Y-69634383D01*
X60849310Y-69630548D01*
X60793396Y-69588691D01*
X60743278Y-69551173D01*
X60735848Y-69545150D01*
X60642022Y-69462867D01*
X60636100Y-69457320D01*
X60542678Y-69363898D01*
X60537131Y-69357976D01*
X60505450Y-69321851D01*
X60454844Y-69264145D01*
X60448830Y-69256727D01*
X60369450Y-69150688D01*
X60365615Y-69145269D01*
X60296574Y-69041942D01*
X60290844Y-69032478D01*
X60265190Y-68985497D01*
X60226798Y-68915187D01*
X60224461Y-68910687D01*
X60170024Y-68800300D01*
X60165060Y-68788802D01*
X60117420Y-68661074D01*
X60116228Y-68657725D01*
X60077522Y-68543703D01*
X60073786Y-68530240D01*
X60043157Y-68389441D01*
X60020767Y-68276879D01*
X60018709Y-68261593D01*
X60005988Y-68083743D01*
X60000765Y-68004041D01*
X60000500Y-67995936D01*
X60000500Y-60029354D01*
X60000500Y-52004034D01*
X60000765Y-51995954D01*
X60005983Y-51916349D01*
X60007885Y-51889744D01*
X60016092Y-51775000D01*
X62175000Y-51775000D01*
X63150000Y-51775000D01*
X63150000Y-50937500D01*
X63650000Y-50937500D01*
X63650000Y-51775000D01*
X64624999Y-51775000D01*
X64875000Y-51775000D01*
X65850000Y-51775000D01*
X65849999Y-50937500D01*
X66350000Y-50937500D01*
X66350000Y-51775000D01*
X67324999Y-51775000D01*
X67324999Y-51640670D01*
X67324678Y-51634388D01*
X67314506Y-51534804D01*
X67259357Y-51368377D01*
X67167316Y-51219154D01*
X67043345Y-51095183D01*
X66894122Y-51003142D01*
X66727696Y-50947993D01*
X66628109Y-50937819D01*
X66621832Y-50937500D01*
X66350000Y-50937500D01*
X65849999Y-50937500D01*
X65578171Y-50937500D01*
X65571888Y-50937821D01*
X65472304Y-50947993D01*
X65305877Y-51003142D01*
X65156654Y-51095183D01*
X65032683Y-51219154D01*
X64940642Y-51368377D01*
X64885493Y-51534803D01*
X64875319Y-51634390D01*
X64875000Y-51640668D01*
X64875000Y-51775000D01*
X64624999Y-51775000D01*
X64624999Y-51640670D01*
X64624678Y-51634388D01*
X64614506Y-51534804D01*
X64559357Y-51368377D01*
X64467316Y-51219154D01*
X64343345Y-51095183D01*
X64194122Y-51003142D01*
X64027696Y-50947993D01*
X63928109Y-50937819D01*
X63921832Y-50937500D01*
X63650000Y-50937500D01*
X63150000Y-50937500D01*
X62878171Y-50937500D01*
X62871888Y-50937821D01*
X62772304Y-50947993D01*
X62605877Y-51003142D01*
X62456654Y-51095183D01*
X62332683Y-51219154D01*
X62240642Y-51368377D01*
X62185493Y-51534803D01*
X62175319Y-51634390D01*
X62175000Y-51640668D01*
X62175000Y-51775000D01*
X60016092Y-51775000D01*
X60018709Y-51738405D01*
X60020770Y-51723101D01*
X60043163Y-51610523D01*
X60073795Y-51469717D01*
X60077515Y-51456318D01*
X60116243Y-51342230D01*
X60117404Y-51338967D01*
X60165068Y-51211177D01*
X60170017Y-51199713D01*
X60224481Y-51089272D01*
X60226777Y-51084851D01*
X60290855Y-50967501D01*
X60296562Y-50958075D01*
X60365639Y-50854694D01*
X60369425Y-50849344D01*
X60448850Y-50743246D01*
X60454823Y-50735878D01*
X60537161Y-50641989D01*
X60542648Y-50636131D01*
X60636131Y-50542648D01*
X60641989Y-50537161D01*
X60735878Y-50454823D01*
X60743246Y-50448850D01*
X60849344Y-50369425D01*
X60854694Y-50365639D01*
X60958075Y-50296562D01*
X60967501Y-50290855D01*
X61084851Y-50226777D01*
X61089272Y-50224481D01*
X61199713Y-50170017D01*
X61211177Y-50165068D01*
X61338967Y-50117404D01*
X61342230Y-50116243D01*
X61456305Y-50077519D01*
X61469754Y-50073787D01*
X61610546Y-50043159D01*
X61723125Y-50020766D01*
X61738402Y-50018709D01*
X61916208Y-50005991D01*
X61992267Y-50001006D01*
X61995958Y-50000765D01*
X62004063Y-50000500D01*
X87995935Y-50000500D01*
X88004042Y-50000764D01*
G37*
%TD.AperFunction*%
%TD*%
M02*
