%TF.GenerationSoftware,KiCad,Pcbnew,7.0.2*%
%TF.CreationDate,2023-05-14T05:20:11+02:00*%
%TF.ProjectId,marauder_mini_pcb,6d617261-7564-4657-925f-6d696e695f70,rev?*%
%TF.SameCoordinates,Original*%
%TF.FileFunction,Soldermask,Top*%
%TF.FilePolarity,Negative*%
%FSLAX46Y46*%
G04 Gerber Fmt 4.6, Leading zero omitted, Abs format (unit mm)*
G04 Created by KiCad (PCBNEW 7.0.2) date 2023-05-14 05:20:11*
%MOMM*%
%LPD*%
G01*
G04 APERTURE LIST*
%ADD10R,0.900000X1.500000*%
%ADD11R,1.500000X0.900000*%
%ADD12O,1.500000X3.000000*%
%ADD13C,0.900000*%
G04 APERTURE END LIST*
D10*
%TO.C,U1*%
X79210000Y-51200000D03*
X77940000Y-51200000D03*
X76670000Y-51200000D03*
X75400000Y-51200000D03*
X74130000Y-51200000D03*
X72860000Y-51200000D03*
X71590000Y-51200000D03*
X70320000Y-51200000D03*
X69050000Y-51200000D03*
X67780000Y-51200000D03*
X66510000Y-51200000D03*
X65240000Y-51200000D03*
X63970000Y-51200000D03*
X62700000Y-51200000D03*
D11*
X61605000Y-54235000D03*
X61605000Y-55505000D03*
X61605000Y-56775000D03*
X61605000Y-58045000D03*
X61605000Y-59315000D03*
X61605000Y-60585000D03*
X61605000Y-61855000D03*
X61605000Y-63125000D03*
X61605000Y-64395000D03*
X61605000Y-65665000D03*
D10*
X62700000Y-68700000D03*
X63970000Y-68700000D03*
X65240000Y-68700000D03*
X66510000Y-68700000D03*
X67780000Y-68700000D03*
X69050000Y-68700000D03*
X70320000Y-68700000D03*
X71590000Y-68700000D03*
X72860000Y-68700000D03*
X74130000Y-68700000D03*
X75400000Y-68700000D03*
X76670000Y-68700000D03*
X77940000Y-68700000D03*
X79210000Y-68700000D03*
%TD*%
D12*
%TO.C,J1*%
X87180000Y-62300000D03*
X84640000Y-62300000D03*
X82100000Y-62300000D03*
X79560000Y-62300000D03*
X77020000Y-62300000D03*
X74480000Y-62300000D03*
X71940000Y-62300000D03*
X69400000Y-62300000D03*
X66860000Y-62300000D03*
X64320000Y-62300000D03*
%TD*%
D13*
%TO.C,SW1*%
X85650000Y-68210000D03*
X82650000Y-68210000D03*
%TD*%
M02*
