%TF.GenerationSoftware,KiCad,Pcbnew,7.0.2-1.fc38*%
%TF.CreationDate,2023-05-15T15:28:07+02:00*%
%TF.ProjectId,marauder_mini_pcb,6d617261-7564-4657-925f-6d696e695f70,rev?*%
%TF.SameCoordinates,Original*%
%TF.FileFunction,Copper,L2,Bot*%
%TF.FilePolarity,Positive*%
%FSLAX46Y46*%
G04 Gerber Fmt 4.6, Leading zero omitted, Abs format (unit mm)*
G04 Created by KiCad (PCBNEW 7.0.2-1.fc38) date 2023-05-15 15:28:07*
%MOMM*%
%LPD*%
G01*
G04 APERTURE LIST*
G04 Aperture macros list*
%AMRoundRect*
0 Rectangle with rounded corners*
0 $1 Rounding radius*
0 $2 $3 $4 $5 $6 $7 $8 $9 X,Y pos of 4 corners*
0 Add a 4 corners polygon primitive as box body*
4,1,4,$2,$3,$4,$5,$6,$7,$8,$9,$2,$3,0*
0 Add four circle primitives for the rounded corners*
1,1,$1+$1,$2,$3*
1,1,$1+$1,$4,$5*
1,1,$1+$1,$6,$7*
1,1,$1+$1,$8,$9*
0 Add four rect primitives between the rounded corners*
20,1,$1+$1,$2,$3,$4,$5,0*
20,1,$1+$1,$4,$5,$6,$7,0*
20,1,$1+$1,$6,$7,$8,$9,0*
20,1,$1+$1,$8,$9,$2,$3,0*%
%AMFreePoly0*
4,1,19,0.500000,-0.750000,0.000000,-0.750000,0.000000,-0.744911,-0.071157,-0.744911,-0.207708,-0.704816,-0.327430,-0.627875,-0.420627,-0.520320,-0.479746,-0.390866,-0.500000,-0.250000,-0.500000,0.250000,-0.479746,0.390866,-0.420627,0.520320,-0.327430,0.627875,-0.207708,0.704816,-0.071157,0.744911,0.000000,0.744911,0.000000,0.750000,0.500000,0.750000,0.500000,-0.750000,0.500000,-0.750000,
$1*%
%AMFreePoly1*
4,1,19,0.000000,0.744911,0.071157,0.744911,0.207708,0.704816,0.327430,0.627875,0.420627,0.520320,0.479746,0.390866,0.500000,0.250000,0.500000,-0.250000,0.479746,-0.390866,0.420627,-0.520320,0.327430,-0.627875,0.207708,-0.704816,0.071157,-0.744911,0.000000,-0.744911,0.000000,-0.750000,-0.500000,-0.750000,-0.500000,0.750000,0.000000,0.750000,0.000000,0.744911,0.000000,0.744911,
$1*%
G04 Aperture macros list end*
%TA.AperFunction,SMDPad,CuDef*%
%ADD10R,1.000000X0.800000*%
%TD*%
%TA.AperFunction,SMDPad,CuDef*%
%ADD11R,0.700000X1.500000*%
%TD*%
%TA.AperFunction,ComponentPad*%
%ADD12O,1.500000X3.000000*%
%TD*%
%TA.AperFunction,SMDPad,CuDef*%
%ADD13RoundRect,0.250000X0.475000X-0.337500X0.475000X0.337500X-0.475000X0.337500X-0.475000X-0.337500X0*%
%TD*%
%TA.AperFunction,SMDPad,CuDef*%
%ADD14RoundRect,0.250000X0.337500X0.475000X-0.337500X0.475000X-0.337500X-0.475000X0.337500X-0.475000X0*%
%TD*%
%TA.AperFunction,SMDPad,CuDef*%
%ADD15FreePoly0,90.000000*%
%TD*%
%TA.AperFunction,SMDPad,CuDef*%
%ADD16FreePoly1,90.000000*%
%TD*%
%TA.AperFunction,ViaPad*%
%ADD17C,0.800000*%
%TD*%
%TA.AperFunction,Conductor*%
%ADD18C,0.300000*%
%TD*%
%TA.AperFunction,Conductor*%
%ADD19C,0.250000*%
%TD*%
%TA.AperFunction,Conductor*%
%ADD20C,0.400000*%
%TD*%
G04 APERTURE END LIST*
D10*
%TO.P,SW1,*%
%TO.N,*%
X66350000Y-59355000D03*
X66350000Y-57145000D03*
X59050000Y-59355000D03*
X59050000Y-57145000D03*
D11*
%TO.P,SW1,1,A*%
%TO.N,Net-(SW1-A)*%
X64950000Y-56495000D03*
%TO.P,SW1,2,B*%
%TO.N,Net-(J1-Pin_10)*%
X61950000Y-56495000D03*
%TO.P,SW1,3,C*%
%TO.N,unconnected-(SW1-C-Pad3)*%
X60450000Y-56495000D03*
%TD*%
D12*
%TO.P,J1,1,Pin_1*%
%TO.N,GND*%
X66500000Y-52375000D03*
%TO.P,J1,2,Pin_2*%
%TO.N,unconnected-(J1-Pin_2-Pad2)*%
X63960000Y-52375000D03*
%TO.P,J1,3,Pin_3*%
%TO.N,Net-(J1-Pin_3)*%
X61420000Y-52375000D03*
%TO.P,J1,4,Pin_4*%
%TO.N,Net-(J1-Pin_4)*%
X58880000Y-52375000D03*
%TO.P,J1,5,Pin_5*%
%TO.N,Net-(J1-Pin_5)*%
X56340000Y-52375000D03*
%TO.P,J1,6,Pin_6*%
%TO.N,Net-(J1-Pin_6)*%
X53800000Y-52375000D03*
%TO.P,J1,7,Pin_7*%
%TO.N,unconnected-(J1-Pin_7-Pad7)*%
X51260000Y-52375000D03*
%TO.P,J1,8,Pin_8*%
%TO.N,GND*%
X48720000Y-52375000D03*
%TO.P,J1,9,Pin_9*%
%TO.N,unconnected-(J1-Pin_9-Pad9)*%
X46180000Y-52375000D03*
%TO.P,J1,10,Pin_10*%
%TO.N,Net-(J1-Pin_10)*%
X43640000Y-52375000D03*
%TD*%
D13*
%TO.P,C1,1*%
%TO.N,Net-(SW1-A)*%
X45500000Y-43637500D03*
%TO.P,C1,2*%
%TO.N,GND*%
X45500000Y-41562500D03*
%TD*%
D14*
%TO.P,R1,2*%
%TO.N,Net-(SW1-A)*%
X48562500Y-58400000D03*
%TO.P,R1,1*%
%TO.N,Net-(D1-A)*%
X50637500Y-58400000D03*
%TD*%
D15*
%TO.P,JP1,1,A*%
%TO.N,Net-(JP1-A)*%
X42200000Y-43300000D03*
D16*
%TO.P,JP1,2,B*%
%TO.N,GND*%
X42200000Y-42000000D03*
%TD*%
D13*
%TO.P,C2,1*%
%TO.N,Net-(SW1-A)*%
X47900000Y-43637500D03*
%TO.P,C2,2*%
%TO.N,GND*%
X47900000Y-41562500D03*
%TD*%
D14*
%TO.P,LED/IO04,1,K*%
%TO.N,Net-(D1-K)*%
X55037500Y-58400000D03*
%TO.P,LED/IO04,2,A*%
%TO.N,Net-(D1-A)*%
X52962500Y-58400000D03*
%TD*%
D17*
%TO.N,Net-(D1-K)*%
X44200000Y-56600000D03*
%TO.N,GND*%
X57200000Y-56800000D03*
%TO.N,Net-(J1-Pin_4)*%
X57700000Y-48200000D03*
%TO.N,Net-(JP1-A)*%
X42200000Y-57000000D03*
%TO.N,Net-(SW1-A)*%
X49800000Y-43900000D03*
%TD*%
D18*
%TO.N,Net-(SW1-A)*%
X64950000Y-56495000D02*
X63155000Y-54700000D01*
X63155000Y-54700000D02*
X46000000Y-54700000D01*
X46000000Y-54700000D02*
X44900000Y-53600000D01*
X44900000Y-53600000D02*
X44900000Y-44237500D01*
X44900000Y-44237500D02*
X45500000Y-43637500D01*
X45500000Y-43637500D02*
X49537500Y-43637500D01*
X49537500Y-43637500D02*
X49800000Y-43900000D01*
D19*
%TO.N,Net-(JP1-A)*%
X42200000Y-57000000D02*
X40900000Y-55700000D01*
X40900000Y-55700000D02*
X40900000Y-44600000D01*
X40900000Y-44600000D02*
X42200000Y-43300000D01*
%TO.N,Net-(SW1-A)*%
X48562500Y-58400000D02*
X47200000Y-58400000D01*
X47200000Y-58400000D02*
X43900000Y-55100000D01*
X43900000Y-55100000D02*
X42600000Y-55100000D01*
X42600000Y-55100000D02*
X41800000Y-54300000D01*
X41800000Y-54300000D02*
X41800000Y-50100000D01*
X41800000Y-50100000D02*
X42200000Y-49700000D01*
X42200000Y-49700000D02*
X44900000Y-49700000D01*
%TO.N,Net-(D1-K)*%
X53987500Y-59450000D02*
X55037500Y-58400000D01*
X47050000Y-59450000D02*
X53987500Y-59450000D01*
X44200000Y-56600000D02*
X47050000Y-59450000D01*
%TO.N,Net-(D1-A)*%
X52962500Y-58400000D02*
X50637500Y-58400000D01*
D20*
%TO.N,Net-(J1-Pin_10)*%
X43640000Y-52375000D02*
X43640000Y-53340000D01*
X61950000Y-56095000D02*
X61950000Y-56495000D01*
X61200000Y-55345000D02*
X61950000Y-56095000D01*
X45345000Y-55345000D02*
X61200000Y-55345000D01*
X43640000Y-52375000D02*
X43640000Y-53640000D01*
X43640000Y-53640000D02*
X45345000Y-55345000D01*
D19*
%TO.N,Net-(J1-Pin_4)*%
X57700000Y-48200000D02*
X58880000Y-49380000D01*
X58880000Y-49380000D02*
X58880000Y-52375000D01*
%TD*%
%TA.AperFunction,Conductor*%
%TO.N,GND*%
G36*
X67398337Y-40087118D02*
G01*
X67433843Y-40103675D01*
X67439891Y-40106699D01*
X67519046Y-40149008D01*
X67531710Y-40156786D01*
X67592897Y-40199630D01*
X67600430Y-40205346D01*
X67668455Y-40261172D01*
X67677472Y-40269345D01*
X67730653Y-40322526D01*
X67738826Y-40331543D01*
X67794652Y-40399568D01*
X67800373Y-40407109D01*
X67843209Y-40468286D01*
X67850992Y-40480955D01*
X67893302Y-40560110D01*
X67896322Y-40566151D01*
X67912881Y-40601662D01*
X67924500Y-40654066D01*
X67924500Y-59345932D01*
X67912881Y-59398339D01*
X67896327Y-59433837D01*
X67893304Y-59439884D01*
X67850990Y-59519047D01*
X67843207Y-59531717D01*
X67800373Y-59592890D01*
X67794652Y-59600430D01*
X67738826Y-59668455D01*
X67730653Y-59677472D01*
X67677472Y-59730653D01*
X67668455Y-59738826D01*
X67600430Y-59794652D01*
X67592888Y-59800374D01*
X67545621Y-59833470D01*
X67479415Y-59855797D01*
X67411648Y-59838785D01*
X67363836Y-59787837D01*
X67350499Y-59731897D01*
X67350499Y-58907128D01*
X67344091Y-58847517D01*
X67293796Y-58712669D01*
X67207546Y-58597454D01*
X67092331Y-58511204D01*
X66957483Y-58460909D01*
X66897873Y-58454500D01*
X66894550Y-58454500D01*
X65805439Y-58454500D01*
X65805420Y-58454500D01*
X65802128Y-58454501D01*
X65798848Y-58454853D01*
X65798840Y-58454854D01*
X65742515Y-58460909D01*
X65607669Y-58511204D01*
X65492454Y-58597454D01*
X65406204Y-58712668D01*
X65355910Y-58847515D01*
X65355909Y-58847517D01*
X65349500Y-58907127D01*
X65349500Y-58910448D01*
X65349500Y-58910449D01*
X65349501Y-59800500D01*
X65329817Y-59867539D01*
X65277013Y-59913294D01*
X65225501Y-59924500D01*
X60174500Y-59924500D01*
X60107461Y-59904815D01*
X60061706Y-59852011D01*
X60050500Y-59800500D01*
X60050499Y-58910439D01*
X60050499Y-58907128D01*
X60044091Y-58847517D01*
X59993796Y-58712669D01*
X59907546Y-58597454D01*
X59792331Y-58511204D01*
X59657483Y-58460909D01*
X59597873Y-58454500D01*
X59594550Y-58454500D01*
X58505439Y-58454500D01*
X58505420Y-58454500D01*
X58502128Y-58454501D01*
X58498848Y-58454853D01*
X58498840Y-58454854D01*
X58442515Y-58460909D01*
X58307669Y-58511204D01*
X58192454Y-58597454D01*
X58106204Y-58712668D01*
X58055910Y-58847515D01*
X58055909Y-58847517D01*
X58049500Y-58907127D01*
X58049500Y-58910448D01*
X58049500Y-58910449D01*
X58049501Y-59800500D01*
X58029817Y-59867539D01*
X57977013Y-59913294D01*
X57925501Y-59924500D01*
X54696951Y-59924500D01*
X54629912Y-59904815D01*
X54584157Y-59852011D01*
X54574213Y-59782853D01*
X54603238Y-59719297D01*
X54609270Y-59712819D01*
X54660271Y-59661818D01*
X54721594Y-59628333D01*
X54747952Y-59625499D01*
X55421859Y-59625499D01*
X55425008Y-59625499D01*
X55527797Y-59614999D01*
X55694334Y-59559814D01*
X55843656Y-59467712D01*
X55967712Y-59343656D01*
X56059814Y-59194334D01*
X56114999Y-59027797D01*
X56125500Y-58925009D01*
X56125499Y-57874992D01*
X56114999Y-57772203D01*
X56059814Y-57605666D01*
X55998281Y-57505905D01*
X55967711Y-57456342D01*
X55843657Y-57332288D01*
X55694334Y-57240186D01*
X55527797Y-57185000D01*
X55428141Y-57174819D01*
X55428122Y-57174818D01*
X55425009Y-57174500D01*
X55421860Y-57174500D01*
X54653141Y-57174500D01*
X54653121Y-57174500D01*
X54649992Y-57174501D01*
X54646860Y-57174820D01*
X54646858Y-57174821D01*
X54547203Y-57185000D01*
X54380665Y-57240186D01*
X54231342Y-57332288D01*
X54107286Y-57456344D01*
X54105537Y-57459181D01*
X54053588Y-57505905D01*
X53984626Y-57517125D01*
X53920544Y-57489280D01*
X53894463Y-57459181D01*
X53892713Y-57456344D01*
X53768657Y-57332288D01*
X53619334Y-57240186D01*
X53452797Y-57185000D01*
X53353141Y-57174819D01*
X53353122Y-57174818D01*
X53350009Y-57174500D01*
X53346860Y-57174500D01*
X52578141Y-57174500D01*
X52578121Y-57174500D01*
X52574992Y-57174501D01*
X52571860Y-57174820D01*
X52571858Y-57174821D01*
X52472203Y-57185000D01*
X52305665Y-57240186D01*
X52156342Y-57332288D01*
X52032288Y-57456342D01*
X51940186Y-57605665D01*
X51917706Y-57673506D01*
X51877933Y-57730951D01*
X51813417Y-57757774D01*
X51744641Y-57745459D01*
X51693441Y-57697916D01*
X51682294Y-57673506D01*
X51675328Y-57652484D01*
X51659814Y-57605666D01*
X51598281Y-57505905D01*
X51567711Y-57456342D01*
X51443657Y-57332288D01*
X51294334Y-57240186D01*
X51127797Y-57185000D01*
X51028141Y-57174819D01*
X51028122Y-57174818D01*
X51025009Y-57174500D01*
X51021860Y-57174500D01*
X50253141Y-57174500D01*
X50253121Y-57174500D01*
X50249992Y-57174501D01*
X50246860Y-57174820D01*
X50246858Y-57174821D01*
X50147203Y-57185000D01*
X49980665Y-57240186D01*
X49831342Y-57332288D01*
X49707286Y-57456344D01*
X49705537Y-57459181D01*
X49653588Y-57505905D01*
X49584626Y-57517125D01*
X49520544Y-57489280D01*
X49494463Y-57459181D01*
X49492713Y-57456344D01*
X49368657Y-57332288D01*
X49219334Y-57240186D01*
X49052797Y-57185000D01*
X48953141Y-57174819D01*
X48953122Y-57174818D01*
X48950009Y-57174500D01*
X48946860Y-57174500D01*
X48178141Y-57174500D01*
X48178121Y-57174500D01*
X48174992Y-57174501D01*
X48171860Y-57174820D01*
X48171858Y-57174821D01*
X48072203Y-57185000D01*
X47905665Y-57240186D01*
X47756342Y-57332288D01*
X47632288Y-57456342D01*
X47562271Y-57569860D01*
X47542111Y-57602546D01*
X47532578Y-57618001D01*
X47531139Y-57617113D01*
X47501440Y-57660008D01*
X47436924Y-57686829D01*
X47368148Y-57674513D01*
X47335828Y-57651238D01*
X45941772Y-56257181D01*
X45908287Y-56195858D01*
X45913271Y-56126166D01*
X45955143Y-56070233D01*
X46020607Y-56045816D01*
X46029453Y-56045500D01*
X58305953Y-56045500D01*
X58372992Y-56065185D01*
X58418747Y-56117989D01*
X58428691Y-56187147D01*
X58399666Y-56250703D01*
X58349288Y-56285680D01*
X58325566Y-56294528D01*
X58307668Y-56301204D01*
X58192454Y-56387454D01*
X58106204Y-56502668D01*
X58055910Y-56637515D01*
X58055909Y-56637517D01*
X58049500Y-56697127D01*
X58049500Y-56700448D01*
X58049500Y-56700449D01*
X58049500Y-57589560D01*
X58049500Y-57589578D01*
X58049501Y-57592872D01*
X58049853Y-57596152D01*
X58049854Y-57596159D01*
X58055909Y-57652484D01*
X58068719Y-57686829D01*
X58106204Y-57787331D01*
X58192454Y-57902546D01*
X58307669Y-57988796D01*
X58442517Y-58039091D01*
X58502127Y-58045500D01*
X59597872Y-58045499D01*
X59657483Y-58039091D01*
X59792331Y-57988796D01*
X59907546Y-57902546D01*
X59987914Y-57795188D01*
X60043846Y-57753317D01*
X60087174Y-57745499D01*
X60471168Y-57745499D01*
X60538206Y-57765184D01*
X60583961Y-57817988D01*
X60593905Y-57887146D01*
X60580964Y-57927125D01*
X60540209Y-58004776D01*
X60499500Y-58169944D01*
X60499500Y-58340055D01*
X60540209Y-58505224D01*
X60540210Y-58505225D01*
X60619266Y-58655852D01*
X60732071Y-58783183D01*
X60872070Y-58879818D01*
X61031128Y-58940140D01*
X61157628Y-58955500D01*
X61161377Y-58955500D01*
X61238623Y-58955500D01*
X61242372Y-58955500D01*
X61368872Y-58940140D01*
X61527930Y-58879818D01*
X61667929Y-58783183D01*
X61780734Y-58655852D01*
X61859790Y-58505225D01*
X61900500Y-58340056D01*
X61900500Y-58169944D01*
X61859790Y-58004775D01*
X61819035Y-57927125D01*
X61805310Y-57858617D01*
X61830802Y-57793564D01*
X61887418Y-57752619D01*
X61928832Y-57745499D01*
X62344561Y-57745499D01*
X62347872Y-57745499D01*
X62407483Y-57739091D01*
X62542331Y-57688796D01*
X62657546Y-57602546D01*
X62743796Y-57487331D01*
X62794091Y-57352483D01*
X62800500Y-57292873D01*
X62800499Y-55697128D01*
X62794091Y-55637517D01*
X62768153Y-55567975D01*
X62763170Y-55498286D01*
X62796655Y-55436963D01*
X62857978Y-55403478D01*
X62927670Y-55408462D01*
X62972017Y-55436963D01*
X64063181Y-56528127D01*
X64096666Y-56589450D01*
X64099500Y-56615808D01*
X64099500Y-57289560D01*
X64099500Y-57289578D01*
X64099501Y-57292872D01*
X64099853Y-57296152D01*
X64099854Y-57296159D01*
X64105909Y-57352484D01*
X64125234Y-57404296D01*
X64130218Y-57473987D01*
X64096733Y-57535310D01*
X64044868Y-57563630D01*
X64045206Y-57564521D01*
X64038760Y-57566965D01*
X64035410Y-57568795D01*
X64032749Y-57569245D01*
X63872069Y-57630182D01*
X63732072Y-57726815D01*
X63619265Y-57854149D01*
X63540209Y-58004775D01*
X63499500Y-58169944D01*
X63499500Y-58340055D01*
X63540209Y-58505224D01*
X63540210Y-58505225D01*
X63619266Y-58655852D01*
X63732071Y-58783183D01*
X63872070Y-58879818D01*
X64031128Y-58940140D01*
X64157628Y-58955500D01*
X64161377Y-58955500D01*
X64238623Y-58955500D01*
X64242372Y-58955500D01*
X64368872Y-58940140D01*
X64527930Y-58879818D01*
X64667929Y-58783183D01*
X64780734Y-58655852D01*
X64859790Y-58505225D01*
X64900500Y-58340056D01*
X64900500Y-58169944D01*
X64859790Y-58004775D01*
X64819035Y-57927125D01*
X64805310Y-57858617D01*
X64830802Y-57793564D01*
X64887418Y-57752619D01*
X64928832Y-57745499D01*
X65312819Y-57745499D01*
X65379858Y-57765184D01*
X65412086Y-57795188D01*
X65492452Y-57902544D01*
X65492454Y-57902546D01*
X65607669Y-57988796D01*
X65742517Y-58039091D01*
X65802127Y-58045500D01*
X66897872Y-58045499D01*
X66957483Y-58039091D01*
X67092331Y-57988796D01*
X67207546Y-57902546D01*
X67293796Y-57787331D01*
X67344091Y-57652483D01*
X67350500Y-57592873D01*
X67350499Y-56697128D01*
X67344091Y-56637517D01*
X67293796Y-56502669D01*
X67207546Y-56387454D01*
X67092331Y-56301204D01*
X66957483Y-56250909D01*
X66897873Y-56244500D01*
X66894551Y-56244500D01*
X65924498Y-56244500D01*
X65857459Y-56224815D01*
X65811704Y-56172011D01*
X65800499Y-56120504D01*
X65800499Y-55697128D01*
X65794091Y-55637517D01*
X65743796Y-55502669D01*
X65657546Y-55387454D01*
X65542331Y-55301204D01*
X65407483Y-55250909D01*
X65347873Y-55244500D01*
X65344551Y-55244500D01*
X64670808Y-55244500D01*
X64603769Y-55224815D01*
X64583127Y-55208181D01*
X63962468Y-54587522D01*
X63928983Y-54526199D01*
X63933967Y-54456507D01*
X63975839Y-54400574D01*
X64033503Y-54376963D01*
X64239387Y-54349075D01*
X64453464Y-54279517D01*
X64651681Y-54172852D01*
X64827666Y-54032508D01*
X64975765Y-53862996D01*
X65091215Y-53669764D01*
X65170307Y-53459024D01*
X65210500Y-53237547D01*
X65210500Y-51568845D01*
X65195377Y-51400812D01*
X65135493Y-51183830D01*
X65037829Y-50981027D01*
X64905522Y-50798922D01*
X64742825Y-50643368D01*
X64742822Y-50643366D01*
X64742821Y-50643365D01*
X64554968Y-50519365D01*
X64347987Y-50430896D01*
X64128537Y-50380809D01*
X63903671Y-50370709D01*
X63680611Y-50400925D01*
X63466537Y-50470482D01*
X63375698Y-50519365D01*
X63268319Y-50577148D01*
X63268317Y-50577149D01*
X63268318Y-50577149D01*
X63092335Y-50717490D01*
X62944233Y-50887006D01*
X62828784Y-51080236D01*
X62806692Y-51139101D01*
X62764706Y-51194949D01*
X62699192Y-51219232D01*
X62630950Y-51204240D01*
X62581646Y-51154734D01*
X62578879Y-51149331D01*
X62545605Y-51080237D01*
X62497829Y-50981027D01*
X62365522Y-50798922D01*
X62202825Y-50643368D01*
X62202822Y-50643366D01*
X62202821Y-50643365D01*
X62014968Y-50519365D01*
X61807987Y-50430896D01*
X61588537Y-50380809D01*
X61363671Y-50370709D01*
X61140611Y-50400925D01*
X60926537Y-50470482D01*
X60835698Y-50519365D01*
X60728319Y-50577148D01*
X60728317Y-50577149D01*
X60728318Y-50577149D01*
X60552335Y-50717490D01*
X60404233Y-50887006D01*
X60288784Y-51080236D01*
X60266692Y-51139101D01*
X60224706Y-51194949D01*
X60159192Y-51219232D01*
X60090950Y-51204240D01*
X60041646Y-51154734D01*
X60038879Y-51149331D01*
X60005605Y-51080237D01*
X59957829Y-50981027D01*
X59825522Y-50798922D01*
X59662825Y-50643368D01*
X59662822Y-50643366D01*
X59662820Y-50643364D01*
X59561188Y-50576276D01*
X59516083Y-50522916D01*
X59505500Y-50472790D01*
X59505500Y-49462743D01*
X59507764Y-49442239D01*
X59505561Y-49372126D01*
X59505500Y-49368231D01*
X59505500Y-49344540D01*
X59505500Y-49340650D01*
X59504998Y-49336677D01*
X59504080Y-49325018D01*
X59503538Y-49307761D01*
X59502709Y-49281373D01*
X59497120Y-49262140D01*
X59493174Y-49243082D01*
X59490664Y-49223206D01*
X59474588Y-49182604D01*
X59470804Y-49171553D01*
X59464881Y-49151168D01*
X59458618Y-49129610D01*
X59448414Y-49112355D01*
X59439861Y-49094895D01*
X59436666Y-49086825D01*
X59432486Y-49076268D01*
X59406808Y-49040925D01*
X59400401Y-49031171D01*
X59378169Y-48993579D01*
X59364006Y-48979416D01*
X59351367Y-48964617D01*
X59339595Y-48948413D01*
X59305941Y-48920573D01*
X59297299Y-48912709D01*
X58638960Y-48254369D01*
X58605475Y-48193046D01*
X58603323Y-48179668D01*
X58585674Y-48011744D01*
X58527179Y-47831716D01*
X58527179Y-47831715D01*
X58432533Y-47667783D01*
X58305870Y-47527110D01*
X58152730Y-47415848D01*
X57979802Y-47338855D01*
X57794648Y-47299500D01*
X57794646Y-47299500D01*
X57605354Y-47299500D01*
X57605352Y-47299500D01*
X57420197Y-47338855D01*
X57247269Y-47415848D01*
X57094129Y-47527110D01*
X56967466Y-47667783D01*
X56872820Y-47831715D01*
X56814326Y-48011742D01*
X56794540Y-48199999D01*
X56814326Y-48388257D01*
X56872820Y-48568284D01*
X56967466Y-48732216D01*
X57094129Y-48872889D01*
X57247269Y-48984151D01*
X57420197Y-49061144D01*
X57605352Y-49100500D01*
X57605354Y-49100500D01*
X57664548Y-49100500D01*
X57731587Y-49120185D01*
X57752229Y-49136819D01*
X58218181Y-49602771D01*
X58251666Y-49664094D01*
X58254500Y-49690452D01*
X58254500Y-50467447D01*
X58234815Y-50534486D01*
X58196699Y-50569758D01*
X58197044Y-50570190D01*
X58191182Y-50574864D01*
X58189267Y-50576637D01*
X58188321Y-50577145D01*
X58012335Y-50717490D01*
X57864233Y-50887006D01*
X57748784Y-51080236D01*
X57726692Y-51139101D01*
X57684706Y-51194949D01*
X57619192Y-51219232D01*
X57550950Y-51204240D01*
X57501646Y-51154734D01*
X57498879Y-51149331D01*
X57465605Y-51080237D01*
X57417829Y-50981027D01*
X57285522Y-50798922D01*
X57122825Y-50643368D01*
X57122822Y-50643366D01*
X57122821Y-50643365D01*
X56934968Y-50519365D01*
X56727987Y-50430896D01*
X56508537Y-50380809D01*
X56283671Y-50370709D01*
X56060611Y-50400925D01*
X55846537Y-50470482D01*
X55755698Y-50519365D01*
X55648319Y-50577148D01*
X55648317Y-50577149D01*
X55648318Y-50577149D01*
X55472335Y-50717490D01*
X55324233Y-50887006D01*
X55208784Y-51080236D01*
X55186692Y-51139101D01*
X55144706Y-51194949D01*
X55079192Y-51219232D01*
X55010950Y-51204240D01*
X54961646Y-51154734D01*
X54958879Y-51149331D01*
X54925605Y-51080237D01*
X54877829Y-50981027D01*
X54745522Y-50798922D01*
X54582825Y-50643368D01*
X54582822Y-50643366D01*
X54582821Y-50643365D01*
X54394968Y-50519365D01*
X54187987Y-50430896D01*
X53968537Y-50380809D01*
X53743671Y-50370709D01*
X53520611Y-50400925D01*
X53306537Y-50470482D01*
X53215698Y-50519365D01*
X53108319Y-50577148D01*
X53108317Y-50577149D01*
X53108318Y-50577149D01*
X52932335Y-50717490D01*
X52784233Y-50887006D01*
X52668784Y-51080236D01*
X52646692Y-51139101D01*
X52604706Y-51194949D01*
X52539192Y-51219232D01*
X52470950Y-51204240D01*
X52421646Y-51154734D01*
X52418879Y-51149331D01*
X52385605Y-51080237D01*
X52337829Y-50981027D01*
X52205522Y-50798922D01*
X52042825Y-50643368D01*
X52042822Y-50643366D01*
X52042821Y-50643365D01*
X51854968Y-50519365D01*
X51647987Y-50430896D01*
X51428537Y-50380809D01*
X51203671Y-50370709D01*
X50980611Y-50400925D01*
X50766537Y-50470482D01*
X50675698Y-50519365D01*
X50568319Y-50577148D01*
X50568317Y-50577149D01*
X50568318Y-50577149D01*
X50392335Y-50717490D01*
X50244233Y-50887006D01*
X50128783Y-51080237D01*
X50049693Y-51290974D01*
X50049693Y-51290976D01*
X50009500Y-51512453D01*
X50009500Y-53181155D01*
X50009747Y-53183903D01*
X50009748Y-53183918D01*
X50024623Y-53349190D01*
X50084507Y-53566171D01*
X50182170Y-53768972D01*
X50242940Y-53852615D01*
X50266420Y-53918421D01*
X50250594Y-53986475D01*
X50200488Y-54035170D01*
X50142622Y-54049500D01*
X47302868Y-54049500D01*
X47235829Y-54029815D01*
X47190074Y-53977011D01*
X47180130Y-53907853D01*
X47196420Y-53861901D01*
X47251941Y-53768972D01*
X47311215Y-53669764D01*
X47390307Y-53459024D01*
X47430500Y-53237547D01*
X47430500Y-51568845D01*
X47415377Y-51400812D01*
X47355493Y-51183830D01*
X47257829Y-50981027D01*
X47125522Y-50798922D01*
X46962825Y-50643368D01*
X46962822Y-50643366D01*
X46962821Y-50643365D01*
X46774968Y-50519365D01*
X46567987Y-50430896D01*
X46348537Y-50380809D01*
X46123671Y-50370709D01*
X45900611Y-50400925D01*
X45712818Y-50461943D01*
X45642977Y-50463938D01*
X45583144Y-50427858D01*
X45552316Y-50365157D01*
X45550500Y-50344012D01*
X45550500Y-44849499D01*
X45570185Y-44782460D01*
X45622989Y-44736705D01*
X45674500Y-44725499D01*
X46021859Y-44725499D01*
X46025008Y-44725499D01*
X46127797Y-44714999D01*
X46294334Y-44659814D01*
X46443656Y-44567712D01*
X46567712Y-44443656D01*
X46594460Y-44400289D01*
X46646408Y-44353564D01*
X46715371Y-44342341D01*
X46779453Y-44370184D01*
X46805539Y-44400289D01*
X46832288Y-44443657D01*
X46956342Y-44567711D01*
X46964737Y-44572889D01*
X47105666Y-44659814D01*
X47217016Y-44696712D01*
X47272202Y-44714999D01*
X47371858Y-44725180D01*
X47371859Y-44725180D01*
X47374991Y-44725500D01*
X48425008Y-44725499D01*
X48527797Y-44714999D01*
X48694334Y-44659814D01*
X48843656Y-44567712D01*
X48933228Y-44478139D01*
X48994549Y-44444655D01*
X49064240Y-44449639D01*
X49113056Y-44482847D01*
X49194129Y-44572888D01*
X49194130Y-44572889D01*
X49347269Y-44684151D01*
X49520197Y-44761144D01*
X49705352Y-44800500D01*
X49705354Y-44800500D01*
X49894648Y-44800500D01*
X50018083Y-44774262D01*
X50079803Y-44761144D01*
X50252730Y-44684151D01*
X50327962Y-44629492D01*
X50405870Y-44572889D01*
X50410532Y-44567712D01*
X50532533Y-44432216D01*
X50627179Y-44268284D01*
X50685674Y-44088256D01*
X50705460Y-43900000D01*
X50685674Y-43711744D01*
X50655332Y-43618363D01*
X50627179Y-43531715D01*
X50532533Y-43367783D01*
X50405870Y-43227110D01*
X50252730Y-43115848D01*
X50079802Y-43038855D01*
X49894648Y-42999500D01*
X49894646Y-42999500D01*
X49705354Y-42999500D01*
X49692322Y-42999500D01*
X49692322Y-42997313D01*
X49656945Y-42996568D01*
X49619679Y-42987000D01*
X49619677Y-42987000D01*
X49598455Y-42987000D01*
X49579056Y-42985473D01*
X49558096Y-42982153D01*
X49558095Y-42982153D01*
X49536058Y-42984236D01*
X49512639Y-42986450D01*
X49500970Y-42987000D01*
X49132928Y-42987000D01*
X49065889Y-42967315D01*
X49027389Y-42928096D01*
X48967711Y-42831342D01*
X48843657Y-42707288D01*
X48694334Y-42615186D01*
X48527797Y-42560000D01*
X48428141Y-42549819D01*
X48428122Y-42549818D01*
X48425009Y-42549500D01*
X48421860Y-42549500D01*
X47378140Y-42549500D01*
X47378120Y-42549500D01*
X47374992Y-42549501D01*
X47371860Y-42549820D01*
X47371858Y-42549821D01*
X47272203Y-42560000D01*
X47105665Y-42615186D01*
X46956342Y-42707288D01*
X46832289Y-42831341D01*
X46805539Y-42874711D01*
X46753591Y-42921435D01*
X46684628Y-42932658D01*
X46620546Y-42904814D01*
X46594461Y-42874711D01*
X46567710Y-42831341D01*
X46443657Y-42707288D01*
X46294334Y-42615186D01*
X46127797Y-42560000D01*
X46028141Y-42549819D01*
X46028122Y-42549818D01*
X46025009Y-42549500D01*
X46021860Y-42549500D01*
X44978140Y-42549500D01*
X44978120Y-42549500D01*
X44974992Y-42549501D01*
X44971860Y-42549820D01*
X44971858Y-42549821D01*
X44872203Y-42560000D01*
X44705665Y-42615186D01*
X44556342Y-42707288D01*
X44432288Y-42831342D01*
X44340186Y-42980665D01*
X44285000Y-43147202D01*
X44274819Y-43246858D01*
X44274817Y-43246878D01*
X44274500Y-43249991D01*
X44274500Y-43253138D01*
X44274500Y-43253139D01*
X44274500Y-44019338D01*
X44270510Y-44038741D01*
X44272815Y-44039106D01*
X44263223Y-44099662D01*
X44260855Y-44111098D01*
X44249500Y-44155324D01*
X44249500Y-44176545D01*
X44247973Y-44195944D01*
X44244653Y-44216903D01*
X44248950Y-44262358D01*
X44249500Y-44274028D01*
X44249500Y-48950500D01*
X44229815Y-49017539D01*
X44177011Y-49063294D01*
X44125500Y-49074500D01*
X42282740Y-49074500D01*
X42262236Y-49072236D01*
X42192144Y-49074439D01*
X42188250Y-49074500D01*
X42160650Y-49074500D01*
X42156789Y-49074987D01*
X42156778Y-49074988D01*
X42156645Y-49075005D01*
X42145029Y-49075918D01*
X42101368Y-49077290D01*
X42082129Y-49082880D01*
X42063080Y-49086825D01*
X42043208Y-49089335D01*
X42002593Y-49105415D01*
X41991549Y-49109196D01*
X41949611Y-49121382D01*
X41932364Y-49131581D01*
X41914900Y-49140136D01*
X41896267Y-49147514D01*
X41860926Y-49173189D01*
X41851168Y-49179599D01*
X41813579Y-49201829D01*
X41799410Y-49215998D01*
X41784622Y-49228628D01*
X41768413Y-49240405D01*
X41745042Y-49268655D01*
X41687141Y-49307761D01*
X41617289Y-49309355D01*
X41557665Y-49272932D01*
X41527197Y-49210055D01*
X41525500Y-49189612D01*
X41525500Y-44910452D01*
X41545185Y-44843413D01*
X41561819Y-44822771D01*
X42042624Y-44341966D01*
X42103947Y-44308481D01*
X42130305Y-44305647D01*
X42465556Y-44305647D01*
X42465603Y-44305642D01*
X42521961Y-44305642D01*
X42521962Y-44305642D01*
X42655499Y-44286442D01*
X42661421Y-44286018D01*
X42664272Y-44285180D01*
X42664277Y-44285180D01*
X42664278Y-44285180D01*
X42802370Y-44244632D01*
X42933155Y-44184904D01*
X43054226Y-44107097D01*
X43162887Y-44012943D01*
X43162890Y-44012940D01*
X43257139Y-43904170D01*
X43334871Y-43783216D01*
X43394658Y-43652300D01*
X43435165Y-43514345D01*
X43455647Y-43371889D01*
X43455647Y-42800000D01*
X43450500Y-42728039D01*
X43409953Y-42589947D01*
X43332143Y-42468872D01*
X43332141Y-42468870D01*
X43223374Y-42374623D01*
X43092457Y-42314834D01*
X42950000Y-42294353D01*
X42485763Y-42294353D01*
X42414236Y-42294353D01*
X41985764Y-42294353D01*
X41914237Y-42294353D01*
X41450000Y-42294353D01*
X41447792Y-42294510D01*
X41447789Y-42294511D01*
X41378039Y-42299499D01*
X41239947Y-42340047D01*
X41118870Y-42417858D01*
X41024623Y-42526625D01*
X40964834Y-42657542D01*
X40944353Y-42800000D01*
X40944353Y-43371888D01*
X40964835Y-43514346D01*
X40975028Y-43549060D01*
X40975028Y-43618930D01*
X40943732Y-43671676D01*
X40516208Y-44099199D01*
X40500110Y-44112096D01*
X40452096Y-44163225D01*
X40449392Y-44166016D01*
X40432628Y-44182780D01*
X40432621Y-44182787D01*
X40429880Y-44185529D01*
X40427499Y-44188597D01*
X40427490Y-44188608D01*
X40427411Y-44188711D01*
X40419842Y-44197572D01*
X40389935Y-44229420D01*
X40380285Y-44246974D01*
X40369609Y-44263228D01*
X40357326Y-44279063D01*
X40339975Y-44319158D01*
X40334837Y-44329645D01*
X40308162Y-44378167D01*
X40258616Y-44427431D01*
X40190301Y-44442088D01*
X40124907Y-44417485D01*
X40083195Y-44361432D01*
X40075500Y-44318430D01*
X40075500Y-40654067D01*
X40087117Y-40601665D01*
X40099292Y-40575555D01*
X40103690Y-40566121D01*
X40106670Y-40560160D01*
X40149013Y-40480942D01*
X40156789Y-40468286D01*
X40199639Y-40407089D01*
X40205330Y-40399587D01*
X40261191Y-40331521D01*
X40269325Y-40322547D01*
X40322547Y-40269325D01*
X40331521Y-40261191D01*
X40399587Y-40205330D01*
X40407076Y-40199649D01*
X40468304Y-40156776D01*
X40480936Y-40149016D01*
X40560161Y-40106670D01*
X40566099Y-40103701D01*
X40601668Y-40087115D01*
X40654067Y-40075500D01*
X67345932Y-40075500D01*
X67398337Y-40087118D01*
G37*
%TD.AperFunction*%
%TD*%
M02*
