M48
; DRILL file {KiCad 7.0.2-1.fc38} date mar 30 mag 2023, 17:24:52
; FORMAT={-:-/ absolute / inch / decimal}
; #@! TF.CreationDate,2023-05-30T17:24:52+02:00
; #@! TF.GenerationSoftware,Kicad,Pcbnew,7.0.2-1.fc38
; #@! TF.FileFunction,Plated,1,2,PTH
FMAT,2
INCH
; #@! TA.AperFunction,Plated,PTH,ViaDrill
T1C0.0157
; #@! TA.AperFunction,Plated,PTH,ComponentDrill
T2C0.0354
; #@! TA.AperFunction,Plated,PTH,ComponentDrill
T3C0.0394
%
G90
G05
T1
X1.5394Y-3.7244
X1.5866Y-3.378
X1.811Y-3.4094
X1.811Y-3.5512
X1.8583Y-3.4055
X1.9094Y-3.2756
T2
X2.0811Y-3.2756
X2.1811Y-3.2756
T3
X1.3843Y-3.3142
X1.3843Y-3.4142
X1.3843Y-3.5142
X1.3843Y-3.6142
X1.4732Y-3.1063
X1.474Y-3.8228
X1.4843Y-3.3142
X1.4843Y-3.4142
X1.4843Y-3.5142
X1.4843Y-3.6142
X1.5732Y-3.1063
X1.574Y-3.8228
X1.6732Y-3.1063
X1.674Y-3.8228
X1.7732Y-3.1063
X1.774Y-3.8228
X1.8732Y-3.1063
X1.874Y-3.8228
X1.9732Y-3.1063
X1.974Y-3.8228
X2.0732Y-3.1063
X2.074Y-3.8228
X2.1732Y-3.1063
X2.174Y-3.8228
T0
M30
