%TF.GenerationSoftware,KiCad,Pcbnew,7.0.2-1.fc38*%
%TF.CreationDate,2023-05-30T17:24:49+02:00*%
%TF.ProjectId,cc1101_pcb,63633131-3031-45f7-9063-622e6b696361,rev?*%
%TF.SameCoordinates,Original*%
%TF.FileFunction,Copper,L2,Bot*%
%TF.FilePolarity,Positive*%
%FSLAX46Y46*%
G04 Gerber Fmt 4.6, Leading zero omitted, Abs format (unit mm)*
G04 Created by KiCad (PCBNEW 7.0.2-1.fc38) date 2023-05-30 17:24:49*
%MOMM*%
%LPD*%
G01*
G04 APERTURE LIST*
%TA.AperFunction,ComponentPad*%
%ADD10C,1.700000*%
%TD*%
%TA.AperFunction,ComponentPad*%
%ADD11O,1.700000X1.700000*%
%TD*%
%TA.AperFunction,ComponentPad*%
%ADD12R,1.700000X1.700000*%
%TD*%
%TA.AperFunction,ComponentPad*%
%ADD13R,1.800000X1.800000*%
%TD*%
%TA.AperFunction,ComponentPad*%
%ADD14C,1.800000*%
%TD*%
%TA.AperFunction,ViaPad*%
%ADD15C,0.800000*%
%TD*%
%TA.AperFunction,Conductor*%
%ADD16C,0.300000*%
%TD*%
%TA.AperFunction,Conductor*%
%ADD17C,0.250000*%
%TD*%
G04 APERTURE END LIST*
D10*
%TO.P,J1,1,Pin_1*%
%TO.N,Net-(J1-Pin_1)*%
X55200000Y-78900000D03*
D11*
%TO.P,J1,2,Pin_2*%
%TO.N,Net-(J1-Pin_2)*%
X52660000Y-78900000D03*
%TO.P,J1,3,Pin_3*%
%TO.N,Net-(J1-Pin_3)*%
X50120000Y-78900000D03*
%TO.P,J1,4,Pin_4*%
%TO.N,Net-(J1-Pin_4)*%
X47580000Y-78900000D03*
%TO.P,J1,5,Pin_5*%
%TO.N,Net-(J1-Pin_5)*%
X45040000Y-78900000D03*
%TO.P,J1,6,Pin_6*%
%TO.N,Net-(J1-Pin_6)*%
X42500000Y-78900000D03*
%TO.P,J1,7,Pin_7*%
%TO.N,unconnected-(J1-Pin_7-Pad7)*%
X39960000Y-78900000D03*
D12*
%TO.P,J1,8,Pin_8*%
%TO.N,GND*%
X37420000Y-78900000D03*
%TD*%
D10*
%TO.P,J2,1,Pin_1*%
%TO.N,Net-(J1-Pin_1)*%
X37440000Y-97100000D03*
D11*
%TO.P,J2,2,Pin_2*%
%TO.N,Net-(J1-Pin_2)*%
X39980000Y-97100000D03*
%TO.P,J2,3,Pin_3*%
%TO.N,Net-(J1-Pin_3)*%
X42520000Y-97100000D03*
%TO.P,J2,4,Pin_4*%
%TO.N,Net-(J1-Pin_4)*%
X45060000Y-97100000D03*
%TO.P,J2,5,Pin_5*%
%TO.N,Net-(J1-Pin_5)*%
X47600000Y-97100000D03*
%TO.P,J2,6,Pin_6*%
%TO.N,Net-(J1-Pin_6)*%
X50140000Y-97100000D03*
%TO.P,J2,7,Pin_7*%
%TO.N,unconnected-(J2-Pin_7-Pad7)*%
X52680000Y-97100000D03*
D12*
%TO.P,J2,8,Pin_8*%
%TO.N,GND*%
X55220000Y-97100000D03*
%TD*%
D13*
%TO.P,LED,1,K*%
%TO.N,GND*%
X52860000Y-83200000D03*
D14*
%TO.P,LED,2,A*%
%TO.N,Net-(D1-A)*%
X55400000Y-83200000D03*
%TD*%
D12*
%TO.P,J3,1,Pin_1*%
%TO.N,GND*%
X35160000Y-84180000D03*
D11*
%TO.P,J3,2,Pin_2*%
%TO.N,Net-(J3-Pin_2)*%
X37700000Y-84180000D03*
%TO.P,J3,3,Pin_3*%
%TO.N,Net-(J1-Pin_6)*%
X35160000Y-86720000D03*
%TO.P,J3,4,Pin_4*%
%TO.N,Net-(J1-Pin_4)*%
X37700000Y-86720000D03*
%TO.P,J3,5,Pin_5*%
%TO.N,Net-(J1-Pin_5)*%
X35160000Y-89260000D03*
%TO.P,J3,6,Pin_6*%
%TO.N,Net-(J1-Pin_2)*%
X37700000Y-89260000D03*
%TO.P,J3,7,Pin_7*%
%TO.N,Net-(J1-Pin_3)*%
X35160000Y-91800000D03*
%TO.P,J3,8,Pin_8*%
%TO.N,unconnected-(J3-Pin_8-Pad8)*%
X37700000Y-91800000D03*
%TD*%
D15*
%TO.N,GND*%
X46000000Y-86600000D03*
X46000000Y-90200000D03*
%TO.N,Net-(J1-Pin_1)*%
X47200000Y-86500000D03*
%TO.N,Net-(J1-Pin_2)*%
X40300000Y-85800000D03*
%TO.N,Net-(J1-Pin_3)*%
X39100000Y-94600000D03*
%TO.N,Net-(D1-A)*%
X48500000Y-83200000D03*
%TD*%
D16*
%TO.N,Net-(J1-Pin_1)*%
X47200000Y-86500000D02*
X47200000Y-82800000D01*
X52500000Y-81600000D02*
X55200000Y-78900000D01*
X47200000Y-82800000D02*
X48400000Y-81600000D01*
X48400000Y-81600000D02*
X52500000Y-81600000D01*
D17*
%TO.N,Net-(J1-Pin_2)*%
X47441701Y-80700000D02*
X50860000Y-80700000D01*
X39980000Y-91540000D02*
X37700000Y-89260000D01*
X40300000Y-85800000D02*
X42341701Y-85800000D01*
X39980000Y-97100000D02*
X39980000Y-91540000D01*
X42341701Y-85800000D02*
X47441701Y-80700000D01*
X50860000Y-80700000D02*
X52660000Y-78900000D01*
%TO.N,Net-(J1-Pin_3)*%
X37960000Y-94600000D02*
X39100000Y-94600000D01*
X35160000Y-91800000D02*
X37960000Y-94600000D01*
%TO.N,Net-(J1-Pin_4)*%
X45060000Y-97100000D02*
X45060000Y-94080000D01*
X45060000Y-94080000D02*
X37700000Y-86720000D01*
%TO.N,Net-(J1-Pin_6)*%
X38440000Y-85400000D02*
X50140000Y-97100000D01*
X35160000Y-86720000D02*
X36525000Y-85355000D01*
X40500000Y-80900000D02*
X42500000Y-78900000D01*
X36525000Y-82584150D02*
X38209150Y-80900000D01*
X36480000Y-85400000D02*
X38440000Y-85400000D01*
X35160000Y-86720000D02*
X36480000Y-85400000D01*
X38209150Y-80900000D02*
X40500000Y-80900000D01*
X36525000Y-85355000D02*
X36525000Y-82584150D01*
%TO.N,Net-(D1-A)*%
X48500000Y-83200000D02*
X50200305Y-84900305D01*
X53699695Y-84900305D02*
X55400000Y-83200000D01*
X50200305Y-84900305D02*
X53699695Y-84900305D01*
%TD*%
%TA.AperFunction,Conductor*%
%TO.N,GND*%
G36*
X56743039Y-77319685D02*
G01*
X56788794Y-77372489D01*
X56800000Y-77424000D01*
X56800000Y-82844779D01*
X56780315Y-82911818D01*
X56727511Y-82957573D01*
X56658353Y-82967517D01*
X56594797Y-82938492D01*
X56557023Y-82879714D01*
X56556734Y-82878713D01*
X56524230Y-82764473D01*
X56425058Y-82565311D01*
X56290980Y-82387762D01*
X56126562Y-82237875D01*
X55937404Y-82120754D01*
X55806870Y-82070185D01*
X55729940Y-82040382D01*
X55511243Y-81999500D01*
X55288757Y-81999500D01*
X55116932Y-82031620D01*
X55070060Y-82040382D01*
X54862595Y-82120754D01*
X54673437Y-82237875D01*
X54509019Y-82387762D01*
X54482954Y-82422279D01*
X54426845Y-82463915D01*
X54357133Y-82468606D01*
X54295951Y-82434864D01*
X54262724Y-82373400D01*
X54260000Y-82347552D01*
X54260000Y-82255481D01*
X54259645Y-82248867D01*
X54253599Y-82192628D01*
X54203352Y-82057910D01*
X54117188Y-81942811D01*
X54002089Y-81856647D01*
X53867371Y-81806400D01*
X53811132Y-81800354D01*
X53804518Y-81800000D01*
X53236465Y-81800000D01*
X53169426Y-81780315D01*
X53123671Y-81727511D01*
X53113727Y-81658353D01*
X53142752Y-81594797D01*
X53148784Y-81588319D01*
X53539330Y-81197773D01*
X54712773Y-80024328D01*
X54774094Y-79990845D01*
X54843785Y-79995829D01*
X54845245Y-79996384D01*
X54883802Y-80011321D01*
X55093390Y-80050500D01*
X55093392Y-80050500D01*
X55306608Y-80050500D01*
X55306610Y-80050500D01*
X55516198Y-80011321D01*
X55715019Y-79934298D01*
X55896302Y-79822052D01*
X56053872Y-79678407D01*
X56182366Y-79508255D01*
X56182366Y-79508253D01*
X56182368Y-79508252D01*
X56254928Y-79362529D01*
X56277405Y-79317389D01*
X56335756Y-79112310D01*
X56355429Y-78900000D01*
X56335756Y-78687690D01*
X56277405Y-78482611D01*
X56273639Y-78475048D01*
X56182368Y-78291747D01*
X56053873Y-78121594D01*
X55896301Y-77977947D01*
X55715017Y-77865701D01*
X55516198Y-77788679D01*
X55516198Y-77788678D01*
X55306610Y-77749500D01*
X55093390Y-77749500D01*
X54953664Y-77775619D01*
X54883801Y-77788679D01*
X54684982Y-77865701D01*
X54503698Y-77977947D01*
X54346126Y-78121594D01*
X54217631Y-78291747D01*
X54122595Y-78482609D01*
X54064243Y-78687689D01*
X54053471Y-78803951D01*
X54027685Y-78868888D01*
X53983130Y-78900804D01*
X54019503Y-78921668D01*
X54051693Y-78983681D01*
X54053471Y-78996048D01*
X54064244Y-79112312D01*
X54107727Y-79265138D01*
X54107141Y-79335005D01*
X54076142Y-79386753D01*
X53870164Y-79592731D01*
X53808841Y-79626216D01*
X53739149Y-79621232D01*
X53683216Y-79579360D01*
X53658799Y-79513896D01*
X53671482Y-79449780D01*
X53737405Y-79317389D01*
X53795756Y-79112310D01*
X53806529Y-78996047D01*
X53832315Y-78931111D01*
X53876869Y-78899194D01*
X53840497Y-78878331D01*
X53808307Y-78816318D01*
X53806529Y-78803951D01*
X53795756Y-78687689D01*
X53737404Y-78482609D01*
X53642368Y-78291747D01*
X53513873Y-78121594D01*
X53356301Y-77977947D01*
X53175017Y-77865701D01*
X52976198Y-77788679D01*
X52976197Y-77788679D01*
X52766610Y-77749500D01*
X52553390Y-77749500D01*
X52413664Y-77775619D01*
X52343801Y-77788679D01*
X52144982Y-77865701D01*
X51963698Y-77977947D01*
X51806126Y-78121594D01*
X51677631Y-78291747D01*
X51582595Y-78482609D01*
X51524243Y-78687689D01*
X51513471Y-78803951D01*
X51487685Y-78868888D01*
X51443130Y-78900804D01*
X51479503Y-78921668D01*
X51511693Y-78983681D01*
X51513471Y-78996048D01*
X51524244Y-79112312D01*
X51575558Y-79292662D01*
X51574972Y-79362529D01*
X51543973Y-79414277D01*
X51293358Y-79664892D01*
X51232035Y-79698377D01*
X51162343Y-79693393D01*
X51106410Y-79651521D01*
X51081993Y-79586057D01*
X51096845Y-79517784D01*
X51100238Y-79512529D01*
X51174928Y-79362529D01*
X51197405Y-79317389D01*
X51255756Y-79112310D01*
X51266529Y-78996047D01*
X51292315Y-78931111D01*
X51336869Y-78899194D01*
X51300497Y-78878331D01*
X51268307Y-78816318D01*
X51266529Y-78803951D01*
X51255756Y-78687689D01*
X51197404Y-78482609D01*
X51102368Y-78291747D01*
X50973873Y-78121594D01*
X50816301Y-77977947D01*
X50635017Y-77865701D01*
X50436198Y-77788679D01*
X50436197Y-77788678D01*
X50226610Y-77749500D01*
X50013390Y-77749500D01*
X49873664Y-77775619D01*
X49803801Y-77788679D01*
X49604982Y-77865701D01*
X49423698Y-77977947D01*
X49266126Y-78121594D01*
X49137631Y-78291747D01*
X49042595Y-78482609D01*
X48984243Y-78687689D01*
X48973471Y-78803951D01*
X48947685Y-78868888D01*
X48903130Y-78900804D01*
X48939503Y-78921668D01*
X48971693Y-78983681D01*
X48973471Y-78996048D01*
X48984243Y-79112310D01*
X49042595Y-79317390D01*
X49137631Y-79508252D01*
X49255924Y-79664895D01*
X49266128Y-79678407D01*
X49423698Y-79822052D01*
X49604981Y-79934298D01*
X49803802Y-80011321D01*
X49896299Y-80028611D01*
X49958579Y-80060279D01*
X49993852Y-80120592D01*
X49990918Y-80190400D01*
X49950709Y-80247540D01*
X49885991Y-80273871D01*
X49873513Y-80274500D01*
X47826487Y-80274500D01*
X47759448Y-80254815D01*
X47713693Y-80202011D01*
X47703749Y-80132853D01*
X47732774Y-80069297D01*
X47791552Y-80031523D01*
X47803690Y-80028613D01*
X47896198Y-80011321D01*
X48095019Y-79934298D01*
X48276302Y-79822052D01*
X48433872Y-79678407D01*
X48562366Y-79508255D01*
X48562366Y-79508253D01*
X48562368Y-79508252D01*
X48634928Y-79362529D01*
X48657405Y-79317389D01*
X48715756Y-79112310D01*
X48726529Y-78996047D01*
X48752315Y-78931111D01*
X48796869Y-78899194D01*
X48760497Y-78878331D01*
X48728307Y-78816318D01*
X48726529Y-78803951D01*
X48715756Y-78687689D01*
X48657404Y-78482609D01*
X48562368Y-78291747D01*
X48433873Y-78121594D01*
X48276301Y-77977947D01*
X48095017Y-77865701D01*
X47896198Y-77788679D01*
X47686610Y-77749500D01*
X47473390Y-77749500D01*
X47333664Y-77775619D01*
X47263801Y-77788679D01*
X47064982Y-77865701D01*
X46883698Y-77977947D01*
X46726126Y-78121594D01*
X46597631Y-78291747D01*
X46502595Y-78482609D01*
X46444243Y-78687689D01*
X46433471Y-78803951D01*
X46407685Y-78868888D01*
X46363130Y-78900804D01*
X46399503Y-78921668D01*
X46431693Y-78983681D01*
X46433471Y-78996048D01*
X46444243Y-79112310D01*
X46502595Y-79317390D01*
X46597631Y-79508252D01*
X46715924Y-79664895D01*
X46726128Y-79678407D01*
X46883698Y-79822052D01*
X47064981Y-79934298D01*
X47263802Y-80011321D01*
X47369729Y-80031122D01*
X47432008Y-80062789D01*
X47467281Y-80123102D01*
X47464347Y-80192910D01*
X47424138Y-80250050D01*
X47385258Y-80270942D01*
X47351340Y-80281962D01*
X47332424Y-80286503D01*
X47308575Y-80290280D01*
X47287057Y-80301244D01*
X47269088Y-80308687D01*
X47246120Y-80316150D01*
X47226585Y-80330343D01*
X47210002Y-80340505D01*
X47188482Y-80351470D01*
X47148306Y-80391647D01*
X47093173Y-80446780D01*
X47093171Y-80446782D01*
X44628135Y-82911818D01*
X42201772Y-85338181D01*
X42140449Y-85371666D01*
X42114091Y-85374500D01*
X40922550Y-85374500D01*
X40855511Y-85354815D01*
X40840777Y-85340561D01*
X40839453Y-85342056D01*
X40828184Y-85332072D01*
X40828183Y-85332071D01*
X40700852Y-85219266D01*
X40623660Y-85178752D01*
X40550224Y-85140209D01*
X40425764Y-85109533D01*
X40385056Y-85099500D01*
X40214944Y-85099500D01*
X40182284Y-85107549D01*
X40049775Y-85140209D01*
X39899149Y-85219265D01*
X39771815Y-85332072D01*
X39675182Y-85472069D01*
X39614860Y-85631127D01*
X39608528Y-85683271D01*
X39580905Y-85747448D01*
X39522970Y-85786504D01*
X39453117Y-85788037D01*
X39397751Y-85756003D01*
X38717194Y-85075446D01*
X38693221Y-85051472D01*
X38673650Y-85041501D01*
X38622853Y-84993527D01*
X38606057Y-84925706D01*
X38628593Y-84859571D01*
X38630956Y-84856331D01*
X38682366Y-84788255D01*
X38777405Y-84597389D01*
X38835756Y-84392310D01*
X38855429Y-84180000D01*
X38835756Y-83967690D01*
X38822239Y-83920185D01*
X38797913Y-83834688D01*
X38777405Y-83762611D01*
X38773639Y-83755048D01*
X38682368Y-83571747D01*
X38553873Y-83401594D01*
X38396301Y-83257947D01*
X38215017Y-83145701D01*
X38016198Y-83068679D01*
X38013973Y-83068263D01*
X37806610Y-83029500D01*
X37593390Y-83029500D01*
X37453664Y-83055619D01*
X37383801Y-83068679D01*
X37184980Y-83145702D01*
X37139776Y-83173691D01*
X37072416Y-83192245D01*
X37005716Y-83171437D01*
X36960856Y-83117871D01*
X36950500Y-83068263D01*
X36950500Y-82811759D01*
X36970185Y-82744720D01*
X36986819Y-82724078D01*
X38349079Y-81361819D01*
X38410402Y-81328334D01*
X38436760Y-81325500D01*
X40567391Y-81325500D01*
X40567393Y-81325500D01*
X40590363Y-81318035D01*
X40609266Y-81313497D01*
X40633126Y-81309719D01*
X40654647Y-81298752D01*
X40672616Y-81291309D01*
X40695581Y-81283849D01*
X40715111Y-81269658D01*
X40731704Y-81259489D01*
X40753220Y-81248528D01*
X40848528Y-81153220D01*
X40848528Y-81153219D01*
X41987290Y-80014456D01*
X42048611Y-79980973D01*
X42118303Y-79985957D01*
X42119762Y-79986512D01*
X42128074Y-79989732D01*
X42183802Y-80011321D01*
X42393390Y-80050500D01*
X42393392Y-80050500D01*
X42606608Y-80050500D01*
X42606610Y-80050500D01*
X42816198Y-80011321D01*
X43015019Y-79934298D01*
X43196302Y-79822052D01*
X43353872Y-79678407D01*
X43482366Y-79508255D01*
X43482366Y-79508253D01*
X43482368Y-79508252D01*
X43554928Y-79362529D01*
X43577405Y-79317389D01*
X43635756Y-79112310D01*
X43646529Y-78996047D01*
X43672315Y-78931111D01*
X43714622Y-78900804D01*
X43823130Y-78900804D01*
X43859503Y-78921668D01*
X43891693Y-78983681D01*
X43893471Y-78996048D01*
X43904243Y-79112310D01*
X43962595Y-79317390D01*
X44057631Y-79508252D01*
X44175924Y-79664895D01*
X44186128Y-79678407D01*
X44343698Y-79822052D01*
X44524981Y-79934298D01*
X44723802Y-80011321D01*
X44933390Y-80050500D01*
X44933392Y-80050500D01*
X45146608Y-80050500D01*
X45146610Y-80050500D01*
X45356198Y-80011321D01*
X45555019Y-79934298D01*
X45736302Y-79822052D01*
X45893872Y-79678407D01*
X46022366Y-79508255D01*
X46022366Y-79508253D01*
X46022368Y-79508252D01*
X46094928Y-79362529D01*
X46117405Y-79317389D01*
X46175756Y-79112310D01*
X46186529Y-78996047D01*
X46212315Y-78931111D01*
X46256869Y-78899194D01*
X46220497Y-78878331D01*
X46188307Y-78816318D01*
X46186529Y-78803951D01*
X46175756Y-78687689D01*
X46117404Y-78482609D01*
X46022368Y-78291747D01*
X45893873Y-78121594D01*
X45736301Y-77977947D01*
X45555017Y-77865701D01*
X45356198Y-77788679D01*
X45356197Y-77788678D01*
X45146610Y-77749500D01*
X44933390Y-77749500D01*
X44793664Y-77775619D01*
X44723801Y-77788679D01*
X44524982Y-77865701D01*
X44343698Y-77977947D01*
X44186126Y-78121594D01*
X44057631Y-78291747D01*
X43962595Y-78482609D01*
X43904243Y-78687689D01*
X43893471Y-78803951D01*
X43867685Y-78868888D01*
X43823130Y-78900804D01*
X43714622Y-78900804D01*
X43716869Y-78899194D01*
X43680497Y-78878331D01*
X43648307Y-78816318D01*
X43646529Y-78803951D01*
X43635756Y-78687689D01*
X43577404Y-78482609D01*
X43482368Y-78291747D01*
X43353873Y-78121594D01*
X43196301Y-77977947D01*
X43015017Y-77865701D01*
X42816198Y-77788679D01*
X42816197Y-77788679D01*
X42606610Y-77749500D01*
X42393390Y-77749500D01*
X42253664Y-77775619D01*
X42183801Y-77788679D01*
X41984982Y-77865701D01*
X41803698Y-77977947D01*
X41646126Y-78121594D01*
X41517631Y-78291747D01*
X41422595Y-78482609D01*
X41364243Y-78687689D01*
X41353471Y-78803951D01*
X41327685Y-78868888D01*
X41283130Y-78900804D01*
X41319503Y-78921668D01*
X41351693Y-78983681D01*
X41353471Y-78996048D01*
X41364243Y-79112310D01*
X41415559Y-79292661D01*
X41414973Y-79362528D01*
X41383974Y-79414277D01*
X41133356Y-79664895D01*
X41072033Y-79698380D01*
X41002341Y-79693396D01*
X40946408Y-79651524D01*
X40921991Y-79586060D01*
X40936843Y-79517787D01*
X40940239Y-79512527D01*
X41014928Y-79362529D01*
X41037405Y-79317389D01*
X41095756Y-79112310D01*
X41106529Y-78996047D01*
X41132315Y-78931111D01*
X41176869Y-78899194D01*
X41140497Y-78878331D01*
X41108307Y-78816318D01*
X41106529Y-78803951D01*
X41095756Y-78687689D01*
X41037404Y-78482609D01*
X40942368Y-78291747D01*
X40813873Y-78121594D01*
X40656301Y-77977947D01*
X40475017Y-77865701D01*
X40276198Y-77788679D01*
X40276197Y-77788678D01*
X40066610Y-77749500D01*
X39853390Y-77749500D01*
X39713664Y-77775619D01*
X39643801Y-77788679D01*
X39444982Y-77865701D01*
X39263698Y-77977947D01*
X39106126Y-78121594D01*
X38992954Y-78271458D01*
X38936845Y-78313094D01*
X38867133Y-78317785D01*
X38805951Y-78284043D01*
X38772724Y-78222579D01*
X38770000Y-78196731D01*
X38770000Y-78005481D01*
X38769645Y-77998867D01*
X38763599Y-77942628D01*
X38713352Y-77807910D01*
X38627188Y-77692811D01*
X38512089Y-77606647D01*
X38377371Y-77556400D01*
X38321132Y-77550354D01*
X38314518Y-77550000D01*
X37670000Y-77550000D01*
X37670000Y-78464498D01*
X37562315Y-78415320D01*
X37455763Y-78400000D01*
X37384237Y-78400000D01*
X37277685Y-78415320D01*
X37170000Y-78464498D01*
X37170000Y-77550000D01*
X36525482Y-77550000D01*
X36518867Y-77550354D01*
X36462628Y-77556400D01*
X36327910Y-77606647D01*
X36212811Y-77692811D01*
X36126647Y-77807910D01*
X36076400Y-77942628D01*
X36070354Y-77998867D01*
X36070000Y-78005481D01*
X36070000Y-78650000D01*
X36986314Y-78650000D01*
X36960507Y-78690156D01*
X36920000Y-78828111D01*
X36920000Y-78971889D01*
X36960507Y-79109844D01*
X36986314Y-79150000D01*
X36070000Y-79150000D01*
X36070000Y-79794518D01*
X36070354Y-79801132D01*
X36076400Y-79857371D01*
X36126647Y-79992089D01*
X36212811Y-80107188D01*
X36327910Y-80193352D01*
X36462628Y-80243599D01*
X36518867Y-80249645D01*
X36525482Y-80250000D01*
X37170000Y-80250000D01*
X37170000Y-79335501D01*
X37277685Y-79384680D01*
X37384237Y-79400000D01*
X37455763Y-79400000D01*
X37562315Y-79384680D01*
X37670000Y-79335501D01*
X37670000Y-80250000D01*
X38031105Y-80250000D01*
X38098144Y-80269685D01*
X38143899Y-80322489D01*
X38153843Y-80391647D01*
X38124818Y-80455203D01*
X38087398Y-80484486D01*
X38054511Y-80501242D01*
X38036536Y-80508687D01*
X38013569Y-80516149D01*
X37994031Y-80530344D01*
X37977448Y-80540506D01*
X37955930Y-80551471D01*
X37873395Y-80634002D01*
X37873369Y-80634032D01*
X36271780Y-82235622D01*
X36176471Y-82330930D01*
X36165509Y-82352444D01*
X36155347Y-82369027D01*
X36141151Y-82388567D01*
X36133687Y-82411537D01*
X36126244Y-82429506D01*
X36115280Y-82451024D01*
X36111503Y-82474873D01*
X36106962Y-82493789D01*
X36099500Y-82516756D01*
X36099500Y-82706000D01*
X36079815Y-82773039D01*
X36027011Y-82818794D01*
X35975500Y-82830000D01*
X35410000Y-82830000D01*
X35410000Y-83744498D01*
X35302315Y-83695320D01*
X35195763Y-83680000D01*
X35124237Y-83680000D01*
X35017685Y-83695320D01*
X34910000Y-83744498D01*
X34910000Y-82830000D01*
X34265482Y-82830000D01*
X34258867Y-82830354D01*
X34202628Y-82836400D01*
X34067910Y-82886647D01*
X33952811Y-82972811D01*
X33866647Y-83087910D01*
X33816400Y-83222628D01*
X33810354Y-83278867D01*
X33810000Y-83285481D01*
X33810000Y-83930000D01*
X34726314Y-83930000D01*
X34700507Y-83970156D01*
X34660000Y-84108111D01*
X34660000Y-84251889D01*
X34700507Y-84389844D01*
X34726314Y-84430000D01*
X33810000Y-84430000D01*
X33810000Y-85074518D01*
X33810354Y-85081132D01*
X33816400Y-85137371D01*
X33866647Y-85272089D01*
X33952811Y-85387188D01*
X34067910Y-85473352D01*
X34202628Y-85523599D01*
X34258867Y-85529645D01*
X34265482Y-85530000D01*
X34460634Y-85530000D01*
X34527673Y-85549685D01*
X34573428Y-85602489D01*
X34583372Y-85671647D01*
X34554347Y-85735203D01*
X34525913Y-85759425D01*
X34508545Y-85770179D01*
X34463698Y-85797947D01*
X34306126Y-85941594D01*
X34177631Y-86111747D01*
X34082595Y-86302609D01*
X34024243Y-86507689D01*
X34004571Y-86720000D01*
X34024243Y-86932310D01*
X34082595Y-87137390D01*
X34177631Y-87328252D01*
X34306126Y-87498405D01*
X34306128Y-87498407D01*
X34463698Y-87642052D01*
X34644981Y-87754298D01*
X34843802Y-87831321D01*
X35040613Y-87868111D01*
X35102893Y-87899779D01*
X35138166Y-87960092D01*
X35135232Y-88029900D01*
X35095023Y-88087040D01*
X35040613Y-88111888D01*
X34910475Y-88136215D01*
X34843801Y-88148679D01*
X34644982Y-88225701D01*
X34463698Y-88337947D01*
X34306126Y-88481594D01*
X34177631Y-88651747D01*
X34082595Y-88842609D01*
X34024243Y-89047689D01*
X34004571Y-89260000D01*
X34024243Y-89472310D01*
X34082595Y-89677390D01*
X34177631Y-89868252D01*
X34306126Y-90038405D01*
X34306128Y-90038407D01*
X34463698Y-90182052D01*
X34644981Y-90294298D01*
X34843802Y-90371321D01*
X35040613Y-90408111D01*
X35102893Y-90439779D01*
X35138166Y-90500092D01*
X35135232Y-90569900D01*
X35095023Y-90627040D01*
X35040613Y-90651888D01*
X34910475Y-90676215D01*
X34843801Y-90688679D01*
X34644982Y-90765701D01*
X34463698Y-90877947D01*
X34306126Y-91021594D01*
X34177631Y-91191747D01*
X34082595Y-91382609D01*
X34024243Y-91587689D01*
X34004646Y-91799194D01*
X34004571Y-91800000D01*
X34006239Y-91818003D01*
X34024243Y-92012310D01*
X34082595Y-92217390D01*
X34177631Y-92408252D01*
X34306126Y-92578405D01*
X34306128Y-92578407D01*
X34463698Y-92722052D01*
X34644981Y-92834298D01*
X34843802Y-92911321D01*
X35053390Y-92950500D01*
X35053392Y-92950500D01*
X35266608Y-92950500D01*
X35266610Y-92950500D01*
X35476198Y-92911321D01*
X35540238Y-92886511D01*
X35609855Y-92880649D01*
X35671596Y-92913357D01*
X35672708Y-92914456D01*
X37611472Y-94853220D01*
X37706780Y-94948528D01*
X37724532Y-94957573D01*
X37728295Y-94959490D01*
X37744882Y-94969654D01*
X37764419Y-94983849D01*
X37779344Y-94988698D01*
X37787379Y-94991309D01*
X37805359Y-94998756D01*
X37826874Y-95009719D01*
X37850719Y-95013495D01*
X37869642Y-95018037D01*
X37892607Y-95025500D01*
X37926512Y-95025500D01*
X38477450Y-95025500D01*
X38544489Y-95045185D01*
X38559222Y-95059438D01*
X38560547Y-95057944D01*
X38571815Y-95067927D01*
X38571817Y-95067929D01*
X38699148Y-95180734D01*
X38849775Y-95259790D01*
X39014944Y-95300500D01*
X39014945Y-95300500D01*
X39185055Y-95300500D01*
X39185056Y-95300500D01*
X39350225Y-95259790D01*
X39372873Y-95247902D01*
X39441381Y-95234177D01*
X39506434Y-95259669D01*
X39547379Y-95316284D01*
X39554500Y-95357699D01*
X39554500Y-95946080D01*
X39534815Y-96013119D01*
X39482011Y-96058874D01*
X39475294Y-96061706D01*
X39464985Y-96065699D01*
X39283698Y-96177947D01*
X39126126Y-96321594D01*
X38997631Y-96491747D01*
X38902595Y-96682609D01*
X38844243Y-96887689D01*
X38833471Y-97003951D01*
X38807685Y-97068888D01*
X38763130Y-97100804D01*
X38799503Y-97121668D01*
X38831693Y-97183681D01*
X38833471Y-97196048D01*
X38844243Y-97312310D01*
X38902595Y-97517390D01*
X38997631Y-97708252D01*
X39069385Y-97803268D01*
X39126128Y-97878407D01*
X39283698Y-98022052D01*
X39464981Y-98134298D01*
X39663802Y-98211321D01*
X39873390Y-98250500D01*
X39873392Y-98250500D01*
X40086608Y-98250500D01*
X40086610Y-98250500D01*
X40296198Y-98211321D01*
X40495019Y-98134298D01*
X40676302Y-98022052D01*
X40833872Y-97878407D01*
X40962366Y-97708255D01*
X40962366Y-97708253D01*
X40962368Y-97708252D01*
X41053639Y-97524952D01*
X41057405Y-97517389D01*
X41115756Y-97312310D01*
X41126529Y-97196047D01*
X41152315Y-97131111D01*
X41194622Y-97100804D01*
X41303130Y-97100804D01*
X41339503Y-97121668D01*
X41371693Y-97183681D01*
X41373471Y-97196048D01*
X41384243Y-97312310D01*
X41442595Y-97517390D01*
X41537631Y-97708252D01*
X41609385Y-97803268D01*
X41666128Y-97878407D01*
X41823698Y-98022052D01*
X42004981Y-98134298D01*
X42203802Y-98211321D01*
X42413390Y-98250500D01*
X42413392Y-98250500D01*
X42626608Y-98250500D01*
X42626610Y-98250500D01*
X42836198Y-98211321D01*
X43035019Y-98134298D01*
X43216302Y-98022052D01*
X43373872Y-97878407D01*
X43502366Y-97708255D01*
X43502366Y-97708253D01*
X43502368Y-97708252D01*
X43593639Y-97524952D01*
X43597405Y-97517389D01*
X43655756Y-97312310D01*
X43666529Y-97196047D01*
X43692315Y-97131111D01*
X43736869Y-97099194D01*
X43700497Y-97078331D01*
X43668307Y-97016318D01*
X43666529Y-97003951D01*
X43655756Y-96887689D01*
X43622043Y-96769202D01*
X43597405Y-96682611D01*
X43593639Y-96675048D01*
X43502368Y-96491747D01*
X43373873Y-96321594D01*
X43216301Y-96177947D01*
X43035017Y-96065701D01*
X42836198Y-95988679D01*
X42819411Y-95985541D01*
X42626610Y-95949500D01*
X42413390Y-95949500D01*
X42273664Y-95975619D01*
X42203801Y-95988679D01*
X42004982Y-96065701D01*
X41823698Y-96177947D01*
X41666126Y-96321594D01*
X41537631Y-96491747D01*
X41442595Y-96682609D01*
X41384243Y-96887689D01*
X41373471Y-97003951D01*
X41347685Y-97068888D01*
X41303130Y-97100804D01*
X41194622Y-97100804D01*
X41196869Y-97099194D01*
X41160497Y-97078331D01*
X41128307Y-97016318D01*
X41126529Y-97003951D01*
X41115756Y-96887689D01*
X41082043Y-96769202D01*
X41057405Y-96682611D01*
X41053639Y-96675048D01*
X40962368Y-96491747D01*
X40833873Y-96321594D01*
X40676301Y-96177947D01*
X40495014Y-96065699D01*
X40484706Y-96061706D01*
X40429304Y-96019133D01*
X40405714Y-95953366D01*
X40405500Y-95946080D01*
X40405500Y-91472608D01*
X40398039Y-91449648D01*
X40393495Y-91430719D01*
X40389719Y-91406874D01*
X40378756Y-91385359D01*
X40371309Y-91367379D01*
X40368698Y-91359344D01*
X40363849Y-91344419D01*
X40349654Y-91324882D01*
X40339490Y-91308295D01*
X40328527Y-91286779D01*
X38816025Y-89774277D01*
X38782540Y-89712954D01*
X38784439Y-89652664D01*
X38835756Y-89472310D01*
X38855429Y-89260000D01*
X38835756Y-89047690D01*
X38777405Y-88842611D01*
X38776867Y-88841531D01*
X38677245Y-88641459D01*
X38680116Y-88640029D01*
X38662029Y-88592154D01*
X38676592Y-88523819D01*
X38725788Y-88474205D01*
X38793997Y-88459065D01*
X38859565Y-88483204D01*
X38873356Y-88495104D01*
X44598181Y-94219929D01*
X44631666Y-94281252D01*
X44634500Y-94307610D01*
X44634500Y-95946080D01*
X44614815Y-96013119D01*
X44562011Y-96058874D01*
X44555294Y-96061706D01*
X44544985Y-96065699D01*
X44363698Y-96177947D01*
X44206126Y-96321594D01*
X44077631Y-96491747D01*
X43982595Y-96682609D01*
X43924243Y-96887689D01*
X43913471Y-97003951D01*
X43887685Y-97068888D01*
X43843130Y-97100804D01*
X43879503Y-97121668D01*
X43911693Y-97183681D01*
X43913471Y-97196048D01*
X43924243Y-97312310D01*
X43982595Y-97517390D01*
X44077631Y-97708252D01*
X44149385Y-97803268D01*
X44206128Y-97878407D01*
X44363698Y-98022052D01*
X44544981Y-98134298D01*
X44743802Y-98211321D01*
X44953390Y-98250500D01*
X44953392Y-98250500D01*
X45166608Y-98250500D01*
X45166610Y-98250500D01*
X45376198Y-98211321D01*
X45575019Y-98134298D01*
X45756302Y-98022052D01*
X45913872Y-97878407D01*
X46042366Y-97708255D01*
X46042366Y-97708253D01*
X46042368Y-97708252D01*
X46133639Y-97524952D01*
X46137405Y-97517389D01*
X46195756Y-97312310D01*
X46206529Y-97196047D01*
X46232315Y-97131111D01*
X46276869Y-97099194D01*
X46240497Y-97078331D01*
X46208307Y-97016318D01*
X46206529Y-97003951D01*
X46195756Y-96887689D01*
X46162043Y-96769202D01*
X46137405Y-96682611D01*
X46133639Y-96675048D01*
X46042368Y-96491747D01*
X45913873Y-96321594D01*
X45756301Y-96177947D01*
X45575014Y-96065699D01*
X45564706Y-96061706D01*
X45509304Y-96019133D01*
X45485714Y-95953366D01*
X45485500Y-95946080D01*
X45485500Y-94012606D01*
X45478038Y-93989641D01*
X45473495Y-93970720D01*
X45469719Y-93946874D01*
X45458758Y-93925362D01*
X45451310Y-93907381D01*
X45443850Y-93884419D01*
X45443849Y-93884417D01*
X45429652Y-93864876D01*
X45419487Y-93848288D01*
X45408527Y-93826779D01*
X45330661Y-93748913D01*
X45330659Y-93748910D01*
X42081841Y-90500092D01*
X38816024Y-87234276D01*
X38782540Y-87172954D01*
X38784439Y-87112664D01*
X38835756Y-86932310D01*
X38855429Y-86720000D01*
X38855428Y-86719999D01*
X38856489Y-86708559D01*
X38859973Y-86708881D01*
X38869592Y-86659665D01*
X38917938Y-86609223D01*
X38985880Y-86592926D01*
X39051848Y-86615949D01*
X39067341Y-86629089D01*
X48380545Y-95942293D01*
X48414030Y-96003616D01*
X48409046Y-96073308D01*
X48367174Y-96129241D01*
X48301710Y-96153658D01*
X48233437Y-96138806D01*
X48227586Y-96135401D01*
X48217637Y-96129241D01*
X48115019Y-96065702D01*
X48115017Y-96065701D01*
X47916198Y-95988679D01*
X47899411Y-95985541D01*
X47706610Y-95949500D01*
X47493390Y-95949500D01*
X47353664Y-95975619D01*
X47283801Y-95988679D01*
X47084982Y-96065701D01*
X46903698Y-96177947D01*
X46746126Y-96321594D01*
X46617631Y-96491747D01*
X46522595Y-96682609D01*
X46464243Y-96887689D01*
X46453471Y-97003951D01*
X46427685Y-97068888D01*
X46383130Y-97100804D01*
X46419503Y-97121668D01*
X46451693Y-97183681D01*
X46453471Y-97196048D01*
X46464243Y-97312310D01*
X46522595Y-97517390D01*
X46617631Y-97708252D01*
X46689385Y-97803268D01*
X46746128Y-97878407D01*
X46903698Y-98022052D01*
X47084981Y-98134298D01*
X47283802Y-98211321D01*
X47493390Y-98250500D01*
X47493392Y-98250500D01*
X47706608Y-98250500D01*
X47706610Y-98250500D01*
X47916198Y-98211321D01*
X48115019Y-98134298D01*
X48296302Y-98022052D01*
X48453872Y-97878407D01*
X48582366Y-97708255D01*
X48582366Y-97708253D01*
X48582368Y-97708252D01*
X48673639Y-97524952D01*
X48677405Y-97517389D01*
X48735756Y-97312310D01*
X48746529Y-97196047D01*
X48772315Y-97131111D01*
X48816869Y-97099194D01*
X48780497Y-97078331D01*
X48748307Y-97016318D01*
X48746529Y-97003951D01*
X48735756Y-96887689D01*
X48702043Y-96769202D01*
X48677405Y-96682611D01*
X48673639Y-96675048D01*
X48577245Y-96481459D01*
X48580116Y-96480029D01*
X48562029Y-96432154D01*
X48576592Y-96363819D01*
X48625788Y-96314205D01*
X48693997Y-96299065D01*
X48759565Y-96323204D01*
X48773356Y-96335104D01*
X49023974Y-96585722D01*
X49057459Y-96647045D01*
X49055559Y-96707338D01*
X49004243Y-96887689D01*
X48993471Y-97003951D01*
X48967685Y-97068888D01*
X48923130Y-97100804D01*
X48959503Y-97121668D01*
X48991693Y-97183681D01*
X48993471Y-97196048D01*
X49004243Y-97312310D01*
X49062595Y-97517390D01*
X49157631Y-97708252D01*
X49229385Y-97803268D01*
X49286128Y-97878407D01*
X49443698Y-98022052D01*
X49624981Y-98134298D01*
X49823802Y-98211321D01*
X50033390Y-98250500D01*
X50033392Y-98250500D01*
X50246608Y-98250500D01*
X50246610Y-98250500D01*
X50456198Y-98211321D01*
X50655019Y-98134298D01*
X50836302Y-98022052D01*
X50993872Y-97878407D01*
X51122366Y-97708255D01*
X51122366Y-97708253D01*
X51122368Y-97708252D01*
X51213639Y-97524952D01*
X51217405Y-97517389D01*
X51275756Y-97312310D01*
X51286529Y-97196047D01*
X51312315Y-97131111D01*
X51356869Y-97099194D01*
X51320497Y-97078331D01*
X51288307Y-97016318D01*
X51286529Y-97003951D01*
X51275756Y-96887689D01*
X51242043Y-96769202D01*
X51217405Y-96682611D01*
X51213639Y-96675048D01*
X51122368Y-96491747D01*
X50993873Y-96321594D01*
X50836301Y-96177947D01*
X50655017Y-96065701D01*
X50456198Y-95988679D01*
X50439411Y-95985541D01*
X50246610Y-95949500D01*
X50033390Y-95949500D01*
X49823802Y-95988679D01*
X49823800Y-95988679D01*
X49823798Y-95988680D01*
X49759762Y-96013487D01*
X49690139Y-96019348D01*
X49628399Y-95986638D01*
X49627289Y-95985541D01*
X40345723Y-86703975D01*
X40312238Y-86642652D01*
X40317222Y-86572960D01*
X40359094Y-86517027D01*
X40403728Y-86495897D01*
X40550225Y-86459790D01*
X40700852Y-86380734D01*
X40828183Y-86267929D01*
X40828184Y-86267927D01*
X40839453Y-86257944D01*
X40842420Y-86261293D01*
X40874800Y-86235062D01*
X40922550Y-86225500D01*
X42409092Y-86225500D01*
X42409094Y-86225500D01*
X42432064Y-86218035D01*
X42450967Y-86213497D01*
X42474827Y-86209719D01*
X42496348Y-86198752D01*
X42514317Y-86191309D01*
X42537282Y-86183849D01*
X42556812Y-86169658D01*
X42573405Y-86159489D01*
X42594921Y-86148528D01*
X42690229Y-86053220D01*
X42690229Y-86053219D01*
X47581629Y-81161819D01*
X47642952Y-81128334D01*
X47669310Y-81125500D01*
X47938034Y-81125500D01*
X48005073Y-81145185D01*
X48050828Y-81197989D01*
X48060772Y-81267147D01*
X48031747Y-81330703D01*
X48025715Y-81337181D01*
X46904264Y-82458631D01*
X46893898Y-82467895D01*
X46866031Y-82490118D01*
X46833824Y-82537356D01*
X46831144Y-82541132D01*
X46793633Y-82591959D01*
X46791301Y-82596578D01*
X46772674Y-82656966D01*
X46771225Y-82661369D01*
X46750369Y-82720973D01*
X46749500Y-82726089D01*
X46749500Y-82789261D01*
X46749413Y-82793898D01*
X46747050Y-82857029D01*
X46749500Y-82875635D01*
X46749500Y-85907442D01*
X46729815Y-85974481D01*
X46707727Y-86000257D01*
X46671817Y-86032069D01*
X46575182Y-86172069D01*
X46514860Y-86331127D01*
X46494354Y-86500000D01*
X46514860Y-86668872D01*
X46575182Y-86827930D01*
X46671815Y-86967927D01*
X46671816Y-86967928D01*
X46671817Y-86967929D01*
X46799148Y-87080734D01*
X46949775Y-87159790D01*
X47114944Y-87200500D01*
X47114945Y-87200500D01*
X47285055Y-87200500D01*
X47285056Y-87200500D01*
X47450225Y-87159790D01*
X47600852Y-87080734D01*
X47728183Y-86967929D01*
X47824818Y-86827930D01*
X47885140Y-86668872D01*
X47905645Y-86500000D01*
X47885140Y-86331128D01*
X47824818Y-86172070D01*
X47780228Y-86107470D01*
X47728182Y-86032069D01*
X47692273Y-86000257D01*
X47655146Y-85941068D01*
X47650500Y-85907442D01*
X47650500Y-83600351D01*
X47670185Y-83533312D01*
X47722989Y-83487557D01*
X47792147Y-83477613D01*
X47855703Y-83506638D01*
X47876547Y-83529908D01*
X47923618Y-83598101D01*
X47971815Y-83667927D01*
X47971816Y-83667928D01*
X47971817Y-83667929D01*
X48099148Y-83780734D01*
X48249775Y-83859790D01*
X48414944Y-83900500D01*
X48414945Y-83900500D01*
X48547390Y-83900500D01*
X48614429Y-83920185D01*
X48635070Y-83936818D01*
X49851777Y-85153525D01*
X49947085Y-85248833D01*
X49968593Y-85259792D01*
X49968597Y-85259794D01*
X49985185Y-85269959D01*
X50004722Y-85284153D01*
X50004723Y-85284153D01*
X50004724Y-85284154D01*
X50027686Y-85291614D01*
X50045666Y-85299062D01*
X50067179Y-85310024D01*
X50091024Y-85313800D01*
X50109947Y-85318342D01*
X50132912Y-85325805D01*
X50132913Y-85325805D01*
X53767086Y-85325805D01*
X53767088Y-85325805D01*
X53790058Y-85318340D01*
X53808961Y-85313802D01*
X53832821Y-85310024D01*
X53854342Y-85299057D01*
X53872311Y-85291614D01*
X53895276Y-85284154D01*
X53914806Y-85269963D01*
X53931399Y-85259794D01*
X53952915Y-85248833D01*
X54048223Y-85153525D01*
X54848643Y-84353103D01*
X54909964Y-84319620D01*
X54979655Y-84324604D01*
X54980954Y-84325098D01*
X55070060Y-84359618D01*
X55288757Y-84400500D01*
X55288759Y-84400500D01*
X55511241Y-84400500D01*
X55511243Y-84400500D01*
X55729940Y-84359618D01*
X55937401Y-84279247D01*
X56126562Y-84162124D01*
X56290981Y-84012236D01*
X56425058Y-83834689D01*
X56524229Y-83635528D01*
X56541165Y-83576007D01*
X56556734Y-83521286D01*
X56594013Y-83462193D01*
X56657322Y-83432635D01*
X56726562Y-83441997D01*
X56779749Y-83487307D01*
X56799996Y-83554178D01*
X56800000Y-83555220D01*
X56800000Y-96089156D01*
X56780315Y-96156195D01*
X56727511Y-96201950D01*
X56658353Y-96211894D01*
X56594797Y-96182869D01*
X56559818Y-96132490D01*
X56513352Y-96007910D01*
X56427188Y-95892811D01*
X56312089Y-95806647D01*
X56177371Y-95756400D01*
X56121132Y-95750354D01*
X56114518Y-95750000D01*
X55470000Y-95750000D01*
X55470000Y-96664498D01*
X55362315Y-96615320D01*
X55255763Y-96600000D01*
X55184237Y-96600000D01*
X55077685Y-96615320D01*
X54970000Y-96664498D01*
X54970000Y-95750000D01*
X54325482Y-95750000D01*
X54318867Y-95750354D01*
X54262628Y-95756400D01*
X54127910Y-95806647D01*
X54012811Y-95892811D01*
X53926647Y-96007910D01*
X53876400Y-96142628D01*
X53870354Y-96198867D01*
X53870000Y-96205481D01*
X53870000Y-96396731D01*
X53850315Y-96463770D01*
X53797511Y-96509525D01*
X53728353Y-96519469D01*
X53664797Y-96490444D01*
X53647046Y-96471458D01*
X53533873Y-96321594D01*
X53376301Y-96177947D01*
X53195017Y-96065701D01*
X52996198Y-95988679D01*
X52979411Y-95985541D01*
X52786610Y-95949500D01*
X52573390Y-95949500D01*
X52433664Y-95975619D01*
X52363801Y-95988679D01*
X52164982Y-96065701D01*
X51983698Y-96177947D01*
X51826126Y-96321594D01*
X51697631Y-96491747D01*
X51602595Y-96682609D01*
X51544243Y-96887689D01*
X51533471Y-97003951D01*
X51507685Y-97068888D01*
X51463130Y-97100804D01*
X51499503Y-97121668D01*
X51531693Y-97183681D01*
X51533471Y-97196048D01*
X51544243Y-97312310D01*
X51602595Y-97517390D01*
X51697631Y-97708252D01*
X51769385Y-97803268D01*
X51826128Y-97878407D01*
X51983698Y-98022052D01*
X52164981Y-98134298D01*
X52363802Y-98211321D01*
X52573390Y-98250500D01*
X52573392Y-98250500D01*
X52786608Y-98250500D01*
X52786610Y-98250500D01*
X52996198Y-98211321D01*
X53195019Y-98134298D01*
X53376302Y-98022052D01*
X53533872Y-97878407D01*
X53647047Y-97728540D01*
X53703155Y-97686905D01*
X53772867Y-97682214D01*
X53834049Y-97715956D01*
X53867276Y-97777419D01*
X53870000Y-97803268D01*
X53870000Y-97994518D01*
X53870354Y-98001132D01*
X53876400Y-98057371D01*
X53926647Y-98192089D01*
X54012811Y-98307188D01*
X54127910Y-98393352D01*
X54262628Y-98443599D01*
X54318867Y-98449645D01*
X54325482Y-98450000D01*
X54970000Y-98450000D01*
X54970000Y-97535501D01*
X55077685Y-97584680D01*
X55184237Y-97600000D01*
X55255763Y-97600000D01*
X55362315Y-97584680D01*
X55470000Y-97535501D01*
X55470000Y-98450000D01*
X56114518Y-98450000D01*
X56121132Y-98449645D01*
X56177371Y-98443599D01*
X56312089Y-98393352D01*
X56427188Y-98307188D01*
X56513352Y-98192088D01*
X56559818Y-98067510D01*
X56601689Y-98011576D01*
X56667154Y-97987159D01*
X56735427Y-98002011D01*
X56784832Y-98051416D01*
X56800000Y-98110843D01*
X56800000Y-98576000D01*
X56780315Y-98643039D01*
X56727511Y-98688794D01*
X56676000Y-98700000D01*
X35924000Y-98700000D01*
X35856961Y-98680315D01*
X35811206Y-98627511D01*
X35800000Y-98576000D01*
X35800000Y-97100000D01*
X36284571Y-97100000D01*
X36304243Y-97312310D01*
X36362595Y-97517390D01*
X36457631Y-97708252D01*
X36529385Y-97803268D01*
X36586128Y-97878407D01*
X36743698Y-98022052D01*
X36924981Y-98134298D01*
X37123802Y-98211321D01*
X37333390Y-98250500D01*
X37333392Y-98250500D01*
X37546608Y-98250500D01*
X37546610Y-98250500D01*
X37756198Y-98211321D01*
X37955019Y-98134298D01*
X38136302Y-98022052D01*
X38293872Y-97878407D01*
X38422366Y-97708255D01*
X38422366Y-97708253D01*
X38422368Y-97708252D01*
X38513639Y-97524952D01*
X38517405Y-97517389D01*
X38575756Y-97312310D01*
X38586529Y-97196047D01*
X38612315Y-97131111D01*
X38656869Y-97099194D01*
X38620497Y-97078331D01*
X38588307Y-97016318D01*
X38586529Y-97003951D01*
X38575756Y-96887689D01*
X38542043Y-96769202D01*
X38517405Y-96682611D01*
X38513639Y-96675048D01*
X38422368Y-96491747D01*
X38293873Y-96321594D01*
X38136301Y-96177947D01*
X37955017Y-96065701D01*
X37756198Y-95988679D01*
X37739411Y-95985541D01*
X37546610Y-95949500D01*
X37333390Y-95949500D01*
X37193664Y-95975619D01*
X37123801Y-95988679D01*
X36924982Y-96065701D01*
X36743698Y-96177947D01*
X36586126Y-96321594D01*
X36457631Y-96491747D01*
X36362595Y-96682609D01*
X36304243Y-96887689D01*
X36284571Y-97100000D01*
X35800000Y-97100000D01*
X35800000Y-95200000D01*
X33224000Y-95200000D01*
X33156961Y-95180315D01*
X33111206Y-95127511D01*
X33100000Y-95076000D01*
X33100000Y-81024000D01*
X33119685Y-80956961D01*
X33172489Y-80911206D01*
X33224000Y-80900000D01*
X35800000Y-80900000D01*
X35800000Y-77424000D01*
X35819685Y-77356961D01*
X35872489Y-77311206D01*
X35924000Y-77300000D01*
X56676000Y-77300000D01*
X56743039Y-77319685D01*
G37*
%TD.AperFunction*%
%TA.AperFunction,Conductor*%
G36*
X51410675Y-82070185D02*
G01*
X51456430Y-82122989D01*
X51466925Y-82187756D01*
X51460354Y-82248869D01*
X51460000Y-82255481D01*
X51460000Y-82950000D01*
X52484722Y-82950000D01*
X52436375Y-83033740D01*
X52406190Y-83165992D01*
X52416327Y-83301265D01*
X52465887Y-83427541D01*
X52483797Y-83450000D01*
X51460000Y-83450000D01*
X51460000Y-84144518D01*
X51460354Y-84151132D01*
X51466400Y-84207371D01*
X51503736Y-84307471D01*
X51508720Y-84377163D01*
X51475235Y-84438486D01*
X51413912Y-84471971D01*
X51387554Y-84474805D01*
X50427915Y-84474805D01*
X50360876Y-84455120D01*
X50340234Y-84438486D01*
X49237087Y-83335339D01*
X49203602Y-83274016D01*
X49201672Y-83232715D01*
X49205645Y-83200000D01*
X49185140Y-83031128D01*
X49124818Y-82872070D01*
X49028183Y-82732071D01*
X48900852Y-82619266D01*
X48855044Y-82595224D01*
X48750224Y-82540209D01*
X48625764Y-82509533D01*
X48585056Y-82499500D01*
X48436965Y-82499500D01*
X48369926Y-82479815D01*
X48324171Y-82427011D01*
X48314227Y-82357853D01*
X48343252Y-82294297D01*
X48349284Y-82287819D01*
X48550284Y-82086819D01*
X48611607Y-82053334D01*
X48637965Y-82050500D01*
X51343636Y-82050500D01*
X51410675Y-82070185D01*
G37*
%TD.AperFunction*%
%TD*%
M02*
